<svg id="Layer_1" data-name="Layer 1" xmlns="http://www.w3.org/2000/svg" xmlns:xlink="http://www.w3.org/1999/xlink" viewBox="0 0 424.59 360.99"><defs><linearGradient id="linear-gradient" x1="140.75" y1="227.49" x2="88.43" y2="272.97" gradientUnits="userSpaceOnUse"><stop offset="0" stop-opacity="0"/><stop offset="0.99"/></linearGradient></defs><title>Analyze process</title><path d="M362.83,289.83c-14.65,16.27-30.22,31.66-48.69,43.26-37.5,23.56-83.42,29.33-127.7,30.08-67.72,1.13-133.55-17.6-161-85.29-9.07-22.39-12.53-46.87-11.32-71,1.06-21,5.72-42.06,16-60.37a125.78,125.78,0,0,1,11-16.28V259.3A30.53,30.53,0,0,0,71.7,289.83Z" transform="translate(-13.9 -2.22)" fill="#2f55d4" opacity="0.18" style="isolation:isolate"/><path d="M329.74,18.35H178.28A167.27,167.27,0,0,1,211.63,7.63c14.62-3,29.59-3.86,44.5-4.68,19.27-1.08,39.36-2,57.09,5.6A83.66,83.66,0,0,1,329.74,18.35Z" transform="translate(-13.9 -2.22)" fill="#2f55d4" opacity="0.18" style="isolation:isolate"/><path d="M438.49,49.19V259.62A30.52,30.52,0,0,1,408,290.14H71.7a30.53,30.53,0,0,1-30.52-30.52V49.19A30.53,30.53,0,0,1,71.7,18.67H408A30.52,30.52,0,0,1,438.49,49.19Z" transform="translate(-13.9 -2.22)" fill="#2f55d4" opacity="0.46" style="isolation:isolate"/><polygon points="109.88 200.77 121.67 176.02 148.88 191.93 130.15 230.58 115.54 222.45 109.88 200.77" fill="#2f55d4"/><polygon points="112.12 198.29 122.02 179.09 144.41 192.17 127.44 226.22 115.89 217.38 112.12 198.29" fill="#fff"/><path d="M125.23,261.39l7.86,48.39-7.86,48.39,4.4,3.45-7.22-.31.62-50-13.51-35.19-6.28,83.58,3.46,1.88-7.86-.31-4.4-79.18S90.67,262,96,258.56,125.23,261.39,125.23,261.39Z" transform="translate(-13.9 -2.22)" fill="#3e3e54"/><polygon points="217.44 215.67 144.89 143.12 79.67 195.44 56.15 194.35 144.89 120.93 217.44 193.48 283.25 125.49 338.15 159.95 383.53 114.57 394.62 125.66 339.79 180.12 285.46 146.11 217.44 215.67" fill="#2f55d4"/><circle cx="68.95" cy="194.3" r="16.68" fill="#2f55d4"/><circle cx="68.7" cy="194.23" r="11.52" fill="#fff"/><circle cx="217.8" cy="205.09" r="16.68" fill="#2f55d4"/><circle cx="217.55" cy="205.02" r="11.52" fill="#fff"/><circle cx="284.79" cy="135.9" r="16.68" fill="#2f55d4"/><circle cx="284.53" cy="135.83" r="11.52" fill="#fff"/><circle cx="146.74" cy="131.89" r="16.68" fill="#2f55d4"/><circle cx="146.49" cy="131.81" r="11.52" fill="#fff"/><polygon points="399.44 157.11 383.75 156.92 384.19 121.56 347.83 124.04 346.77 108.39 400.09 104.75 399.44 157.11" fill="#2f55d4"/><rect x="60.43" y="113.13" width="6.79" height="24.61" fill="#2f55d4"/><rect x="68.7" y="119.68" width="6.79" height="18.05" fill="#2f55d4"/><rect x="77.5" y="125.31" width="6.79" height="12.43" fill="#2f55d4"/><rect x="271.57" y="216.4" width="6.79" height="12.3" fill="#2f55d4"/><rect x="279.84" y="210.65" width="6.79" height="18.05" fill="#2f55d4"/><rect x="288.65" y="201.52" width="6.79" height="27.18" fill="#2f55d4"/><path d="M216.18,89.89c-1.73-4.73-2.1-10.55,1.2-14.35a12.35,12.35,0,0,1,5.24-3.37A16.58,16.58,0,0,1,238,74.29,13.8,13.8,0,0,1,243,88.6c-1.13,4-4.21,7.28-4.9,11.36-.3,1.76-.18,3.72-1.27,5.12-1.32,1.7-8.48,1.62-10.64,1.6C216.63,106.6,219.05,97.76,216.18,89.89Z" transform="translate(-13.9 -2.22)" fill="#2f55d4" opacity="0.18" style="isolation:isolate"/><path d="M216.18,89.89c-1.73-4.73-2.1-10.55,1.2-14.35a12.35,12.35,0,0,1,5.24-3.37A16.58,16.58,0,0,1,238,74.29,13.8,13.8,0,0,1,243,88.6c-1.13,4-4.21,7.28-4.9,11.36-.3,1.76-.18,3.72-1.27,5.12-1.32,1.7-8.48,1.62-10.64,1.6C216.63,106.6,219.05,97.76,216.18,89.89Z" transform="translate(-13.9 -2.22)" fill="#2f55d4" opacity="0.18" style="isolation:isolate"/><path d="M216.18,89.89c-1.73-4.73-2.1-10.55,1.2-14.35a12.35,12.35,0,0,1,5.24-3.37A16.58,16.58,0,0,1,238,74.29,13.8,13.8,0,0,1,243,88.6c-1.13,4-4.21,7.28-4.9,11.36-.3,1.76-.18,3.72-1.27,5.12-1.32,1.7-8.48,1.62-10.64,1.6C216.63,106.6,219.05,97.76,216.18,89.89Z" transform="translate(-13.9 -2.22)" fill="#2f55d4" opacity="0.18" style="isolation:isolate"/><path d="M216.18,89.89c-1.73-4.73-2.1-10.55,1.2-14.35a12.35,12.35,0,0,1,5.24-3.37A16.58,16.58,0,0,1,238,74.29,13.8,13.8,0,0,1,243,88.6c-1.13,4-4.21,7.28-4.9,11.36-.3,1.76-.18,3.72-1.27,5.12-1.32,1.7-8.48,1.62-10.64,1.6C216.63,106.6,219.05,97.76,216.18,89.89Z" transform="translate(-13.9 -2.22)" fill="#2f55d4" opacity="0.18" style="isolation:isolate"/><path d="M219.46,111.87a3.39,3.39,0,0,1,.31.93,8.74,8.74,0,0,1-.13,1.12A2.47,2.47,0,0,0,220.7,116a5.59,5.59,0,0,0,2.23.9,17.66,17.66,0,0,0,11.21-1.19c.64-.3,1.33-.72,1.45-1.41,0-.26,0-.52,0-.76a3.34,3.34,0,0,1,.47-.92,3.1,3.1,0,0,0-.36-3.54,1.69,1.69,0,0,0,.46-2.22,2.88,2.88,0,0,0-2.06-1.29,10,10,0,0,0-2.51,0c-2.86.25-7.46-1.18-10.08-.15C220,106.08,218.82,110.13,219.46,111.87Z" transform="translate(-13.9 -2.22)" fill="#3e3e54"/><path d="M225,107.76c-2-1.81-2.59-4.74-2.8-7.45a53,53,0,0,1-.14-5.49,2.28,2.28,0,0,1,.75-2,1.68,1.68,0,0,1,1.06-.17,3.73,3.73,0,0,1,2.68,2,7.5,7.5,0,0,1,.79,3.34c0,.86-.17,2-1,2.17a.38.38,0,0,1-.36-.06.5.5,0,0,1-.14-.27,8.34,8.34,0,0,1,.88-4.72c.33-.82.81-1.76,1.68-1.88a1.66,1.66,0,0,1,1.22.39,3.21,3.21,0,0,1,1,2.94,9.61,9.61,0,0,1-1.14,3l-.29.55a7.87,7.87,0,0,1,1.64-6.54,1.67,1.67,0,0,1,.69-.55c.63-.23,1.31.28,1.67.85a6.55,6.55,0,0,1,.7,4.3,18.83,18.83,0,0,1-3.77,9.49" transform="translate(-13.9 -2.22)" fill="none" stroke="#fff" stroke-miterlimit="10" stroke-width="0.84"/><path d="M96.64,188.81s19,2.12,23.72,5.58,9.59,8.87,9.59,13.27,1.88,26.08,1.88,26.08l7.86-18.22,4.4,2.51s-5,31.58-7.86,32.52-10.52-1.1-10.52-1.1l-.48,11.94S99.47,263.91,96,258.56,84.43,197.53,96.64,188.81Z" transform="translate(-13.9 -2.22)" fill="#2f55d4"/><path d="M113,182.84s-2.3,4.84-1.07,8.8c0,0-7.07-1-7.28-1.78s.89-8.25.07-10.53S113,182.84,113,182.84Z" transform="translate(-13.9 -2.22)" fill="#eea886"/><path d="M105.38,163.12c2.77-1.19,10.39-2.86,13.21,8.51s-1.46,11.92-5.9,12-11.9-7.16-12.6-9.48S97.46,166.53,105.38,163.12Z" transform="translate(-13.9 -2.22)" fill="#eea886"/><path d="M107.4,162.31s-12,.11-7.14,17.57c3.13,11.26-2.94,21.94-2.22,24s7,4.11,10.41,0-2.56-17.59.4-23.78,9.42-10.36,9.42-10.36S116.14,160.84,107.4,162.31Z" transform="translate(-13.9 -2.22)" fill="#fccca2"/><path d="M100.23,167s-2.87,5.27-.18,15.11c.93,3.43-7.91,18.47-1.25,22.73S110.49,172.74,100.23,167Z" transform="translate(-13.9 -2.22)" fill="#fccca2"/><path d="M140.09,210.25a3.14,3.14,0,0,1,.11-.92c.28-.84,1.17-1.3,1.63-2.05a4.14,4.14,0,0,0,.46-1.52,4,4,0,0,1,.37-1.37,1.24,1.24,0,0,1,1.17-.67c.64.09,1,.79,1.16,1.41a17.67,17.67,0,0,1-.45,11.42c-.21.54-.59,1.16-1.16,1.12a1.52,1.52,0,0,1-.55-.2c-1.15-.62-2.78-1.12-2.84-2.49C139.93,213.41,140.06,211.81,140.09,210.25Z" transform="translate(-13.9 -2.22)" fill="#eea886"/><rect x="148.41" y="248.49" width="254.5" height="10.37" rx="5.18" fill="#2f55d4"/><path d="M142.75,206.25l-5.34-5-.47.94,4.89,5.12S142.83,207,142.75,206.25Z" transform="translate(-13.9 -2.22)" fill="#2f55d4"/><path d="M125.71,249.45s-2.75-1.1-3.7-9.11-2.12-16.26-2.12-16.26v37.63h6.29Z" transform="translate(-13.9 -2.22)" fill="url(#linear-gradient)"/></svg>