<svg id="Layer_1" data-name="Layer 1" xmlns="http://www.w3.org/2000/svg" xmlns:xlink="http://www.w3.org/1999/xlink" width="546.23" height="483.93" viewBox="0 0 546.23 483.93">
  <defs>
    <linearGradient id="linear-gradient" x1="273.39" y1="560.04" x2="296.54" y2="163.2" gradientUnits="userSpaceOnUse">
      <stop offset="0" stop-opacity="0"/>
      <stop offset="0.99"/>
    </linearGradient>
    <linearGradient id="linear-gradient-2" x1="315.3" y1="201.7" x2="312.5" y2="309.75" xlink:href="#linear-gradient"/>
    <linearGradient id="linear-gradient-3" x1="311.37" y1="262.48" x2="274.75" y2="431.21" gradientTransform="translate(-3.5 1.03) rotate(-0.2)" xlink:href="#linear-gradient"/>
    <linearGradient id="linear-gradient-4" x1="299.52" y1="279.21" x2="279.93" y2="369.48" gradientTransform="translate(-3.5 1.03) rotate(-0.2)" xlink:href="#linear-gradient"/>
    <linearGradient id="linear-gradient-5" x1="196.36" y1="257.54" x2="202.15" y2="352.79" xlink:href="#linear-gradient"/>
    <linearGradient id="linear-gradient-6" x1="265.5" y1="468.38" x2="378.22" y2="297.1" gradientTransform="translate(-3.5 1.03) rotate(-0.2)" xlink:href="#linear-gradient"/>
    <linearGradient id="linear-gradient-7" x1="445.47" y1="211.63" x2="381.61" y2="393.65" gradientTransform="translate(-3.5 1.03) rotate(-0.2)" xlink:href="#linear-gradient"/>
    <linearGradient id="linear-gradient-8" x1="406.77" y1="198.36" x2="363.97" y2="322.56" gradientUnits="userSpaceOnUse">
      <stop offset="0.02" stop-color="#fff" stop-opacity="0"/>
      <stop offset="0.58" stop-color="#fff" stop-opacity="0.39"/>
      <stop offset="0.68" stop-color="#fff" stop-opacity="0.68"/>
      <stop offset="1" stop-color="#fff"/>
    </linearGradient>
    <linearGradient id="linear-gradient-9" x1="214.97" y1="291.34" x2="222.14" y2="291.34" gradientUnits="userSpaceOnUse">
      <stop offset="0" stop-color="#ecc4d7"/>
      <stop offset="0.42" stop-color="#efd4d1"/>
      <stop offset="1" stop-color="#f2eac9"/>
    </linearGradient>
    <linearGradient id="linear-gradient-10" x1="189.11" y1="291.93" x2="196.47" y2="291.93" xlink:href="#linear-gradient-9"/>
    <linearGradient id="linear-gradient-11" x1="197.49" y1="199.67" x2="151.24" y2="219.39" xlink:href="#linear-gradient"/>
    <linearGradient id="linear-gradient-12" x1="197.4" y1="207.37" x2="207.93" y2="207.37" xlink:href="#linear-gradient-9"/>
    <linearGradient id="linear-gradient-13" x1="195.23" y1="184.06" x2="203.77" y2="184.06" xlink:href="#linear-gradient-9"/>
    <linearGradient id="linear-gradient-14" x1="193.3" y1="172.92" x2="208.22" y2="172.92" xlink:href="#linear-gradient-9"/>
    <linearGradient id="linear-gradient-15" x1="217.58" y1="214.14" x2="217.58" y2="214.14" xlink:href="#linear-gradient-9"/>
    <linearGradient id="linear-gradient-16" x1="202.79" y1="186.53" x2="209.77" y2="186.53" xlink:href="#linear-gradient-9"/>
    <linearGradient id="linear-gradient-17" x1="186.1" y1="204.65" x2="138.95" y2="196.19" xlink:href="#linear-gradient"/>
    <linearGradient id="linear-gradient-18" x1="193.4" y1="305.2" x2="188.66" y2="292.3" xlink:href="#linear-gradient-8"/>
    <linearGradient id="linear-gradient-19" x1="219.55" y1="300.55" x2="221.92" y2="293.84" xlink:href="#linear-gradient-8"/>
    <linearGradient id="linear-gradient-20" x1="364.77" y1="252.49" x2="323.02" y2="333.88" xlink:href="#linear-gradient"/>
    <linearGradient id="linear-gradient-21" x1="267.72" y1="460.55" x2="377.02" y2="294.47" gradientTransform="translate(-3.5 1.03) rotate(-0.2)" xlink:href="#linear-gradient"/>
    <linearGradient id="linear-gradient-22" x1="405.55" y1="265.27" x2="276.79" y2="712.78" xlink:href="#linear-gradient-8"/>
    <linearGradient id="linear-gradient-23" x1="303.28" y1="476.85" x2="185.66" y2="212.41" xlink:href="#linear-gradient-8"/>
  </defs>
  <title>Analyze Data</title>
  <path d="M329.16,481.82c25-3.27,50-8.62,72.51-20,35.47-17.93,62-49.4,94.74-72,12.27-8.47,25.42-15.71,36.85-25.28C557.83,344,573.05,313,575.74,281.05s-6.82-64.54-25.12-90.86C533.81,166,510,146.93,495.8,121.11,487.73,106.4,483.12,90,475.63,75,453.36,30.34,404.18.47,354.26,1.3c-34.49.57-67.22,14.39-101,21.15A249.33,249.33,0,0,1,172,25.15c-18.09-2.39-36-6.77-54.21-7.39s-37.48,3-51.48,14.69C45.71,49.65,41.44,79.39,41.52,106.2a373.94,373.94,0,0,0,5.31,61.68c4.39,25.76,11.51,51.9,7.05,77.65-4,23.28-17.23,44.13-21.91,67.28-11,54.48,25.2,84,63.11,113.24,42.48,32.73,90.19,51.32,143.6,57.08A383,383,0,0,0,329.16,481.82Z" transform="translate(-29.97 -1.28)" fill="#2f55d4" opacity="0.18" style="isolation: isolate"/>
  <path d="M127.9,371.38H40.67s71.83,75.88,100.25,82.2S436.15,441,436.15,441l44.2-41.05,47.89-30.52-68.81.83Z" transform="translate(-29.97 -1.28)" fill="url(#linear-gradient)"/>
  <path d="M280,124.51h-1.45c.2-.59.39-1.19.57-1.79C279.43,123.31,279.72,123.9,280,124.51Z" transform="translate(-29.97 -1.28)" fill="#2f55d4"/>
  <path d="M280,124.51h-1.45c.2-.59.39-1.19.57-1.79C279.43,123.31,279.72,123.9,280,124.51Z" transform="translate(-29.97 -1.28)" fill="#2f55d4"/>
  <rect x="197.78" y="59.57" width="173.05" height="224.59" rx="12.58" fill="#2f55d4"/>
  <rect x="210.41" y="75.32" width="145.75" height="219.1" fill="#fff"/>
  <path d="M227.62,234.66s84.2-23.51,173,0v26.66l-173-10.87Z" transform="translate(-29.97 -1.28)" fill="url(#linear-gradient-2)"/>
  <g>
    <path d="M459.43,370.22c.11,29.87-74,54.36-165.57,54.68S128,401.26,127.9,371.39l-.27-75.74c22.83-21,93.86,21.31,165.85,21.06,55.2-.2,135.51-35.66,165.69-22.22Z" transform="translate(-29.97 -1.28)" fill="#2f55d4"/>
    <path d="M459.16,294.49l.27,75.72c.11,29.88-74,54.36-165.57,54.68S128,401.26,127.9,371.38l-.26-75.72c.1,29.87,74.4,53.83,166,53.51S459.27,324.36,459.16,294.49Z" transform="translate(-29.97 -1.28)" fill="url(#linear-gradient-3)"/>
    <path d="M459.16,294.49c.11,29.87-74,54.36-165.57,54.68s-165.85-23.64-165.95-53.51c22.82-21,93.85,21.31,165.84,21C348.69,316.52,429,281.05,459.16,294.49Z" transform="translate(-29.97 -1.28)" fill="url(#linear-gradient-4)"/>
    <path d="M459.16,294.49c0,.59,0,1.18-.08,1.77-2.75,29.07-75.75,52.59-165.49,52.91-91.55.32-165.85-23.64-165.95-53.51s74-54.36,165.57-54.69c15.28-.05,30.08.57,44.14,1.8C407.49,248.82,459.08,269.61,459.16,294.49Z" transform="translate(-29.97 -1.28)" fill="#2f55d4"/>
    <path d="M171,285c-3.38.11-7.35.56-9,3.5a62.92,62.92,0,0,0,19.27,5.62l.37,4.95q7.15.2,14.32,0c1.07,0,2.4-.24,2.75-1.26a4,4,0,0,0,0-1.43c-.11-3.09,4-5.39,6.58-3.66,1,.68,1.68,1.75,2.62,2.52,2.14,1.72,5.18,1.54,7.91,1.28l11.41-1.1-8.54-5.81,11.91-2.8c1.79-.42,4.07-1.67,3.46-3.4-.42-1.18-1.93-1.48-3.18-1.56-10-.68-19.22.6-29,2.07C192,285.45,181.12,284.7,171,285Z" transform="translate(-29.97 -1.28)" fill="url(#linear-gradient-5)"/>
    <path d="M459.09,296.23s0,0,0,0c-5.33,44.22-137.33,52.22-137.33,52.22L297.57,285l161.51,6.78Z" transform="translate(-29.97 -1.28)" fill="url(#linear-gradient-6)"/>
    <path d="M459.17,296.23l.26,74C460.11,415.43,322,423.26,322,423.26l-.26-74.78s132-8,137.33-52.22Z" transform="translate(-29.97 -1.28)" fill="url(#linear-gradient-7)"/>
  </g>
  <path d="M182.76,298.53a1.45,1.45,0,0,0,0,1.52c.46.92,11,2,13.68-.33s.72-4.08.72-4.08Z" transform="translate(-29.97 -1.28)" fill="#3f3d56"/>
  <path d="M228.7,297.48a1.45,1.45,0,0,1,.09,1.51c-.41.94-5.58,3-14.19-.26-3.33-1.24-.45-3.31-.45-3.31Z" transform="translate(-29.97 -1.28)" fill="#3f3d56"/>
  <path d="M459.16,284.76c0,.58,0,1.17-.08,1.76L297.57,275.28,337.35,233C407.49,239.09,459.08,259.87,459.16,284.76Z" transform="translate(-29.97 -1.28)" fill="#2f55d4"/>
  <path d="M459.16,284.76c0,.58,0,1.17-.08,1.76L297.57,275.28,337.35,233C407.49,239.09,459.08,259.87,459.16,284.76Z" transform="translate(-29.97 -1.28)" opacity="0.69" fill="url(#linear-gradient-8)" style="isolation: isolate"/>
  <g>
    <g>
      <path d="M221.69,287.74l.45,4.61s-1.77,2.68-4.08,2.85-3.09-.94-3.09-.94l.38-6.79" transform="translate(-29.97 -1.28)" fill="url(#linear-gradient-9)"/>
      <path d="M189.56,288.23l-.45,4.73s1.81,2.75,4.18,2.93,3.18-1,3.18-1l-.39-7" transform="translate(-29.97 -1.28)" fill="url(#linear-gradient-10)"/>
      <path d="M195.24,184.59s-9.17,4.42-9.38,5.88,1,37.14,1,37.14,3,3.86,12.09,3.86c9.34,0,12.31-2.61,12.16-3.91-.52-4.52,1.9-36.82,1.7-38.34s-8.67-4.61-8.67-4.61Z" transform="translate(-29.97 -1.28)" fill="#2f55d4"/>
      <path d="M200.94,207.24s-11,2-11.73,1.29-3.27-18.61-3.35-18.06c-.15,1,.46,18.18.81,27.73,5.66-1.71,17.52-7.73,17.52-7.73A12.59,12.59,0,0,0,200.94,207.24Z" transform="translate(-29.97 -1.28)" fill="url(#linear-gradient-11)"/>
      <path d="M200.82,205.49l.05,0a10.89,10.89,0,0,1,1.71-.85l.42-.18a5,5,0,0,1,.88-.29,1.94,1.94,0,0,1,.72,0c.11,0,.23.06.23.17a.21.21,0,0,1-.05.12,1,1,0,0,1-.43.32.4.4,0,0,0-.13.07.12.12,0,0,0,0,.14l.07,0a12,12,0,0,1,2.72.57c.47.2,1,.58.93,1.1a1.39,1.39,0,0,1-.61.83L206,208.55a5.65,5.65,0,0,1-1.38.9c-1.39.57-3.09,0-4.41.71-.45.25-1,.65-1.42.39a1.12,1.12,0,0,1-.37-.43c-.39-.67-1.39-2.28-.87-3a4.32,4.32,0,0,1,2.21-1.17A5,5,0,0,0,200.82,205.49Z" transform="translate(-29.97 -1.28)" fill="url(#linear-gradient-12)"/>
      <path d="M195.27,179s-.07,3.2,0,5.55c0,1.74.62,5.1,4.34,5.1s4.15-4.28,4.09-5.1a22.76,22.76,0,0,0,0-3.73C203.42,178.83,195.48,177.63,195.27,179Z" transform="translate(-29.97 -1.28)" fill="url(#linear-gradient-13)"/>
      <path d="M195.22,184.29a1.16,1.16,0,0,0-1.47.54c-.56.93-.59,2.8,0,5.36a9.74,9.74,0,0,0,1.09,3.21s2.44-3.44,4.15-3.58C199,189.82,195.61,189.15,195.22,184.29Z" transform="translate(-29.97 -1.28)" fill="#2f55d4"/>
      <path d="M203.69,184.29a1.16,1.16,0,0,1,1.47.54c.56.93.59,2.8,0,5.36a9.74,9.74,0,0,1-1.09,3.21s-2.44-3.44-4.15-3.58C199.92,189.82,203.3,189.15,203.69,184.29Z" transform="translate(-29.97 -1.28)" fill="#2f55d4"/>
      <path d="M186.9,227.61s-.68,5.29.62,26.78c1.22,20,1.56,34,1.56,34s.13,1.64,3.58,1.69,4.36-2.23,4.36-2.23l3.37-51.35,14.05,52.4s4.14,2.38,7.37.6c2.29-1.27-10.66-62-10.66-62A28.6,28.6,0,0,1,186.9,227.61Z" transform="translate(-29.97 -1.28)" fill="#3f3d56"/>
      <path d="M187.57,188.81a12.52,12.52,0,0,0-3.32,3.32c-1.46,2.14-3.85,20.13-2.75,25,.47,2.06,17.44-5.63,17.44-5.63s-.4-3.45-2.2-4.62c0,0-8.32,1.78-8.94,1.16S187.57,188.81,187.57,188.81Z" transform="translate(-29.97 -1.28)" fill="#2f55d4"/>
      <path d="M206.5,167.75s-.93,2.85-.07,4.21c3.2,5,1.38,4.5.19,4.6-.15,0,.06,1-.37,2.81-.34,1.45.68,4.76-3.79,3.37-1.28-.4-7.49-2.14-7.93-6-.55-4.8-3.49-10.88,2.32-12.91C203.82,161.4,206.09,163.29,206.5,167.75Z" transform="translate(-29.97 -1.28)" fill="url(#linear-gradient-14)"/>
      <path d="M203.75,183s-4.53-1.67-6.58-2.61c0,0,4.26,4.06,6.47,4Z" transform="translate(-29.97 -1.28)" fill="#b6765e"/>
      <path d="M212.85,189.22s6.34,15.8,6.66,18.78-3.49,4.45-5.19,4c-3.77-1.06-3.17-7.51-3.17-7.51Z" transform="translate(-29.97 -1.28)" fill="#2f55d4"/>
      <path d="M217.58,214.14" transform="translate(-29.97 -1.28)" fill="url(#linear-gradient-15)"/>
      <path d="M208.56,184.91a6.48,6.48,0,0,0-.81-1.33,1.1,1.1,0,0,0-.56-.39,4.53,4.53,0,0,0-.53-.05,2.67,2.67,0,0,1-.66-.21,2.83,2.83,0,0,0-1.88-.09,2,2,0,0,0-1.29,1.32.82.82,0,0,0,.09.72.57.57,0,0,0,.71.11,2.4,2.4,0,0,1-.11,1.12,3.45,3.45,0,0,0,0,1.5,2.15,2.15,0,0,0,.76,1.28c.66.52,1.61.55,2.28,1.07a2.52,2.52,0,0,0,.33.24,1.56,1.56,0,0,0,.64.13,2.09,2.09,0,0,0,1.29-.24c.21-.16.36-.39.58-.53a1.37,1.37,0,0,0,.23-.17c.2-.25.15-.83.17-1.14a2.6,2.6,0,0,0-.16-.95A15.35,15.35,0,0,0,208.56,184.91Z" transform="translate(-29.97 -1.28)" fill="url(#linear-gradient-16)"/>
      <path d="M219.51,208l-8.73-19.39-4.74,2.3L211.53,209s1.57,4.3,4.56,2.81S219.24,210.63,219.51,208Z" transform="translate(-29.97 -1.28)" fill="#2f55d4"/>
      <path d="M206.92,163.55a3,3,0,0,1-2.39,2.64,16.46,16.46,0,0,1-2.33,0,2.09,2.09,0,0,0-1.95,1.05c-.12.27-.15.6-.38.78s-.67.13-1,.2c-.89.19-1.11,1.34-1.14,2.25l-.1,3.3a10.89,10.89,0,0,0-1.44-1.52,2.58,2.58,0,0,0,1.1,4c-.55.35-.58,1.12-.63,1.76s-.31,1.45-1,1.53-.93-.34-1.25-.73a17.51,17.51,0,0,1-3.91-10.05,7.06,7.06,0,0,0-.23-1.78c-.13-.4-.35-.77-.51-1.17-.8-2.09.58-4.51,2.51-5.64s4.25-1.31,6.49-1.46l7.25-.47a1,1,0,0,1,.39,0c.56.13.67,1,.32,1.41-.7.93-1.09.39-.85,1.47C206.12,162,207,162.38,206.92,163.55Z" transform="translate(-29.97 -1.28)" fill="#3f3d56"/>
    </g>
    <polygon points="181.6 208.05 176.67 189.37 175.88 190.49 179.75 207.2 181.31 217.38 181.6 208.05" fill="url(#linear-gradient-17)"/>
    <path d="M211.12,227.25s-6.91,1.88-10.2,1.76-14-2.28-14-2.28-1.2,4.62-.57,5.09,3.85.17,8.41.35,7.34,2.26,11,2.18,5.82-5,5.82-5Z" transform="translate(-29.97 -1.28)" fill="#2f55d4"/>
    <path d="M189.47,291.88c-.3-.21-3.47,1.85-5.18,3-.9.62-1.88,1.4-1.91,2.49a2.29,2.29,0,0,0,1.25,1.93,5.53,5.53,0,0,0,2.34.57,30.43,30.43,0,0,0,7.84-.66c1.64-.32,3.53-.94,4-2.53a4.22,4.22,0,0,0-.21-2.5c-.27-.86-.81-2.46-1.31-1.92C195.43,293.2,192.69,294.1,189.47,291.88Z" transform="translate(-29.97 -1.28)" fill="#2f55d4"/>
    <path d="M222,291.4a16.61,16.61,0,0,1,5.13,2.88c.89.62,1.88,1.4,1.9,2.48a2.27,2.27,0,0,1-1.25,1.94,5.48,5.48,0,0,1-2.33.57,30.51,30.51,0,0,1-7.85-.66c-1.64-.32-3.53-.94-4-2.53a4.33,4.33,0,0,1,.21-2.51,3.74,3.74,0,0,1,1.27-1.9s2,1.57,3.29,1.63C219.37,293.35,222,291.4,222,291.4Z" transform="translate(-29.97 -1.28)" fill="#2f55d4"/>
    <path d="M189.47,291.88c-.3-.21-3.47,1.85-5.18,3-.9.62-1.88,1.4-1.91,2.49a2.29,2.29,0,0,0,1.25,1.93,5.53,5.53,0,0,0,2.34.57,30.43,30.43,0,0,0,7.84-.66c1.64-.32,3.53-.94,4-2.53a4.22,4.22,0,0,0-.21-2.5c-.27-.86-.81-2.46-1.31-1.92C195.43,293.2,192.69,294.1,189.47,291.88Z" transform="translate(-29.97 -1.28)" opacity="0.69" fill="url(#linear-gradient-18)" style="isolation: isolate"/>
    <path d="M222,291.4a16.61,16.61,0,0,1,5.13,2.88c.89.62,1.88,1.4,1.9,2.48a2.27,2.27,0,0,1-1.25,1.94,5.48,5.48,0,0,1-2.33.57,30.51,30.51,0,0,1-7.85-.66c-1.64-.32-3.53-.94-4-2.53a4.33,4.33,0,0,1,.21-2.51,3.74,3.74,0,0,1,1.27-1.9s2,1.57,3.29,1.63C219.37,293.35,222,291.4,222,291.4Z" transform="translate(-29.97 -1.28)" opacity="0.69" fill="url(#linear-gradient-19)" style="isolation: isolate"/>
  </g>
  <polygon points="267.61 274 267.61 283.73 429.11 294.98 429.11 285.24 267.61 274" fill="#2f55d4"/>
  <polygon points="267.61 274 267.61 283.73 429.11 294.98 429.11 285.24 267.61 274" fill="url(#linear-gradient-20)"/>
  <path d="M459.09,291.76v0C453.75,336,321.75,344,321.75,344l-24.18-63.47Z" transform="translate(-29.97 -1.28)" fill="url(#linear-gradient-21)"/>
  <path d="M321.75,344v79.25s76.86-5.12,105.45-20.73L425.45,324S383.46,339.51,321.75,344Z" transform="translate(-29.97 -1.28)" opacity="0.69" fill="url(#linear-gradient-22)" style="isolation: isolate"/>
  <path d="M297.74,282.81,194.6,338.86v75.25s67.47,16.72,127.15,9.15V348.48Z" transform="translate(-29.97 -1.28)" opacity="0.69" fill="url(#linear-gradient-23)" style="isolation: isolate"/>
  <rect x="253.7" y="50.77" width="61.83" height="18.42" rx="7.11" fill="#2f55d4"/>
  <rect x="255.45" y="52.24" width="58.16" height="19.05" rx="7.01" fill="#fff"/>
  <rect x="226.55" y="157.25" width="24.56" height="24.56" fill="#2f55d4" opacity="0.18" style="isolation: isolate"/>
  <rect x="226.55" y="190.93" width="24.56" height="24.56" fill="#2f55d4" opacity="0.18" style="isolation: isolate"/>
  <rect x="257.07" y="157.25" width="24.56" height="24.56" fill="#2f55d4" opacity="0.18" style="isolation: isolate"/>
  <rect x="257.07" y="190.93" width="24.56" height="24.56" fill="#2f55d4" opacity="0.18" style="isolation: isolate"/>
  <rect x="225.68" y="87.43" width="103.85" height="5.26" rx="2.63" fill="#2f55d4" opacity="0.18" style="isolation: isolate"/>
  <path d="M345.75,184.26h-26.2V157h26.2Zm-25.26-.94h24.32V157.94H320.49Z" transform="translate(-29.97 -1.28)" fill="#2f55d4"/>
  <path d="M345.75,219.34h-26.2V192.09h26.2Zm-25.26-.94h24.32V193H320.49Z" transform="translate(-29.97 -1.28)" fill="#2f55d4"/>
  <path d="M317.19,150.22H256.4V102.33a1.87,1.87,0,0,1,1.87-1.86h0a1.86,1.86,0,0,1,1.87,1.86v44.16h57.05a1.87,1.87,0,0,1,1.87,1.86h0A1.87,1.87,0,0,1,317.19,150.22Z" transform="translate(-29.97 -1.28)" fill="#2f55d4"/>
  <polygon points="229.53 125.32 244.62 110.24 268.48 129.18 277.95 121.46 287.25 130.76 287.25 145.21 230.18 145.21 229.53 125.32" fill="#2f55d4" opacity="0.18" style="isolation: isolate"/>
  <polygon points="297.51 167.47 304.88 174.18 328.82 149.71 305.4 168.91 300.4 163.91 297.51 167.47" fill="#2f55d4"/>
</svg>
