<svg id="Layer_1" data-name="Layer 1" xmlns="http://www.w3.org/2000/svg" xmlns:xlink="http://www.w3.org/1999/xlink" viewBox="0 0 823.74 566.69"><defs><linearGradient id="linear-gradient" x1="382.11" y1="155.62" x2="382.11" y2="2.14" gradientTransform="matrix(1, 0, 0, -1, -0.01, 566)" gradientUnits="userSpaceOnUse"><stop offset="0" stop-opacity="0.4"/><stop offset="1" stop-color="#fff" stop-opacity="0"/></linearGradient><linearGradient id="linear-gradient-2" x1="170.88" y1="589.34" x2="679.23" y2="15.87" gradientTransform="matrix(1, 0, 0, -1, -0.26, 549.93)" gradientUnits="userSpaceOnUse"><stop offset="0.02" stop-color="#fff" stop-opacity="0"/><stop offset="1" stop-color="#fff"/></linearGradient><linearGradient id="linear-gradient-3" x1="349.37" y1="-65.94" x2="367.46" y2="721" gradientTransform="matrix(1, 0, 0, -1, -0.01, 566)" xlink:href="#linear-gradient-2"/><linearGradient id="linear-gradient-4" x1="229.96" y1="-150.09" x2="248.05" y2="636.85" gradientTransform="matrix(1, 0, 0, -1, -0.01, 566)" xlink:href="#linear-gradient-2"/><linearGradient id="linear-gradient-5" x1="455.61" y1="-132.25" x2="473.7" y2="654.69" gradientTransform="matrix(1, 0, 0, -1, -0.01, 566)" xlink:href="#linear-gradient-2"/><linearGradient id="linear-gradient-6" x1="455.23" y1="-218.74" x2="473.32" y2="568.2" gradientTransform="matrix(1, 0, 0, -1, -0.01, 566)" xlink:href="#linear-gradient-2"/><linearGradient id="linear-gradient-7" x1="461.1" y1="-21.79" x2="479.19" y2="765.14" gradientTransform="matrix(1, 0, 0, -1, -0.01, 566)" xlink:href="#linear-gradient-2"/><linearGradient id="linear-gradient-8" x1="536.01" y1="-26.9" x2="332.05" y2="520.48" gradientTransform="matrix(1, 0, 0, -1, -0.26, 549.93)" gradientUnits="userSpaceOnUse"><stop offset="0.58"/><stop offset="0.78" stop-opacity="0.16"/></linearGradient><linearGradient id="linear-gradient-9" x1="370.6" y1="-88.54" x2="166.64" y2="458.85" xlink:href="#linear-gradient-8"/><linearGradient id="linear-gradient-10" x1="613.79" y1="2.08" x2="409.83" y2="549.47" xlink:href="#linear-gradient-8"/><linearGradient id="linear-gradient-11" x1="449.43" y1="395.23" x2="467.14" y2="395.23" gradientTransform="matrix(1, 0, 0, -1, -0.26, 549.93)" gradientUnits="userSpaceOnUse"><stop offset="0" stop-color="#ecc4d7"/><stop offset="0.42" stop-color="#efd4d1"/><stop offset="1" stop-color="#f2eac9"/></linearGradient><linearGradient id="linear-gradient-12" x1="433.56" y1="373.53" x2="441.9" y2="373.53" xlink:href="#linear-gradient-11"/><linearGradient id="linear-gradient-13" x1="437.6" y1="383.41" x2="454.31" y2="377.03" gradientTransform="matrix(1, 0, 0, -1, -0.01, 566)" gradientUnits="userSpaceOnUse"><stop offset="0" stop-opacity="0"/><stop offset="0.91" stop-opacity="0.8"/><stop offset="1"/></linearGradient><linearGradient id="linear-gradient-14" x1="421.12" y1="344.16" x2="472.68" y2="347.03" gradientTransform="matrix(1, 0, 0, -1, -0.26, 549.93)" gradientUnits="userSpaceOnUse"><stop offset="0.36" stop-color="#00272e"/><stop offset="1" stop-color="#69b9eb" stop-opacity="0"/></linearGradient><linearGradient id="linear-gradient-15" x1="264.4" y1="125.56" x2="284.66" y2="125.56" xlink:href="#linear-gradient-11"/><linearGradient id="linear-gradient-16" x1="297.8" y1="105.26" x2="306.13" y2="105.26" xlink:href="#linear-gradient-11"/><linearGradient id="linear-gradient-17" x1="308.7" y1="72.39" x2="273.72" y2="76.76" xlink:href="#linear-gradient-14"/><linearGradient id="linear-gradient-18" x1="295.79" y1="448.27" x2="291.14" y2="460.63" gradientTransform="matrix(1, 0, 0, 1, 0, 0)" xlink:href="#linear-gradient-13"/></defs><title>4. Building Website</title><path d="M735.14,114.12c7.87,44.81-37.12,89-23.22,132.28,8,25,32,40.59,52.69,56.67,32.88,25.5,63.22,62.55,58.68,103.91-4.91,44.61-47.39,76.15-89.61,91.36C575.31,555.34,33,655.47.86,402.72c-6.12-48.31,21.63-96.18,52.77-133.62C78.4,239.33,216.37,105.53,266.8,80.55,491.44-30.76,712-17.78,735.14,114.12Z" transform="translate(-0.01 0)" fill="#2f55d4" opacity="0.18" style="isolation:isolate"/><path d="M460,49.43s297-2.59,247.18,118.9c-38.59,94,5.51,100.89,19.3,146.35S724.22,411.93,691,436.47,524.83,456.67,524.83,493s-37,23.07-37,23.07H254.93l42.54-128.28Z" transform="translate(-0.01 0)" fill="#000405" opacity="0.05" style="isolation:isolate"/><rect x="254.92" y="501.86" width="250.01" height="14.25" fill="#2f55d4"/><rect x="297.46" y="387.82" width="169.28" height="114.04" fill="#2f55d4"/><rect x="297.46" y="387.82" width="169.28" height="114.04" fill="#2f55d4"/><rect x="297.46" y="387.82" width="169.28" height="114.04" fill="url(#linear-gradient)"/><path d="M691,65.18V363.84A65.16,65.16,0,0,1,625.8,429H129.74a65.16,65.16,0,0,1-65.16-65.16V65.18A65.17,65.17,0,0,1,129.74,0h496A65.18,65.18,0,0,1,691,65.14Z" transform="translate(-0.01 0)" fill="#2f55d4"/><path d="M691,65.18v283H64.65v-283A65.17,65.17,0,0,1,129.81,0H625.74A65.18,65.18,0,0,1,691,65.14Z" transform="translate(-0.01 0)" fill="url(#linear-gradient-2)"/><rect x="140.26" y="59.05" width="442.54" height="87.27" fill="url(#linear-gradient-3)"/><rect x="140.26" y="157.46" width="201.02" height="175.77" fill="url(#linear-gradient-4)"/><rect x="355.48" y="157.46" width="223.75" height="58.7" fill="url(#linear-gradient-5)"/><rect x="355.48" y="227.3" width="223.75" height="58.7" fill="url(#linear-gradient-6)"/><rect x="355.48" y="297.14" width="223.75" height="36.09" fill="url(#linear-gradient-7)"/><g id="V3"><g id="v3.v1"><g id="build-pixels-copy"><path d="M483,543.37h9.55L463.12,173.14l-8.07,2.17,1.83,24.19-29,1.83-2.23-28.19-8.07,2.17L445.5,543.37h9.55l-3.33-42,28-1.72L479.3,493l-28.11,1.73-2.39-30,28.74-1.82-.41-6.63-28.85,1.78L445.9,428l28.18-1.79ZM428.41,207.93l29-1.85,2.28,30.06L430.82,238Zm2.91,36.66,28.85-1.85,2.28,30.19-28.71,1.8Zm2.93,36.73,28.7-1.84,2.44,32.09-28.65,1.74Zm3.06,38.6,28.58-1.71,2.12,28L439.54,348Zm2.75,34.72,28.45-1.81,2.28,30.1-28.34,1.79Zm5.31,66.77-2.4-30.1,28.33-1.81,2.28,30.12Z" transform="translate(-0.01 0)" fill="#2f55d4"/><path d="M239.82,196.65V173.14h-5.89v23.51H205.28v7.28h28.65V529.42h5.89V241.83l34.92-37.9h26.74v-7.32Zm0,34.89V203.93h26.56Z" transform="translate(-0.01 0)" fill="#2f55d4"/><path d="M530.74,196.65V173.14h-5.89v23.51H468.26v7.28h24.57l32,34.7V529.42h5.91V203.93h33.74v-7.32Zm-5.89,31.87-23.67-24.59h23.65Z" transform="translate(-0.01 0)" fill="#2f55d4"/><g opacity="0.61"><path d="M483,543.37h9.55L463.12,173.14l-8.07,2.17,1.83,24.19-29,1.83-2.23-28.19-8.07,2.17L445.5,543.37h9.55l-3.33-42,28-1.72L479.3,493l-28.11,1.73-2.39-30,28.74-1.82-.41-6.63-28.85,1.78L445.9,428l28.18-1.79ZM428.41,207.93l29-1.85,2.28,30.06L430.82,238Zm2.91,36.66,28.85-1.85,2.28,30.19-28.71,1.8Zm2.93,36.73,28.7-1.84,2.44,32.09-28.65,1.74Zm3.06,38.6,28.58-1.71,2.12,28L439.54,348Zm2.75,34.72,28.45-1.81,2.28,30.1-28.34,1.79Zm5.31,66.77-2.4-30.1,28.33-1.81,2.28,30.12Z" transform="translate(-0.01 0)" fill="url(#linear-gradient-8)"/><path d="M239.82,196.65V173.14h-5.89v23.51H205.28v7.28h28.65V529.42h5.89V241.83l34.92-37.9h26.74v-7.32Zm0,34.89V203.93h26.56Z" transform="translate(-0.01 0)" fill="url(#linear-gradient-9)"/><path d="M530.74,196.65V173.14h-5.89v23.51H468.26v7.28h24.57l32,34.7V529.42h5.91V203.93h33.74v-7.32Zm-5.89,31.87-23.67-24.59h23.65Z" transform="translate(-0.01 0)" fill="url(#linear-gradient-10)"/></g><path d="M469.14,271.57l-.68,6.1H454.37s-1.15-3.52,1.42-4.4a24,24,0,0,1,4.34-1.09Z" transform="translate(-0.01 0)" fill="#2f55d4"/><path d="M449.49,145.23a45.81,45.81,0,0,0,1,16.33,7.21,7.21,0,0,0,6.77,2.71v4.06H464L466.88,148S456.27,134.46,449.49,145.23Z" transform="translate(-0.01 0)" fill="url(#linear-gradient-11)"/><path d="M454.24,147.26a20.1,20.1,0,0,1,2,6.78s1.35-2.71,2-1.36-1.35,4.07-1.35,4.07l2,3.38h6.85s3.39-14.83,1.49-16.87-3.18-2-3.18-2,0-2-4.07-2-9.48,0-11.51,3.39-2.71,2-2.71,2,1.15,2.51,2.91,1.9C449.09,146.45,453.56,145.23,454.24,147.26Z" transform="translate(-0.01 0)" fill="#333"/><path d="M457.28,168.33h11.39s4.81,1,5.48,12.53a227.52,227.52,0,0,1,0,23.65v18.9l-5.48-1.83-20.33,4.54-2-27.71a14.66,14.66,0,0,1-10.46-6.48,16.83,16.83,0,0,1-1.76-15.24l14.15,7.45.75-4a17,17,0,0,1,6.77-10.78Z" transform="translate(-0.01 0)" fill="#2f55d4"/><polygon points="436 172.94 432.62 162.1 446.1 160.06 450.64 174.83 448.26 184.14 440.18 179.93 436 172.94" fill="#fcfdff"/><path d="M433.3,179a10.67,10.67,0,0,1,2.71-6.09l.68.67H441l.68,2.65-1.56,2.23A5.88,5.88,0,0,1,433.3,179Z" transform="translate(-0.01 0)" fill="url(#linear-gradient-12)"/><polygon points="440.18 179.93 443.39 188.45 448.26 184.14 440.18 179.93" fill="url(#linear-gradient-13)"/><path d="M446.11,197.93S457,193.86,457,187.09l2.72,31.11-11.53,2.73Z" transform="translate(-0.01 0)" opacity="0.61" fill="url(#linear-gradient-14)" style="isolation:isolate"/><polygon points="448.13 220.9 446.1 254.64 448.81 272.25 456.94 272.25 458.29 243.19 463.03 230.99 459.65 272.25 469.13 272.93 473.8 218.19 468.45 216.16 448.13 220.9" fill="#333"/><path d="M456.54,272.25V279l-14.29-5.1s0-3.73,2.77-3.73a23.09,23.09,0,0,1,4.47.41Z" transform="translate(-0.01 0)" fill="#2f55d4"/><path d="M270,539.85l.7,6.08h14.1s1.15-3.52-1.43-4.4a23.05,23.05,0,0,0-4.33-1.08Z" transform="translate(-0.01 0)" fill="#2f55d4"/><path d="M279.79,412.21a46,46,0,0,1,4.61,15.59c-.81,3.86-5.56,4.74-5.56,4.74l1.29,3.86-6.77,2.37-9.22-18.29S269.9,404.15,279.79,412.21Z" transform="translate(-0.01 0)" fill="url(#linear-gradient-15)"/><path d="M275.93,415.67a19.73,19.73,0,0,0,0,6.77s-2.17-2.1-2.37-.61,2.57,3.39,2.57,3.39l-.81,3.86-6.16,2.1s-8-13-6.78-15.51,1.83-2.78,1.83-2.78-.68-1.9,3.18-3.25,9-3,12-.47,3.18,1,3.18,1,0,2.71-2.17,2.78C280.61,413.23,275.93,413.5,275.93,415.67Z" transform="translate(-0.01 0)" fill="#333"/><path d="M282.23,436.47H270.85s-4.81,1-5.49,12.53a227.33,227.33,0,0,0,0,23.64v18.9l5.49-1.83,20.32,4.54,2-27.7a14.78,14.78,0,0,0,10.23-6.91,16.91,16.91,0,0,0,1.76-15.25L291,451.84l-.75-4a17,17,0,0,0-6.77-10.77Z" transform="translate(-0.01 0)" fill="#2f55d4"/><polygon points="303.16 441.14 306.54 430.37 292.99 428.34 288.52 443.11 290.96 451.98 299.09 447.92 303.16 441.14" fill="#fcfdff"/><path d="M305.87,447.31a10.57,10.57,0,0,0-2.71-6.1l-.67.68h-4.27l-.68,2.64,1.56,2.23A5.88,5.88,0,0,0,305.87,447.31Z" transform="translate(-0.01 0)" fill="url(#linear-gradient-16)"/><path d="M293,466.41s-10.84-4.06-10.84-10.84l.88,36.72,7.93,1.76Z" transform="translate(-0.01 0)" opacity="0.61" fill="url(#linear-gradient-17)" style="isolation:isolate"/><polygon points="290.96 489.17 292.99 522.91 290.35 540.52 282.22 540.52 280.87 511.46 276.12 499.26 279.51 540.52 270.03 541.2 265.29 486.46 270.7 484.43 290.96 489.17" fill="#333"/><path d="M282.64,540.52v4.75l14.83-.68s-.67-4.74-3.38-4.74a8.28,8.28,0,0,1-4.2-1Z" transform="translate(-0.01 0)" fill="#2f55d4"/><path d="M522.25,145.93H487.63a17.82,17.82,0,0,1-17.81-17.82v-7.59a17.81,17.81,0,0,1,17.81-17.81h34.62a17.81,17.81,0,0,1,17.82,17.8h0v7.59a17.82,17.82,0,0,1-17.82,17.82Z" transform="translate(-0.01 0)" fill="#fff"/><path d="M473.81,155.32s14.16.68,17.55-9.48h10.5S494.82,158.71,473.81,155.32Z" transform="translate(-0.01 0)" fill="#fff"/><path d="M481.81,109.39h47.56a1.22,1.22,0,0,1,1.22,1.22v1a1.22,1.22,0,0,1-1.22,1.22H481.81a1.22,1.22,0,0,1-1.22-1.22h0v-1A1.22,1.22,0,0,1,481.81,109.39Z" transform="translate(-0.01 0)" fill="#020202" opacity="0.15" style="isolation:isolate"/><path d="M481.81,117.52h47.56a1.22,1.22,0,0,1,1.22,1.22v1a1.22,1.22,0,0,1-1.22,1.22H481.81a1.22,1.22,0,0,1-1.22-1.22h0v-1a1.22,1.22,0,0,1,1.22-1.22Z" transform="translate(-0.01 0)" fill="#020202" opacity="0.15" style="isolation:isolate"/><path d="M481.81,125.58h47.56a1.22,1.22,0,0,1,1.22,1.22v1a1.22,1.22,0,0,1-1.22,1.22H481.81a1.22,1.22,0,0,1-1.22-1.22h0v-1a1.22,1.22,0,0,1,1.22-1.22Z" transform="translate(-0.01 0)" fill="#020202" opacity="0.15" style="isolation:isolate"/><path d="M481.81,133.71h25.93a1.22,1.22,0,0,1,1.21,1.22v1a1.22,1.22,0,0,1-1.21,1.22H481.81a1.22,1.22,0,0,1-1.22-1.22h0v-1a1.22,1.22,0,0,1,1.22-1.22Z" transform="translate(-0.01 0)" fill="#020202" opacity="0.15" style="isolation:isolate"/><path d="M206.63,416.14h34.62A17.8,17.8,0,0,0,259,398.66v-7.92a17.81,17.81,0,0,0-17.81-17.81H206.63a17.82,17.82,0,0,0-17.82,17.82v7.92A17.82,17.82,0,0,0,206.63,416.14Z" transform="translate(-0.01 0)" fill="#fff"/><path d="M254.93,425.76s-14.16.68-17.55-9.48H227S233.74,429,254.93,425.76Z" transform="translate(-0.01 0)" fill="#fff"/><path d="M246.94,383H199.38a1.22,1.22,0,0,1-1.22-1.22h0v-.95a1.22,1.22,0,0,1,1.22-1.22h47.56a1.22,1.22,0,0,1,1.22,1.22h0v.95a1.22,1.22,0,0,1-1.22,1.22Z" transform="translate(-0.01 0)" fill="#020202" opacity="0.15" style="isolation:isolate"/><path d="M246.94,391.21H199.38a1.22,1.22,0,0,1-1.22-1.22h0V389a1.22,1.22,0,0,1,1.22-1.21h47.56a1.22,1.22,0,0,1,1.22,1.21V390a1.22,1.22,0,0,1-1.22,1.22Z" transform="translate(-0.01 0)" fill="#020202" opacity="0.15" style="isolation:isolate"/><path d="M246.94,399.27H199.38a1.22,1.22,0,0,1-1.22-1.21v-.95a1.22,1.22,0,0,1,1.22-1.22h47.56a1.22,1.22,0,0,1,1.22,1.22h0v.95A1.22,1.22,0,0,1,246.94,399.27Z" transform="translate(-0.01 0)" fill="#020202" opacity="0.15" style="isolation:isolate"/><path d="M246.94,407.4H221a1.22,1.22,0,0,1-1.22-1.22h0v-.94A1.22,1.22,0,0,1,221,404h25.95a1.22,1.22,0,0,1,1.22,1.22h0v.94a1.22,1.22,0,0,1-1.22,1.22Z" transform="translate(-0.01 0)" fill="#020202" opacity="0.15" style="isolation:isolate"/><path d="M299.1,447.92s-2.27,9.48-5,8.13A6.35,6.35,0,0,1,291,452Z" transform="translate(-0.01 0)" fill="url(#linear-gradient-18)"/></g></g></g></svg>