<svg id="Layer_1" data-name="Layer 1" xmlns="http://www.w3.org/2000/svg" xmlns:xlink="http://www.w3.org/1999/xlink" viewBox="0 0 503.23 356.2"><defs><linearGradient id="linear-gradient" x1="367.96" y1="204.3" x2="400.7" y2="226.2" gradientTransform="translate(-10.75 20.66) rotate(-3.16)" gradientUnits="userSpaceOnUse"><stop offset="0" stop-color="#010101" stop-opacity="0"/><stop offset="0.95" stop-color="#010101"/></linearGradient><linearGradient id="linear-gradient-2" x1="369.47" y1="200.24" x2="368.09" y2="216.08" gradientTransform="translate(-10.47 20.65) rotate(-3.16)" xlink:href="#linear-gradient"/><linearGradient id="linear-gradient-3" x1="371.11" y1="192.11" x2="369.63" y2="221.98" gradientTransform="translate(-10.2 20.72) rotate(-3.16)" xlink:href="#linear-gradient"/><linearGradient id="linear-gradient-4" x1="311.84" y1="211.59" x2="443.51" y2="211.59" gradientTransform="matrix(1, 0, 0, 1, 0, 0)" xlink:href="#linear-gradient"/><linearGradient id="linear-gradient-5" x1="310.25" y1="214.89" x2="441.92" y2="214.89" gradientTransform="matrix(1, 0, 0, 1, 0, 0)" xlink:href="#linear-gradient"/><linearGradient id="linear-gradient-6" x1="412.57" y1="267.57" x2="399.53" y2="186.96" gradientUnits="userSpaceOnUse"><stop offset="0" stop-color="#e5c6d6"/><stop offset="0.42" stop-color="#ead4d0"/><stop offset="1" stop-color="#f0e9cb"/></linearGradient><linearGradient id="linear-gradient-7" x1="191.55" y1="220.08" x2="154.69" y2="192.01" gradientTransform="matrix(1, 0, 0, 1, 0, 0)" xlink:href="#linear-gradient"/><linearGradient id="linear-gradient-8" x1="186.34" y1="117.44" x2="194.47" y2="117.44" xlink:href="#linear-gradient-6"/><linearGradient id="linear-gradient-9" x1="191.6" y1="119.21" x2="191.95" y2="101.7" gradientTransform="matrix(1, 0, 0, 1, 0, 0)" xlink:href="#linear-gradient"/><linearGradient id="linear-gradient-10" x1="186.84" y1="109.41" x2="201.58" y2="109.41" xlink:href="#linear-gradient-6"/><linearGradient id="linear-gradient-11" x1="196.07" y1="108.22" x2="186.82" y2="97.27" gradientTransform="matrix(1, 0, 0, 1, 0, 0)" xlink:href="#linear-gradient"/><linearGradient id="linear-gradient-12" x1="240.63" y1="137.24" x2="254.17" y2="137.24" xlink:href="#linear-gradient-6"/><linearGradient id="linear-gradient-13" x1="168.14" y1="142.45" x2="134.26" y2="103.05" gradientUnits="userSpaceOnUse"><stop offset="0" stop-color="#fff" stop-opacity="0"/><stop offset="0.95" stop-color="#fff"/></linearGradient><linearGradient id="linear-gradient-14" x1="204.86" y1="172.81" x2="-63.92" y2="-141.04" gradientTransform="matrix(1, 0, 0, 1, 0, 0)" xlink:href="#linear-gradient"/><linearGradient id="linear-gradient-15" x1="145.38" y1="168.02" x2="152.52" y2="168.02" xlink:href="#linear-gradient-6"/><linearGradient id="linear-gradient-16" x1="242.96" y1="119.53" x2="248.75" y2="119.69" gradientTransform="matrix(1, 0, 0, 1, 0, 0)" xlink:href="#linear-gradient"/><linearGradient id="linear-gradient-17" x1="152.28" y1="128.38" x2="192.53" y2="128.38" gradientTransform="matrix(1, 0, 0, 1, 0, 0)" xlink:href="#linear-gradient"/><linearGradient id="linear-gradient-18" x1="189.22" y1="110.34" x2="193.38" y2="110.22" gradientTransform="matrix(1, 0, 0, 1, 0, 0)" xlink:href="#linear-gradient"/><linearGradient id="linear-gradient-19" x1="166.34" y1="189" x2="193.69" y2="185.03" gradientTransform="translate(18.59 -13.77) rotate(5.39)" xlink:href="#linear-gradient"/><linearGradient id="linear-gradient-20" x1="150.41" y1="160.98" x2="150.05" y2="211.66" gradientTransform="matrix(1, 0, 0, 1, 0, 0)" xlink:href="#linear-gradient"/><linearGradient id="linear-gradient-21" x1="477.13" y1="238.63" x2="546.33" y2="305.38" gradientTransform="matrix(1, 0, 0, 1, 0, 0)" xlink:href="#linear-gradient"/><linearGradient id="linear-gradient-22" x1="165.23" y1="84.27" x2="358.25" y2="98.74" gradientTransform="matrix(1, 0, 0, 1, 0, 0)" xlink:href="#linear-gradient"/></defs><title>Career 1</title><path d="M490.66,255.28a146.83,146.83,0,0,1-10.54,11.63c-10.37,10.39-21.91,19.7-32.21,30.18-17.16,17.43-30.81,38-47.7,55.68s-38.3,32.83-62.65,34.86c-18.88,1.57-37.4-4.9-56.16-7.71-62.62-9.36-127.9,22-188.74,4.29C56.1,373.61,25.32,344.82,12.3,309s-7.94-77.6,13.23-109.23c12.27-18.34,29.28-33,43.17-50.06,31.24-38.48,50.54-92.5,97.3-109,14.47-5.11,30.09-5.8,45.44-6.47,35.83-1.54,74-2.5,104.64,16.13,22.6,13.81,38,36.53,56.52,55.41,21.63,22,44.29,34.77,72.56,44.22,25,8.37,55,21.6,61.93,49.88a42.42,42.42,0,0,1,.91,4.86C510.39,222.69,502.14,241.05,490.66,255.28Z" transform="translate(-5.18 -33.52)" fill="#2f55d4" opacity="0.24" style="isolation:isolate"/><path d="M231.28,164.39c-25.15-7.94-53.5-12.66-77.15-1-30.55,15.12-43.38,52.32-70.42,73.09-6.47,5-13.85,9.08-18.68,15.66C61.45,257.07,59.54,263,58.54,269c-3.27,19.68,3.38,40.63,17,55.24s33.71,22.72,53.65,22.22,38.56-8.92,57.93-13.34c60.09-13.73,121.82,11.54,183.44,13.11,14.6.37,30.71-1.23,40.89-11.72,11.93-12.3,11.4-32.3,21.05-46.46,5.33-7.82,13.37-13.28,20.22-19.81s12.91-15.15,12.2-24.59c-.77-10.15-9.3-18.24-18.65-22.3s-19.67-5.09-29.55-7.55c-19.62-4.87-37.33-15.29-56-23C339,182,321,183.92,298.66,183,275.58,182.09,253,171.25,231.28,164.39Z" transform="translate(-5.18 -33.52)" fill="#2f55d4" opacity="0.24" style="isolation:isolate"/><rect x="353.3" y="202.98" width="32.53" height="4.78" rx="1.79" transform="translate(6.69 -53.56) rotate(3.16)" fill="#2f55d4"/><rect x="353.3" y="202.98" width="32.53" height="4.78" rx="1.79" transform="translate(6.69 -53.56) rotate(3.16)" fill="url(#linear-gradient)"/><rect x="353.19" y="197.98" width="32.53" height="4.78" rx="1.79" transform="translate(6.41 -53.56) rotate(3.16)" fill="#2f55d4"/><rect x="353.19" y="197.98" width="32.53" height="4.78" rx="1.79" transform="translate(6.41 -53.56) rotate(3.16)" fill="url(#linear-gradient-2)"/><rect x="354.68" y="193.09" width="32.53" height="4.78" rx="1.79" transform="translate(6.15 -53.65) rotate(3.16)" fill="#2f55d4"/><rect x="354.68" y="193.09" width="32.53" height="4.78" rx="1.79" transform="translate(6.15 -53.65) rotate(3.16)" fill="url(#linear-gradient-3)"/><path d="M365,206.93c-17.84-1.7-36.39-2.49-53.13,3.9l7.66,3.63a6.68,6.68,0,0,0,2.73.84,7.57,7.57,0,0,0,2.93-.84c6.27-2.59,13.28-2.61,20.07-2.34,27.94,1.11,55.73,6.39,83.66,5.15,5-.23,10.1-.69,14.62-2.81-6.78-2.07-13.75-4.91-20.7-6.29-5.23-1-10.32.81-15.65,1.13C392.92,210.15,379.08,206.93,365,206.93Z" transform="translate(-5.18 -33.52)" fill="url(#linear-gradient-4)"/><path d="M367.77,208.12c-17.84-1.7-36.39-2.49-53.13,3.9l7.66,3.63a6.68,6.68,0,0,0,2.73.84,7.74,7.74,0,0,0,2.93-.84c6.27-2.6,13.28-2.61,20.07-2.34,27.94,1.11,55.73,6.39,83.66,5.14,5-.22,10.1-.68,14.62-2.81-6.78-2.06-13.75-4.91-20.7-6.28-5.23-1-10.32.81-15.65,1.13C395.72,211.33,381.88,208.12,367.77,208.12Z" transform="translate(-5.18 -33.52)" fill="#2f55d4"/><path d="M363.37,210.23c-17.84-1.71-36.38-2.49-53.12,3.9l7.65,3.63a6.73,6.73,0,0,0,2.73.84,7.64,7.64,0,0,0,2.93-.84c6.28-2.6,13.29-2.61,20.08-2.34,27.93,1.11,55.73,6.39,83.66,5.14,5-.22,10.1-.68,14.62-2.81-6.79-2.06-13.75-4.91-20.71-6.28-5.22-1-10.31.81-15.65,1.12C391.32,213.44,377.49,210.23,363.37,210.23Z" transform="translate(-5.18 -33.52)" fill="#2f55d4"/><path d="M363.37,210.23c-17.84-1.71-36.38-2.49-53.12,3.9l7.65,3.63a6.73,6.73,0,0,0,2.73.84,7.64,7.64,0,0,0,2.93-.84c6.28-2.6,13.29-2.61,20.08-2.34,27.93,1.11,55.73,6.39,83.66,5.14,5-.22,10.1-.68,14.62-2.81-6.79-2.06-13.75-4.91-20.71-6.28-5.22-1-10.31.81-15.65,1.12C391.32,213.44,377.49,210.23,363.37,210.23Z" transform="translate(-5.18 -33.52)" fill="url(#linear-gradient-5)"/><path d="M366.17,211.42c-17.84-1.71-36.38-2.5-53.12,3.9L320.7,219a6.73,6.73,0,0,0,2.73.84,7.64,7.64,0,0,0,2.93-.84c6.28-2.6,13.29-2.62,20.08-2.35,27.93,1.12,55.73,6.39,83.66,5.15,5-.22,10.1-.69,14.62-2.81C437.93,216.88,431,214,424,212.65c-5.23-1-10.31.81-15.65,1.13C394.12,214.63,380.29,211.42,366.17,211.42Z" transform="translate(-5.18 -33.52)" fill="#2f55d4"/><path d="M458.46,214.64a66.33,66.33,0,0,1-8-4.74,105.76,105.76,0,0,0-47.28-16,3.35,3.35,0,0,0-1.86.19c-1.17.61-1.23,2.28-.83,3.54,2.2,6.87,11.54,8,16.58,13.19a2.89,2.89,0,0,1,1,2c-.05,1.44-1.81,2.08-3.23,2.35-17.34,3.28-35.31,6.54-52.45,2.36-7.51-1.83-14.72-5.07-22.41-5.85a4.92,4.92,0,0,0-2.56.24,3.48,3.48,0,0,0-1.45,4.17,8.76,8.76,0,0,0,2.9,3.77c9,7.77,20.69,11.47,32,15,14.73,4.56,29.71,9.17,45.12,9.36,4.75.06,9.49-.31,14.22-.67l33.94-2.6a7,7,0,0,0,2.68-.57,6.3,6.3,0,0,0,2.43-2.81,33.72,33.72,0,0,0,4-16.84C473.11,214.88,462.89,216.65,458.46,214.64Z" transform="translate(-5.18 -33.52)" fill="url(#linear-gradient-6)"/><path d="M469.33,206.51a1.55,1.55,0,0,0-1,0,1.38,1.38,0,0,0-.56.63c-2.28,4-2.74,8.7-4.32,13-.81,2.22-1.92,4.32-2.68,6.56a43.32,43.32,0,0,0-1.56,7.25A78,78,0,0,0,458,245.23a2.12,2.12,0,0,0,.28,1.34,2.1,2.1,0,0,0,1,.64,30.45,30.45,0,0,0,11.87,2,1.33,1.33,0,0,0,.79-.2,1.37,1.37,0,0,0,.38-.7q3-10.06,5.11-20.38,1-5.19,1.81-10.44c.26-1.75.63-3.56.73-5.33s-.56-2.19-2.19-3A48.22,48.22,0,0,0,469.33,206.51Z" transform="translate(-5.18 -33.52)" fill="#fff"/><path d="M141.65,177l-.16-2.81a4.37,4.37,0,0,1,3.89-4.27l6.49-.68a4.32,4.32,0,0,1,4.71,3.48l.5,2.73-2.23.41-.5-2.71a2.06,2.06,0,0,0-2.25-1.66l-6.49.68a2.08,2.08,0,0,0-1.85,2l.16,2.7Z" transform="translate(-5.18 -33.52)" fill="#606161"/><path d="M160.73,223c-1.88,6.62-5,12.82-7,19.43-2.23,7.67-2.74,15.71-3.24,23.68.81,1.36,2.84,1.5,4.22.71a9.1,9.1,0,0,0,3-3.57,475.15,475.15,0,0,0,34.92-73.87L220.34,194a2.69,2.69,0,0,1,2.89,3.29l-.45,29.13,6.74.15a1.9,1.9,0,0,0,2.48-1.89l6.45-39.55c.36-2.19.69-4.57-.4-6.51a9.42,9.42,0,0,0-3.47-3.12,79.52,79.52,0,0,0-43.79-11.74c-4.4.12-8.87.61-13.14-.45-6.8-1.7-9.71-6.16-12,2.45-1.67,6.25-2,12.8-2.2,19.24C163.15,197.66,164.25,210.66,160.73,223Z" transform="translate(-5.18 -33.52)" fill="#606161"/><path d="M160.73,223c-1.88,6.62-5,12.82-7,19.43-2.23,7.67-2.74,15.71-3.24,23.68.81,1.36,2.84,1.5,4.22.71a9.1,9.1,0,0,0,3-3.57,475.15,475.15,0,0,0,34.92-73.87L220.34,194a2.69,2.69,0,0,1,2.89,3.29l-.45,29.13,6.74.15a1.9,1.9,0,0,0,2.48-1.89l6.45-39.55c.36-2.19.69-4.57-.4-6.51a9.42,9.42,0,0,0-3.47-3.12,79.52,79.52,0,0,0-43.79-11.74c-4.4.12-8.87.61-13.14-.45-6.8-1.7-9.71-6.16-12,2.45-1.67,6.25-2,12.8-2.2,19.24C163.15,197.66,164.25,210.66,160.73,223Z" transform="translate(-5.18 -33.52)" fill="url(#linear-gradient-7)"/><path d="M241.8,138.58c0,1,0,1.91,0,2.84,0,.4,0,.76,0,1.12l-15.62,4.08c-3.08.79-6.37,1.57-9.36.57a15.87,15.87,0,0,1-5.08-3.2,60.61,60.61,0,0,1-8.67-8.28c-.48-.57-.94-1.17-1.39-1.81A29.64,29.64,0,0,1,197,123.84c-.3-1.24-1.09-2.11-.3-3.11.63-.78,2.47-.87,3.38-.78a11.73,11.73,0,0,1,4.41,1.63c6.65,3.71,12.11,9.12,17.91,14.07a6.46,6.46,0,0,0,1.55,1.06,7.56,7.56,0,0,0,2.56.49l14.59.72a.64.64,0,0,1,.52.18A.58.58,0,0,1,241.8,138.58Z" transform="translate(-5.18 -33.52)" fill="#2f55d4"/><path d="M195.37,165.44c-1.6,2.57-10.79,1.54-17.22-.21a19.51,19.51,0,0,1-5.83-2.3c-1.33-1-2.75-2.2-3-3.83a6.89,6.89,0,0,1,.21-2.6c1.54-7.46,3.11-14.92,4.65-22.39l0,0c.36-1.69.7-3.41,1.06-5.1a25.48,25.48,0,0,1,1.51-5.23,22,22,0,0,1,2.72-4.35c1-1.33-.33-3.59,1.33-3.71,4.83-.37,7.22-.46,9.6.57,3,1.33,7.71,2.36,10.67,3.84.87.42.09,1.3.69,2.11a5.91,5.91,0,0,1,.82,2.27C204.88,135.11,201.05,156.17,195.37,165.44Z" transform="translate(-5.18 -33.52)" fill="#2f55d4"/><polygon points="180.11 81.92 180.82 92.87 185.96 90.18 189.19 92.66 189.01 91.21 180.82 81.96 180.11 81.92" fill="#606161"/><polygon points="188.73 83.84 189.28 92 186 89.33 188.73 83.84" fill="#2f55d4"/><path d="M186.47,116.54a3.25,3.25,0,0,0,.74,3.24,3.75,3.75,0,0,0,1.63.78c.68.17,1.63,2.28,2.34,2.29.36,0,.75-1.52,1.06-1.7s.32-1.11.52-1.47l1.35-2.39a1.76,1.76,0,0,0,.32-1.29,1.74,1.74,0,0,0-.87-.86l-2.5-1.47c-.93-.56-3.8-2.47-3.91-1.22A29,29,0,0,1,186.47,116.54Z" transform="translate(-5.18 -33.52)" fill="url(#linear-gradient-8)"/><path d="M189.32,115.07s-.08,4.69,2.66,5.56a9,9,0,0,0,1.93-3.27C194.81,115,189.32,115.07,189.32,115.07Z" transform="translate(-5.18 -33.52)" fill="url(#linear-gradient-9)"/><path d="M227,63.56c-5.91.71-11.69,3.56-17.56,2.58-2.92-.49-5.59-1.91-8.37-2.91a31.34,31.34,0,0,0-24.39,1.47c4.89,1.31,10,3.18,13.08,7.17,3.71,4.73,3.92,11.48,7.54,16.27,2.85,3.78,7.5,5.85,12.18,6.54s9.44.14,14.13-.43c1.9-.23,4-.44,5.61.57s2.33,2.79,3.3,4.35c3.13,5,10.52,7.35,16.35,6.31.35-8.84,4.48-24.57.77-32.19C246.12,66,234.35,62.68,227,63.56Z" transform="translate(-5.18 -33.52)" fill="#2f55d4"/><path d="M493,251.46a120.45,120.45,0,0,1-8.66,9.56c-3.3-.77-6.65-1.39-10-1.86a3.82,3.82,0,0,1-2.16-.8,3.58,3.58,0,0,1-.62-2.8,431.64,431.64,0,0,1,5.83-50.32l18.37,2.63c.89.15,8.41,1.14,11.49,2.09C509.16,224.68,502.39,239.77,493,251.46Z" transform="translate(-5.18 -33.52)" fill="#2f55d4"/><rect x="208.13" y="199.67" width="89.83" height="24.14" fill="#2f55d4"/><rect x="118.3" y="242.8" width="89.83" height="24.14" fill="#2f55d4"/><rect x="37.02" y="279.75" width="89.83" height="24.14" fill="#2f55d4"/><rect x="82.81" y="321.14" width="89.83" height="24.14" fill="#2f55d4"/><path d="M201.2,109.71a2.31,2.31,0,0,1,.38,1.11c0,.62-.58,1.05-1.08,1.41a9,9,0,0,0-2.87,2.88c-.48.88-.74,2-1.55,2.53-1.1.79-2.62.29-3.86-.23-1.55-.65-5.27-4-5.35-4.74-.23-2,.82-4.29,1.54-6.15.85-2.17,2.22-4.31,4.36-5.25a5.93,5.93,0,0,1,4.86.06C201.7,103.26,199.57,106.51,201.2,109.71Z" transform="translate(-5.18 -33.52)" fill="url(#linear-gradient-10)"/><path d="M195.76,96.65a13.4,13.4,0,0,1,7,4,2.51,2.51,0,0,1,.69,1.35,2.14,2.14,0,0,1-.67,1.57,5.49,5.49,0,0,1-5.16,1.41,7.61,7.61,0,0,0-3-.44,4.15,4.15,0,0,0-2.36,1.87,13.89,13.89,0,0,0-1.82,3.58c-.24,0-.4-.26-.41-.5a1.44,1.44,0,0,0-.09-.72.61.61,0,0,0-.83-.12,1.23,1.23,0,0,0-.46.78,2.55,2.55,0,0,0,.57,2.17,2.41,2.41,0,0,0-2.07,1c-.07.1-.16.21-.27.18a.28.28,0,0,1-.13-.11,9.56,9.56,0,0,1-1.19-7.9,6.76,6.76,0,0,1,1-2.33,3.49,3.49,0,0,1,1.31-1.16c.44-.21,1.23-.16,1.55-.53.51-.58.25-2,.56-2.71C190.81,95.88,194,96.21,195.76,96.65Z" transform="translate(-5.18 -33.52)" fill="#606161"/><path d="M195.76,96.65a13.4,13.4,0,0,1,7,4,2.51,2.51,0,0,1,.69,1.35,2.14,2.14,0,0,1-.67,1.57,5.49,5.49,0,0,1-5.16,1.41,7.61,7.61,0,0,0-3-.44,4.15,4.15,0,0,0-2.36,1.87,13.89,13.89,0,0,0-1.82,3.58c-.24,0-.4-.26-.41-.5a1.44,1.44,0,0,0-.09-.72.61.61,0,0,0-.83-.12,1.23,1.23,0,0,0-.46.78,2.55,2.55,0,0,0,.57,2.17,2.41,2.41,0,0,0-2.07,1c-.07.1-.16.21-.27.18a.28.28,0,0,1-.13-.11,9.56,9.56,0,0,1-1.19-7.9,6.76,6.76,0,0,1,1-2.33,3.49,3.49,0,0,1,1.31-1.16c.44-.21,1.23-.16,1.55-.53.51-.58.25-2,.56-2.71C190.81,95.88,194,96.21,195.76,96.65Z" transform="translate(-5.18 -33.52)" fill="url(#linear-gradient-11)"/><path d="M247,136a.94.94,0,0,1-.19.46,1,1,0,0,1-.45.19l-2.86.66a6.25,6.25,0,0,0-1.85.64,2,2,0,0,0-1.05,1.57A2.07,2.07,0,0,0,242,141.4a6.23,6.23,0,0,0,2.4.37,40.08,40.08,0,0,0,4.9-.11,6.74,6.74,0,0,0,3.25-1,4.06,4.06,0,0,0,1.63-3.74c-.17-1.41-1.63-3.64-3.09-4.08C248.91,132.16,247.47,134.22,247,136Z" transform="translate(-5.18 -33.52)" fill="url(#linear-gradient-12)"/><path d="M184.49,118.65a39.44,39.44,0,0,0-1.24,4.56,11.35,11.35,0,0,1-2.65,6.49,12.37,12.37,0,0,1-3.27,3c-4.44,2.78-10.39,1.79-15,4.17a6.87,6.87,0,0,0-2.18,1.6c-1.26,1.45-1.6,3.45-1.93,5.35q-1.55,8.74-3.72,17.34a5.45,5.45,0,0,1-1.05,2.45c-1.45,1.6-4,1.12-6,.51l.36-15.31a44.43,44.43,0,0,1,1.09-10.43c.93-3.41,3.26-6.1,5.71-8.61,3.35-3.44,12.23-10.66,22-13.29l1.87-.45a24.1,24.1,0,0,1,5.65-.58.59.59,0,0,1,.27.07C185,115.81,184.86,117.14,184.49,118.65Z" transform="translate(-5.18 -33.52)" fill="#2f55d4"/><path d="M184.49,118.65c-1.6.27-4,.66-7.61,1.3-10.75,1.84-22.81,14.47-24.8,18.42s-2.21,23.6-2.21,23.6l-2.5,2.17.36-15.31a44.43,44.43,0,0,1,1.09-10.43c.93-3.41,3.26-6.1,5.71-8.61,3.35-3.44,12.23-10.66,22-13.29l1.87-.45a24.1,24.1,0,0,1,5.65-.58.59.59,0,0,1,.27.07C185,115.81,184.86,117.14,184.49,118.65Z" transform="translate(-5.18 -33.52)" fill="url(#linear-gradient-13)"/><path d="M190.87,127.8s-1.45,7.55-6.47,7.67a19.68,19.68,0,0,1-6.43-1.11c.21,3.14-6.35,24.37-4.62,26.52a28.66,28.66,0,0,0,4.8,4.35,19.51,19.51,0,0,1-5.83-2.3c-1.33-1-2.75-2.2-3-3.83a6.89,6.89,0,0,1,.21-2.6c1.54-7.46,3.11-14.92,4.65-22.39l0,0a7.32,7.32,0,0,1,1.36-.48,42.24,42.24,0,0,0-5.17-1.42,39.4,39.4,0,0,0-12.23,0l-2.45-3.29,2.93-2.57,25.92,6.31Z" transform="translate(-5.18 -33.52)" fill="url(#linear-gradient-14)"/><path d="M152,165.67a4.8,4.8,0,0,0,.16,3.14,2.8,2.8,0,0,1,.35.69.92.92,0,0,1-.31.93,1,1,0,0,1-1,.09,1.55,1.55,0,0,0-.52-.28c-.47-.1-.77.48-.88.95-.22.92-.47,2-1.33,2.37a2.18,2.18,0,0,1-2.55-1.2,4.13,4.13,0,0,1-.5-2.67c.36-2.38,2.65-4,3.63-6.18.23-.54.09-.28.51-.69a1.69,1.69,0,0,1,1.52-.43C153,162.82,152.21,164.39,152,165.67Z" transform="translate(-5.18 -33.52)" fill="url(#linear-gradient-15)"/><path d="M223,232.17q9.84.66,19.72.62c0-1.1-1-1.89-2-2.44-2.33-1.37-4.72-2.65-6.95-4.18-1.69-1.16-3.93-4.07-6.09-4.1C224.13,222,220.74,232,223,232.17Z" transform="translate(-5.18 -33.52)" fill="#606161"/><path d="M144,272.59a2.12,2.12,0,0,0-.38,1.5,2,2,0,0,0,1.24,1.13,21.93,21.93,0,0,0,8.13,1.41q6.17.21,12.32-.11a2.31,2.31,0,0,0,1.93-.76A1.56,1.56,0,0,0,167,274a4.83,4.83,0,0,0-1.58-1,37.67,37.67,0,0,1-6.57-3.8c-1.94-1.47-3.51-4-5.75-5C148.81,262.24,145.66,269.61,144,272.59Z" transform="translate(-5.18 -33.52)" fill="#606161"/><polygon points="239.83 199.23 242.43 199.33 247.32 40.36 244.5 39.76 239.83 199.23" fill="#2f55d4"/><polygon points="239.83 199.23 242.43 199.33 247.32 40.36 244.5 39.76 239.83 199.23" fill="url(#linear-gradient-16)"/><polygon points="181.35 81.74 186 89.33 181.57 91.95 179.76 82.06 181.35 81.74" fill="#2f55d4"/><path d="M190,126a2.1,2.1,0,0,1-.24.63c-.81,1.58-1.7,3.25-3.24,4.13a6.06,6.06,0,0,1-3.93.58,15.74,15.74,0,0,1-3.82-1.27,79.87,79.87,0,0,1-7.29-3.64c-2.44-1.38-4.88-2.92-7.65-3.36a20.7,20.7,0,0,0-4.24-.1l-3,.14a1.44,1.44,0,0,0-.71.15,1.22,1.22,0,0,0-.32.32l-3.32,4,6.1,2.79a3.42,3.42,0,0,0,1,.33,3.68,3.68,0,0,0,1.19-.11,26.57,26.57,0,0,1,11.4.29c3.49.86,6.81,2.43,10.37,3a9.55,9.55,0,0,0,4-.12,6.51,6.51,0,0,0,4.55-5.83,2.52,2.52,0,0,1,.14-.91c.21-.44.69-.66,1-1a1.78,1.78,0,0,0,.39-1.8,1.8,1.8,0,0,0-1.45-1.15c-.48.32-1.32.63-1.41,1.27S190,125.36,190,126Z" transform="translate(-5.18 -33.52)" fill="#606161"/><path d="M190,126a2.1,2.1,0,0,1-.24.63c-.81,1.58-1.7,3.25-3.24,4.13a6.06,6.06,0,0,1-3.93.58,15.74,15.74,0,0,1-3.82-1.27,79.87,79.87,0,0,1-7.29-3.64c-2.44-1.38-4.88-2.92-7.65-3.36a20.7,20.7,0,0,0-4.24-.1l-3,.14a1.44,1.44,0,0,0-.71.15,1.22,1.22,0,0,0-.32.32l-3.32,4,6.1,2.79a3.42,3.42,0,0,0,1,.33,3.68,3.68,0,0,0,1.19-.11,26.57,26.57,0,0,1,11.4.29c3.49.86,6.81,2.43,10.37,3a9.55,9.55,0,0,0,4-.12,6.51,6.51,0,0,0,4.55-5.83,2.52,2.52,0,0,1,.14-.91c.21-.44.69-.66,1-1a1.78,1.78,0,0,0,.39-1.8,1.8,1.8,0,0,0-1.45-1.15c-.48.32-1.32.63-1.41,1.27S190,125.36,190,126Z" transform="translate(-5.18 -33.52)" fill="url(#linear-gradient-17)"/><path d="M189.68,110.17c0-.14.11-.25.11-.39a.54.54,0,0,0-.21-.35.34.34,0,0,0-.18-.11.27.27,0,0,0-.17.06.63.63,0,0,0-.16.52,2.68,2.68,0,0,0,.21,1c.08.19.22.4.43.42a.53.53,0,0,0,.27-.06c.18-.08.44-.37.25-.57s-.26-.09-.37-.17A.42.42,0,0,1,189.68,110.17Z" transform="translate(-5.18 -33.52)" fill="url(#linear-gradient-18)"/><path d="M242,141.39l-.21,1.15-15.62,4.08c-3.08.79-6.37,1.57-9.36.57a15.87,15.87,0,0,1-5.08-3.2,60.61,60.61,0,0,1-8.67-8.28l.33-2.17s11.81,10.84,16.07,10.63c4-.21,20.43-2.47,22.36-2.75Z" transform="translate(-5.18 -33.52)" fill="#606161" opacity="0.22"/><rect x="133.39" y="173.93" width="46.32" height="33.09" rx="2.76" transform="translate(-22.38 -17.98) rotate(-5.39)" fill="#606161"/><rect x="132.43" y="174.02" width="46.32" height="33.09" rx="2.76" transform="translate(-22.39 -18.07) rotate(-5.39)" fill="url(#linear-gradient-19)"/><rect x="125.77" y="174.72" width="46.32" height="33.09" rx="2.76" transform="translate(-22.49 -18.69) rotate(-5.39)" fill="#606161"/><path d="M147.37,164.14l.78.72s2.45-3,4.2-.26l1.06-1S150,159.27,147.37,164.14Z" transform="translate(-5.18 -33.52)" fill="#2f55d4"/><path d="M147.37,164.14l.78.72s2.45-3,4.2-.26l1.06-1S150,159.27,147.37,164.14Z" transform="translate(-5.18 -33.52)" fill="url(#linear-gradient-20)"/><path d="M241.69,138l-1.12-.1s-.16,4.17.59,4.73l.58-.05.45-1A6.36,6.36,0,0,1,241.69,138Z" transform="translate(-5.18 -33.52)" fill="#2f55d4"/><path d="M241.69,138l-1.12-.1s-.16,4.17.59,4.73l.58-.05.45-1A6.36,6.36,0,0,1,241.69,138Z" transform="translate(-5.18 -33.52)" fill="#606161" opacity="0.22"/><path d="M475.81,239.12a1.77,1.77,0,0,0-2.38,1.8,78.43,78.43,0,0,0-.47,14.93,4,4,0,0,0,.46,1.94c.87,1.35,2.83,1.23,4.42,1.43,1.83.22,3.66,1,5.44.58a7.57,7.57,0,0,0,3.49-2.64c4.77-5.42,11.09-11.9,14-18.56-3.3-.95-8.79.59-12.4.71Q482.09,239.52,475.81,239.12Z" transform="translate(-5.18 -33.52)" fill="url(#linear-gradient-21)"/><path d="M248.34,91.17s-6.73-15-21.83-9.5-32.89-8.93-32.89-8.93S196.74,90.32,207.8,92s20.91-3.32,24.81,3.83c5.95,10.91,15.73,7.51,15.73,7.51Z" transform="translate(-5.18 -33.52)" fill="url(#linear-gradient-22)"/></svg>