<svg id="Layer_1" data-name="Layer 1" xmlns="http://www.w3.org/2000/svg" xmlns:xlink="http://www.w3.org/1999/xlink" viewBox="0 0 559.17 427.23"><defs><linearGradient id="linear-gradient" x1="275.51" y1="500.74" x2="298.12" y2="-86.06" gradientUnits="userSpaceOnUse"><stop offset="0" stop-color="#010101" stop-opacity="0"/><stop offset="0.95" stop-color="#010101"/></linearGradient><linearGradient id="linear-gradient-2" x1="491.63" y1="135.71" x2="473.1" y2="134.61" xlink:href="#linear-gradient"/><linearGradient id="linear-gradient-3" x1="466.09" y1="314.23" x2="387.87" y2="307.63" xlink:href="#linear-gradient"/><linearGradient id="linear-gradient-4" x1="456.36" y1="227.03" x2="601.49" y2="80.01" xlink:href="#linear-gradient"/><linearGradient id="linear-gradient-5" x1="457.81" y1="169.83" x2="537.68" y2="127.19" xlink:href="#linear-gradient"/><linearGradient id="linear-gradient-6" x1="430.89" y1="420.62" x2="412.04" y2="349.93" xlink:href="#linear-gradient"/><linearGradient id="linear-gradient-7" x1="469.8" y1="410.24" x2="450.95" y2="339.55" xlink:href="#linear-gradient"/><linearGradient id="linear-gradient-8" x1="474.69" y1="118.57" x2="446.73" y2="132.07" xlink:href="#linear-gradient"/><linearGradient id="linear-gradient-9" x1="180.3" y1="-55.7" x2="214.23" y2="485.87" gradientUnits="userSpaceOnUse"><stop offset="0" stop-color="#fff" stop-opacity="0"/><stop offset="0.14" stop-color="#fff" stop-opacity="0.22"/><stop offset="0.3" stop-color="#fff" stop-opacity="0.45"/><stop offset="0.45" stop-color="#fff" stop-opacity="0.65"/><stop offset="0.6" stop-color="#fff" stop-opacity="0.8"/><stop offset="0.73" stop-color="#fff" stop-opacity="0.91"/><stop offset="0.85" stop-color="#fff" stop-opacity="0.98"/><stop offset="0.94" stop-color="#fff"/></linearGradient><linearGradient id="linear-gradient-10" x1="68.91" y1="390.96" x2="535.09" y2="-122.97" xlink:href="#linear-gradient"/><linearGradient id="linear-gradient-11" x1="515.21" y1="172.37" x2="-336.48" y2="513.92" xlink:href="#linear-gradient-9"/><linearGradient id="linear-gradient-12" x1="411.07" y1="388.32" x2="245.74" y2="454.62" xlink:href="#linear-gradient-9"/><linearGradient id="linear-gradient-13" x1="385.17" y1="79.23" x2="382.66" y2="124.47" xlink:href="#linear-gradient-9"/><linearGradient id="linear-gradient-14" x1="381.53" y1="84.99" x2="397.23" y2="45.23" xlink:href="#linear-gradient"/><linearGradient id="linear-gradient-15" x1="200.69" y1="89.02" x2="200.06" y2="58.24" xlink:href="#linear-gradient-9"/><linearGradient id="linear-gradient-16" x1="381.55" y1="349.37" x2="383.44" y2="401.51" xlink:href="#linear-gradient"/><linearGradient id="linear-gradient-17" x1="384.08" y1="408.66" x2="384.4" y2="341.12" xlink:href="#linear-gradient"/></defs><title>Complete task 1</title><path d="M561.43,285.28c-.2,25.94-3.61,52.38-14.25,75.54a124.21,124.21,0,0,1-28.12,38.83c-27.71,26.21-66.17,40.4-103.36,44.85-52.58,6.29-105.77-2.64-158.65.13-33,1.74-65.77,8-98.81,8.87s-67.37-4.21-95.42-23.26a124.2,124.2,0,0,1-28-26.51,152,152,0,0,1-23.66-43.84C-9.92,299.07,7.49,224.8,52.78,182.52c17.87-16.7,39.16-28.41,60.31-39.73,44.25-23.59,118.55-188,292.64-80,34,21.15,51.61,64.46,81.67,91.87,26.77,24.4,57.13,48.27,68.45,84.28C560.53,253.75,561.54,269.65,561.43,285.28Z" transform="translate(-2.28 -26.37)" fill="#2f55d4" opacity="0.24" style="isolation:isolate"/><path d="M519.06,399.65c-27.71,26.21-66.17,40.4-103.36,44.85-52.58,6.29-105.77-2.64-158.65.13-33,1.74-65.77,8-98.81,8.87s-67.37-4.21-95.42-23.26a124.2,124.2,0,0,1-28-26.51A69.54,69.54,0,0,1,43,402.16c55.46-7.5,111.59-8.4,167.55-9.27l152.77-2.41c16.93-.27,33.94-.54,50.81,1.1,21.58,2.08,42.77,7.23,64.36,9.17C492.18,402,505.57,400,519.06,399.65Z" transform="translate(-2.28 -26.37)" fill="#2f55d4" opacity="0.24" style="isolation:isolate"/><path d="M422.83,402.89a2856.06,2856.06,0,0,0-310.08-.28c-17.45.93-35.21,2.09-51.51,8.4,8,7.31,19.9,7.89,30.74,8.07Q211.13,421,330.3,420.14c4.66,0,11.1-2.07,10.18-6.65-.28-1.38-1.29-2.62-1.21-4,.15-2.55,3.41-3.47,6-3.59A98.56,98.56,0,0,1,365.89,407c2.47.41,5.11,1,6.74,2.9,1.28,1.48,1.71,3.49,2.64,5.2,3.06,5.59,10.7,6.81,17,5.58s12.16-4.2,18.53-4.52c5.61-.29,11.09,1.52,16.57,2.79,17.91,4.14,36.58,2.61,54.89,1.06,19-1.61,19.4-14.74.46-15.79C462.84,403.15,442.75,404,422.83,402.89Z" transform="translate(-2.28 -26.37)" fill="url(#linear-gradient)"/><path d="M493.57,266.74,485,219.94h11.77s2.7,37.44,4,47.59Z" transform="translate(-2.28 -26.37)" fill="#f5c7c8"/><path d="M500.17,264.17s1.65,7.3.68,11.37-5,8.81-7.28,9.09-3.68-.84-3.51-2.39,6-7.06,5.1-8.81-3.2,3.57-4,2.28-.46-3.29,1.55-5.82,0-6.06,0-6.06S498.75,261.15,500.17,264.17Z" transform="translate(-2.28 -26.37)" fill="#f5c7c8"/><path d="M477.2,122.92c2.45-1.81,7.43-1.19,9.9-.2a12.57,12.57,0,0,1,7.37,8.3,15,15,0,0,1,.38,5.33c-.36,3.93-2.05,7.9-5.24,10.24-6.68,4.88-10.8.35-12.78-5.74a22.62,22.62,0,0,1-1.18-10.78c.36-2.75-.9-4.92,1.23-6.89Z" transform="translate(-2.28 -26.37)" fill="#606161"/><path d="M477.2,122.92c2.45-1.81,7.43-1.19,9.9-.2a12.57,12.57,0,0,1,7.37,8.3,15,15,0,0,1,.38,5.33c-.36,3.93-2.05,7.9-5.24,10.24-6.68,4.88-10.8.35-12.78-5.74a22.62,22.62,0,0,1-1.18-10.78c.36-2.75-.9-4.92,1.23-6.89Z" transform="translate(-2.28 -26.37)" fill="url(#linear-gradient-2)"/><ellipse cx="460.92" cy="107.76" rx="18.52" ry="23.1" fill="#606161"/><path d="M404.43,197.86s-3.4-6-4.87-6.89-4.08-3.36-4.84-2.8c-1.37,1,4.53,6.24-.73,5.85-.83-.07-5.05,0-7.09,1.91a3.91,3.91,0,0,0,.19,5.84c1.38.94,6.12,1.38,8.68,1.3s5.56.29,7.3,1.34" transform="translate(-2.28 -26.37)" fill="#f5c7c8"/><path d="M440.72,172.4s-2.43,7.64-2.67,11.77-2.18,21.48-2.83,22.33-31.77-9.73-31.77-9.73-1.88,2.65-.38,7.64c0,0,23.11,20.91,37.1,21.73s12.19-32.31,12.19-32.31" transform="translate(-2.28 -26.37)" fill="#f5c7c8"/><path d="M468.09,390.43l-2.57,5.81c1.52-.52,8.8,5.33,12.08,5.34a10.42,10.42,0,0,0,5.94-2.17l-2.06-10.53-3.67-52.13-19.73,2.86Z" transform="translate(-2.28 -26.37)" fill="#f5c7c8"/><path d="M430.06,390l-3.79,3.55c1.6-.12,7.19,7.36,10.37,8.19a10.45,10.45,0,0,0,6.3-.62l.62-10.72,4-48.25-19.45,1.91Z" transform="translate(-2.28 -26.37)" fill="#f5c7c8"/><path d="M470.44,149.54l.79,16.78a8.73,8.73,0,0,1-8,3.75c-8.1-.9-7.75-3.3-7.75-3.3s0-12.11-.32-14.82" transform="translate(-2.28 -26.37)" fill="#f5c7c8"/><path d="M468.51,155l1.87-3.38-15.21,1.69c.12,1,.2,3.44.24,6A12.1,12.1,0,0,0,468.51,155Z" transform="translate(-2.28 -26.37)" fill="#dbb4af"/><path d="M482.42,271s2.44,46.16,5.69,83.52c0,0-44.64,6.43-62.87-.72,0,0,3.92-74.44,4.74-85.12Z" transform="translate(-2.28 -26.37)" fill="#606161"/><path d="M482.42,271s2.44,46.16,5.69,83.52c0,0-44.64,6.43-62.87-.72,0,0,3.92-74.44,4.74-85.12Z" transform="translate(-2.28 -26.37)" fill="url(#linear-gradient-3)"/><path d="M482.43,171.43s-.08-3.3-11.51-3.4c-8.33-.08-11.24-.76-17.16.37-10.8,2.06-12,2.73-13.65,4.13-3.91,3.37-10.54,94-10.54,94s-6.63,10.88,27.7,14.38c12.7,1.3,25-7.5,25-7.5Z" transform="translate(-2.28 -26.37)" fill="#2f55d4"/><path d="M476.76,122.37s-.67,21.49-6.92,28.84c-6.59,7.76-10.34,8.71-18.34,5.54-6.8-2.71-7.61-21.32-7.84-26.68C443.07,116.16,464.39,104.18,476.76,122.37Z" transform="translate(-2.28 -26.37)" fill="#f5c7c8"/><polygon points="479.45 159.78 479.95 247 472.06 251.55 470.65 174.51 479.45 159.78" fill="url(#linear-gradient-4)"/><path d="M475.09,164.3l.15,3.93a1.64,1.64,0,0,1-.9,1.52s-6.16,2.09-16.83,2.65l-7.84-2a1.63,1.63,0,0,1-1-1.41l-.11-1.95a1.65,1.65,0,0,1,1.45-1.73l23.21-2.63A1.65,1.65,0,0,1,475.09,164.3Z" transform="translate(-2.28 -26.37)" fill="#2f55d4"/><path d="M475.09,164.3l.15,3.93a1.64,1.64,0,0,1-.9,1.52s-6.16,2.09-16.83,2.65l-7.84-2a1.63,1.63,0,0,1-1-1.41l-.11-1.95a1.65,1.65,0,0,1,1.45-1.73l23.21-2.63A1.65,1.65,0,0,1,475.09,164.3Z" transform="translate(-2.28 -26.37)" fill="url(#linear-gradient-5)"/><path d="M474.28,136s.34-3.24,3.53-1.84.19,7-1.05,8.57-3.62,1.07-3.62,1.07" transform="translate(-2.28 -26.37)" fill="#f5c7c8"/><polygon points="477.04 94.7 478.31 99.78 476.23 99.78 474.48 92.03 477.04 94.7" fill="#4eae93"/><path d="M482,170.53s4.7,4.42,13.35,25.17c3.53,8.48,6.48,24.27,6.48,24.27s-12.06,6.19-19.17,6.19c-3.18-18.45-10.82-25.6-12.24-34.11S477.7,168.89,482,170.53Z" transform="translate(-2.28 -26.37)" fill="#2f55d4"/><path d="M420.37,394.58a16.94,16.94,0,0,0-8.78,5.92,7.42,7.42,0,0,0-1.55,3.91,3.91,3.91,0,0,0,1.83,3.61,6.08,6.08,0,0,0,2.68.52,214.89,214.89,0,0,0,25.63-.45,2.47,2.47,0,0,0,1.93-.77,2.49,2.49,0,0,0,.24-1.46l-.24-5.36a2.77,2.77,0,0,0-.44-1.7c-.95-1.16-2.8-.19-4.29-.27-3-.16-3.76-3.89-6.23-4.92C428.33,392.43,423.19,393.72,420.37,394.58Z" transform="translate(-2.28 -26.37)" fill="#2f55d4"/><path d="M462,394.27a16.82,16.82,0,0,0-8.78,5.92,7.4,7.4,0,0,0-1.56,3.91,3.9,3.9,0,0,0,1.84,3.6,6.09,6.09,0,0,0,2.68.53,212.81,212.81,0,0,0,25.63-.46,1.82,1.82,0,0,0,2.17-2.22l-.24-5.37a2.74,2.74,0,0,0-.44-1.69c-.95-1.16-2.8-.19-4.3-.27-3-.16-3.75-3.89-6.22-4.93C469.91,392.11,464.78,393.4,462,394.27Z" transform="translate(-2.28 -26.37)" fill="#2f55d4"/><path d="M420.37,394.58a16.94,16.94,0,0,0-8.78,5.92,7.42,7.42,0,0,0-1.55,3.91,3.91,3.91,0,0,0,1.83,3.61,6.08,6.08,0,0,0,2.68.52,214.89,214.89,0,0,0,25.63-.45,2.47,2.47,0,0,0,1.93-.77,2.49,2.49,0,0,0,.24-1.46l-.24-5.36a2.77,2.77,0,0,0-.44-1.7c-.95-1.16-2.8-.19-4.29-.27-3-.16-3.76-3.89-6.23-4.92C428.33,392.43,423.19,393.72,420.37,394.58Z" transform="translate(-2.28 -26.37)" fill="url(#linear-gradient-6)"/><path d="M462,394.27a16.82,16.82,0,0,0-8.78,5.92,7.4,7.4,0,0,0-1.56,3.91,3.9,3.9,0,0,0,1.84,3.6,6.09,6.09,0,0,0,2.68.53,212.81,212.81,0,0,0,25.63-.46,1.82,1.82,0,0,0,2.17-2.22l-.24-5.37a2.74,2.74,0,0,0-.44-1.69c-.95-1.16-2.8-.19-4.3-.27-3-.16-3.75-3.89-6.22-4.93C469.91,392.11,464.78,393.4,462,394.27Z" transform="translate(-2.28 -26.37)" fill="url(#linear-gradient-7)"/><path d="M444.11,117.37c-.33.59-.64,1.21-.95,1.87a11.81,11.81,0,0,0-1.17,5.6c0,.8,1.55,4.62,1.4,4.93a27.64,27.64,0,0,1,8.89-10.28c1.42,3.21,4.87,4.93,8,6.44s6.6,3.36,7.82,6.66c.85,2.26.53,5,2,6.91,3.63-.49,4.42-6.35,8-7,.65-.12,1.33,0,2-.18a4,4,0,0,0,2.87-3.72c.56-7.57-8.62-14.6-14.75-17.13a23,23,0,0,0-17.94,0A12.6,12.6,0,0,0,444.11,117.37Z" transform="translate(-2.28 -26.37)" fill="#606161"/><path d="M444.11,117.37c-.33.59-.64,1.21-.95,1.87a11.81,11.81,0,0,0-1.17,5.6c0,.8,1.55,4.62,1.4,4.93a27.64,27.64,0,0,1,8.89-10.28c1.42,3.21,4.87,4.93,8,6.44s6.6,3.36,7.82,6.66c.85,2.26.53,5,2,6.91,3.63-.49,4.42-6.35,8-7,.65-.12,1.33,0,2-.18a4,4,0,0,0,2.87-3.72c.56-7.57-8.62-14.6-14.75-17.13a23,23,0,0,0-17.94,0A12.6,12.6,0,0,0,444.11,117.37Z" transform="translate(-2.28 -26.37)" fill="url(#linear-gradient-8)"/><rect x="83.55" y="55.3" width="215.81" height="329.84" rx="15.98" fill="#2f55d4"/><rect x="89.68" y="55.3" width="215.81" height="329.84" rx="15.98" fill="#2f55d4"/><rect x="89.68" y="55.3" width="215.81" height="329.84" rx="15.98" fill="url(#linear-gradient-9)"/><path d="M108.45,271.41,114.1,97.69l163.35,3.45S256.09,281.46,271.17,328,288.76,392,288.76,392l-176.54,5Z" transform="translate(-2.28 -26.37)" fill="url(#linear-gradient-10)"/><path d="M318.13,376.64l-178.58,1.89S121.19,271.86,118,236.1c-3.13-34.45-3.85-138.41-3.85-138.41H284.68s.43,100.75,3.45,134.13C291.47,268.65,318.13,376.64,318.13,376.64Z" transform="translate(-2.28 -26.37)" fill="#fff"/><path d="M397.83,95.8,385.68,68.22l-1-2.34a.35.35,0,0,0-.17-.17.55.55,0,0,0-.9.17L370.45,95.8a5,5,0,0,0-.4,2V386.7h28.18V97.81A5,5,0,0,0,397.83,95.8ZM398,386.53H370.21V380.4H398Z" transform="translate(-2.28 -26.37)" fill="#2f55d4"/><path d="M393.38,97.81V380.4H376.11V97.77a7.59,7.59,0,0,1,.23-2l8.07-29.92a.26.26,0,0,1,.06-.17c.17-.27.47-.2.57.17l.64,2.34,7.43,27.58A7.68,7.68,0,0,1,393.38,97.81Z" transform="translate(-2.28 -26.37)" fill="url(#linear-gradient-11)"/><path d="M376.11,386.53h17.27v20.82c0,2.74-1.38,4.95-3.05,4.95H379.12c-1.68,0-3-2.21-3-4.95Z" transform="translate(-2.28 -26.37)" fill="url(#linear-gradient-12)"/><path d="M398.23,97.81a32.14,32.14,0,0,1-28.18,0l8.3-18.14,6.29-13.75,5.42,12.75Z" transform="translate(-2.28 -26.37)" fill="url(#linear-gradient-13)"/><path d="M390.06,78.63a17,17,0,0,1-11.71,1l6.29-13.75Z" transform="translate(-2.28 -26.37)" fill="#2f55d4"/><path d="M390.06,78.63c-4,2-9,1.66-12.38.86L384,64.7Z" transform="translate(-2.28 -26.37)" fill="url(#linear-gradient-14)"/><rect x="128.48" y="106.5" width="89.84" height="5.65" rx="2.83" fill="#2f55d4"/><rect x="128.48" y="116.24" width="89.84" height="5.65" rx="2.83" fill="#2f55d4"/><rect x="128.48" y="125.98" width="89.84" height="5.65" rx="2.83" fill="#2f55d4"/><rect x="157.88" y="135.72" width="60.44" height="5.65" rx="2.32" fill="#2f55d4"/><rect x="129.42" y="168.23" width="89.84" height="5.65" rx="2.83" fill="#2f55d4"/><rect x="129.42" y="177.97" width="89.84" height="5.65" rx="2.83" fill="#2f55d4"/><rect x="129.42" y="187.7" width="89.84" height="5.65" rx="2.83" fill="#2f55d4"/><rect x="158.82" y="197.44" width="60.44" height="5.65" rx="2.32" fill="#2f55d4"/><path d="M225.12,259.15H140.93a3.34,3.34,0,0,1-3.2-2.83h0a2.41,2.41,0,0,1,2.45-2.82h84.18a3.33,3.33,0,0,1,3.21,2.82h0A2.42,2.42,0,0,1,225.12,259.15Z" transform="translate(-2.28 -26.37)" fill="#2f55d4"/><path d="M226.42,268.87H142.23A3.34,3.34,0,0,1,139,266h0a2.42,2.42,0,0,1,2.45-2.82h84.19a3.34,3.34,0,0,1,3.2,2.82h0A2.42,2.42,0,0,1,226.42,268.87Z" transform="translate(-2.28 -26.37)" fill="#2f55d4"/><path d="M227.72,278.59H143.53a3.34,3.34,0,0,1-3.2-2.82h0a2.42,2.42,0,0,1,2.45-2.83H227a3.34,3.34,0,0,1,3.2,2.83h0A2.42,2.42,0,0,1,227.72,278.59Z" transform="translate(-2.28 -26.37)" fill="#2f55d4"/><path d="M229.53,288.31h-55.8A2.74,2.74,0,0,1,171.1,286l-.14-1a2,2,0,0,1,2-2.32h55.81a2.74,2.74,0,0,1,2.63,2.32l.13,1A2,2,0,0,1,229.53,288.31Z" transform="translate(-2.28 -26.37)" fill="#2f55d4"/><path d="M235.34,321H151.15a3.6,3.6,0,0,1-3.37-2.86h0a2.3,2.3,0,0,1,2.29-2.86h84.19a3.6,3.6,0,0,1,3.37,2.86h0A2.29,2.29,0,0,1,235.34,321Z" transform="translate(-2.28 -26.37)" fill="#2f55d4"/><path d="M237.21,330.82H153a3.6,3.6,0,0,1-3.37-2.87h0a2.29,2.29,0,0,1,2.28-2.86h84.19a3.59,3.59,0,0,1,3.37,2.86h0A2.29,2.29,0,0,1,237.21,330.82Z" transform="translate(-2.28 -26.37)" fill="#2f55d4"/><path d="M239.07,340.68H154.88a3.6,3.6,0,0,1-3.37-2.86h0A2.3,2.3,0,0,1,153.8,335H238a3.61,3.61,0,0,1,3.37,2.87h0A2.3,2.3,0,0,1,239.07,340.68Z" transform="translate(-2.28 -26.37)" fill="#2f55d4"/><path d="M241.44,350.54h-55.8a3,3,0,0,1-2.77-2.35l-.19-1a1.87,1.87,0,0,1,1.88-2.34h55.8a3,3,0,0,1,2.76,2.34l.2,1A1.88,1.88,0,0,1,241.44,350.54Z" transform="translate(-2.28 -26.37)" fill="#2f55d4"/><path d="M260.32,174.28H243.54a12.14,12.14,0,0,1-12.13-12.13V144a12.14,12.14,0,0,1,12.13-12.13h16.78A12.14,12.14,0,0,1,272.45,144v18.19A12.14,12.14,0,0,1,260.32,174.28Zm-16.78-39.11a8.8,8.8,0,0,0-8.79,8.79v18.19a8.8,8.8,0,0,0,8.79,8.79h16.78a8.79,8.79,0,0,0,8.78-8.79V144a8.79,8.79,0,0,0-8.78-8.79Z" transform="translate(-2.28 -26.37)" fill="#2f55d4"/><path d="M264.73,236.73H248a12.12,12.12,0,0,1-12.12-11.58l-.8-17.82a12.13,12.13,0,0,1,12.12-12.68h16.75A12.11,12.11,0,0,1,276,206.24l.81,17.81a12.13,12.13,0,0,1-12.12,12.68ZM247.17,198a8.78,8.78,0,0,0-8.78,9.18L239.2,225a8.76,8.76,0,0,0,8.77,8.38h16.76a8.78,8.78,0,0,0,8.78-9.18l-.81-17.81a8.78,8.78,0,0,0-8.78-8.39Z" transform="translate(-2.28 -26.37)" fill="#2f55d4"/><path d="M253.3,294.49a12.11,12.11,0,0,1-12.08-11.16l-1.43-17.77a12.14,12.14,0,0,1,11.67-13.1l16.75-.58A12.23,12.23,0,0,1,280.73,263l1.43,17.77a12.15,12.15,0,0,1-11.67,13.1l-16.75.58Zm15.35-39.27h-.32l-16.75.58a8.8,8.8,0,0,0-8.45,9.49l1.43,17.77a8.82,8.82,0,0,0,9.06,8.08l16.75-.59a8.78,8.78,0,0,0,8.45-9.48l-1.43-17.77A8.76,8.76,0,0,0,268.65,255.22Z" transform="translate(-2.28 -26.37)" fill="#2f55d4"/><path d="M266.45,353.38a12.16,12.16,0,0,1-12-10.19l-2.8-17.32a12.13,12.13,0,0,1,11.55-14.07l16.6-.58a12.26,12.26,0,0,1,12.4,10.19L295,338.73a12.14,12.14,0,0,1-11.55,14.07l-16.61.57Zm13.8-38.82h-.31l-16.6.58A8.79,8.79,0,0,0,255,325.33l2.81,17.32a8.9,8.9,0,0,0,9,7.38l16.6-.58a8.77,8.77,0,0,0,8.36-10.18l-2.8-17.33A8.8,8.8,0,0,0,280.25,314.56Z" transform="translate(-2.28 -26.37)" fill="#2f55d4"/><rect x="153.76" y="64.72" width="93.3" height="21.2" rx="5.95" fill="#2f55d4"/><rect x="153.76" y="64.72" width="93.3" height="21.2" rx="5.95" fill="url(#linear-gradient-15)"/><path d="M252.59,166.63,237.93,152a5,5,0,0,1,7.1-7.1l7,7,23.49-27.17a5,5,0,0,1,7.6,6.57Z" transform="translate(-2.28 -26.37)" fill="#2f55d4"/><path d="M259.5,227.57l-14.65-14.65a5,5,0,0,1,7.1-7.1l7,7,23.49-27.17a5,5,0,0,1,7.6,6.57Z" transform="translate(-2.28 -26.37)" fill="#2f55d4"/><path d="M264.53,285.68,249.87,271a5,5,0,0,1,7.1-7.1l7,7,23.49-27.17a5,5,0,1,1,7.59,6.56Z" transform="translate(-2.28 -26.37)" fill="#2f55d4"/><path d="M277.55,344.11,262.9,329.45a5,5,0,1,1,7.1-7.09l7,7L300.5,302.2a5,5,0,0,1,7.6,6.57Z" transform="translate(-2.28 -26.37)" fill="#2f55d4"/><rect x="367.94" y="354.03" width="27.78" height="6.13" fill="#2f55d4"/><rect x="367.94" y="354.03" width="27.78" height="6.13" fill="url(#linear-gradient-16)"/><path d="M398.23,386.7v20.65a4.94,4.94,0,0,1-5,4.95H375a4.94,4.94,0,0,1-4.95-4.95V386.7Z" transform="translate(-2.28 -26.37)" fill="#2f55d4"/><path d="M398.23,386.7v20.65a4.94,4.94,0,0,1-5,4.95H375a4.94,4.94,0,0,1-4.95-4.95V386.7Z" transform="translate(-2.28 -26.37)" fill="url(#linear-gradient-17)"/></svg>