<svg id="Layer_1" data-name="Layer 1" xmlns="http://www.w3.org/2000/svg" xmlns:xlink="http://www.w3.org/1999/xlink" viewBox="0 0 291.93 319.54"><defs><linearGradient id="linear-gradient" x1="210.99" y1="102.12" x2="222.16" y2="544.54" gradientUnits="userSpaceOnUse"><stop offset="0" stop-opacity="0"/><stop offset="0.95"/></linearGradient><linearGradient id="linear-gradient-2" x1="212.59" y1="96" x2="213.33" y2="262.79" gradientUnits="userSpaceOnUse"><stop offset="0" stop-opacity="0"/><stop offset="0.99"/></linearGradient><linearGradient id="linear-gradient-3" x1="231.84" y1="38.13" x2="116.95" y2="98.65" xlink:href="#linear-gradient"/><linearGradient id="linear-gradient-4" x1="166.48" y1="57.2" x2="69.64" y2="108.21" xlink:href="#linear-gradient"/><linearGradient id="linear-gradient-5" x1="155.3" y1="281.51" x2="155.3" y2="232.73" xlink:href="#linear-gradient"/></defs><title>Data Visualisation</title><path d="M317.88,59.43c-1.92-25.86-22-49.35-47.25-55.27-22.8-5.35-46.65,2.61-70,.83-9.06-.7-18-2.86-27.09-3.1a65.25,65.25,0,0,0-52.16,24.56C106.83,45,96.81,68,94.34,91.43,86.77,163.34,60,181.32,56.75,201.84,44.31,281,125.59,318,190.21,321.25c58.92,3,137.66-34.29,147.55-46.93,14.32-18.31,10.16-64.24,3.74-86.57-5.14-17.88-13.11-35.72-14.62-54.44-1.26-15.53.21-24.68-5.91-40.06C316.71,82.52,318.71,70.67,317.88,59.43Z" transform="translate(-55.47 -1.87)" fill="#2f55d4" opacity="0.24" style="isolation:isolate"/><path d="M112.24,257.44c-9.25,0-34.27-1.54-36.74-18.13-2.91-19.54,15.33-31.39,30-40.92,13.3-8.64,12.44-36.22,12.43-36.5l6-.22c0,1.27,1,31.23-15.13,41.71-13.93,9.05-29.7,19.3-27.36,35.05,1.81,12.13,25.07,13.49,33.89,13l.34,5.94C115.35,257.38,114.12,257.44,112.24,257.44Z" transform="translate(-55.47 -1.87)" fill="#2f55d4"/><path d="M101.47,249.39c-3.78,1.8-7.9,3-11.19,5.61A16.69,16.69,0,0,0,84,268.14a7.27,7.27,0,0,0,1.3,4.46c1.6,2,4.46,2.29,7,2.44a2074.1,2074.1,0,0,0,224.28.52c3.4-.17,6.87-.37,10-1.65s6-3.84,6.66-7.18c1.12-5.63-4-10.46-8.86-13.5s-10.56-6.3-11.68-11.92c-.88-4.38,1.12-9.8-2.13-12.86a9.92,9.92,0,0,0-3-1.74c-34.36-14.72-71.89-24.78-109-20.1-15,1.89-29.58,6.16-43.7,11.45-7.18,2.69-14.25,5.65-21.27,8.73-5.37,2.35-12.3,4.16-16.22,8.59C112.46,241,108.48,246.05,101.47,249.39Z" transform="translate(-55.47 -1.87)" fill="#2f55d4" opacity="0.24" style="isolation:isolate"/><path d="M323.43,121.26a39,39,0,0,1-39,39H138.58a39,39,0,0,1-1.91-77.93,37.56,37.56,0,0,1,37-31.09h5a37.66,37.66,0,0,1,23.89,8.58,45.11,45.11,0,0,1,87.11,16.5,32.77,32.77,0,0,1-.53,6.27A39,39,0,0,1,323.43,121.26Z" transform="translate(-55.47 -1.87)" fill="#2f55d4"/><path d="M323.43,121.26a39,39,0,0,1-39,39H138.58a39,39,0,0,1-1.91-77.93,37.56,37.56,0,0,1,37-31.09h5a37.66,37.66,0,0,1,23.89,8.58,45.11,45.11,0,0,1,87.11,16.5,32.77,32.77,0,0,1-.53,6.27A39,39,0,0,1,323.43,121.26Z" transform="translate(-55.47 -1.87)" fill="url(#linear-gradient)"/><path d="M322.87,110a36.53,36.53,0,0,1-11.34,26.44,39.33,39.33,0,0,1-27.39,10.94H139.33c-21.42,0-38.79-16.69-38.79-37.38A36.64,36.64,0,0,1,111.88,83.6a39.16,39.16,0,0,1,25.55-10.88,35.24,35.24,0,0,1,10.36-19.23,37.84,37.84,0,0,1,26.34-10.56h5a38.23,38.23,0,0,1,23.72,8.22C209.31,35.08,225.5,23.7,244.5,23.7c24.77,0,44.82,19.35,44.82,43.26a30.82,30.82,0,0,1-.52,6C308,75.18,322.87,90.93,322.87,110Z" transform="translate(-55.47 -1.87)" fill="#fff"/><path d="M122.89,119c12.55-5.41,37.45-7.65,51.12-7.64l82.12.11c11.19,0,22.64.07,33.19,3.81s35.37,12,30.48,22.08c-6.89,14.15-21.11,21.53-26.67,24.07-7.58,3.47-16.23,3.39-24.56,3.24l-103.91-1.87a109,109,0,0,1-16-1.08,107.2,107.2,0,0,1-12.2-3.06A148.5,148.5,0,0,1,118,152.43c-6.65-2.93-14.49-7.59-12.65-14.78C108.11,127,113,123.3,122.89,119Z" transform="translate(-55.47 -1.87)" fill="url(#linear-gradient-2)"/><path d="M202.83,51.15,213,61.68s6.33-38,46.18-35.38C259.19,26.3,221.69,13.06,202.83,51.15Z" transform="translate(-55.47 -1.87)" fill="url(#linear-gradient-3)"/><path d="M137.43,72.72s7.24-.8,14.13,7.58c0,0,1.49-33.89,30.26-34.45,0,0-11.79-7.53-28.21,3.07C138.9,58.42,137.43,72.72,137.43,72.72Z" transform="translate(-55.47 -1.87)" fill="url(#linear-gradient-4)"/><rect x="62.57" y="124.97" width="187.69" height="134.06" rx="12.9" fill="#2f55d4"/><rect x="67.04" y="131.6" width="178.15" height="118.56" rx="11.82" fill="#fff"/><rect x="50.28" y="252.52" width="210.03" height="19.36" rx="9.68" fill="#2f55d4"/><rect x="50.28" y="253.95" width="210.03" height="11.96" rx="5.98" fill="url(#linear-gradient-5)"/><rect x="77.38" y="209.88" width="8.57" height="36.87" fill="#2f55d4"/><rect x="89.29" y="219.03" width="8.57" height="27.72" fill="#2f55d4"/><rect x="101.3" y="193.24" width="8.57" height="53.51" fill="#2f55d4"/><rect x="113.31" y="203.98" width="8.57" height="42.77" fill="#2f55d4"/><rect x="125.32" y="212.56" width="8.57" height="34.19" fill="#2f55d4"/><rect x="137.33" y="194.58" width="8.57" height="52.17" fill="#2f55d4"/><rect x="149.34" y="219.03" width="8.57" height="27.72" fill="#2f55d4"/><rect x="161.35" y="199.4" width="8.57" height="47.35" fill="#2f55d4"/><rect x="173.36" y="209.1" width="8.57" height="37.65" fill="#2f55d4"/><rect x="185.37" y="192.18" width="8.57" height="54.57" fill="#2f55d4"/><rect x="197.38" y="205.29" width="8.57" height="41.45" fill="#2f55d4"/><rect x="209.39" y="190.53" width="8.57" height="56.22" fill="#2f55d4"/><rect x="221.4" y="177.66" width="8.57" height="69.09" fill="#2f55d4"/><rect x="75.23" y="143.59" width="32.77" height="6.33" fill="#2f55d4"/><rect x="112.66" y="143.59" width="8.12" height="6.33" fill="#2f55d4"/><rect x="75.64" y="163.42" width="8.12" height="6.33" fill="#2f55d4"/><rect x="75.23" y="153.46" width="32.77" height="6.33" fill="#2f55d4"/><rect x="128.86" y="259.6" width="50.83" height="5.87" fill="#2f55d4"/></svg>