<svg id="Layer_1" data-name="Layer 1" xmlns="http://www.w3.org/2000/svg" xmlns:xlink="http://www.w3.org/1999/xlink" viewBox="0 0 585 595.61"><defs><linearGradient id="linear-gradient" x1="324.86" y1="420.8" x2="511.08" y2="426.34" gradientUnits="userSpaceOnUse"><stop offset="0" stop-color="#68e1fd" stop-opacity="0"/><stop offset="0.02" stop-color="#66daf6" stop-opacity="0.04"/><stop offset="0.18" stop-color="#58a1bc" stop-opacity="0.39"/><stop offset="0.35" stop-color="#4d758f" stop-opacity="0.66"/><stop offset="0.53" stop-color="#45566f" stop-opacity="0.85"/><stop offset="0.73" stop-color="#40435c" stop-opacity="0.96"/><stop offset="0.99" stop-color="#3f3d56"/></linearGradient><linearGradient id="linear-gradient-2" x1="434.37" y1="201.82" x2="458.52" y2="201.82" gradientUnits="userSpaceOnUse"><stop offset="0" stop-color="#ecc4d7"/><stop offset="0.42" stop-color="#efd4d1"/><stop offset="1" stop-color="#f2eac9"/></linearGradient><linearGradient id="linear-gradient-3" x1="447.17" y1="188.38" x2="442.19" y2="244.22" xlink:href="#linear-gradient-2"/><linearGradient id="linear-gradient-4" x1="412.81" y1="168.55" x2="464.01" y2="168.55" xlink:href="#linear-gradient-2"/><linearGradient id="linear-gradient-5" x1="424.4" y1="525.43" x2="417.84" y2="503.82" gradientUnits="userSpaceOnUse"><stop offset="0.36" stop-color="#00272e"/><stop offset="1" stop-color="#69b9eb" stop-opacity="0"/></linearGradient><linearGradient id="linear-gradient-6" x1="467.66" y1="528.81" x2="455.19" y2="506.78" xlink:href="#linear-gradient-5"/><linearGradient id="linear-gradient-7" x1="427.76" y1="289.6" x2="460.71" y2="289.6" xlink:href="#linear-gradient-2"/><linearGradient id="linear-gradient-8" x1="345.86" y1="186.01" x2="372.16" y2="186.01" xlink:href="#linear-gradient-2"/><linearGradient id="linear-gradient-9" x1="444.92" y1="277.86" x2="452.63" y2="277.86" xlink:href="#linear-gradient-2"/></defs><title>2. Data Analyze</title><path d="M604.63,491.07c-250,217-608.71,61.8-488.78-150H397.06a14.55,14.55,0,0,0,14.55-14.56V100.06a190.94,190.94,0,0,0,20.94-35.88C455.5,12.32,515-13.55,567.73,7.41,705.29,62.13,707.65,401.66,604.63,491.07Z" transform="translate(-92 -0.12)" fill="#2f55d4" opacity="0.18"/><g id="V3"><g id="v3.v1"><g id="request"><ellipse id="Oval" cx="342.44" cy="523.88" rx="90.63" ry="11.17" fill="#000405" opacity="0.05"/><path id="Shape" d="M434.76,516.81c0,1.51-15.64,10.43-30.91,10.43s-8.08-14.82-2.87-14.66h5.21l2.92-1.46,11.21-5.74,1.67-3.6s8.91,2,10.42-.32l1.46,10.08v1.82A7.29,7.29,0,0,1,434.76,516.81Z" transform="translate(-92 -0.12)" fill="#3f3d56"/><path d="M433.87,513.36a7.26,7.26,0,0,1,.83,3.45c0,1.51-15.63,10.43-30.9,10.43s-8.08-14.82-2.87-14.66h5.21l2.92-1.46,24.6.42Z" transform="translate(-92 -0.12)" fill="#3f3d56"/><path d="M412.14,521.61a23,23,0,0,1-11.47,0c-3.44-1.88-4.53-3.29-4.38-4.75s2.19-5.64,10.43-3.65,9.95,6.36,9.95,6.36Z" transform="translate(-92 -0.12)" fill="#3f3d56"/><path d="M473.12,517.59a39.74,39.74,0,0,1-28.83,15.08c-15.63,0-8.07-14.66-2.86-14.66a18.46,18.46,0,0,0,4.32-.42l6.41-5.74,19.76.36v1.93A7.36,7.36,0,0,1,473.12,517.59Z" transform="translate(-92 -0.12)" fill="#3f3d56"/><path d="M453.1,526.3a22.7,22.7,0,0,1-11.46,0c-3.44-1.88-4.54-3.28-4.38-4.75s2.19-5.63,10.42-3.65,9.75,6.42,9.75,6.42Z" transform="translate(-92 -0.12)" fill="#3f3d56"/><path d="M402.6,346.53l15.63,154.78s10.43,3.75,15.07,0l6.46-121.9,18.29,122.94s8.55,5.53,13.81-.73l6.83-155.87S424.33,357.34,402.6,346.53Z" transform="translate(-92 -0.12)" fill="#2f55d4"/><path d="M402.6,346.53l15.63,154.78s10.43,3.75,15.07,0l6.46-121.9,18.29,122.94s8.55,5.53,13.81-.73l6.83-155.87S424.33,357.34,402.6,346.53Z" transform="translate(-92 -0.12)" fill="url(#linear-gradient)" style="isolation:isolate"/><path d="M495,311.15c-11.42,9.45-16.63,4.91-16.63,4.91l.37,29.69s-59.84,14.56-76.15.78l2.45-62.3,3.69-28.13L382,275.58A20,20,0,0,1,365.3,279c-4.05-1.05-7.88-3.54-9.09-9-2.92-13-1-65.22-1-65.22l16.94-5.22,6.21,41.74s24.64-20.7,35.56-24.73l0-.21,25.33-11.85,18.19-4.33a42.39,42.39,0,0,0,6.51,4.18,57.13,57.13,0,0,0,17.67,6.78c8.19.89,11.62,16.23,12.72,23.49S503,277.8,503,277.8,506.42,301.71,495,311.15Z" transform="translate(-92 -0.12)" fill="#2f55d4"/><path d="M457.58,198.91a15.6,15.6,0,0,1-21.36,7.3s-12.93,22.5,5.57,19.83c9.8-1.41,16.73-13.45,17.77-24.37Z" transform="translate(-92 -0.12)" fill="#3f3d56"/><path d="M456.75,282.66c.66-.71,3.18-.63,4.13-.39,4.25,1.08,16,4,17.4,3.11,1.66-1.05-4.59-43.79-4.59-43.79s-1.41,23.64-31.69,35c-14.75,5.53,10.11,13.09,10.11,13.09Z" transform="translate(-92 -0.12)" fill="#000405" opacity="0.05"/><path d="M456.49,303c6,3.42,18.66,10.67,21.84,13v19.57s-56-8.35-56-12.42-17.93-30.74-17.93-30.74l.37-3.34,48.42-5.74s2.31-2.75-1.23,14.58C451.54,300.05,454.59,301.94,456.49,303Z" transform="translate(-92 -0.12)" fill="#000405" opacity="0.05"/><polygon points="353.96 279.41 350.05 259.84 306.74 264.07 316.18 322.77 359.49 319.49 353.96 279.41" fill="#fff"/><path d="M458.52,180.86s-.19,3.32-.42,7.65c-.19,3.65-.43,8-.63,11.7A24.53,24.53,0,0,1,450,216.55c-2.6,2.66-8.79,7.61-13.53,5.85-2.28-.85-2.37-3.75-1.89-5.48a34,34,0,0,0,1-17.85C432.68,191.66,458.52,180.86,458.52,180.86Z" transform="translate(-92 -0.12)" fill="url(#linear-gradient-2)"/><path d="M458.52,180.86s-.19,3.32-.42,7.65c-1.81,4.05-3.51,7.35-4.44,9-1.87,3.32-9.58,8.55-17.3,9.6a33.41,33.41,0,0,0-.72-8C432.68,191.66,458.52,180.86,458.52,180.86Z" transform="translate(-92 -0.12)" fill="url(#linear-gradient-3)"/><path d="M436,136.81a24.73,24.73,0,0,0-23,27.92,83.75,83.75,0,0,0,7.61,29c8.08,13.78,28.46,2.46,31.69-3.23S468,159.2,462.74,151.94C459.15,147,449.19,136.29,436,136.81Z" transform="translate(-92 -0.12)" fill="url(#linear-gradient-4)"/><path d="M414.48,127.21l4.07,2.14a15.62,15.62,0,0,0-12.77,6.05,20.92,20.92,0,0,0-6,14.4l7.14-3.39s-.52,8.77,12.93,9.45,27.72,1.2,27.72,1.2l-4.58-6.32s8.49,3.4,9.85,6.47a101.77,101.77,0,0,1,2.81,15.09s3.39-8.61,4.69-6.74-1.46,9.71-3.23,11.48-1.46,6.89-1.61,7.31,8.34-6.63,8.75-9,8.92-27,3.39-32.09L471,143a16,16,0,0,0-6.62-2.56S442.21,111.4,414.48,127.21Z" transform="translate(-92 -0.12)" fill="#3f3d56"/><path d="M406.19,512.63s5.22,2.66,5.53,6.78l.42,2.25s19.59-3.71,21.78-8.25l-.94-6.88a10,10,0,0,1-9,3.23c-4.64-1.41-3.75-4.38-3.75-4.38Z" transform="translate(-92 -0.12)" fill="#2f55d4"/><path d="M447.58,518.53l-1.72-.89,12.77-11.43s2.76,6.68,12.45,1.31l1.2,6.83a44.91,44.91,0,0,1-20.43,12.37A10.41,10.41,0,0,0,447.58,518.53Z" transform="translate(-92 -0.12)" fill="#2f55d4"/><path d="M406.19,512.63s5.22,2.66,5.53,6.78l.42,2.25s19.59-3.71,21.78-8.25l-.94-6.88a10,10,0,0,1-9,3.23c-4.64-1.41-3.75-4.38-3.75-4.38Z" transform="translate(-92 -0.12)" opacity="0.61" fill="url(#linear-gradient-5)"/><path d="M447.58,518.53l-1.72-.89,12.77-11.43s2.76,6.68,12.45,1.31l1.2,6.83a44.91,44.91,0,0,1-20.43,12.37A10.41,10.41,0,0,0,447.58,518.53Z" transform="translate(-92 -0.12)" opacity="0.61" fill="url(#linear-gradient-6)"/><path d="M431.73,354.2s2.56,20.88,8.24,25.21l-1.77-24.53Z" transform="translate(-92 -0.12)" fill="#3f3d56"/><polygon points="376.49 347.82 378.93 502.12 386.69 345.63 376.49 347.82" fill="#3f3d56"/><path d="M448.31,300a47,47,0,0,1-16.06-2.82,6.27,6.27,0,0,1-4.06-8.3,17.26,17.26,0,0,1,12-9.75,39,39,0,0,1,16.57,3.49,6.11,6.11,0,0,1,2.35,9.86A25.5,25.5,0,0,1,448.31,300Z" transform="translate(-92 -0.12)" fill="url(#linear-gradient-7)"/><path d="M372.16,199.59s-1.3-13.05-1.61-17,1.14-11.59-2.92-14a18.59,18.59,0,0,1-5.21,2.61c-1.93.31-8.81-9.13-13.5,0s-3.24,17.27-.63,20.25a76.46,76.46,0,0,1,7,13.36Z" transform="translate(-92 -0.12)" fill="url(#linear-gradient-8)"/><path d="M459.56,503l-.93,3.18s3.91,8.09,12.45,1.31v-4.8A11.21,11.21,0,0,1,459.56,503Z" transform="translate(-92 -0.12)" fill="#3f3d56"/><path d="M444.92,274.31a6.08,6.08,0,0,1,3.18,1.88,66.17,66.17,0,0,0,4.53,5.22L446,279.53Z" transform="translate(-92 -0.12)" fill="url(#linear-gradient-9)"/><rect x="8.31" y="76.04" width="310.94" height="265.08" rx="14.56" fill="#2f55d4" opacity="0.4"/><path d="M304.25,164.31l-57.91,26.78V127.87l4-6.72c23.41,1,47.64,16.44,57.91,36.44Z" transform="translate(-92 -0.12)" fill="#3f3d56"/><rect id="Rectangle-path" x="8.31" y="375.79" width="311.04" height="13.05" rx="6.42" fill="#2f55d4"/></g></g></g><path d="M457.58,198.91" transform="translate(-92 -0.12)" fill="#0a475d"/><path d="M308.28,202.85a64.21,64.21,0,1,1-128.42,0c0-1.32,0-2.64.11-3.93a64.22,64.22,0,0,0,128.2,0C308.24,200.21,308.28,201.53,308.28,202.85Z" transform="translate(-92 -0.12)" fill="#3f3d56"/><path d="M308.28,195c0,1.34,0,2.66-.11,4a64.22,64.22,0,0,1-128.2,0c-.07-1.3-.11-2.62-.11-4a64.21,64.21,0,0,1,64.21-64.19V194L302,167.21A64,64,0,0,1,308.28,195Z" transform="translate(-92 -0.12)" fill="#2f55d4"/><path d="M308.28,157.59l-57.91,26.78V121.15A64.2,64.2,0,0,1,308.28,157.59Z" transform="translate(-92 -0.12)" fill="#2f55d4"/><path d="M308.28,157.59l-57.91,26.78V121.15A64.2,64.2,0,0,1,308.28,157.59Z" transform="translate(-92 -0.12)" fill="#3f3d56" opacity="0.45"/></svg>