<svg id="Layer_1" data-name="Layer 1" xmlns="http://www.w3.org/2000/svg" xmlns:xlink="http://www.w3.org/1999/xlink" width="702.65" height="596.92" viewBox="0 0 702.65 596.92">
  <defs>
    <linearGradient id="linear-gradient" x1="710.29" y1="516.29" x2="621.36" y2="426.87" gradientTransform="matrix(1, 0, 0, -1, -57.59, 598)" gradientUnits="userSpaceOnUse">
      <stop offset="0" stop-opacity="0"/>
      <stop offset="1"/>
    </linearGradient>
    <linearGradient id="linear-gradient-2" x1="103.52" y1="599.81" x2="112.71" y2="-219.84" gradientTransform="matrix(0.71, 0.71, 0.71, -0.71, -256.37, 427.35)" xlink:href="#linear-gradient"/>
    <linearGradient id="linear-gradient-3" x1="323.23" y1="602.28" x2="332.41" y2="-217.38" gradientTransform="matrix(1, 0, 0, -1, -57.59, 597.94)" xlink:href="#linear-gradient"/>
    <linearGradient id="linear-gradient-4" x1="501.58" y1="604.27" x2="510.77" y2="-215.38" gradientTransform="matrix(1, 0, 0, -1, -57.61, 597.93)" xlink:href="#linear-gradient"/>
    <linearGradient id="linear-gradient-5" x1="407.18" y1="89.46" x2="417.82" y2="-287.72" xlink:href="#linear-gradient"/>
    <linearGradient id="linear-gradient-6" x1="665.31" y1="493.56" x2="532.61" y2="460.92" xlink:href="#linear-gradient"/>
    <linearGradient id="linear-gradient-7" x1="672.42" y1="559.96" x2="677.88" y2="544.01" gradientTransform="matrix(1, 0, 0, -1, -57.59, 598)" gradientUnits="userSpaceOnUse">
      <stop offset="0" stop-color="#ecc4d7"/>
      <stop offset="0.42" stop-color="#efd4d1"/>
      <stop offset="1" stop-color="#f2eac9"/>
    </linearGradient>
    <linearGradient id="linear-gradient-8" x1="679.99" y1="577.33" x2="684.67" y2="563.12" xlink:href="#linear-gradient-7"/>
    <linearGradient id="linear-gradient-9" x1="651.54" y1="517.69" x2="800.85" y2="455.61" gradientTransform="matrix(1, 0, 0, -1, 0, 597.93)" xlink:href="#linear-gradient"/>
    <linearGradient id="linear-gradient-10" x1="732.43" y1="507.78" x2="744.33" y2="507.78" xlink:href="#linear-gradient-7"/>
    <linearGradient id="linear-gradient-11" x1="669.32" y1="473.24" x2="692.92" y2="473.24" xlink:href="#linear-gradient-7"/>
  </defs>
  <title>28. Graphic and Chart</title>
  <path d="M155.55,113.68C203.89,71.85,277.78,43.2,330,80.05c26.48,18.67,40.71,49.92,62.21,74.16s59.55,41.34,85.58,22c12-8.9,18.24-23.4,27.47-35.15,27.46-35,82.19-41.46,120.9-19.58s61,66.78,62.88,111.22c2,49.14-17.87,96.41-23.65,145.25a256.23,256.23,0,0,0,21.15,135.57c6.41,14.07,14.23,28,15.84,43.34s-5.09,33-19.65,38.24c-5.91,2.11-12.36,2-18.63,1.76L61.24,578.81c-12.44-.37-25.36-.87-36.39-6.62C-5.53,556.32-4.47,511.76,9,480.25S44.34,418.14,41.3,384c-4.52-50.68-64.89-97.83-24.79-148,14.56-18.24,42.13-30.05,59.8-45.73C103.8,165.85,127.74,137.75,155.55,113.68Z" transform="translate(0 -0.07)" fill="#2f55d4" opacity="0.18" style="isolation: isolate"/>
  <path d="M645,61.32s8.11,39.08,15,42.07,14.45-9.29,15-9.18,8,8.2,8,8.2-4.3,12.84-17.53,16.87c-7.34,2.23-28.72-21.5-31.7-35.79a104.53,104.53,0,0,1-1-36.53S641.18,49.16,645,61.32Z" transform="translate(0 -0.07)" fill="#2f55d4"/>
  <path d="M645,61.32s8.11,39.08,15,42.07,14.45-9.29,15-9.18,8,8.2,8,8.2-4.3,12.84-17.53,16.87c-7.34,2.23-28.72-21.5-31.7-35.79a104.53,104.53,0,0,1-1-36.53S641.18,49.16,645,61.32Z" transform="translate(0 -0.07)" fill="url(#linear-gradient)"/>
  <polyline points="592.41 84.99 446.24 198.98 266.56 77.8 49.01 272.65" fill="none" stroke="#3f3d56" stroke-miterlimit="10" stroke-width="4"/>
  <rect x="49.61" y="352.82" width="74.54" height="229.96" fill="#2f55d4"/>
  <rect x="408.97" y="279.2" width="74.54" height="303.58" fill="#2f55d4"/>
  <rect x="229.29" y="175.34" width="74.54" height="407.44" fill="#2f55d4"/>
  <rect x="588.65" y="154.41" width="74.54" height="428.36" fill="#2f55d4"/>
  <circle cx="49.01" cy="272.72" r="18.09" transform="translate(-178.49 114.47) rotate(-45)" fill="#2f55d4"/>
  <circle cx="266.56" cy="77.81" r="18.09" fill="#2f55d4"/>
  <circle cx="446.23" cy="195.97" r="18.09" fill="#2f55d4"/>
  <circle cx="49.01" cy="272.72" r="18.09" transform="translate(-178.49 114.47) rotate(-45)" fill="url(#linear-gradient-2)"/>
  <circle cx="266.56" cy="77.81" r="18.09" fill="url(#linear-gradient-3)"/>
  <circle cx="446.23" cy="195.97" r="18.09" fill="url(#linear-gradient-4)"/>
  <path d="M689.41,596.09H14A13.24,13.24,0,0,1,.72,582.85h0A13.24,13.24,0,0,1,14,569.61H689.41a13.24,13.24,0,0,1,13.24,13.24h0A13.24,13.24,0,0,1,689.41,596.09Z" transform="translate(0 -0.07)" fill="#2f55d4"/>
  <path d="M689.41,596.09H14A13.24,13.24,0,0,1,.72,582.85h0A13.24,13.24,0,0,1,14,569.61H689.41a13.24,13.24,0,0,1,13.24,13.24h0A13.24,13.24,0,0,1,689.41,596.09Z" transform="translate(0 -0.07)" fill="url(#linear-gradient-5)"/>
  <path d="M610.27,49s-15.47,3.41-21.62,11.52-6.84,74.23-2,78.62,59.62-4.59,55.33-12.72c-8.14-15.42-1.17-79.5-9.15-79.42S610.27,49,610.27,49Z" transform="translate(0 -0.07)" fill="#2f55d4"/>
  <path d="M603,73.19s-13.52,56.15-5.1,66.32c0,0-8.19,2.22-11.21-.4s-4.91-36,.25-51S603,73.19,603,73.19Z" transform="translate(0 -0.07)" fill="url(#linear-gradient-6)"/>
  <path d="M611.3,33.34s-1.53,12.08-1.65,15.78,11.48,9.58,14.1,5.93a9,9,0,0,0,1.53-7.34l-.77-8Z" transform="translate(0 -0.07)" fill="url(#linear-gradient-7)"/>
  <path d="M610.41,20.22s-1,16.83,4.77,20.34,9,7,16.13-1.12,6.35-21.6,4.79-23.57S615.32,2.13,610.41,20.22Z" transform="translate(0 -0.07)" fill="url(#linear-gradient-8)"/>
  <path d="M604.22,9c-1.55,3.71-1.34,7.88-1.11,11.89h1.64c-.32,2.12-.5,4.65,1.13,6,.45.38,1,.63,1.44,1,1.67,1.45,2,5.08,4,6q-.37-4.5-.77-9c-.13-1.53-.37-4.12,1.12-4.5.34-.08.71-.06,1-.16A2.87,2.87,0,0,0,614.12,19c.58-.87,1.15-1.74,1.72-2.62a6.7,6.7,0,0,1,2.94-2.9c1.31-.49,3.15.28,3.17,1.68,2.82-2.06,6.79-1.48,10-.16a12.09,12.09,0,0,1,4.5,2.91,5.86,5.86,0,0,1,1.54,5c2.33-8.06,4.94-25.76-12.44-22.43C623,1,620.88,2.9,618.3,3.08c.31,0-.81-1.24-1-1.33-.89-.38-1.6.14-2.39.48a15.93,15.93,0,0,1-3.8.77A9.91,9.91,0,0,0,604.22,9Z" transform="translate(0 -0.07)" fill="#3f3d56"/>
  <path d="M592.15,57s12.92,3.65,10.8,16.18c0,0-17.08,17.45-15.4,21s32.68,22.09,32.68,22.09l-9.88,8.13s-36.82-13.18-39.35-25S574.58,69.25,592.15,57Z" transform="translate(0 -0.07)" fill="#2f55d4"/>
  <polygon points="684.26 64.82 673.46 104.38 645.03 106.56 653.68 63.42 684.26 64.82" fill="#2f55d4"/>
  <polygon points="684.26 64.82 673.46 104.38 645.03 106.56 653.68 63.42 684.26 64.82" fill="url(#linear-gradient-9)"/>
  <path d="M676.05,94.4a1.2,1.2,0,0,0,0,.65,1.54,1.54,0,0,0,.6.64c1.7,1.34,2.42,3.9,4.47,4.58a20.18,20.18,0,0,0,4.19-5.91,11.5,11.5,0,0,0,1-8.12,9.52,9.52,0,0,0-4.67-5.43,3.74,3.74,0,0,0-3.28-.45,3.4,3.4,0,0,0-1.65,2.38c-.24,1-.28,2-.59,2.94a28.9,28.9,0,0,0-1.3,3.27,2.69,2.69,0,0,0,.74,2.44c.36.38.52.22.69.7A7.46,7.46,0,0,1,676.05,94.4Z" transform="translate(0 -0.07)" fill="url(#linear-gradient-10)"/>
  <path d="M626.94,117.33a1.64,1.64,0,0,1,1.35.43,1.35,1.35,0,0,1-.22,1.57,6.3,6.3,0,0,0-1,1.35,34.34,34.34,0,0,0,5.34,3.42c1.31.69,2.86,1.56,2.92,3a3.46,3.46,0,0,1-1.81,2.75,17.07,17.07,0,0,1-10.29,2.41,11.1,11.1,0,0,1-6.06-1.68,13.07,13.07,0,0,1-2.82-3.07l-2.46-3.32a.41.41,0,0,1-.08-.57l.08-.08,2.93-3.22C618.29,116.55,622.1,117.28,626.94,117.33Z" transform="translate(0 -0.07)" fill="url(#linear-gradient-11)"/>
  <path d="M668.54,218.08c-2.63,2.22-4.86-.83-5.29-3.32a53.77,53.77,0,0,1-.65-8.41q-.51-22.47-1-44.94a6.29,6.29,0,0,0-1-4.06c-1.1-1.26-3-1.43-4.61-1.5l-2.8-.13L612,153.77c-5.1-.24-10.34-.51-15-2.6s-8.67-6.43-8.81-11.54c.08,2.77,36-4.91,39.06-5.94,5.68-1.89,10.38-4.63,16.27-4.52,6.74.13,13.69,1.33,20.4,1.92,5.75.51,11.92,1.18,16.28,4.95,4.67,4,6.13,10.59,6.51,16.73C688.08,177.05,679.52,196.38,668.54,218.08Z" transform="translate(0 -0.07)" fill="#3f3d56"/>
  <path d="M665.82,217.61l-4-2.21a50.93,50.93,0,0,0,.81-9.05q-.51-22.47-1-44.94a6.29,6.29,0,0,0-1-4.06c-1.1-1.26-3-1.43-4.61-1.5l-2.8-.13-5.16-10s17.29.06,21.22,5.67S665.82,217.61,665.82,217.61Z" transform="translate(0 -0.07)" fill="#25233a"/>
  <path d="M659.23,169c0,3.76-1.27,7.41-2.63,10.92-3,7.75-6.38,15.3-9.8,22.85q-5.55,12.22-11.09,24.47c-.65,1.43-1.54,3.06-3.1,3.29-1.83.26-2.92-1.41-3.41-3.37a10.43,10.43,0,0,1-.31-2.67q.15-23.13,1.9-46.22a5.5,5.5,0,0,0-.26-2.7,5.25,5.25,0,0,0-2.25-2c-7.09-4.14-14.78-7.1-22-11s-14.16-8.86-18.42-15.86a4.6,4.6,0,0,1-.92-3.22c.41-1.94,2.77-2.62,4.72-2.93l40.22-6.45c9-1.45,15.74,11.52,20.23,17.8C655.75,157,659.23,162.66,659.23,169Z" transform="translate(0 -0.07)" fill="#3f3d56"/>
  <path d="M628.88,224.44l-3,13.32s10.16,7.15,13.11,8,12.76,0,12.76,0,1.54-4.07-3.65-5.89a60.51,60.51,0,0,0-10-2.52,12.22,12.22,0,0,1-3-8.42S631.22,229.64,628.88,224.44Z" transform="translate(0 -0.07)" fill="#25233a"/>
  <path d="M662.19,213.6l-3,13.31s10.16,7.16,13.11,8,12.76,0,12.76,0,1.54-4.07-3.65-5.89a61.55,61.55,0,0,0-10-2.53,12.18,12.18,0,0,1-3-8.41S664.53,218.8,662.19,213.6Z" transform="translate(0 -0.07)" fill="#25233a"/>
  <path d="M632.61,230.48l-3.41-3.37a10.43,10.43,0,0,1-.31-2.67q.15-23.13,1.9-46.22a5.5,5.5,0,0,0-.26-2.7,5.25,5.25,0,0,0-2.25-2c-7.09-4.14-14.78-7.1-22-11s-14.16-8.86-18.42-15.86a4.6,4.6,0,0,1-.92-3.22c.41-1.94,2.77-2.62,4.72-2.93,0,0,30.3,18.9,41.9,26.75S632.61,230.48,632.61,230.48Z" transform="translate(0 -0.07)" fill="#25233a"/>
</svg>
