<svg id="Layer_1" data-name="Layer 1" xmlns="http://www.w3.org/2000/svg" xmlns:xlink="http://www.w3.org/1999/xlink" viewBox="0 0 517.49 596.1"><defs><linearGradient id="linear-gradient" x1="497.68" y1="214.32" x2="484.95" y2="262.42" gradientUnits="userSpaceOnUse"><stop offset="0" stop-color="#fff" stop-opacity="0"/><stop offset="0.06" stop-color="#fff" stop-opacity="0.13"/><stop offset="0.16" stop-color="#fff" stop-opacity="0.33"/><stop offset="0.26" stop-color="#fff" stop-opacity="0.51"/><stop offset="0.37" stop-color="#fff" stop-opacity="0.66"/><stop offset="0.48" stop-color="#fff" stop-opacity="0.79"/><stop offset="0.59" stop-color="#fff" stop-opacity="0.88"/><stop offset="0.71" stop-color="#fff" stop-opacity="0.95"/><stop offset="0.84" stop-color="#fff" stop-opacity="0.99"/><stop offset="1" stop-color="#fff"/></linearGradient><linearGradient id="linear-gradient-2" x1="405.29" y1="224.89" x2="420.74" y2="224.89" gradientUnits="userSpaceOnUse"><stop offset="0" stop-color="#ecc4d7"/><stop offset="0.42" stop-color="#efd4d1"/><stop offset="1" stop-color="#f2eac9"/></linearGradient><linearGradient id="linear-gradient-3" x1="449.52" y1="475.9" x2="257.31" y2="563.88" gradientUnits="userSpaceOnUse"><stop offset="0" stop-opacity="0.07"/><stop offset="0.08" stop-opacity="0.25"/><stop offset="1"/></linearGradient><linearGradient id="linear-gradient-4" x1="359.65" y1="507.66" x2="553.55" y2="479.64" xlink:href="#linear-gradient-3"/><linearGradient id="linear-gradient-5" x1="378.28" y1="393.2" x2="331.14" y2="433.89" xlink:href="#linear-gradient-3"/><linearGradient id="linear-gradient-6" x1="343.22" y1="411.49" x2="359.38" y2="484.52" gradientUnits="userSpaceOnUse"><stop offset="0" stop-opacity="0.07"/><stop offset="0.52" stop-opacity="0.83"/><stop offset="0.56" stop-opacity="0.87"/><stop offset="1"/></linearGradient><linearGradient id="linear-gradient-7" x1="370.92" y1="310.59" x2="401.38" y2="310.59" xlink:href="#linear-gradient-2"/><linearGradient id="linear-gradient-8" x1="386.23" y1="309.41" x2="431.74" y2="379.85" xlink:href="#linear-gradient-2"/><linearGradient id="linear-gradient-9" x1="571.94" y1="260.06" x2="556.85" y2="340.23" gradientUnits="userSpaceOnUse"><stop offset="0.02" stop-color="#fff" stop-opacity="0"/><stop offset="0.06" stop-color="#fff" stop-opacity="0.13"/><stop offset="0.13" stop-color="#fff" stop-opacity="0.33"/><stop offset="0.2" stop-color="#fff" stop-opacity="0.51"/><stop offset="0.27" stop-color="#fff" stop-opacity="0.66"/><stop offset="0.35" stop-color="#fff" stop-opacity="0.79"/><stop offset="0.43" stop-color="#fff" stop-opacity="0.88"/><stop offset="0.51" stop-color="#fff" stop-opacity="0.95"/><stop offset="0.6" stop-color="#fff" stop-opacity="0.99"/><stop offset="0.71" stop-color="#fff"/></linearGradient><linearGradient id="linear-gradient-10" x1="219.84" y1="271.8" x2="220.82" y2="346.12" xlink:href="#linear-gradient"/><linearGradient id="linear-gradient-11" x1="337.36" y1="415.03" x2="352.95" y2="415.03" xlink:href="#linear-gradient-2"/></defs><title>40. Growing Up</title><path d="M337.63,112.15c-9.37,22.55-11.35,48.15-24.29,68.85-19.63,31.41-58.84,43.55-87.49,67-28.48,23.33-46.57,60.12-43.73,96.83s28.32,71.67,63.61,82.15c12.23,3.64,25.5,4.55,36.51,11,24.55,14.38,28.26,49.73,50.24,67.79,19.66,16.15,48.56,14.15,72.88,6.71s47.69-19.52,73.08-21.05c15.14-.91,30.37,2,45.45.43,19.22-2,36.88-11.14,53.78-20.52,29.39-16.32,61-38.14,65.89-71.4,5.6-38.32-27.32-73.07-26.8-111.8.24-18,7.8-35.33,8.5-53.36,1-24.87-12.32-49.8-33.5-62.86-17.33-10.7-38.45-13.46-56.56-22.77-24.55-12.62-41.44-36-62.27-54.08C435.24,62.36,359.47,59.55,337.63,112.15Z" transform="translate(-151.6)" fill="#2f55d4" opacity="0.18"/><path d="M497.46,226.75c3.16-4.51,9.81-5.26,15-3.39s9.35,5.73,13.66,9.16,9.27,6.61,14.78,6.7c2.2,0,4.43-.44,6.6-.06a8.82,8.82,0,0,1,7,8.73,128.23,128.23,0,0,0-46.76,6c-7.43,2.4-16,5.37-22.57,1.11-2.45-1.6-4.34-4.1-7.08-5.11-5.65-2.08-12,3-17.73,1.09-2.47-.84-4.31-2.86-6.49-4.31-7.21-4.79-17.22-2.76-24.84-6.87a5,5,0,0,1-2.77-3c-.4-1.9,1.28-3.72,3.15-4.27s3.86-.23,5.8-.09a28.24,28.24,0,0,0,14.43-2.88c1.88-.94,3.83-2.13,5.91-1.83,4.13.59,7.17,6.72,10.88,4.84-2.71,1.37-1.7-7.75-1.22-8.63,1.56-2.81,6.64-4.79,9.57-5.54C483.08,216.25,492.75,219.46,497.46,226.75Z" transform="translate(-151.6)" fill="#2f55d4"/><path d="M497.46,226.75c3.16-4.51,9.81-5.26,15-3.39s9.35,5.73,13.66,9.16,9.27,6.61,14.78,6.7c2.2,0,4.43-.44,6.6-.06a8.82,8.82,0,0,1,7,8.73,128.23,128.23,0,0,0-46.76,6c-7.43,2.4-16,5.37-22.57,1.11-2.45-1.6-4.34-4.1-7.08-5.11-5.65-2.08-12,3-17.73,1.09-2.47-.84-4.31-2.86-6.49-4.31-7.21-4.79-17.22-2.76-24.84-6.87a5,5,0,0,1-2.77-3c-.4-1.9,1.28-3.72,3.15-4.27s3.86-.23,5.8-.09a28.24,28.24,0,0,0,14.43-2.88c1.88-.94,3.83-2.13,5.91-1.83,4.13.59,7.17,6.72,10.88,4.84-2.71,1.37-1.7-7.75-1.22-8.63,1.56-2.81,6.64-4.79,9.57-5.54C483.08,216.25,492.75,219.46,497.46,226.75Z" transform="translate(-151.6)" fill="url(#linear-gradient)"/><polygon points="288.25 0 181.12 114.13 230.51 114.13 230.51 226.42 339.27 226.42 339.27 113.21 386.13 113.21 288.25 0" fill="#2f55d4"/><polygon points="52.17 218.25 118.28 145.69 186.57 216.83 144.63 216.83 144.63 308.44 86.41 308.44 86.41 218.25 52.17 218.25" fill="#2f55d4"/><polygon points="383.09 181.36 449.2 108.8 517.49 179.94 475.55 179.94 475.55 271.55 417.33 271.55 417.33 181.36 383.09 181.36" fill="#2f55d4"/><path d="M424.07,317.5s.08,89.51-3.9,97.89c-3.13,6.59-30.51,16.29-42.06,20.14-3.13,1.05-5.11,1.66-5.11,1.66l2.22-42.72a97.86,97.86,0,0,1-4.26,17c-2.69,7.31-6.74,13.81-12.42,12-11.93-3.79-15.29-6-15.29-6l-5.08-18s19.1-8.62,19.46-19.09,6.47-41.81,23.06-48.73l3.42-1.43,13.17-5.49s11-33.93,8.62-62.41,0-32.75,0-32.75h16.76s1.12,29.17,1.41,37.31S424.07,317.5,424.07,317.5Z" transform="translate(-151.6)" fill="#3f3d56"/><path d="M411.68,301.91c-1.85,7.41-4.77,14.5-7.68,21.56-1.5,3-2.4,9.56-5.46,11.5-3.26,2.07-9.27-2.33-12.34-3.71-.69-.32-1.4-.65-2.09-1l13.17-5.49s11-33.93,8.62-62.41,0-32.75,0-32.75h1.7a3.38,3.38,0,0,1,.75.5c1.65,1.41,1.89,3.83,2,6,.38,6.24.75,12.56-.46,18.69a82.28,82.28,0,0,0-1.77,8.7c-.26,2.95.26,6.13,2.22,8.35.92,1,2.14,1.84,2.8,3.06a7.84,7.84,0,0,1,.75,3.46A79.47,79.47,0,0,1,411.68,301.91Z" transform="translate(-151.6)" fill="#25233a"/><path d="M383.28,426.51a20.65,20.65,0,0,0-2,4.23,9.54,9.54,0,0,1-.63,2,5.81,5.81,0,0,1-1.11,1.37l-1.44,1.46c-3.13,1.05-5.11,1.66-5.11,1.66l2.22-42.72a97.86,97.86,0,0,1-4.26,17c.75-7.44,3.28-18.23,3.38-22.6a64.18,64.18,0,0,1,3.23-18.43c1.61,1.13,2.14,3.23,2.44,5.16,1.18,7.5.78,15.28,3,22.54,1.45,4.75,4,9.25,4.33,14.22S385.68,422.16,383.28,426.51Z" transform="translate(-151.6)" fill="#25233a"/><path d="M381.78,402.67l-8.13,7.81a2.68,2.68,0,0,1-1.54.73l-48.93,6a2.67,2.67,0,0,1-2.9-1.87l-11.23-36.55a2.71,2.71,0,0,1,2.27-3.47l45.4-5.17a2.68,2.68,0,0,1,2.87,1.88L367,396.14c.34,1.13.62,1.9.62,1.9h12.32A2.69,2.69,0,0,1,381.78,402.67Z" transform="translate(-151.6)" fill="#2f55d4"/><path d="M405.3,221.74a2.06,2.06,0,0,1,.53-1.81,1.45,1.45,0,0,1,1.7.12,4.05,4.05,0,0,1,1.1,1.45l1.31,2.37a4.92,4.92,0,0,0,1.31,1.71,5,5,0,0,0,3.12.56l5.34-.23a1.25,1.25,0,0,1,.67.11,1.07,1.07,0,0,1,.36,1,5.88,5.88,0,0,1-.62,2.5l-6,.22c-1.65.06-4.23.66-5.8.16C405.94,229.11,405.41,223.86,405.3,221.74Z" transform="translate(-151.6)" fill="url(#linear-gradient-2)"/><path d="M422.1,514.85c-.56,3.37-6,18.94-6,18.94L412,531.13l-5.37-3.48s9.77-44.7,8.9-49.27S407.86,462,407.86,462L403.2,569.57l-12,4.63s-19.32-116.06-18.23-137l47.17-21.8s14,41.21,15.68,49.92S422.67,511.48,422.1,514.85Z" transform="translate(-151.6)" fill="#2f55d4"/><path d="M404.49,539.61l21,13.26s2.47-4.06-1.43-9.18-8-9.9-8-9.9l-9.49-6.14Z" transform="translate(-151.6)" fill="#3f3d56"/><path d="M391.23,574.2s-6.73,12.63-4.21,19.36,8.21-1.5,11.51-6.45c2.8-4.22,5.94-12.91,5.94-12.91l-1.27-4.63Z" transform="translate(-151.6)" fill="#3f3d56"/><path d="M426.24,472.34,412,531.13l-5.37-3.48s9.77-44.7,8.9-49.27S407.86,462,407.86,462s5.54-9.82,7.51-7.72S426.24,472.34,426.24,472.34Z" transform="translate(-151.6)" fill="url(#linear-gradient-3)"/><path d="M381.09,433.45l12.62,139.79-2.48,1s-19.29-116.59-18.23-137Z" transform="translate(-151.6)" fill="url(#linear-gradient-4)"/><path d="M379.92,398l-9.47,8.74L367,396.14c.34,1.13.62,1.9.62,1.9Z" transform="translate(-151.6)" fill="url(#linear-gradient-5)"/><path d="M309.05,378.83l45.11-4.93a3.4,3.4,0,0,1,3.58,2.26l12.41,35.29-47,5.8Z" transform="translate(-151.6)" fill="url(#linear-gradient-6)"/><path d="M395.75,315.91c-1.16,2.58,1.53,8.86,1.53,8.86s2.91,5.57,1.93,11.19v0c0,.27-.11.55-.17.82-1.46,5.89-20.16-.34-19.59-8.57S370.92,299,370.92,299c5.34-23.57,22.84-16.1,24.4-14.84s7.38,19.89,5.79,24.12a11.8,11.8,0,0,1-1.93,3.38C397.88,313.3,396.51,314.22,395.75,315.91Z" transform="translate(-151.6)" fill="url(#linear-gradient-7)"/><path d="M395.32,284.18s2.62-6.52,0-8.84-7-2.94-11.95-3.15-6.5-1.06-10.37,3.15-5.17,10.8-7.57,11.93-4.5,4.93-3.24,8.68,4.42,9.72,5.05,9.92,4.95,4.83,5.16,7.57,5.78,4.06,5.78,4.06l-.31-10.8s-.63,2.84-3.26.42,1.26-5.26,1.57-5.15-3-5.54-1.95-8.3S381.31,276,395.32,284.18Z" transform="translate(-151.6)" fill="#3f3d56"/><path d="M399.21,336v0a3.27,3.27,0,0,1-.74,1.12,3.63,3.63,0,0,1-3.66.6,7.7,7.7,0,0,1-3.07-2.33,18.48,18.48,0,0,1-4.15-15.64,7.69,7.69,0,0,1,1.08-2.82c1.32-1.92,3.79-2.61,5.95-3.5s3.74-2.34,4.56-1.73c-1.3,1.62-2.67,2.54-3.43,4.23-1.16,2.58,1.53,8.86,1.53,8.86S400.19,330.34,399.21,336Z" transform="translate(-151.6)" fill="url(#linear-gradient-8)"/><path d="M497.68,287.5c-2,9,3.44,19,12.06,22.15,7.25,2.65,15.27.72,23,.73,13.52,0,26.37,6.12,39.86,7a52.51,52.51,0,0,0,25.94-5c4.67-2.23,9.16-5.19,14.29-5.84,4.3-.55,8.79.59,12.95-.65,7.07-2.1,10.6-11.09,8.05-18s-9.84-11.34-17.19-12c-7.14-.6-14.52,1.84-21.38-.22-7.67-2.3-12.93-9.72-20.55-12.2-11.16-3.62-22.45,4.36-31.48,11.86a14.38,14.38,0,0,0-13-9.54c-5.9-.12-11.73,4.78-17.09,7C506,275.85,499.58,279.13,497.68,287.5Z" transform="translate(-151.6)" fill="#2f55d4"/><path d="M497.68,287.5c-2,9,3.44,19,12.06,22.15,7.25,2.65,15.27.72,23,.73,13.52,0,26.37,6.12,39.86,7a52.51,52.51,0,0,0,25.94-5c4.67-2.23,9.16-5.19,14.29-5.84,4.3-.55,8.79.59,12.95-.65,7.07-2.1,10.6-11.09,8.05-18s-9.84-11.34-17.19-12c-7.14-.6-14.52,1.84-21.38-.22-7.67-2.3-12.93-9.72-20.55-12.2-11.16-3.62-22.45,4.36-31.48,11.86a14.38,14.38,0,0,0-13-9.54c-5.9-.12-11.73,4.78-17.09,7C506,275.85,499.58,279.13,497.68,287.5Z" transform="translate(-151.6)" fill="url(#linear-gradient-9)"/><path d="M152,302.32c-2,9,3.44,19,12.07,22.15,7.25,2.65,15.26.71,23,.73,13.51,0,26.36,6.11,39.85,7a52.54,52.54,0,0,0,25.95-5c4.67-2.22,9.15-5.19,14.29-5.84,4.3-.54,8.79.6,12.95-.64,7.06-2.1,10.6-11.1,8.05-18s-9.85-11.35-17.19-12c-7.14-.61-14.52,1.83-21.38-.22-7.68-2.3-12.94-9.73-20.55-12.2-11.16-3.63-22.45,4.36-31.48,11.85a14.38,14.38,0,0,0-13-9.53c-5.9-.12-11.73,4.77-17.09,7C160.32,290.67,153.92,294,152,302.32Z" transform="translate(-151.6)" fill="#2f55d4"/><path d="M152,302.32c-2,9,3.44,19,12.07,22.15,7.25,2.65,15.26.71,23,.73,13.51,0,26.36,6.11,39.85,7a52.54,52.54,0,0,0,25.95-5c4.67-2.22,9.15-5.19,14.29-5.84,4.3-.54,8.79.6,12.95-.64,7.06-2.1,10.6-11.1,8.05-18s-9.85-11.35-17.19-12c-7.14-.61-14.52,1.83-21.38-.22-7.68-2.3-12.94-9.73-20.55-12.2-11.16-3.63-22.45,4.36-31.48,11.85a14.38,14.38,0,0,0-13-9.53c-5.9-.12-11.73,4.77-17.09,7C160.32,290.67,153.92,294,152,302.32Z" transform="translate(-151.6)" fill="url(#linear-gradient-10)"/><path d="M339.62,417.15a9.42,9.42,0,0,0,3.09.11l5.57-.39a8.47,8.47,0,0,0,2.12-.35,4,4,0,0,0,2.5-2.78,1,1,0,0,0,0-.57c-.19-.57-1-.53-1.53-.19s-.89.87-1.48,1a2.34,2.34,0,0,1-.94-.11l-3.15-.8a1.3,1.3,0,0,0-.55-.06c-.69.11-.75,1.07-.64,1.76a2.39,2.39,0,0,0-1.81-.95,1.35,1.35,0,0,0-1.34,1.34l-1.24-1c-.17-.13-.4-.27-.59-.16a.52.52,0,0,0-.18.29l-.42,1.07c.11-.28-1.58-1-1.69,0C337.28,416.22,339.05,417,339.62,417.15Z" transform="translate(-151.6)" fill="url(#linear-gradient-11)"/></svg>