<svg id="Layer_1" data-name="Layer 1" xmlns="http://www.w3.org/2000/svg" xmlns:xlink="http://www.w3.org/1999/xlink" viewBox="0 0 681.83 534.99"><defs><linearGradient id="linear-gradient" x1="277.79" y1="492.82" x2="425.34" y2="492.82" gradientUnits="userSpaceOnUse"><stop offset="0.12" stop-color="#010101" stop-opacity="0"/><stop offset="0.95" stop-color="#010101"/></linearGradient><linearGradient id="linear-gradient-2" x1="322.12" y1="153.48" x2="330.53" y2="153.48" gradientTransform="translate(-17.57 -4.21) rotate(-0.92)" gradientUnits="userSpaceOnUse"><stop offset="0" stop-color="#e5c6d6"/><stop offset="0.42" stop-color="#ead4d0"/><stop offset="1" stop-color="#f0e9cb"/></linearGradient><linearGradient id="linear-gradient-3" x1="-879.49" y1="149.12" x2="-871.07" y2="149.12" gradientTransform="matrix(-1, 0.02, 0.02, 1, -506.35, 3.61)" xlink:href="#linear-gradient-2"/><linearGradient id="linear-gradient-4" x1="352.48" y1="591.19" x2="331.89" y2="188.02" gradientUnits="userSpaceOnUse"><stop offset="0" stop-color="#fff" stop-opacity="0"/><stop offset="0.95" stop-color="#fff"/></linearGradient><linearGradient id="linear-gradient-5" x1="297.85" y1="388.24" x2="338.45" y2="365.36" gradientTransform="matrix(1, 0, 0, 1, 0, 0)" xlink:href="#linear-gradient-2"/><linearGradient id="linear-gradient-6" x1="395.75" y1="389" x2="356.86" y2="366.13" gradientTransform="matrix(1, 0, 0, 1, 0, 0)" xlink:href="#linear-gradient-2"/><linearGradient id="linear-gradient-7" x1="343.56" y1="85.47" x2="351.77" y2="107.24" gradientTransform="translate(-17.57 -4.21) rotate(-0.92)" gradientUnits="userSpaceOnUse"><stop offset="0" stop-color="#010101" stop-opacity="0"/><stop offset="0.95" stop-color="#010101"/></linearGradient><linearGradient id="linear-gradient-8" x1="335.26" y1="190.18" x2="371.52" y2="190.18" xlink:href="#linear-gradient-2"/><linearGradient id="linear-gradient-9" x1="349.79" y1="203.07" x2="366.53" y2="120.35" gradientTransform="translate(-17.57 -4.21) rotate(-0.92)" xlink:href="#linear-gradient"/><linearGradient id="linear-gradient-10" x1="327.63" y1="145.02" x2="385.05" y2="145.02" xlink:href="#linear-gradient-2"/><linearGradient id="linear-gradient-11" x1="205.51" y1="292.71" x2="308.66" y2="304.77" gradientTransform="translate(-17.57 -4.21) rotate(-0.92)" gradientUnits="userSpaceOnUse"><stop offset="0.52" stop-color="#fff" stop-opacity="0.52"/><stop offset="0.95" stop-color="#fff"/></linearGradient><linearGradient id="linear-gradient-12" x1="493.7" y1="290.23" x2="399.91" y2="294.8" gradientTransform="matrix(1, 0, 0, 1, 0, 0)" xlink:href="#linear-gradient-11"/><linearGradient id="linear-gradient-13" x1="381.74" y1="201.27" x2="365.54" y2="212.12" xlink:href="#linear-gradient"/><linearGradient id="linear-gradient-14" x1="316.39" y1="271.89" x2="345.86" y2="262.06" gradientTransform="translate(-17.57 -4.21) rotate(-0.92)" xlink:href="#linear-gradient-4"/><linearGradient id="linear-gradient-15" x1="394.4" y1="247.58" x2="349.37" y2="249.73" gradientUnits="userSpaceOnUse"><stop offset="0" stop-color="#fff" stop-opacity="0"/><stop offset="0.11" stop-color="#fff" stop-opacity="0.18"/><stop offset="0.29" stop-color="#fff" stop-opacity="0.42"/><stop offset="0.45" stop-color="#fff" stop-opacity="0.63"/><stop offset="0.6" stop-color="#fff" stop-opacity="0.79"/><stop offset="0.74" stop-color="#fff" stop-opacity="0.9"/><stop offset="0.86" stop-color="#fff" stop-opacity="0.98"/><stop offset="0.95" stop-color="#fff"/></linearGradient><linearGradient id="linear-gradient-16" x1="390.29" y1="149.42" x2="373.27" y2="145.89" gradientTransform="translate(-17.57 -4.21) rotate(-0.92)" xlink:href="#linear-gradient"/><linearGradient id="linear-gradient-17" x1="-823.68" y1="153.61" x2="-840.71" y2="150.08" gradientTransform="matrix(-1, 0.02, 0.02, 1, -518.23, 3.8)" xlink:href="#linear-gradient"/><linearGradient id="linear-gradient-18" x1="317.92" y1="258.94" x2="357.64" y2="245.7" xlink:href="#linear-gradient-4"/><linearGradient id="linear-gradient-19" x1="325.38" y1="281.61" x2="469.5" y2="487.48" xlink:href="#linear-gradient"/><linearGradient id="linear-gradient-20" x1="285.9" y1="319.96" x2="365.24" y2="329.83" xlink:href="#linear-gradient-4"/><linearGradient id="linear-gradient-21" x1="359.01" y1="242.49" x2="492.97" y2="261.81" xlink:href="#linear-gradient"/></defs><title>Health 2</title><path d="M287.76,578.51c-40-9.64-78.48-23.74-116.35-38.7C115.3,517.65,56.8,490.79,27,443.24,5.54,409,2,368.27,2.63,329.1c.44-25.22,2.54-50.87,12.72-74.44,18.9-43.79,66.87-76.61,119.53-81.79,30.4-3,61.54,2.53,91.54-2.76,84.87-15,129.5-108.34,214.25-123.82,21.75-4,44.31-2.29,66.29.57,47.55,6.2,250.73,127.61,149.54,352.78-16.14,35.9-48.82,63.88-83.94,86.35-28.91,18.5-61.59,32.56-87.8,54-13.35,10.91-25.48,24-42.47,29.69-10.46,3.52-21.87,3.9-33.05,4.24l-91.05,2.81" transform="translate(-2.56 -43.94)" fill="#2f55d4" opacity="0.24" style="isolation:isolate"/><polygon points="217.58 249.95 217.58 323.14 164.49 323.14 164.49 377.8 91.33 377.8 91.33 323.14 38.28 323.14 38.28 249.95 91.33 249.95 91.33 198.5 164.49 198.5 164.49 249.95 217.58 249.95" fill="#2f55d4"/><polygon points="277.79 463.22 290.09 534.99 347.99 532.42 349.85 481.52 358.71 533.28 407.61 531.56 425.34 450.64 277.79 463.22" fill="#606161"/><polygon points="277.79 463.22 290.09 534.99 347.99 532.42 349.85 481.52 358.71 533.28 407.61 531.56 425.34 450.64 277.79 463.22" fill="url(#linear-gradient)"/><path d="M307,140.11a11.32,11.32,0,0,0,3.09,8.84,4.75,4.75,0,0,0,1.92,1.31c3.83,1.2,3.92-6.59,2.78-8.78C313.44,139,307.45,135.1,307,140.11Z" transform="translate(-2.56 -43.94)" fill="url(#linear-gradient-2)"/><path d="M375.28,134.66a11.36,11.36,0,0,1-2.81,8.94A4.76,4.76,0,0,1,370.6,145c-3.79,1.32-4.14-6.46-3.06-8.69C368.77,133.73,374.63,129.67,375.28,134.66Z" transform="translate(-2.56 -43.94)" fill="url(#linear-gradient-3)"/><path d="M324.53,185.88c-16.93,8.49-29.61,23.36-41.8,37.84-2.46,2.92-3.56,6.47-4.84,10.06-13.49,38-11.07,62.31-15,93.15-3.25,25.26-10.67,51-4.4,75.72,0,0,3,101.37,8.57,117.35l167.37-6.69S419,349.62,417.61,329.58c-6.91-97.24-26.9-118.36-41.85-131.52S324.53,185.88,324.53,185.88Z" transform="translate(-2.56 -43.94)" fill="#2f55d4"/><path d="M324.53,185.88c-16.93,8.49-29.61,23.36-41.8,37.84-2.46,2.92-3.56,6.47-4.84,10.06-13.49,38-11.07,62.31-15,93.15-3.25,25.26-10.67,51-4.4,75.72,0,0,3,101.37,8.57,117.35l167.37-6.69s-15.78-155.61-16.21-175.7c-1.81-84.82-23.67-125.78-42.43-139.55C359.71,186.28,324.53,185.88,324.53,185.88Z" transform="translate(-2.56 -43.94)" fill="url(#linear-gradient-4)"/><path d="M344.82,399.69a2.78,2.78,0,0,0,1.76-.32,2.68,2.68,0,0,0,.89-2.15c.41-6.72-4.07-12.6-6.65-18.81-2.18-5.22-3.06-10.91-5.16-16.17s-5.84-10.36-11.3-11.86a24.77,24.77,0,0,0-7-.52l-19,.44a3.29,3.29,0,0,0-3.93,3.75c-.47,4.91-4,16.46-.83,20.8,1.42,2,5.22,2.65,7.34,3.65a88.21,88.21,0,0,1,8.92,5C320.3,390,331.76,399.69,344.82,399.69Z" transform="translate(-2.56 -43.94)" fill="url(#linear-gradient-5)"/><path d="M372.6,352.74c-9,4.64-12.36,15.52-16.61,24.73a83.76,83.76,0,0,1-9,15.1c-1.07,1.43-2.25,3.06-2,4.82a4.42,4.42,0,0,0,3.87,3.36,11.69,11.69,0,0,0,5.36-.86,79.66,79.66,0,0,0,24.37-13.45c4.76-3.85,9.24-8.36,15-10.44,2.25-.81,4.85-1.37,6.2-3.35a9.07,9.07,0,0,0,1.17-4c.49-3.82,1-7.71.26-11.49-1.24-6.49-4.08-8.3-9.86-7.87C385.21,349.74,378.2,349.85,372.6,352.74Z" transform="translate(-2.56 -43.94)" fill="url(#linear-gradient-6)"/><path d="M320.14,196.94s19.72,18.11,30.24,5.55,9.25-7.86,9.25-7.86l-5.48,118Z" transform="translate(-2.56 -43.94)" fill="#606161"/><path d="M345.09,74.68a21.73,21.73,0,0,0-14.52-7.61c-5.47-.49-11.48,1.51-14.38,6.17-2.11,3.38-2.32,7.58-2.33,11.57,0,3.72.13,7.59,1.87,10.88a15.34,15.34,0,0,0,8.27,6.86c8,3,17.47.3,23.56-5.49S350,80.5,345.09,74.68Z" transform="translate(-2.56 -43.94)" fill="#606161"/><path d="M345.09,74.68a21.73,21.73,0,0,0-14.52-7.61c-5.47-.49-11.48,1.51-14.38,6.17-2.11,3.38-2.32,7.58-2.33,11.57,0,3.72.13,7.59,1.87,10.88a15.34,15.34,0,0,0,8.27,6.86c8,3,17.47.3,23.56-5.49S350,80.5,345.09,74.68Z" transform="translate(-2.56 -43.94)" fill="url(#linear-gradient-7)"/><path d="M327.17,161.55s.18,25.45-5.53,30.9,23.7,30,35.53,1.89c0,0-7.34-11.94-5.21-32.3S327.17,161.55,327.17,161.55Z" transform="translate(-2.56 -43.94)" fill="url(#linear-gradient-8)"/><path d="M326.37,167.59l.09,5.58s15.08,21,21,13.73,4.1-8.77,4.1-8.77L352,162Z" transform="translate(-2.56 -43.94)" fill="url(#linear-gradient-9)"/><path d="M312.52,125.39s-3.62,38.91,17.27,46.28,33.1-3.88,38.49-22.73-3.92-56.54-26-52.5S312.52,125.39,312.52,125.39Z" transform="translate(-2.56 -43.94)" fill="url(#linear-gradient-10)"/><path d="M309.4,138.49a10,10,0,0,1-1.86-4.5,42.4,42.4,0,0,1,13.4-40.07,23.94,23.94,0,0,1,7.72-4.72,25.34,25.34,0,0,1,8.84-1c9.31.28,18.65,3.17,26,8.9S376,111.51,376.6,120.8a16.59,16.59,0,0,1-1.18,8.11,8.86,8.86,0,0,1-6.09,5.13c-4.79.91-6.18-3.49-10.1-6.39-5.91-4.35-7.88-10.92-21.14-9.6C316.45,120.22,315.34,145.5,309.4,138.49Z" transform="translate(-2.56 -43.94)" fill="#606161"/><path d="M305.11,199.53s-71.52,51.38-73,146.19c-.87,54.94,61,44.58,63,43.21s7.27-48.35,7.27-48.35-22.1.35-24.85-3.62S305.11,199.53,305.11,199.53Z" transform="translate(-2.56 -43.94)" fill="#2f55d4"/><path d="M305.11,199.53s-71.52,51.38-73,146.19c-.87,54.94,61,44.58,63,43.21s7.27-48.35,7.27-48.35-22.1.35-24.85-3.62S305.11,199.53,305.11,199.53Z" transform="translate(-2.56 -43.94)" fill="url(#linear-gradient-11)"/><path d="M381.34,199.53s71.53,51.38,73,146.19c.87,54.94-61,44.58-63,43.21s-7.26-48.35-7.26-48.35,22.1.35,24.84-3.62S381.34,199.53,381.34,199.53Z" transform="translate(-2.56 -43.94)" fill="#2f55d4"/><path d="M381.34,199.53s71.53,51.38,73,146.19c.87,54.94-61,44.58-63,43.21s-7.26-48.35-7.26-48.35,22.1.35,24.84-3.62S381.34,199.53,381.34,199.53Z" transform="translate(-2.56 -43.94)" fill="url(#linear-gradient-12)"/><path d="M390.7,215.54a1.16,1.16,0,0,1-1.09-.78C385,200.93,367,193,366.82,192.88a1.13,1.13,0,0,1-.59-1.5,1.15,1.15,0,0,1,1.5-.6c.78.34,19.12,8.45,24.06,23.26a1.16,1.16,0,0,1-.73,1.45A1.12,1.12,0,0,1,390.7,215.54Z" transform="translate(-2.56 -43.94)" fill="#2f55d4"/><path d="M390.7,215.54a1.16,1.16,0,0,1-1.09-.78C385,200.93,367,193,366.82,192.88a1.13,1.13,0,0,1-.59-1.5,1.15,1.15,0,0,1,1.5-.6c.78.34,19.12,8.45,24.06,23.26a1.16,1.16,0,0,1-.73,1.45A1.12,1.12,0,0,1,390.7,215.54Z" transform="translate(-2.56 -43.94)" fill="url(#linear-gradient-13)"/><path d="M319.94,293.61c-30.27-43.36-7.8-94.87-7.69-95a1.24,1.24,0,0,0-.15-1.58.93.93,0,0,0-1.41,0c-.46.58-24,53.25,7.27,96.69C318.32,294.2,320.22,294,319.94,293.61Z" transform="translate(-2.56 -43.94)" fill="#2f55d4"/><path d="M325.12,186.81s-7.49,6.6.36,22.55,29.39,106.26,29.39,106.26L313.62,250l4.07-25.08-8.59-6.56s-.38-23.66,4-28.65S322.28,185,325.12,186.81Z" transform="translate(-2.56 -43.94)" fill="#2f55d4"/><path d="M353.09,183.35s12.1,2.82,14.2,8.48S378,214.1,378,214.1l-5.24,7.45,8.53,9.58-26.45,84.49s5.32-114,2.3-121.28S353.09,183.35,353.09,183.35Z" transform="translate(-2.56 -43.94)" fill="#2f55d4"/><path d="M325.12,186.81s-7.49,6.6.36,22.55,29.39,106.26,29.39,106.26L313.62,250l4.07-25.08-8.59-6.56s-.38-23.66,4-28.65S322.28,185,325.12,186.81Z" transform="translate(-2.56 -43.94)" fill="url(#linear-gradient-14)"/><path d="M355.09,310.41c1-22.42,4.75-109.74,2.07-116.08-3-7.31-4.08-11-4.08-11a.2.2,0,0,0,.12.07c1.34.3,12.12,3.1,14.07,8.4,2.14,5.67,10.79,22.24,10.79,22.24l-5.24,7.5,8.47,9.57-26.45,84.51S354.9,313.76,355.09,310.41Z" transform="translate(-2.56 -43.94)" fill="url(#linear-gradient-15)"/><path d="M371.46,137.5a2.63,2.63,0,0,0,.6-.85,5.81,5.81,0,0,0,.13-1.11,1.55,1.55,0,0,1,.5-1,1,1,0,0,1,1-.21,1.17,1.17,0,0,1,.64.72,3.26,3.26,0,0,1,.16,1,7.61,7.61,0,0,1-.5,3.76,8.36,8.36,0,0,1-1.76,2.18,1.52,1.52,0,0,1-1,.56,1.45,1.45,0,0,1-.71-.25.63.63,0,0,1-.24-.19.74.74,0,0,1-.08-.28,7.21,7.21,0,0,1,0-2.66A3.54,3.54,0,0,1,371.46,137.5Z" transform="translate(-2.56 -43.94)" fill="url(#linear-gradient-16)"/><path d="M311.36,142.64a2.35,2.35,0,0,1-.62-.82,5.13,5.13,0,0,1-.17-1.11,1.59,1.59,0,0,0-.53-1,1.08,1.08,0,0,0-1.05-.18,1.21,1.21,0,0,0-.62.74,3.68,3.68,0,0,0-.12,1,7.57,7.57,0,0,0,.61,3.75,8.44,8.44,0,0,0,1.84,2.12,1.53,1.53,0,0,0,1,.53,1.47,1.47,0,0,0,.7-.27.59.59,0,0,0,.24-.2.73.73,0,0,0,.07-.29,7.39,7.39,0,0,0-.12-2.65A3.59,3.59,0,0,0,311.36,142.64Z" transform="translate(-2.56 -43.94)" fill="url(#linear-gradient-17)"/><path d="M355.09,310.41c1-22.42,4.75-109.74,2.07-116.08-3-7.31-4.08-11-4.08-11a.2.2,0,0,0,.12.07c.85.79,6.46,5.91,7.86,9.5S364.47,284.57,355.09,310.41Z" transform="translate(-2.56 -43.94)" fill="url(#linear-gradient-18)"/><path d="M291.49,312.09s8.93-25.65,32.54-22.3,27.72,18.84,27.72,18.84,6.32-28.74,38.69-16.77,7.32,50.6,3.55,53.17-45.63,42.91-45.63,42.91-52.52-45.49-55.5-50.19S286.84,324.22,291.49,312.09Z" transform="translate(-2.56 -43.94)" fill="#2f55d4"/><path d="M300.13,313.28s7.78-25.45,27.94-22.29,23.56,18.49,23.56,18.49,10.76-28.11,38.81-17.62c32.88,12.29,6.79,50.6,3.55,53.17s-45.74,43-45.74,43-44.59-44.72-47.11-49.36S296.08,325.32,300.13,313.28Z" transform="translate(-2.56 -43.94)" fill="url(#linear-gradient-19)"/><path d="M296.81,311.58c2.68-7.68,9.17-14.71,17.29-15.18a2.86,2.86,0,0,1,1.56.24,2.79,2.79,0,0,1,1.11,1.93c1.13,5.32-1.64,10.6-2.59,15.95-1.84,10.37,3.17,20.56,7.33,30.23.69,1.58,1.3,3.57.19,4.89a4.29,4.29,0,0,1-3.07,1.17C299.6,352.14,291.6,326.52,296.81,311.58Z" transform="translate(-2.56 -43.94)" fill="url(#linear-gradient-20)"/><polygon points="344.52 318.32 334.08 284.31 327.83 297.41 294.81 298.45 289.45 292.87 323.84 291.62 335.31 267.56 344.89 298.74 353.16 274.99 359.35 288.26 367.05 268.86 374.37 291.98 397.53 292.01 394.1 298.02 369.94 298.2 366.4 287.01 359.8 303.63 353.98 291.17 344.52 318.32" fill="#fff"/><path d="M394.75,282.14a6.1,6.1,0,0,1-2.64-.59c-2.27-1.09-3.74-3.54-4.39-7.29-1.21-7-5.31-55.6.78-60.8a3.42,3.42,0,0,1,3.37-.74c5.1,1.59,9.55,17.13,10.79,21.85L412,271.51c.15,2.68-.76,7.22-4.9,7.7l-.4-3.4c2-.24,1.92-3.77,1.92-3.81l-9.29-36.57c-2.62-10-6.69-19.23-8.53-19.44-3.78,3.24-1.72,46,.29,57.69.44,2.55,1.3,4.21,2.5,4.78a4,4,0,0,0,3-.19l1.65,3A8,8,0,0,1,394.75,282.14Z" transform="translate(-2.56 -43.94)" fill="#2f55d4"/><path d="M394.75,282.14a6.1,6.1,0,0,1-2.64-.59c-2.27-1.09-3.74-3.54-4.39-7.29-1.21-7-5.31-55.6.78-60.8a3.42,3.42,0,0,1,3.37-.74c5.1,1.59,9.55,17.13,10.79,21.85L412,271.51c.15,2.68-.76,7.22-4.9,7.7l-.4-3.4c2-.24,1.92-3.77,1.92-3.81l-9.29-36.57c-2.62-10-6.69-19.23-8.53-19.44-3.78,3.24-1.72,46,.29,57.69.44,2.55,1.3,4.21,2.5,4.78a4,4,0,0,0,3-.19l1.65,3A8,8,0,0,1,394.75,282.14Z" transform="translate(-2.56 -43.94)" fill="url(#linear-gradient-21)"/></svg>