<svg id="Layer_1" data-name="Layer 1" xmlns="http://www.w3.org/2000/svg" xmlns:xlink="http://www.w3.org/1999/xlink" viewBox="0 0 420.22 406.42"><defs><linearGradient id="linear-gradient" x1="200.4" y1="156.09" x2="193.36" y2="0.32" gradientTransform="translate(397.09 230.16) rotate(180)" gradientUnits="userSpaceOnUse"><stop offset="0" stop-color="#fff" stop-opacity="0"/><stop offset="0.95" stop-color="#fff"/></linearGradient><linearGradient id="linear-gradient-2" x1="420.79" y1="115.42" x2="518.18" y2="130.09" gradientTransform="translate(833.24 229.58) rotate(180)" xlink:href="#linear-gradient"/><linearGradient id="linear-gradient-3" x1="354" y1="-18.75" x2="355.76" y2="124.99" gradientTransform="translate(710.05 130.47) rotate(180)" xlink:href="#linear-gradient"/><linearGradient id="linear-gradient-4" x1="311.92" y1="260.14" x2="302.53" y2="55.38" gradientTransform="translate(616.43 358.85) rotate(180)" xlink:href="#linear-gradient"/><linearGradient id="linear-gradient-5" x1="261.62" y1="383.07" x2="259.72" y2="281.75" gradientTransform="matrix(1, 0, 0, -1, -82.88, 448.43)" gradientUnits="userSpaceOnUse"><stop offset="0" stop-color="#fff" stop-opacity="0"/><stop offset="0.99" stop-color="#fff"/></linearGradient><linearGradient id="linear-gradient-6" x1="255" y1="383.18" x2="253.1" y2="281.87" xlink:href="#linear-gradient-5"/><linearGradient id="linear-gradient-7" x1="307.07" y1="382.22" x2="305.17" y2="280.9" xlink:href="#linear-gradient-5"/><linearGradient id="linear-gradient-8" x1="364.93" y1="381.12" x2="363.04" y2="279.82" xlink:href="#linear-gradient-5"/><linearGradient id="linear-gradient-9" x1="269.97" y1="382.9" x2="268.07" y2="281.59" xlink:href="#linear-gradient-5"/><linearGradient id="linear-gradient-10" x1="282.11" y1="382.69" x2="280.2" y2="281.37" xlink:href="#linear-gradient-5"/><linearGradient id="linear-gradient-11" x1="316" y1="382.05" x2="314.11" y2="280.73" xlink:href="#linear-gradient-5"/><linearGradient id="linear-gradient-12" x1="278.22" y1="382.75" x2="276.32" y2="281.44" xlink:href="#linear-gradient-5"/><linearGradient id="linear-gradient-13" x1="321.5" y1="381.94" x2="319.61" y2="280.63" xlink:href="#linear-gradient-5"/><linearGradient id="linear-gradient-14" x1="261.62" y1="356.88" x2="259.72" y2="255.56" xlink:href="#linear-gradient-5"/><linearGradient id="linear-gradient-15" x1="255" y1="357.01" x2="253.1" y2="255.69" xlink:href="#linear-gradient-5"/><linearGradient id="linear-gradient-16" x1="307.07" y1="356.03" x2="305.17" y2="254.71" xlink:href="#linear-gradient-5"/><linearGradient id="linear-gradient-17" x1="364.93" y1="354.95" x2="363.04" y2="253.63" xlink:href="#linear-gradient-5"/><linearGradient id="linear-gradient-18" x1="269.97" y1="356.73" x2="268.07" y2="255.41" xlink:href="#linear-gradient-5"/><linearGradient id="linear-gradient-19" x1="282.11" y1="356.5" x2="280.2" y2="255.18" xlink:href="#linear-gradient-5"/><linearGradient id="linear-gradient-20" x1="316" y1="355.87" x2="314.11" y2="254.55" xlink:href="#linear-gradient-5"/><linearGradient id="linear-gradient-21" x1="278.22" y1="356.57" x2="276.32" y2="255.26" xlink:href="#linear-gradient-5"/><linearGradient id="linear-gradient-22" x1="321.5" y1="355.77" x2="319.61" y2="254.45" xlink:href="#linear-gradient-5"/><linearGradient id="linear-gradient-23" x1="261.62" y1="330.7" x2="259.72" y2="229.39" xlink:href="#linear-gradient-5"/><linearGradient id="linear-gradient-24" x1="255" y1="330.83" x2="253.1" y2="229.51" xlink:href="#linear-gradient-5"/><linearGradient id="linear-gradient-25" x1="307.07" y1="329.85" x2="305.17" y2="228.54" xlink:href="#linear-gradient-5"/><linearGradient id="linear-gradient-26" x1="364.93" y1="328.77" x2="363.04" y2="227.45" xlink:href="#linear-gradient-5"/><linearGradient id="linear-gradient-27" x1="269.97" y1="330.55" x2="268.07" y2="229.23" xlink:href="#linear-gradient-5"/><linearGradient id="linear-gradient-28" x1="282.11" y1="330.32" x2="280.2" y2="229" xlink:href="#linear-gradient-5"/><linearGradient id="linear-gradient-29" x1="316" y1="329.68" x2="314.11" y2="228.36" xlink:href="#linear-gradient-5"/><linearGradient id="linear-gradient-30" x1="278.22" y1="330.39" x2="276.32" y2="229.07" xlink:href="#linear-gradient-5"/><linearGradient id="linear-gradient-31" x1="321.5" y1="329.58" x2="319.61" y2="228.26" xlink:href="#linear-gradient-5"/><linearGradient id="linear-gradient-32" x1="333.51" y1="249.74" x2="350.87" y2="249.74" gradientUnits="userSpaceOnUse"><stop offset="0" stop-color="#e5c6d6"/><stop offset="0.42" stop-color="#ead4d0"/><stop offset="1" stop-color="#f0e9cb"/></linearGradient><linearGradient id="linear-gradient-33" x1="267.38" y1="249.25" x2="284.32" y2="249.25" xlink:href="#linear-gradient-32"/><linearGradient id="linear-gradient-34" x1="322.22" y1="181.36" x2="330.07" y2="181.36" xlink:href="#linear-gradient-32"/><linearGradient id="linear-gradient-35" x1="287.94" y1="179.86" x2="295.96" y2="179.86" xlink:href="#linear-gradient-32"/><linearGradient id="linear-gradient-36" x1="301.28" y1="200.39" x2="317.79" y2="200.39" xlink:href="#linear-gradient-32"/><linearGradient id="linear-gradient-37" x1="280.58" y1="279.54" x2="334.7" y2="279.54" gradientUnits="userSpaceOnUse"><stop offset="0" stop-color="#010101" stop-opacity="0"/><stop offset="0.95" stop-color="#010101"/></linearGradient><linearGradient id="linear-gradient-38" x1="197.45" y1="246.75" x2="254.83" y2="246.75" xlink:href="#linear-gradient-37"/><linearGradient id="linear-gradient-39" x1="308.92" y1="236.45" x2="307.82" y2="294.75" xlink:href="#linear-gradient-37"/><linearGradient id="linear-gradient-40" x1="307.68" y1="333.3" x2="310.76" y2="306.9" xlink:href="#linear-gradient-37"/><linearGradient id="linear-gradient-41" x1="306.62" y1="291.13" x2="307.5" y2="326.77" gradientTransform="translate(614.1 617.39) rotate(180)" xlink:href="#linear-gradient-37"/><linearGradient id="linear-gradient-42" x1="201.67" y1="322.04" x2="201.96" y2="395.67" xlink:href="#linear-gradient-37"/><linearGradient id="linear-gradient-43" x1="218.42" y1="332.91" x2="227.8" y2="369" xlink:href="#linear-gradient-37"/><linearGradient id="linear-gradient-44" x1="194.82" y1="330.93" x2="178.98" y2="369.35" xlink:href="#linear-gradient-37"/><linearGradient id="linear-gradient-45" x1="207.73" y1="349.86" x2="189.25" y2="403.54" xlink:href="#linear-gradient-37"/></defs><title>code 2</title><path d="M485.93,268c-12.07,17.31-29,30.63-42.39,47-19.66,24-32.38,55.16-59,71.17-12.59,7.56-27.16,10.94-41.44,14.22-22.95,5.28-46.73,10.56-69.86,6.1-17.73-3.41-33.82-12.35-49.58-21.17l-12.47-7c-2.75-1.56-5.53-3.09-8.31-4.65l-8.1-4.54c-23.78-13.4-47.41-27.38-67.45-45.85C105,302.78,87.25,275.8,83.56,245.67c-4.28-34.82,12.1-71.39,40.92-91.4,15.81-11,34.66-17.12,50.19-28.53,24.51-18,38-46.79,54.83-72.08,31.19-46.89,91.17-69.33,141.68-36,19.63,12.94,34.48,32.16,45.39,53,9.22,17.57,16,36.63,28.26,52.23,14,17.82,34.38,30.16,46.63,49.23C509.81,200.66,505.37,240.14,485.93,268Z" transform="translate(-82.88 -1.75)" fill="#2f55d4" opacity="0.24" style="isolation:isolate"/><path d="M226.86,374.7c-1.47,1.61.94,3.85,3,4.63a118.11,118.11,0,0,0,42.1,7.8l-2.45,4.17a131.42,131.42,0,0,0,69,.36l-3.48-5.4,20.21-1c3.21-.15,14.47,1.17,16.6-1.68,6.13-8.21-18.82-8.53-21.5-8.64q-39.93-1.67-79.91-1.29-10.9.1-21.8.35C245.19,374.12,229,372.42,226.86,374.7Z" transform="translate(-82.88 -1.75)" fill="#2f55d4" opacity="0.42" style="isolation:isolate"/><path d="M340.48,300.71q-.81,16-1.93,32.06a91.36,91.36,0,0,1-2.1,16.08,46.85,46.85,0,0,1-3.32,9.11c-.61,1.25-1.48,2.61-2.85,2.75-1.73.18-2.93-1.67-3.55-3.3-3.09-8-3.09-16.76-3.29-25.32q-.17-6.64-.53-13.29c-.29-5.35-.87-11.14-4.49-15.1-1.1-1.2-2.44-2.18-3.52-3.41-4.41-5-3.09-13.43,1.66-18.14,3.69-3.65,14.4-8.47,19.57-5.45C342.27,280.28,340.77,294.94,340.48,300.71Z" transform="translate(-82.88 -1.75)" fill="#606161"/><path d="M309.52,282.4a13.63,13.63,0,0,1,2.07,8.22c-.25,8.69-5.41,16.38-8,24.69-3.88,12.55-1.72,26-1.33,39.17a12.28,12.28,0,0,1-.66,5.36,4.49,4.49,0,0,1-4.21,2.88,5.62,5.62,0,0,1-3.35-2c-6.36-6.8-6.15-17.17-7.2-26.41-1.18-10.29-4.37-20.23-7.09-30.22-1.23-4.51-2.38-9.13-2.09-13.79s2.25-9.45,6.1-12.09C290.75,273.43,304.53,275.25,309.52,282.4Z" transform="translate(-82.88 -1.75)" fill="#606161"/><rect x="131.77" y="41.46" width="133.54" height="147.24" rx="12.14" transform="translate(314.21 228.41) rotate(-180)" fill="#2f55d4" opacity="0.52"/><rect x="131.77" y="41.46" width="133.54" height="147.24" rx="12.14" transform="translate(314.21 228.41) rotate(-180)" fill="url(#linear-gradient)"/><rect x="342.42" y="69.28" width="148.4" height="91.01" rx="11.56" transform="translate(750.35 227.83) rotate(-180)" fill="#2f55d4" opacity="0.52"/><rect x="342.42" y="69.28" width="148.4" height="91.01" rx="11.56" transform="translate(750.35 227.83) rotate(-180)" fill="url(#linear-gradient-2)"/><rect x="308.41" y="36.65" width="93.23" height="57.18" rx="7.26" transform="translate(627.16 128.72) rotate(-180)" fill="#2f55d4" opacity="0.52"/><rect x="308.41" y="36.65" width="93.23" height="57.18" rx="7.26" transform="translate(627.16 128.72) rotate(-180)" fill="url(#linear-gradient-3)"/><rect x="190.34" y="257.1" width="225.69" height="10.82" transform="translate(523.5 523.28) rotate(-180)" fill="#2f55d4" opacity="0.52"/><rect x="221.84" y="115.66" width="172.75" height="127.53" rx="12.56" transform="translate(533.55 357.1) rotate(-180)" fill="#2f55d4"/><rect x="221.84" y="115.66" width="172.75" height="127.53" rx="12.56" transform="translate(533.55 357.1) rotate(-180)" fill="url(#linear-gradient-4)"/><rect x="160.2" y="133.88" width="34.45" height="2.53" fill="url(#linear-gradient-5)"/><rect x="160.2" y="138.77" width="21.03" height="2.37" fill="url(#linear-gradient-6)"/><rect x="189.71" y="138.77" width="66.17" height="2.39" fill="url(#linear-gradient-7)"/><rect x="262.07" y="138.77" width="37.24" height="2.39" fill="url(#linear-gradient-8)"/><rect x="171.14" y="143.68" width="28.91" height="2.5" fill="url(#linear-gradient-9)"/><rect x="180.42" y="148.56" width="34.45" height="2.53" fill="url(#linear-gradient-10)"/><rect x="217.12" y="148.56" width="28.88" height="2.81" fill="url(#linear-gradient-11)"/><rect x="180.37" y="153.45" width="26.6" height="2.37" fill="url(#linear-gradient-12)"/><rect x="209.52" y="153.45" width="54.9" height="2.63" fill="url(#linear-gradient-13)"/><rect x="160.2" y="160.07" width="34.45" height="2.53" fill="url(#linear-gradient-14)"/><rect x="160.2" y="164.96" width="21.03" height="2.37" fill="url(#linear-gradient-15)"/><rect x="189.71" y="164.96" width="66.17" height="2.39" fill="url(#linear-gradient-16)"/><rect x="262.07" y="164.96" width="37.24" height="2.39" fill="url(#linear-gradient-17)"/><rect x="171.14" y="169.85" width="28.91" height="2.5" fill="url(#linear-gradient-18)"/><rect x="180.42" y="174.75" width="34.45" height="2.53" fill="url(#linear-gradient-19)"/><rect x="217.12" y="174.75" width="28.88" height="2.81" fill="url(#linear-gradient-20)"/><rect x="180.37" y="179.64" width="26.6" height="2.37" fill="url(#linear-gradient-21)"/><rect x="209.52" y="179.64" width="54.9" height="2.63" fill="url(#linear-gradient-22)"/><rect x="160.2" y="186.25" width="34.45" height="2.53" fill="url(#linear-gradient-23)"/><rect x="160.2" y="191.14" width="21.03" height="2.37" fill="url(#linear-gradient-24)"/><rect x="189.71" y="191.14" width="66.17" height="2.39" fill="url(#linear-gradient-25)"/><rect x="262.07" y="191.14" width="37.24" height="2.39" fill="url(#linear-gradient-26)"/><rect x="171.14" y="196.03" width="28.91" height="2.5" fill="url(#linear-gradient-27)"/><rect x="180.42" y="200.92" width="34.45" height="2.53" fill="url(#linear-gradient-28)"/><rect x="217.12" y="200.92" width="28.88" height="2.81" fill="url(#linear-gradient-29)"/><rect x="180.37" y="205.82" width="26.6" height="2.37" fill="url(#linear-gradient-30)"/><rect x="209.52" y="205.82" width="54.9" height="2.63" fill="url(#linear-gradient-31)"/><g opacity="0.52"><rect x="237.35" y="42.71" width="17.14" height="1.26" fill="#2f55d4"/><rect x="237.35" y="45.15" width="10.46" height="1.18" fill="#2f55d4"/><rect x="252.03" y="45.15" width="32.92" height="1.19" fill="#2f55d4"/><rect x="288.02" y="45.15" width="18.53" height="1.19" fill="#2f55d4"/><rect x="242.79" y="47.58" width="14.38" height="1.24" fill="#2f55d4"/><rect x="247.41" y="50.02" width="17.14" height="1.26" fill="#2f55d4"/><rect x="265.66" y="50.02" width="14.36" height="1.4" fill="#2f55d4"/><rect x="247.38" y="52.45" width="13.23" height="1.18" fill="#2f55d4"/><rect x="261.89" y="52.45" width="27.31" height="1.31" fill="#2f55d4"/><rect x="237.35" y="55.74" width="17.14" height="1.26" fill="#2f55d4"/><rect x="237.35" y="58.17" width="10.46" height="1.18" fill="#2f55d4"/><rect x="252.03" y="58.17" width="32.92" height="1.19" fill="#2f55d4"/><rect x="288.02" y="58.17" width="18.53" height="1.19" fill="#2f55d4"/><rect x="242.79" y="60.6" width="14.38" height="1.24" fill="#2f55d4"/><rect x="247.41" y="63.04" width="17.14" height="1.26" fill="#2f55d4"/><rect x="265.66" y="63.04" width="14.36" height="1.4" fill="#2f55d4"/><rect x="247.38" y="65.47" width="13.23" height="1.18" fill="#2f55d4"/><rect x="261.89" y="65.47" width="27.31" height="1.31" fill="#2f55d4"/><rect x="237.35" y="68.76" width="17.14" height="1.26" fill="#2f55d4"/><rect x="237.35" y="71.2" width="10.46" height="1.18" fill="#2f55d4"/><rect x="252.03" y="71.2" width="32.92" height="1.19" fill="#2f55d4"/><rect x="288.02" y="71.2" width="18.53" height="1.19" fill="#2f55d4"/><rect x="242.79" y="73.63" width="14.38" height="1.24" fill="#2f55d4"/><rect x="247.41" y="76.06" width="17.14" height="1.26" fill="#2f55d4"/><rect x="265.66" y="76.06" width="14.36" height="1.4" fill="#2f55d4"/><rect x="247.38" y="78.5" width="13.23" height="1.18" fill="#2f55d4"/><rect x="261.89" y="78.5" width="27.31" height="1.31" fill="#2f55d4"/></g><path d="M349.79,250.1c.71,2,1.38,4.1.94,6.16a6,6,0,0,1-.85,2c-2,3.1-6.74,3.58-10,1.72s-5.1-5.42-6-9a9.67,9.67,0,0,1-.35-3.7c.29-2.17,1.73-4,3.23-5.6,2-2.08,5.67-4.8,8.36-2.3C347.54,241.62,348.72,247.11,349.79,250.1Z" transform="translate(-82.88 -1.75)" fill="url(#linear-gradient-32)"/><path d="M268,249.5a5.14,5.14,0,0,0-.59,2.69,4.69,4.69,0,0,0,.7,1.68,13.49,13.49,0,0,0,3.31,3.93,6.87,6.87,0,0,0,4.81,1.49c2.56-.28,4.59-2.31,5.95-4.5a12.33,12.33,0,0,0,2.13-7.06,9,9,0,0,0-3.68-6.74c-1.93-1.4-5.95-2.67-8.13-1.07S269.09,246.92,268,249.5Z" transform="translate(-82.88 -1.75)" fill="url(#linear-gradient-33)"/><path d="M327.06,176.05a2.42,2.42,0,0,1,2.1.37,2.79,2.79,0,0,1,.69,1.71A12.25,12.25,0,0,1,330,182a5.31,5.31,0,0,1-1.77,3.31,7.66,7.66,0,0,1-2.52,1.22,2.85,2.85,0,0,1-2.16.08,2.49,2.49,0,0,1-1.08-1.85C321.68,180.89,322.89,176.81,327.06,176.05Z" transform="translate(-82.88 -1.75)" fill="url(#linear-gradient-34)"/><path d="M290.65,174.71a2.48,2.48,0,0,0-1.21,0A2.51,2.51,0,0,0,288,177a10.64,10.64,0,0,0,.18,2.81A7.76,7.76,0,0,0,290,184a3.4,3.4,0,0,0,4.15.72C298.4,181.78,294.4,175.53,290.65,174.71Z" transform="translate(-82.88 -1.75)" fill="url(#linear-gradient-35)"/><path d="M317.57,202.66a8.87,8.87,0,0,1,.16,2.76c-.37,2.56-2.92,4.35-5.48,4.67s-5.12-.54-7.51-1.49a6,6,0,0,1-2-1.14,4.45,4.45,0,0,1-1.15-2.21,16.05,16.05,0,0,1-.26-4.38l.16-5.16a6.18,6.18,0,0,1,.58-2.93c1-1.71,3.29-2,5.28-2.13,2.61-.11,6.54,0,8.26,2.38S317.13,199.89,317.57,202.66Z" transform="translate(-82.88 -1.75)" fill="url(#linear-gradient-36)"/><path d="M325.61,160.54a15.29,15.29,0,0,1,.8,6.8,127.36,127.36,0,0,1-1.66,15.83c-.66,3.93-1.7,8.15-4.81,10.63a19.9,19.9,0,0,0-2.51,2c-.54.58-.92,1.3-1.42,1.93-2.53,3.17-7.63,3.17-11.11,1.06s-5.71-5.73-7.75-9.25c-2.25-3.88-4.48-7.94-4.88-12.41-.33-3.54.5-7.27-.85-10.56-1-2.42-3.07-4.36-3.53-6.93a11.67,11.67,0,0,1,.62-5.12c.81-2.91,2.05-6.27,5-7.06,2.15-.58,4.37.52,6.6.59,2.84.1,5.73-1.49,8.43-.59,3.47,1.16,5,5.16,8.46,6.46S324,156.86,325.61,160.54Z" transform="translate(-82.88 -1.75)" fill="#606161"/><path d="M337.09,211.79c-10.14-8.41-24.77-8.2-37.82-6.42-5.39.73-10.88,1.7-15.62,4.38-7.94,4.5-12.64,13.2-15.11,22-1.31,4.67-2,10,.62,14.1,2.75,4.24,8.23,5.7,13.25,6.26a4.43,4.43,0,0,1,2.18.63,3.87,3.87,0,0,1,1.22,2.45c1.4,7.3-1.44,15.5,2.31,21.91,3.63,6.19,11.74,7.82,18.89,8.37,9.25.71,19.28.45,26.79-5a10.87,10.87,0,0,0,3.11-3.19c1.24-2.12,1.31-4.7,1.34-7.15.08-5.34-1.87-16.08.73-20.79,2.18-3.92,8.39-3.94,10.57-8.42C353.68,232.4,343.3,216.93,337.09,211.79Z" transform="translate(-82.88 -1.75)" fill="#fff"/><path d="M300.39,279.84l.07,11.37a2.19,2.19,0,0,1-.24,1.27,2,2,0,0,1-1.34.73c-3.08.72-6.3.31-9.46.32s-6.57.57-8.84,2.78c3.45,2.55,7.9,3.25,12.17,3.75q9.48,1.13,19,1.5a49.21,49.21,0,0,0,12.31-.64,22.83,22.83,0,0,0,9.76-4.55c-2.79-3-7.41-2.94-11.49-2.94a104.74,104.74,0,0,1-11.88-.68,3.25,3.25,0,0,1-2.39-1,3.17,3.17,0,0,1-.38-1.95,39.47,39.47,0,0,1,.95-7.5,4.75,4.75,0,0,1,.95-2.23,5.28,5.28,0,0,1,3.18-1.26,69.35,69.35,0,0,0,13.55-3.7,15.45,15.45,0,0,0,4.95-2.73c3.94-3.58,3.77-9.75,2.86-15a50.31,50.31,0,0,1-23.82,6.78c-5.73.16-18.16-2.3-22.19,3.22-2,2.79.13,5.37,2.34,7.3C291.41,275.5,300.39,279.73,300.39,279.84Z" transform="translate(-82.88 -1.75)" fill="url(#linear-gradient-37)"/><rect x="197.45" y="226.42" width="57.38" height="40.67" rx="16.79" fill="#2f55d4"/><rect x="197.45" y="226.42" width="57.38" height="40.67" rx="16.79" fill="url(#linear-gradient-38)"/><rect x="197.45" y="230.16" width="57.38" height="40.67" rx="16.79" fill="#2f55d4"/><path d="M317.85,254.36a21.93,21.93,0,0,1-5.38,1.6c-5,.92-10.84.72-14.44-2.91a6.42,6.42,0,0,1-1.35-1.92c-1-2.43.31-5.36,2.46-6.9s4.88-1.95,7.51-2.08c3.22-.16,9.34-.71,12.15,1.46C322.16,246.21,321.64,252.58,317.85,254.36Z" transform="translate(-82.88 -1.75)" fill="url(#linear-gradient-39)"/><rect x="304.16" y="248.12" width="7.83" height="64.64" rx="3.91" transform="translate(533.26 559.13) rotate(180)" fill="#fff"/><path d="M332.15,357.8c2,1.65,2.5,4.51,3.38,7,1.22,3.4,3.48,6.49,3.78,10.09a5.64,5.64,0,0,1-.51,3.12,5,5,0,0,1-4.34,2.44,9.5,9.5,0,0,1-4.93-1.5,17.29,17.29,0,0,1-6.24-6.41,11,11,0,0,1-1.42-4.22C321.46,363.81,326.14,353,332.15,357.8Z" transform="translate(-82.88 -1.75)" fill="#2f55d4"/><path d="M335.88,376.88a1.81,1.81,0,0,1,0,1.71,1.55,1.55,0,0,1-.87.47,5.6,5.6,0,0,1-4-.73,16.27,16.27,0,0,1-3.22-2.59,23.43,23.43,0,0,1-3.91-4.42,8,8,0,0,1-1.27-5.65c1.06-5.42,5.84-.56,7.6,1.44A29,29,0,0,1,335.88,376.88Z" transform="translate(-82.88 -1.75)" fill="#606161"/><path d="M293,357.91c-2,1.65-2.5,4.51-3.38,7-1.22,3.4-3.48,6.5-3.78,10.09a5.68,5.68,0,0,0,.51,3.13,5,5,0,0,0,4.34,2.43,9.4,9.4,0,0,0,4.93-1.5,17.21,17.21,0,0,0,6.24-6.41,10.94,10.94,0,0,0,1.42-4.22C303.68,363.92,299,353.07,293,357.91Z" transform="translate(-82.88 -1.75)" fill="#2f55d4"/><path d="M288.76,377.27a1.84,1.84,0,0,0,0,1.71,1.58,1.58,0,0,0,.88.47,5.71,5.71,0,0,0,4-.73,16.65,16.65,0,0,0,3.21-2.59,23.23,23.23,0,0,0,3.92-4.43,8,8,0,0,0,1.27-5.64c-1.07-5.43-5.84-.57-7.61,1.44A29.12,29.12,0,0,0,288.76,377.27Z" transform="translate(-82.88 -1.75)" fill="#606161"/><path d="M314.43,334a10.54,10.54,0,0,1-5.17,1,22.68,22.68,0,0,1-5.88-.43,4.11,4.11,0,0,1-1.78-.83,4.06,4.06,0,0,1-1-1.42c-1.63-3.6-3.47-11.06-.94-14.09,2.89-3.48,14.36-4.09,18-.44C321.19,321.21,318.63,331.53,314.43,334Z" transform="translate(-82.88 -1.75)" fill="#2f55d4"/><path d="M314.43,334a10.54,10.54,0,0,1-5.17,1,22.68,22.68,0,0,1-5.88-.43,4.11,4.11,0,0,1-1.78-.83,4.06,4.06,0,0,1-1-1.42c-1.63-3.6-3.47-11.06-.94-14.09,2.89-3.48,14.36-4.09,18-.44C321.19,321.21,318.63,331.53,314.43,334Z" transform="translate(-82.88 -1.75)" fill="url(#linear-gradient-40)"/><rect x="306.48" y="334.14" width="5.22" height="33.68" transform="translate(535.29 700.22) rotate(-180)" fill="#fff"/><path d="M329.72,370.63c1.16.95,2.29,2.14,3.78,2.32,1.08.12,2.16-.34,3.26-.34a6.12,6.12,0,0,1,3.85,1.73,6.51,6.51,0,0,1,2.12,3c.81,2.76-1.65,5.78-4.52,6.06s-5.63-1.68-6.89-4.26a9.4,9.4,0,0,0-1.06-2,5.81,5.81,0,0,0-1.43-1.12A41.88,41.88,0,0,0,315,370.55c-.85-.17-1.89-.25-2.43.42a2.36,2.36,0,0,0-.41,1.3,45.72,45.72,0,0,0-.27,6,2.27,2.27,0,0,0,.21,1.12,4,4,0,0,0,.94.93,3.9,3.9,0,0,1,.52,4.65,7.12,7.12,0,0,1-3.91,3c-1.92.71-4.34.83-5.77-.64a4.11,4.11,0,0,1-.75-4.24,6.35,6.35,0,0,1,3-3.26,2.6,2.6,0,0,0,1.18-.9,2.32,2.32,0,0,0,.18-1.2l-.14-4.46a2.15,2.15,0,0,0-.68-1.85,2,2,0,0,0-1.3-.19,39,39,0,0,0-20.3,7.61c1.08.84.89,2.66-.08,3.62a5.26,5.26,0,0,1-3.82,1.18,7.65,7.65,0,0,1-4.27-1.25,4.42,4.42,0,0,1-2-3.84,4.47,4.47,0,0,1,2.67-3.52,8,8,0,0,1,4.53-.49,9.23,9.23,0,0,0,2.39.19,7.23,7.23,0,0,0,2.52-1.05,55.86,55.86,0,0,1,22.53-7C316.18,366.09,324.35,366.23,329.72,370.63Z" transform="translate(-82.88 -1.75)" fill="#fff"/><rect x="382.19" y="172.81" width="85.21" height="63.19" rx="11.02" transform="translate(766.72 407.06) rotate(-180)" fill="#fff"/><rect x="135.41" y="205.3" width="97.97" height="35.94" rx="10.67" transform="translate(285.9 444.78) rotate(-180)" fill="#fff"/><path d="M152.62,82.75l24.93-12.84v3.72l-21,10.47v.12l21,10.52v3.72L152.62,85.62Z" transform="translate(-82.88 -1.75)" fill="#2f55d4"/><path d="M181,100.66l15-39h3.65l-15,39Z" transform="translate(-82.88 -1.75)" fill="#2f55d4"/><path d="M228,85.81,203.06,98.6V94.79l21.16-10.52V84.1L203.06,73.58V69.91L228,82.7Z" transform="translate(-82.88 -1.75)" fill="#2f55d4"/><rect x="265.32" y="295.75" width="83.47" height="25.89" rx="12.55" transform="translate(531.22 615.65) rotate(-180)" fill="#2f55d4"/><rect x="265.32" y="295.75" width="83.47" height="25.89" rx="12.55" transform="translate(531.22 615.65) rotate(-180)" fill="url(#linear-gradient-41)"/><g opacity="0.52"><rect x="308.78" y="187.41" width="22.8" height="1.67" fill="#2f55d4"/><rect x="308.78" y="190.64" width="13.92" height="1.57" fill="#2f55d4"/><rect x="328.31" y="190.64" width="43.79" height="1.58" fill="#2f55d4"/><rect x="316.02" y="193.89" width="19.14" height="1.66" fill="#2f55d4"/><rect x="322.16" y="197.12" width="22.8" height="1.67" fill="#2f55d4"/><rect x="346.44" y="197.12" width="19.11" height="1.86" fill="#2f55d4"/><rect x="322.12" y="200.36" width="17.61" height="1.57" fill="#2f55d4"/><rect x="341.42" y="200.36" width="36.33" height="1.74" fill="#2f55d4"/><rect x="308.78" y="204.74" width="22.8" height="1.67" fill="#2f55d4"/><rect x="308.78" y="207.97" width="13.92" height="1.57" fill="#2f55d4"/><rect x="328.31" y="207.97" width="43.79" height="1.58" fill="#2f55d4"/><rect x="316.02" y="211.21" width="19.14" height="1.66" fill="#2f55d4"/><rect x="322.16" y="214.45" width="22.8" height="1.67" fill="#2f55d4"/><rect x="346.44" y="214.45" width="19.11" height="1.86" fill="#2f55d4"/><rect x="322.12" y="217.69" width="17.61" height="1.57" fill="#2f55d4"/><rect x="341.42" y="217.69" width="36.33" height="1.74" fill="#2f55d4"/></g><g opacity="0.52"><rect x="67.64" y="211.46" width="22.8" height="1.67" fill="#2f55d4"/><rect x="67.64" y="214.7" width="13.92" height="1.57" fill="#2f55d4"/><rect x="87.17" y="214.7" width="43.79" height="1.58" fill="#2f55d4"/><rect x="74.88" y="217.94" width="19.14" height="1.66" fill="#2f55d4"/><rect x="81.02" y="221.18" width="22.8" height="1.67" fill="#2f55d4"/><rect x="105.31" y="221.18" width="19.11" height="1.86" fill="#2f55d4"/><rect x="80.99" y="224.41" width="17.61" height="1.57" fill="#2f55d4"/><rect x="100.28" y="224.41" width="36.33" height="1.74" fill="#2f55d4"/><rect x="67.64" y="228.79" width="22.8" height="1.67" fill="#2f55d4"/><rect x="67.64" y="232.03" width="13.92" height="1.57" fill="#2f55d4"/><rect x="87.17" y="232.03" width="43.79" height="1.58" fill="#2f55d4"/></g><path d="M195.3,328.85c-3.31-6.54-7.36-13.33-6.58-20.62.47-4.41,2.7-8.41,4.88-12.28l9.82-17.41c3,3.9,7.94,6.27,9.92,10.77,3.18,7.23-3,15.23-2.67,23.12.22,6.07,4.25,11.6,4,17.67-.16,4.41-7.14,18.86-12.79,18.31C198.89,348.12,197.18,332.55,195.3,328.85Z" transform="translate(-82.88 -1.75)" fill="#2f55d4"/><path d="M195.3,328.85c-3.31-6.54-7.36-13.33-6.58-20.62.47-4.41,2.7-8.41,4.88-12.28l9.82-17.41c3,3.9,7.94,6.27,9.92,10.77,3.18,7.23-3,15.23-2.67,23.12.22,6.07,4.25,11.6,4,17.67-.16,4.41-7.14,18.86-12.79,18.31C198.89,348.12,197.18,332.55,195.3,328.85Z" transform="translate(-82.88 -1.75)" fill="url(#linear-gradient-42)"/><path d="M229.11,326.06c2.23,0,5,.45,5.64,2.6.52,1.88-1.13,3.61-2.7,4.77-5.47,4-12.32,7.07-15,13.3-4.45,10.34-17.05,3.71-10.53-5.24,2.7-3.7,5-8.67,8.36-11.76C218.74,326.16,224.14,326,229.11,326.06Z" transform="translate(-82.88 -1.75)" fill="#2f55d4"/><path d="M229.11,326.06c2.23,0,5,.45,5.64,2.6.52,1.88-1.13,3.61-2.7,4.77-5.47,4-12.32,7.07-15,13.3-4.45,10.34-17.05,3.71-10.53-5.24,2.7-3.7,5-8.67,8.36-11.76C218.74,326.16,224.14,326,229.11,326.06Z" transform="translate(-82.88 -1.75)" fill="url(#linear-gradient-43)"/><path d="M196.44,330.84c-2.51-2.86-6.24-4.27-9.8-5.59-1.69-.62-3.86-1.13-5,.23a3.14,3.14,0,0,0,0,3.63,11.34,11.34,0,0,0,2.83,2.65,17.86,17.86,0,0,1,5.25,6.09c1.27,2.59,1.61,5.54,2.74,8.2s3.49,5.17,6.37,5.05a5.74,5.74,0,0,0,4.92-4.05c1.12-3.45-.37-5-2.22-7.44C199.48,336.9,198.73,333.43,196.44,330.84Z" transform="translate(-82.88 -1.75)" fill="#2f55d4"/><path d="M196.44,330.84c-2.51-2.86-6.24-4.27-9.8-5.59-1.69-.62-3.86-1.13-5,.23a3.14,3.14,0,0,0,0,3.63,11.34,11.34,0,0,0,2.83,2.65,17.86,17.86,0,0,1,5.25,6.09c1.27,2.59,1.61,5.54,2.74,8.2s3.49,5.17,6.37,5.05a5.74,5.74,0,0,0,4.92-4.05c1.12-3.45-.37-5-2.22-7.44C199.48,336.9,198.73,333.43,196.44,330.84Z" transform="translate(-82.88 -1.75)" fill="url(#linear-gradient-44)"/><path d="M218.15,346.82l-3.37,31.53h-3.57c-2.75-1.56-5.53-3.09-8.31-4.65l-8.1-4.54-2.87-22.34Z" transform="translate(-82.88 -1.75)" fill="#2f55d4"/><path d="M218.15,346.82l-3.37,31.53h-3.57c-2.75-1.56-5.53-3.09-8.31-4.65l-8.1-4.54-2.87-22.34Z" transform="translate(-82.88 -1.75)" fill="url(#linear-gradient-45)"/></svg>