<svg id="Layer_1" data-name="Layer 1" xmlns="http://www.w3.org/2000/svg" xmlns:xlink="http://www.w3.org/1999/xlink" viewBox="0 0 511.88 358.84"><defs><linearGradient id="linear-gradient" x1="239.75" y1="85.58" x2="242.02" y2="141.36" gradientUnits="userSpaceOnUse"><stop offset="0" stop-color="#010101" stop-opacity="0"/><stop offset="0.95" stop-color="#010101"/></linearGradient><linearGradient id="linear-gradient-2" x1="237.08" y1="86.11" x2="239.35" y2="141.9" xlink:href="#linear-gradient"/><linearGradient id="linear-gradient-3" x1="162.39" y1="17.61" x2="219.68" y2="289.86" xlink:href="#linear-gradient"/><linearGradient id="linear-gradient-4" x1="135.59" y1="23.25" x2="192.89" y2="295.5" xlink:href="#linear-gradient"/><linearGradient id="linear-gradient-5" x1="189.25" y1="11.95" x2="246.55" y2="284.21" xlink:href="#linear-gradient"/><linearGradient id="linear-gradient-6" x1="218.43" y1="5.81" x2="275.72" y2="278.07" xlink:href="#linear-gradient"/><linearGradient id="linear-gradient-7" x1="227.69" y1="5.02" x2="284.99" y2="277.28" xlink:href="#linear-gradient"/><linearGradient id="linear-gradient-8" x1="263.99" y1="-4.59" x2="321.29" y2="267.67" xlink:href="#linear-gradient"/><linearGradient id="linear-gradient-9" x1="96.83" y1="31.41" x2="154.13" y2="303.66" xlink:href="#linear-gradient"/><linearGradient id="linear-gradient-10" x1="242.42" y1="85.04" x2="244.69" y2="140.83" xlink:href="#linear-gradient"/><linearGradient id="linear-gradient-11" x1="28.19" y1="302.58" x2="500.93" y2="302.58" xlink:href="#linear-gradient"/><linearGradient id="linear-gradient-12" x1="176.42" y1="104.01" x2="618.43" y2="603.68" xlink:href="#linear-gradient"/><linearGradient id="linear-gradient-13" x1="64.71" y1="17.29" x2="405.84" y2="292.98" gradientUnits="userSpaceOnUse"><stop offset="0" stop-color="#fff" stop-opacity="0"/><stop offset="0.95" stop-color="#fff"/></linearGradient><linearGradient id="linear-gradient-14" x1="106.82" y1="239.98" x2="216.91" y2="239.98" xlink:href="#linear-gradient"/><linearGradient id="linear-gradient-15" x1="216.5" y1="208.2" x2="440.97" y2="208.2" xlink:href="#linear-gradient"/><linearGradient id="linear-gradient-16" x1="273.45" y1="240.64" x2="341.44" y2="240.64" xlink:href="#linear-gradient"/><linearGradient id="linear-gradient-17" x1="298.39" y1="176.14" x2="221.79" y2="288.52" xlink:href="#linear-gradient"/><linearGradient id="linear-gradient-18" x1="317.38" y1="193.88" x2="325.7" y2="193.88" gradientUnits="userSpaceOnUse"><stop offset="0" stop-color="#e5c6d6"/><stop offset="0.42" stop-color="#ead4d0"/><stop offset="1" stop-color="#f0e9cb"/></linearGradient><linearGradient id="linear-gradient-19" x1="295.56" y1="145.55" x2="306.06" y2="145.55" xlink:href="#linear-gradient-18"/><linearGradient id="linear-gradient-20" x1="298.21" y1="148.74" x2="313.51" y2="120.26" xlink:href="#linear-gradient"/><linearGradient id="linear-gradient-21" x1="295.65" y1="133.96" x2="314.58" y2="133.96" xlink:href="#linear-gradient-18"/><linearGradient id="linear-gradient-22" x1="291.82" y1="200.07" x2="315.76" y2="200.07" xlink:href="#linear-gradient-18"/><linearGradient id="linear-gradient-23" x1="297.31" y1="133.96" x2="302.31" y2="133.46" xlink:href="#linear-gradient"/></defs><title>Revenue 1</title><path d="M152.22,382.5c-43,5-87.63-23.86-100.64-65.2-5.09-16.2-5.88-34-14.29-48.73-7.62-13.4-20.78-22.92-28.71-36.13C-10,201.51,6.68,159,35.74,137.66S102.35,111,138.27,107.57s73.19-5.8,105-22.78c17.58-9.39,33-23,51.82-29.57,13.49-4.71,28-5.53,42.28-6.07,23.33-.88,49.57,0,65.73,16.82,18,18.72,17.75,51.93,39.81,65.58,9.95,6.15,22.33,6.71,33.16,11.12,20.23,8.23,33,29.55,35.86,51.21a84.89,84.89,0,0,1-16.88,62.25c-7.25,9.34-16.38,17-25.43,24.64-19,16-38.28,32.15-60.64,43-13.71,6.64-28.5,11.21-41.27,19.52C350.36,354.56,337.88,372,321.4,384.6c-35.73,27.28-86,28-129,14.88-21.26-6.48-43.1-16.1-64.84-11.5" transform="translate(-0.76 -48.92)" fill="#2f55d4" opacity="0.24" style="isolation:isolate"/><polygon points="244.95 86.27 235.47 92.19 235.38 105.53 244.91 98.59 244.95 86.27" fill="url(#linear-gradient)"/><polygon points="72.87 212.46 72.87 65.12 78.59 65.12 78.59 202.05 300.01 61.1 303.08 65.92 72.87 212.46" fill="#9feffc"/><polygon points="157.8 153.62 148.14 158.98 148.14 84.43 157.8 79.07 163.13 78 157.8 153.62" fill="#9feffc"/><polygon points="208.48 122.64 198.83 128.01 198.83 64.58 208.48 59.22 213.82 58.15 208.48 122.64" fill="#9feffc"/><polygon points="242.28 86.8 232.81 92.72 232.72 106.07 242.24 99.13 242.28 86.8" fill="url(#linear-gradient-2)"/><polygon points="242.27 98.91 232.62 104.28 232.62 27.98 242.27 22.61 247.61 21.55 242.27 98.91" fill="#9feffc"/><polygon points="278.57 90.37 268.92 95.73 268.92 19.44 278.57 14.07 283.91 13.01 278.57 90.37" fill="#9feffc"/><rect x="111.76" y="48.76" width="5.72" height="134.36" fill="#9feffc"/><polygon points="72.87 212.46 72.87 65.12 78.59 65.12 78.59 202.05 300.01 61.1 303.08 65.92 72.87 212.46" fill="url(#linear-gradient-3)"/><polygon points="157.8 153.62 148.14 158.98 148.14 84.43 157.8 79.07 163.13 78 157.8 153.62" fill="url(#linear-gradient-4)"/><polygon points="208.48 122.64 198.83 128.01 198.83 64.58 208.48 59.22 213.82 58.15 208.48 122.64" fill="url(#linear-gradient-5)"/><polygon points="242.28 86.8 232.81 92.72 232.72 106.07 242.24 99.13 242.28 86.8" fill="url(#linear-gradient-6)"/><polygon points="242.27 100.07 232.62 105.43 232.62 29.13 242.27 23.77 247.61 22.7 242.27 100.07" fill="url(#linear-gradient-7)"/><polygon points="278.57 90.46 268.92 95.82 268.92 19.52 278.57 14.16 283.91 13.09 278.57 90.46" fill="url(#linear-gradient-8)"/><polygon points="284.51 75.98 274.86 81.34 274.86 17.92 284.51 12.56 284.51 75.98" fill="#9feffc"/><rect x="111.76" y="48.76" width="5.72" height="134.36" fill="url(#linear-gradient-9)"/><polygon points="78.21 211.4 78.21 65.09 83.93 65.09 83.93 200.98 305.35 60.03 308.41 64.86 78.21 211.4" fill="#9feffc"/><polygon points="163.13 152.55 153.48 157.92 153.48 83.36 163.13 78 163.13 152.55" fill="#9feffc"/><polygon points="213.82 121.58 204.17 126.94 204.17 63.52 213.82 58.15 213.82 121.58" fill="#9feffc"/><polygon points="247.62 85.74 238.14 91.65 238.06 105 247.57 98.06 247.62 85.74" fill="url(#linear-gradient-10)"/><polygon points="247.61 97.84 237.96 103.21 237.96 26.91 247.61 21.55 247.61 97.84" fill="#9feffc"/><rect x="117.1" y="48.72" width="5.72" height="133.33" fill="#9feffc"/><path d="M106.24,262.15,29.4,292.72S25,312,33,318.47c7,5.59,119.2,68.35,148.39,84.65a33.07,33.07,0,0,0,17.25,4.27c7.74-.25,18.47-1.83,27.45-7.67,16.09-10.45,267.11-152.86,267.11-152.86S507.7,237.21,497,215c-7.27-15.08-61.69-17.17-61.69-17.17Z" transform="translate(-0.76 -48.92)" fill="#2f55d4"/><path d="M106.24,262.15,29.4,292.72S25,312,33,318.47c7,5.57,118.39,67.9,148.07,84.47a35.08,35.08,0,0,0,18.89,4.4c7.61-.39,17.65-2.1,26.13-7.62,16.09-10.45,267.11-152.86,267.11-152.86S507.7,237.21,497,215c-7.27-15.08-61.69-17.17-61.69-17.17Z" transform="translate(-0.76 -48.92)" fill="url(#linear-gradient-11)"/><path d="M106.24,241.23,37.05,281.46S25,291.11,33,297.55c7.36,5.88,131,74.92,152.19,86.77a16.69,16.69,0,0,0,7.29,2.1c7.11.37,21.86,0,33.61-7.61,16.09-10.46,267.11-152.87,267.11-152.87s10.46-9.65-3.22-19.31-54.71-29.76-54.71-29.76Z" transform="translate(-0.76 -48.92)" fill="#2f55d4"/><polygon points="108.6 198.51 53.62 231.61 213.23 319.69 471.61 171.28 430.77 149.13 108.6 198.51" fill="url(#linear-gradient-12)"/><polygon points="106.82 176.22 325.65 47.49 438.56 112.66 216.5 241.39 106.82 176.22" fill="#2f55d4"/><path d="M154.91,209.45s3.22,16.09-7.24,18.91L206,263.76s19.31-4.83,31.78,0l167.75-97.35s-3.22-12.07,0-17.7L342,116.53s-27.12,4.62-30.06.7Z" transform="translate(-0.76 -48.92)" fill="url(#linear-gradient-13)"/><polygon points="106.82 176.22 106.82 237.77 216.91 303.74 216.5 241.39 106.82 176.22" fill="#2f55d4"/><polygon points="440.97 169.78 438.56 112.66 216.5 241.39 216.91 303.74 440.97 169.78" fill="#2f55d4"/><polygon points="106.82 176.22 106.82 237.77 216.91 303.74 216.5 241.39 106.82 176.22" fill="url(#linear-gradient-14)"/><polygon points="440.97 169.78 438.56 112.66 216.5 241.39 216.91 303.74 440.97 169.78" fill="url(#linear-gradient-15)"/><path d="M247.39,169.46l4.5,2.6a42.32,42.32,0,0,1,5.9-2c8-2.19,14.69-.4,15.79,2.62s-3.62,3.62-8,3.41-3-3.92-3-3.92l-2.31-.1c-3.12-.9-14.18,5.53-10.56,10s18.7-1.81,18.7-1.81c22.33-3.42,23.13-2.21,28.56,3s-4,11.86-4,11.86l5.23,4.43-3.22,1.41-6.23-3.83c-6.84,5.64-17.9,3.32-21.42,1.91s-6.34-4.72.3-7,5.83,3.22,9.95,5.54,8.55-2,8.55-2l-13.37-8-2.82.6c-.3.1-17.6,3.52-23.63-2s2.61-11.77,2.61-11.77l-4.73-2.81Z" transform="translate(-0.76 -48.92)" fill="#2f55d4"/><polygon points="216.37 247.58 216 247.36 113.42 186.22 114.16 184.99 216.37 245.92 440.06 112.58 440.8 113.81 216.37 247.58" fill="#2f55d4"/><polygon points="216.37 252.94 216 252.73 113.42 191.58 114.16 190.35 216.37 251.28 440.06 117.94 440.8 119.17 216.37 252.94" fill="#2f55d4"/><polygon points="216.37 258.31 216 258.09 113.42 196.95 114.16 195.72 216.37 256.64 440.06 123.31 440.8 124.54 216.37 258.31" fill="#2f55d4"/><polygon points="216.37 263.67 216 263.45 113.42 202.31 114.16 201.08 216.37 262.01 440.06 128.67 440.8 129.9 216.37 263.67" fill="#2f55d4"/><polygon points="216.37 269.04 216 268.82 113.42 207.67 114.16 206.44 216.37 267.37 440.06 134.03 440.8 135.26 216.37 269.04" fill="#2f55d4"/><polygon points="216.37 274.4 216 274.18 113.42 213.04 114.16 211.81 216.37 272.74 440.06 139.4 440.8 140.63 216.37 274.4" fill="#2f55d4"/><polygon points="216.37 279.76 216 279.55 113.42 218.4 114.16 217.17 216.37 278.1 440.06 144.76 440.8 145.99 216.37 279.76" fill="#2f55d4"/><polygon points="216.37 285.13 216 284.91 113.42 223.76 114.16 222.54 216.37 283.46 440.06 150.13 440.8 151.35 216.37 285.13" fill="#2f55d4"/><polygon points="216.37 290.49 216 290.27 113.42 229.13 114.16 227.9 216.37 288.83 440.06 155.49 440.8 156.72 216.37 290.49" fill="#2f55d4"/><path d="M275.5,207.19a9.39,9.39,0,0,0-1.24,9.65,16.33,16.33,0,0,0,4.62,5.42,79,79,0,0,0,22.47,13.39c1.86.73,3.84,1.44,5.15,2.95,1.53,1.78,1.82,4.29,2,6.63L311,271.34c.23,2.44.68,5.24,2.78,6.49s4.77.3,6.3-1.48a12,12,0,0,0,2.37-6.5c1.12-9.17-1-19.29,3.93-27.12a73.75,73.75,0,0,0,5.16,17c1.34,3,4.23,6.49,7.24,5.12,2.11-1,2.57-3.74,2.63-6.06a76.49,76.49,0,0,0-7.07-34.12,22.5,22.5,0,0,0-4.46-6.85,26.37,26.37,0,0,0-7.49-4.52l-13.27-6.11a44,44,0,0,0-9.74-3.58C293.48,202.5,279.73,202,275.5,207.19Z" transform="translate(-0.76 -48.92)" fill="url(#linear-gradient-16)"/><polygon points="216.37 295.72 216 295.5 113.42 234.36 114.16 233.13 216.37 294.06 440.06 160.72 440.8 161.95 216.37 295.72" fill="#2f55d4"/><polygon points="216.37 300.95 216 300.73 113.42 239.59 114.16 238.36 216.37 299.29 440.06 165.95 440.8 167.18 216.37 300.95" fill="#2f55d4"/><path d="M279.75,185.72l10.46,6.57s5.09-3.22,3.48-5.37S283.5,183.44,279.75,185.72Z" transform="translate(-0.76 -48.92)" fill="none" stroke="#9feffc" stroke-miterlimit="10" stroke-width="5.71"/><path d="M289.08,219.79c4.5,4.88,10.6,8.05,16.92,10.11,2.85.93,6.08,1.91,7.45,4.57a10.32,10.32,0,0,1,.82,4.62,228.09,228.09,0,0,1-.77,23.53c-.42,5-.75,10.64,2.79,14.14a16.67,16.67,0,0,0,5.48,3.14l6,2.46c1.36.57,3.05,1.09,4.21.19s1-2.88.21-4.16a36.33,36.33,0,0,0-3.15-3.31c-3.06-3.53-2.7-8.78-2.28-13.44q.88-9.72,1.07-19.48c.15-7.46-.3-15.69-5.44-21.09-2.82-3-6.72-4.66-9.72-7.45-2.85-2.66-4.77-6.2-7.57-8.92-4.81-4.65-19-15.08-21.42-8.65C278.85,209,285.39,215.78,289.08,219.79Z" transform="translate(-0.76 -48.92)" fill="#606161"/><path d="M334.74,209.61c3.07,1.92,6.26,4,8,7.11,1.54,2.72,1.85,5.93,2.06,9q.86,12.18.5,24.4c-.12,4.34-.22,9.12,2.54,12.47,1.65,2,4.41,3.89,3.82,6.42-.54,2.3-3.47,3-5.83,2.93a13.82,13.82,0,0,1-8.36-2.64c-4-3.23-4.58-9-4.89-14.08l-1.13-19c-.19-3.18-.47-6.6-2.51-9.05a13.39,13.39,0,0,0-4.94-3.34c-7.68-3.53-16.64-5.94-21.39-12.94-2.2-3.26-3.11-7.91-.67-11C309.71,190.1,328.32,205.59,334.74,209.61Z" transform="translate(-0.76 -48.92)" fill="#606161"/><path d="M327.42,186.65a18.71,18.71,0,0,1-1.25,4,3.38,3.38,0,0,1-.64,1,3,3,0,0,1-.84.34c-4.32,1.1-8.91-1.25-11.6-4.74a10.76,10.76,0,0,0,0,1.13,17.44,17.44,0,0,1-.42,4c-.79,3.22-3.3,5.69-5.69,8a10.36,10.36,0,0,1-2.8,2.08,9.38,9.38,0,0,1-3.3.61c-2.46.12-4.93.15-7.43.15a19.55,19.55,0,0,1-7.13-1,14.51,14.51,0,0,1-7.28-7.51,43.67,43.67,0,0,1-2.85-10.28,36.35,36.35,0,0,1-.75-6.37,24.39,24.39,0,0,1,.72-5.49,56.41,56.41,0,0,1,2.61-8.57c1.52-3.76,2.74-12.46,6.46-14.7a25.87,25.87,0,0,1,16.15-3.13c1.67.19,14,4,15.35,6.6,2.27,4.29,3.79,10.81,4.25,15.59a37.41,37.41,0,0,0,.83,7.09A18.5,18.5,0,0,0,326,182.4a5.83,5.83,0,0,1,1.52,2.31A4.9,4.9,0,0,1,327.42,186.65Z" transform="translate(-0.76 -48.92)" fill="#fff"/><path d="M311.29,190.3a6.34,6.34,0,0,0-.78-3.1,2.91,2.91,0,0,0-2.69-1.47c-2.13.25-2.81,3.16-4.7,4.18-1.39.75-3.1.31-4.59-.23a43.71,43.71,0,0,1-7.81-3.73,3.57,3.57,0,0,1-1.24-1.07,3.5,3.5,0,0,1-.39-1.6c-.42-5.94.7-11.91.11-17.83a7.92,7.92,0,0,0-1.81-4.91,1.65,1.65,0,0,0-1.16-.58,1.91,1.91,0,0,0-1.21.77,21.46,21.46,0,0,0-4.8,11.52,57.38,57.38,0,0,0,.17,12.63,20.39,20.39,0,0,0,.83,4.73,11.51,11.51,0,0,0,5.37,6.18,14.18,14.18,0,0,0,8.1,1.54,34.87,34.87,0,0,1,5-.5c.9,0,1.79.23,2.69.19a10.89,10.89,0,0,0,2.91-.67C309,195.14,311.29,194.71,311.29,190.3Z" transform="translate(-0.76 -48.92)" fill="url(#linear-gradient-17)"/><path d="M280.19,152.05a13.54,13.54,0,0,0-2.16,3.86c-3.58,8.71-5.24,18.07-6.87,27.35-.69,3.92-1.28,8.33,1,11.57a12.39,12.39,0,0,0,5.11,3.74,34,34,0,0,0,16.11,3,28.53,28.53,0,0,0,2.53-9.37l-7.15-3.35a3.19,3.19,0,0,1-2.32-4L289,159.14a11.81,11.81,0,0,1,.68-3.44c1.27-3,4.7-6.15-.28-6.92A11.37,11.37,0,0,0,280.19,152.05Z" transform="translate(-0.76 -48.92)" fill="#fff"/><path d="M318.67,191.28c-.54.6-1.36,1.15-1.29,1.95.05.58.56,1,.89,1.46A6.49,6.49,0,0,1,319,198a3.63,3.63,0,0,0,1.37,3,2.65,2.65,0,0,0,3.05-.51,6,6,0,0,0,1.55-2.89,18.78,18.78,0,0,0,.69-6.41,5.51,5.51,0,0,0-1.1-3.34C321.22,184,320.17,189.62,318.67,191.28Z" transform="translate(-0.76 -48.92)" fill="url(#linear-gradient-18)"/><path d="M312.54,184.44a1.88,1.88,0,0,1,.38-.88,1.78,1.78,0,0,1,1-.44,35.54,35.54,0,0,1,9.32-.54,37.23,37.23,0,0,1-2.74,12.93,7,7,0,0,1-2.12,3.32c-1.35,1-3.15.93-4.8.85a3.74,3.74,0,0,1-2.17-.57c-1.63-1.32-.59-4.72-.46-6.51A57,57,0,0,1,312.54,184.44Z" transform="translate(-0.76 -48.92)" fill="#2f55d4"/><path d="M296.2,149.27c1.27.74,5.16,5.54,6.62,5.64a3,3,0,0,0,3.22-2.33,6.81,6.81,0,0,0-.29-2.09c-.58-2.92.77-6.1-.34-8.86a5.08,5.08,0,0,0-3.29-3c-1.47-.41-6-3.57-6.19-2C295.4,140.46,295.4,148.8,296.2,149.27Z" transform="translate(-0.76 -48.92)" fill="url(#linear-gradient-19)"/><path d="M296.27,138s1.33,8.41,5.47,10.81,3.94.07,3.94.07l.46-5.61Z" transform="translate(-0.76 -48.92)" fill="url(#linear-gradient-20)"/><path d="M297.49,129.67a8.75,8.75,0,0,0-1.84,5.52,16.23,16.23,0,0,0,1.2,5.78,8.39,8.39,0,0,0,2.9,4.21,7.81,7.81,0,0,0,3.67,1,8,8,0,0,0,4.54-.72,8.42,8.42,0,0,0,2.86-3.09,29.17,29.17,0,0,0,2.46-5,16.6,16.6,0,0,0,1.24-7.44,9,9,0,0,0-3.49-6.51A10.39,10.39,0,0,0,307.4,122a9.05,9.05,0,0,0-4-.16,8,8,0,0,0-4.8,3.62,18.31,18.31,0,0,0-2.2,5.72" transform="translate(-0.76 -48.92)" fill="url(#linear-gradient-21)"/><path d="M316.16,130.7a5.69,5.69,0,0,1-4.51.55c-1.52-.33-3-.95-4.53-1.13a4.66,4.66,0,0,0-4.25,1.37c-.72.93-1,2.33-2.15,2.68a.74.74,0,0,1-.65,0c-.39-.29-.16-.89-.07-1.37.21-1.16-1.43-2.57-2.58-2.35s-1.77,3.12-1.67,5a41.37,41.37,0,0,1-1.4-5.94,16.65,16.65,0,0,1,1.41-6.9,9.26,9.26,0,0,1,5-4.82,14.9,14.9,0,0,1,5.33-.62,20.88,20.88,0,0,1,6.36.68C316.48,119.15,320.52,127.6,316.16,130.7Z" transform="translate(-0.76 -48.92)" fill="#606161"/><path d="M304,196.21a3.81,3.81,0,0,0,1.61-.21,8.59,8.59,0,0,0,1.48-1.16c1.29-1,3.06-1.08,4.7-1.1a2.25,2.25,0,0,1,1,.14c1,.48.68,1.93,1,3a11.21,11.21,0,0,0,1.46,2.29,4.71,4.71,0,0,1-1.28,5.74,7.75,7.75,0,0,1-6.05,1.42,23,23,0,0,1-6-2.06l-6.12-2.76c-1.43-.64-3.25-1.46-3.79-3.07a2.58,2.58,0,0,1,1.29-3.31c1.29-.51,3,.07,4.24.34A37.68,37.68,0,0,0,304,196.21Z" transform="translate(-0.76 -48.92)" fill="url(#linear-gradient-22)"/><path d="M298.05,133.92c0-.29.25-.52.31-.8a1,1,0,0,0-.45-.94.17.17,0,0,0-.11-.06c-.09,0-.15.09-.19.17a7.28,7.28,0,0,0-.53,1.41,2.44,2.44,0,0,0,.09,1.49.79.79,0,0,0,.61.51.77.77,0,0,0,.61-.46.81.81,0,0,0,.07-.77C298.31,134.27,298,134.24,298.05,133.92Z" transform="translate(-0.76 -48.92)" fill="url(#linear-gradient-23)"/><g opacity="0.24" style="isolation:isolate"><path d="M370.2,126.43v-8.06c-10.63-.89-16.83-7.18-17.72-15.68h7.8a11.54,11.54,0,0,0,9.92,9.48V90.74c-11.78-3.55-16.39-8-16.39-16.21,0-8.94,6.91-14.88,16.39-15.5V53h5.05v6.11c11.78,1.15,15.58,8.77,16.12,14.26h-7.62c-1-3.63-3.1-7.17-8.5-8.15V84.54c13.55,3.89,17.44,9.56,17.44,17.44,0,9.83-6.55,15.59-17.44,16.39v8.06Zm0-43.4v-18c-6.38.54-8.68,4.34-8.68,8.59S363.56,80.73,370.2,83Zm5.05,9.21v20c6.11-.62,9.38-3.72,9.38-9.48C384.63,98.09,382.6,94.81,375.25,92.24Z" transform="translate(-0.76 -48.92)" fill="#2f55d4"/></g><path d="M372.64,125.82v-8.06c-10.63-.89-16.82-7.18-17.71-15.68h7.79a11.54,11.54,0,0,0,9.92,9.48V90.13c-11.78-3.55-16.38-8-16.38-16.21,0-9,6.9-14.88,16.38-15.5v-6h5.05v6.11c11.78,1.15,15.59,8.77,16.12,14.26h-7.62c-1-3.63-3.1-7.18-8.5-8.15V83.93c13.55,3.89,17.45,9.56,17.45,17.44,0,9.83-6.56,15.59-17.45,16.39v8.06Zm0-43.4v-18C366.26,65,364,68.78,364,73S366,80.12,372.64,82.42Zm5.05,9.21v20c6.11-.62,9.39-3.72,9.39-9.48C387.08,97.48,385,94.2,377.69,91.63Z" transform="translate(-0.76 -48.92)" fill="#fff"/><g opacity="0.24" style="isolation:isolate"><path d="M465.7,211V204.4c-8.68-.72-13.74-5.86-14.46-12.8h6.36a9.41,9.41,0,0,0,8.1,7.74v-17.5c-9.62-2.89-13.38-6.51-13.38-13.23,0-7.3,5.64-12.15,13.38-12.65V151h4.12v5c9.62.94,12.73,7.16,13.16,11.64h-6.22c-.79-3-2.53-5.86-6.94-6.65v15.76c11.06,3.18,14.25,7.81,14.25,14.24,0,8-5.36,12.73-14.25,13.38V211Zm0-35.43V160.87c-5.21.44-7.09,3.54-7.09,7S460.28,173.67,465.7,175.55Zm4.12,7.52v16.34c5-.51,7.66-3,7.66-7.74C477.48,187.84,475.82,185.17,469.82,183.07Z" transform="translate(-0.76 -48.92)" fill="#2f55d4"/></g><path d="M467.69,210.48V203.9C459,203.18,454,198,453.23,191.1h6.37a9.41,9.41,0,0,0,8.09,7.74v-17.5c-9.61-2.89-13.37-6.51-13.37-13.23,0-7.3,5.64-12.15,13.37-12.65v-4.92h4.13v5c9.61.94,12.72,7.16,13.16,11.64h-6.22c-.8-3-2.53-5.86-6.94-6.65v15.76c11.06,3.18,14.24,7.81,14.24,14.24,0,8-5.35,12.73-14.24,13.38v6.58Zm0-35.43V160.37c-5.2.44-7.08,3.55-7.08,7S462.27,173.17,467.69,175.05Zm4.13,7.52v16.34c5-.5,7.66-3,7.66-7.73C479.48,187.34,477.82,184.67,471.82,182.57Z" transform="translate(-0.76 -48.92)" fill="#fff"/><g opacity="0.24" style="isolation:isolate"><path d="M43.3,238V231.4c-8.67-.72-13.73-5.86-14.46-12.8h6.37a9.41,9.41,0,0,0,8.09,7.74v-17.5c-9.61-2.89-13.37-6.51-13.37-13.23,0-7.3,5.64-12.15,13.37-12.65V178h4.13v5c9.61.94,12.72,7.16,13.16,11.64H54.37c-.8-3-2.53-5.86-6.94-6.65v15.76C58.49,207,61.67,211.59,61.67,218c0,8-5.35,12.73-14.24,13.38V238Zm0-35.43V187.87c-5.2.44-7.08,3.55-7.08,7S37.88,200.67,43.3,202.55Zm4.13,7.52v16.34c5-.5,7.66-3,7.66-7.73C55.09,214.84,53.43,212.17,47.43,210.07Z" transform="translate(-0.76 -48.92)" fill="#2f55d4"/></g><path d="M45.3,237.48V230.9c-8.68-.72-13.74-5.85-14.46-12.8H37.2a9.41,9.41,0,0,0,8.1,7.74v-17.5c-9.62-2.89-13.38-6.5-13.38-13.23,0-7.3,5.64-12.15,13.38-12.65v-4.92h4.12v5c9.62.94,12.73,7.16,13.16,11.64H56.36c-.79-3-2.53-5.86-6.94-6.65v15.76c11.07,3.18,14.25,7.81,14.25,14.25,0,8-5.35,12.72-14.25,13.37v6.58Zm0-35.43V187.38c-5.21.43-7.09,3.54-7.09,7S39.88,200.17,45.3,202.05Zm4.12,7.52v16.34c5-.5,7.67-3,7.67-7.73C57.09,214.35,55.42,211.67,49.42,209.57Z" transform="translate(-0.76 -48.92)" fill="#fff"/><g opacity="0.24" style="isolation:isolate"><path d="M358.62,167.5v-3.77c-5-.41-7.86-3.35-8.28-7.32H354a5.37,5.37,0,0,0,4.63,4.43v-10c-5.5-1.66-7.65-3.73-7.65-7.57,0-4.18,3.22-6.95,7.65-7.24v-2.81H361v2.85c5.5.54,7.28,4.1,7.52,6.66H365a4.76,4.76,0,0,0-4-3.81v9c6.33,1.82,8.15,4.47,8.15,8.15,0,4.59-3.07,7.28-8.15,7.65v3.77Zm0-20.27v-8.4c-3,.25-4.06,2-4.06,4S355.52,146.15,358.62,147.23Zm2.36,4.3v9.35c2.85-.29,4.38-1.74,4.38-4.43C365.36,154.26,364.41,152.73,361,151.53Z" transform="translate(-0.76 -48.92)" fill="#2f55d4"/></g><path d="M359.76,167.21v-3.76c-5-.42-7.86-3.35-8.27-7.32h3.64a5.37,5.37,0,0,0,4.63,4.42v-10c-5.5-1.65-7.65-3.72-7.65-7.57,0-4.18,3.22-6.95,7.65-7.24v-2.81h2.36v2.85c5.5.54,7.28,4.1,7.53,6.66h-3.56a4.75,4.75,0,0,0-4-3.8v9c6.33,1.82,8.15,4.46,8.15,8.14,0,4.6-3.06,7.29-8.15,7.66v3.76Zm0-20.27v-8.39c-3,.24-4.05,2-4.05,4S356.66,145.87,359.76,146.94Zm2.36,4.3v9.35c2.85-.29,4.38-1.73,4.38-4.42C366.5,154,365.55,152.44,362.12,151.24Z" transform="translate(-0.76 -48.92)" fill="#fff"/></svg>