<svg id="Layer_1" data-name="Layer 1" xmlns="http://www.w3.org/2000/svg" xmlns:xlink="http://www.w3.org/1999/xlink" viewBox="0 0 510.43 371.3"><defs><linearGradient id="linear-gradient" x1="254.87" y1="245.63" x2="295.51" y2="528.67" gradientUnits="userSpaceOnUse"><stop offset="0" stop-color="#010101" stop-opacity="0"/><stop offset="0.95" stop-color="#010101"/></linearGradient><linearGradient id="linear-gradient-2" x1="264.87" y1="-110.97" x2="250.1" y2="324.19" gradientUnits="userSpaceOnUse"><stop offset="0" stop-color="#fff" stop-opacity="0"/><stop offset="0.95" stop-color="#fff"/></linearGradient><linearGradient id="linear-gradient-3" x1="344.73" y1="223.6" x2="564.01" y2="315.06" xlink:href="#linear-gradient"/><linearGradient id="linear-gradient-4" x1="382.11" y1="170.46" x2="379.92" y2="235.12" xlink:href="#linear-gradient-2"/><linearGradient id="linear-gradient-5" x1="372.61" y1="240.29" x2="383.51" y2="240.29" gradientUnits="userSpaceOnUse"><stop offset="0" stop-color="#e5c6d6"/><stop offset="0.42" stop-color="#ead4d0"/><stop offset="1" stop-color="#f0e9cb"/></linearGradient><linearGradient id="linear-gradient-6" x1="318.34" y1="72.9" x2="320.05" y2="188.79" xlink:href="#linear-gradient"/><linearGradient id="linear-gradient-7" x1="442.27" y1="40.02" x2="443.97" y2="155.91" xlink:href="#linear-gradient"/><linearGradient id="linear-gradient-8" x1="147.28" y1="83.61" x2="152.39" y2="202.48" xlink:href="#linear-gradient"/><linearGradient id="linear-gradient-9" x1="146.48" y1="83.64" x2="151.6" y2="202.52" xlink:href="#linear-gradient"/><linearGradient id="linear-gradient-10" x1="272.83" y1="82.55" x2="277.94" y2="201.42" xlink:href="#linear-gradient"/><linearGradient id="linear-gradient-11" x1="398.52" y1="82.55" x2="403.63" y2="201.42" xlink:href="#linear-gradient"/><linearGradient id="linear-gradient-12" x1="272.83" y1="107.68" x2="277.94" y2="226.56" xlink:href="#linear-gradient"/><linearGradient id="linear-gradient-13" x1="272.83" y1="132.82" x2="277.94" y2="251.69" xlink:href="#linear-gradient"/><linearGradient id="linear-gradient-14" x1="146.48" y1="121.99" x2="151.6" y2="240.86" xlink:href="#linear-gradient"/><linearGradient id="linear-gradient-15" x1="146.48" y1="138.18" x2="151.6" y2="257.05" xlink:href="#linear-gradient"/><linearGradient id="linear-gradient-16" x1="146.48" y1="154.37" x2="151.6" y2="273.24" xlink:href="#linear-gradient"/><linearGradient id="linear-gradient-17" x1="146.48" y1="183.77" x2="151.6" y2="302.64" xlink:href="#linear-gradient"/><linearGradient id="linear-gradient-18" x1="146.48" y1="212.21" x2="151.6" y2="331.08" xlink:href="#linear-gradient"/><linearGradient id="linear-gradient-19" x1="412.08" y1="220.29" x2="432.52" y2="220.29" gradientTransform="translate(-21.85 13.99) rotate(-4.88)" xlink:href="#linear-gradient-5"/><linearGradient id="linear-gradient-20" x1="431.26" y1="278.75" x2="391.74" y2="234.31" xlink:href="#linear-gradient"/><linearGradient id="linear-gradient-21" x1="391.05" y1="225.14" x2="397.17" y2="225.14" xlink:href="#linear-gradient-5"/><linearGradient id="linear-gradient-22" x1="393.68" y1="228.66" x2="403.75" y2="228.66" xlink:href="#linear-gradient-5"/></defs><title>scrumboard</title><path d="M499.65,349.23c-1.91,10-6.21,19.25-13.59,26.27-20.49,19.49-53.15,13.86-81,9.05a562.75,562.75,0,0,0-148.33-5.87c-55.9,5.2-114.07,18.52-166.82-.7a84.38,84.38,0,0,1-39.19-28.75c-.94-1.18-1.82-2.39-2.6-3.6C40.38,334.43,35,321.39,31.3,307.31c-.39-1.54-.76-3.11-1.12-4.69-11-48.09-2.36-107.07,6.39-147.26,3.84-17.65,8.89-35.17,17.4-51.12,21.79-41,64.7-67.76,109.77-78.87s92.43-8.23,138.4-1.76c36.8,5.15,75.3,13.56,102.6,38.77C430.07,85.75,441.87,120.25,449,154s10.6,68.58,23.43,100.57c8.11,20.19,19.85,39,25.51,60a83.91,83.91,0,0,1,2,9.53A74.89,74.89,0,0,1,499.65,349.23Z" transform="translate(-6.25 -17.89)" fill="#2f55d4" opacity="0.24" style="isolation:isolate"/><path d="M499.65,349.23H49.7l-1.57-3.6L31.3,307.31l-2-4.66.91,0L486,292.42l13.92,31.63A74.89,74.89,0,0,1,499.65,349.23Z" transform="translate(-6.25 -17.89)" opacity="0.26" fill="url(#linear-gradient)"/><rect x="12.21" y="84.23" width="117.94" height="16.47" rx="8.24" fill="none" stroke="#2f55d4" stroke-miterlimit="10" stroke-width="0.68"/><rect x="133.64" y="84.23" width="117.94" height="16.47" rx="8.24" fill="none" stroke="#2f55d4" stroke-miterlimit="10" stroke-width="0.68"/><rect x="255.07" y="84.23" width="117.94" height="16.47" rx="8.24" fill="none" stroke="#2f55d4" stroke-miterlimit="10" stroke-width="0.68"/><rect x="376.5" y="84.23" width="117.94" height="16.47" rx="8.24" fill="none" stroke="#2f55d4" stroke-miterlimit="10" stroke-width="0.68"/><rect y="64.92" width="510.43" height="232.63" rx="14.91" fill="#2f55d4"/><rect y="57.25" width="510.43" height="232.63" rx="14.91" fill="url(#linear-gradient-2)"/><path d="M401.17,284.36a20.42,20.42,0,0,0-1.78-7.74c-3.66-6.95-13.23-7.72-19.65-12.25-5.16-3.65-8.13-9.78-9.28-16s-.69-12.6-.22-18.9c.13-1.79.32-3.73,1.53-5.06,2.62-2.91,7.38-.83,10.61,1.38l8.6,5.88c1.82,1.24,4.32,2.48,6,1.12,1.14-.9,1.33-2.52,1.44-4l1.63-22.7c.45-6.27,1.53-13.57,7-16.59s12.61.21,16.06,5.36,4.1,11.63,4.55,17.81a568.46,568.46,0,0,1-1.45,97.54c-.13,1.28-.36,2.72-1.42,3.45a4.53,4.53,0,0,1-2.71.48c-6-.19-16.85,2.08-19.79-4.23S401.79,291.34,401.17,284.36Z" transform="translate(-6.25 -17.89)" opacity="0.26" fill="url(#linear-gradient-3)"/><polygon points="362.16 201.04 386.66 194.44 399.23 223.63 395.07 231.72 378.24 230.76 362.16 201.04" fill="url(#linear-gradient-4)"/><path d="M372.84,240.87a24.27,24.27,0,0,1,.17-7.7,2.79,2.79,0,0,1,.37-1.13c.73-1.06,2.47-.64,3.31.32s1.21,2.27,2,3.26c.67.81,1.6,1.36,2.34,2.11a10,10,0,0,1,2.3,4.78,4.3,4.3,0,0,1,.15,1.38,4.38,4.38,0,0,1-.82,1.78c-1.31,2-3.55,4.76-6,2.86C374.43,246.82,373.26,243.52,372.84,240.87Z" transform="translate(-6.25 -17.89)" fill="url(#linear-gradient-5)"/><rect x="386.09" y="87.64" width="112.31" height="17.04" rx="4.14" fill="#2f55d4" opacity="0.68" style="isolation:isolate"/><rect x="13.92" y="110" width="110.78" height="163.4" rx="7.56" fill="#fff"/><rect x="136.63" y="109.8" width="114.19" height="52.26" rx="10.23" fill="#fff"/><rect x="136.63" y="169.87" width="114.19" height="54.21" rx="10.42" fill="#fff"/><rect x="136.63" y="230.51" width="114.19" height="52.26" rx="10.23" fill="#fff"/><rect x="262.17" y="111.5" width="114.19" height="21.24" rx="9.69" fill="#fff"/><rect x="384.31" y="113.2" width="114.19" height="17.98" rx="6" fill="#fff"/><rect x="13.35" y="87.64" width="111.91" height="17.04" rx="4.13" fill="#2f55d4" opacity="0.68" style="isolation:isolate"/><rect x="137.26" y="87.64" width="111.91" height="17.04" rx="4.13" fill="#2f55d4" opacity="0.93" style="isolation:isolate"/><rect x="262.53" y="87.64" width="112.31" height="17.04" rx="4.14" fill="#2f55d4" opacity="0.68" style="isolation:isolate"/><rect x="262.53" y="87.64" width="112.31" height="17.04" rx="4.14" opacity="0.26" fill="url(#linear-gradient-6)"/><rect x="386.94" y="87.64" width="112.31" height="17.04" rx="4.14" opacity="0.26" fill="url(#linear-gradient-7)"/><circle cx="149.02" cy="124.03" r="6.07" opacity="0.26" fill="url(#linear-gradient-8)"/><circle cx="149.02" cy="142.57" r="6.07" opacity="0.26" fill="url(#linear-gradient-9)"/><rect x="23.29" y="121.16" width="47.4" height="4.54" rx="2.27" fill="#2f55d4" opacity="0.68" style="isolation:isolate"/><rect x="23.29" y="134.79" width="44.03" height="4.54" rx="2.27" fill="#2f55d4" opacity="0.68" style="isolation:isolate"/><rect x="23.29" y="164.33" width="44.03" height="4.54" rx="2.27" fill="#2f55d4" opacity="0.68" style="isolation:isolate"/><rect x="23.29" y="175.69" width="79.69" height="4.54" rx="2.27" fill="#2f55d4" opacity="0.68" style="isolation:isolate"/><rect x="161.34" y="120.31" width="79.69" height="4.54" rx="2.27" fill="#2f55d4" opacity="0.68" style="isolation:isolate"/><circle cx="274.56" cy="122.97" r="6.07" opacity="0.26" fill="url(#linear-gradient-10)"/><rect x="286.89" y="119.24" width="79.69" height="4.54" rx="2.27" fill="#2f55d4" opacity="0.68" style="isolation:isolate"/><circle cx="400.25" cy="122.97" r="6.07" opacity="0.26" fill="url(#linear-gradient-11)"/><rect x="412.58" y="119.24" width="79.69" height="4.54" rx="2.27" fill="#2f55d4" opacity="0.68" style="isolation:isolate"/><rect x="262.17" y="136.64" width="114.19" height="21.24" rx="9.69" fill="#fff"/><circle cx="274.56" cy="148.11" r="6.07" opacity="0.26" fill="url(#linear-gradient-12)"/><rect x="286.89" y="144.38" width="79.69" height="4.54" rx="2.27" fill="#2f55d4" opacity="0.68" style="isolation:isolate"/><rect x="262.17" y="161.78" width="114.19" height="21.24" rx="9.69" fill="#fff"/><circle cx="274.56" cy="173.24" r="6.07" opacity="0.26" fill="url(#linear-gradient-13)"/><rect x="286.89" y="169.52" width="79.69" height="4.54" rx="2.27" fill="#2f55d4" opacity="0.68" style="isolation:isolate"/><rect x="161.34" y="139.62" width="66.39" height="4.54" rx="2.07" fill="#2f55d4" opacity="0.68" style="isolation:isolate"/><circle cx="149.02" cy="180.91" r="6.07" opacity="0.26" fill="url(#linear-gradient-14)"/><rect x="161.34" y="177.97" width="66.39" height="4.54" rx="2.07" fill="#2f55d4" opacity="0.68" style="isolation:isolate"/><circle cx="149.02" cy="197.1" r="6.07" opacity="0.26" fill="url(#linear-gradient-15)"/><rect x="161.34" y="194.16" width="66.39" height="4.54" rx="2.07" fill="#2f55d4" opacity="0.68" style="isolation:isolate"/><circle cx="149.02" cy="213.29" r="6.07" opacity="0.26" fill="url(#linear-gradient-16)"/><rect x="161.34" y="210.35" width="66.39" height="4.54" rx="2.07" fill="#2f55d4" opacity="0.68" style="isolation:isolate"/><circle cx="149.02" cy="242.69" r="6.07" opacity="0.26" fill="url(#linear-gradient-17)"/><rect x="161.34" y="239.75" width="66.39" height="4.54" rx="2.07" fill="#2f55d4" opacity="0.68" style="isolation:isolate"/><circle cx="149.02" cy="271.13" r="6.07" opacity="0.26" fill="url(#linear-gradient-18)"/><rect x="161.34" y="254.94" width="66.39" height="4.54" rx="2.07" fill="#2f55d4" opacity="0.68" style="isolation:isolate"/><rect x="161.34" y="269.71" width="66.39" height="4.54" rx="2.07" fill="#2f55d4" opacity="0.68" style="isolation:isolate"/><rect x="23.29" y="212.05" width="44.03" height="4.54" rx="2.27" fill="#2f55d4" opacity="0.68" style="isolation:isolate"/><rect x="23.29" y="223.41" width="79.69" height="4.54" rx="2.27" fill="#2f55d4" opacity="0.68" style="isolation:isolate"/><path d="M170.07,111.49h-1.95v-.71h4.75v.71h-2v5.71h-.84Z" transform="translate(-6.25 -17.89)" fill="#fff"/><path d="M175.5,117.2l-.07-.58h0a1.71,1.71,0,0,1-1.41.68,1.31,1.31,0,0,1-1.41-1.32c0-1.11,1-1.72,2.78-1.71v-.1a1,1,0,0,0-1.05-1.06,2.28,2.28,0,0,0-1.2.34l-.19-.55a2.82,2.82,0,0,1,1.51-.41c1.41,0,1.75,1,1.75,1.88v1.73a6.1,6.1,0,0,0,.08,1.1Zm-.13-2.35c-.91,0-2,.14-2,1a.74.74,0,0,0,.79.8,1.16,1.16,0,0,0,1.12-.77.88.88,0,0,0,0-.27Z" transform="translate(-6.25 -17.89)" fill="#fff"/><path d="M177.42,116.34a2.24,2.24,0,0,0,1.1.34c.61,0,.9-.31.9-.69s-.24-.62-.86-.85c-.83-.29-1.22-.75-1.22-1.3a1.42,1.42,0,0,1,1.59-1.35,2.36,2.36,0,0,1,1.14.28l-.21.61a1.85,1.85,0,0,0-.94-.26c-.5,0-.78.28-.78.62s.28.56.88.78c.8.31,1.21.71,1.21,1.4s-.63,1.38-1.72,1.38a2.63,2.63,0,0,1-1.3-.32Z" transform="translate(-6.25 -17.89)" fill="#fff"/><path d="M182.13,114.71h0c.12-.17.28-.37.41-.53l1.35-1.59h1l-1.78,1.9,2,2.71h-1L182.56,115l-.43.48v1.73h-.83v-6.76h.83Z" transform="translate(-6.25 -17.89)" fill="#fff"/><path d="M188.72,111.3a.49.49,0,0,1-.53.51.5.5,0,0,1-.51-.51.52.52,0,0,1,.53-.53A.5.5,0,0,1,188.72,111.3Zm-.93,5.9v-4.61h.83v4.61Z" transform="translate(-6.25 -17.89)" fill="#fff"/><path d="M190,113.84c0-.48,0-.87,0-1.25h.75l.05.76h0a1.72,1.72,0,0,1,1.53-.86c.64,0,1.63.38,1.63,2v2.75h-.84v-2.66c0-.74-.28-1.36-1.07-1.36a1.18,1.18,0,0,0-1.12.86,1.14,1.14,0,0,0-.06.39v2.77H190Z" transform="translate(-6.25 -17.89)" fill="#fff"/><path d="M197.34,110.86a9.37,9.37,0,0,1,1.59-.12,2.65,2.65,0,0,1,1.8.53,1.72,1.72,0,0,1,.56,1.34,1.9,1.9,0,0,1-.49,1.37,2.65,2.65,0,0,1-2,.71,2.73,2.73,0,0,1-.67-.06v2.57h-.83Zm.83,3.09a2.66,2.66,0,0,0,.69.07c1,0,1.61-.49,1.61-1.37s-.6-1.26-1.52-1.26a3.3,3.3,0,0,0-.78.07Z" transform="translate(-6.25 -17.89)" fill="#fff"/><path d="M202.23,114c0-.54,0-1,0-1.44h.73l0,.91h0a1.38,1.38,0,0,1,1.27-1,.88.88,0,0,1,.24,0v.79a1.14,1.14,0,0,0-.28,0,1.17,1.17,0,0,0-1.13,1.07,2.34,2.34,0,0,0,0,.39v2.46h-.82Z" transform="translate(-6.25 -17.89)" fill="#fff"/><path d="M209.41,114.86a2.25,2.25,0,0,1-2.29,2.44,2.19,2.19,0,0,1-2.21-2.37,2.24,2.24,0,0,1,2.28-2.44A2.18,2.18,0,0,1,209.41,114.86Zm-3.65,0c0,1,.58,1.77,1.4,1.77s1.4-.76,1.4-1.79c0-.78-.39-1.77-1.38-1.77S205.76,114,205.76,114.91Z" transform="translate(-6.25 -17.89)" fill="#fff"/><path d="M214.44,112.59c0,.33,0,.71,0,1.27v2.67a2.65,2.65,0,0,1-.66,2.11,2.41,2.41,0,0,1-1.67.55,2.94,2.94,0,0,1-1.53-.38l.2-.64a2.65,2.65,0,0,0,1.36.36c.85,0,1.48-.44,1.48-1.61v-.51h0a1.63,1.63,0,0,1-1.46.77,2.05,2.05,0,0,1-2-2.25,2.2,2.2,0,0,1,2.07-2.44,1.54,1.54,0,0,1,1.44.8h0l0-.7Zm-.87,1.82a1.13,1.13,0,0,0,0-.38,1.2,1.2,0,0,0-1.17-.89c-.8,0-1.37.68-1.37,1.75,0,.9.46,1.65,1.36,1.65a1.23,1.23,0,0,0,1.17-.85,1.8,1.8,0,0,0,.06-.45Z" transform="translate(-6.25 -17.89)" fill="#fff"/><path d="M215.73,114c0-.54,0-1,0-1.44h.74l0,.91h0a1.39,1.39,0,0,1,1.28-1,.88.88,0,0,1,.24,0v.79a1.23,1.23,0,0,0-.29,0,1.16,1.16,0,0,0-1.12,1.07,2.34,2.34,0,0,0,0,.39v2.46h-.83Z" transform="translate(-6.25 -17.89)" fill="#fff"/><path d="M219.22,115.05a1.47,1.47,0,0,0,1.58,1.6,3,3,0,0,0,1.27-.24l.14.6a3.71,3.71,0,0,1-1.53.29,2.14,2.14,0,0,1-2.26-2.33,2.23,2.23,0,0,1,2.16-2.48,2,2,0,0,1,1.9,2.17,3.1,3.1,0,0,1,0,.39Zm2.45-.6a1.19,1.19,0,0,0-1.16-1.36,1.38,1.38,0,0,0-1.28,1.36Z" transform="translate(-6.25 -17.89)" fill="#fff"/><path d="M223.4,116.34a2.24,2.24,0,0,0,1.11.34c.61,0,.89-.31.89-.69s-.23-.62-.85-.85c-.83-.29-1.22-.75-1.22-1.3a1.42,1.42,0,0,1,1.59-1.35,2.35,2.35,0,0,1,1.13.28l-.21.61a1.82,1.82,0,0,0-.94-.26c-.5,0-.77.28-.77.62s.27.56.87.78c.8.31,1.21.71,1.21,1.4s-.63,1.38-1.72,1.38a2.66,2.66,0,0,1-1.3-.32Z" transform="translate(-6.25 -17.89)" fill="#fff"/><path d="M227.17,116.34a2.24,2.24,0,0,0,1.11.34c.61,0,.89-.31.89-.69s-.24-.62-.85-.85c-.83-.29-1.22-.75-1.22-1.3a1.42,1.42,0,0,1,1.59-1.35,2.35,2.35,0,0,1,1.13.28l-.21.61a1.82,1.82,0,0,0-.94-.26c-.5,0-.77.28-.77.62s.27.56.87.78c.8.31,1.21.71,1.21,1.4s-.63,1.38-1.72,1.38A2.66,2.66,0,0,1,227,117Z" transform="translate(-6.25 -17.89)" fill="#fff"/><path d="M46.41,110.78v3.8c0,1.44.63,2,1.49,2s1.56-.63,1.56-2v-3.8h.84v3.74c0,2-1,2.78-2.43,2.78s-2.3-.75-2.3-2.74v-3.78Z" transform="translate(-6.25 -17.89)" fill="#fff"/><path d="M51.54,116.34a2.17,2.17,0,0,0,1.1.34c.61,0,.9-.31.9-.69s-.24-.62-.86-.85c-.83-.29-1.22-.75-1.22-1.3a1.42,1.42,0,0,1,1.59-1.35,2.28,2.28,0,0,1,1.13.28l-.21.61a1.82,1.82,0,0,0-.94-.26c-.49,0-.77.28-.77.62s.28.56.88.78c.8.31,1.21.71,1.21,1.4s-.63,1.38-1.73,1.38a2.61,2.61,0,0,1-1.29-.32Z" transform="translate(-6.25 -17.89)" fill="#fff"/><path d="M55.89,115.05a1.48,1.48,0,0,0,1.58,1.6,3,3,0,0,0,1.27-.24l.15.6a3.81,3.81,0,0,1-1.54.29A2.14,2.14,0,0,1,55.09,115a2.23,2.23,0,0,1,2.16-2.48,2,2,0,0,1,1.9,2.17,3.1,3.1,0,0,1,0,.39Zm2.45-.6a1.19,1.19,0,0,0-1.16-1.36,1.38,1.38,0,0,0-1.28,1.36Z" transform="translate(-6.25 -17.89)" fill="#fff"/><path d="M60.19,114c0-.54,0-1,0-1.44h.73l0,.91h0a1.38,1.38,0,0,1,1.28-1,.8.8,0,0,1,.23,0v.79a1.14,1.14,0,0,0-.28,0,1.16,1.16,0,0,0-1.12,1.07,2.34,2.34,0,0,0,0,.39v2.46h-.83Z" transform="translate(-6.25 -17.89)" fill="#fff"/><path d="M65.23,116.19a2.94,2.94,0,0,0,1.49.42c.85,0,1.34-.45,1.34-1.1s-.34-.94-1.21-1.27c-1-.37-1.69-.91-1.69-1.82a1.84,1.84,0,0,1,2.07-1.74,2.92,2.92,0,0,1,1.42.31l-.23.68a2.46,2.46,0,0,0-1.22-.31c-.87,0-1.2.53-1.2,1,0,.59.39.89,1.27,1.23,1.09.42,1.64,1,1.64,1.89s-.73,1.85-2.25,1.85a3.44,3.44,0,0,1-1.64-.41Z" transform="translate(-6.25 -17.89)" fill="#fff"/><path d="M71,111.27v1.32h1.2v.64H71v2.48c0,.58.16.9.63.9a1.84,1.84,0,0,0,.49-.06l0,.63a2,2,0,0,1-.75.12,1.15,1.15,0,0,1-.9-.36,1.67,1.67,0,0,1-.33-1.2v-2.51h-.71v-.64h.71v-1.1Z" transform="translate(-6.25 -17.89)" fill="#fff"/><path d="M77.25,114.86A2.25,2.25,0,0,1,75,117.3a2.19,2.19,0,0,1-2.21-2.37A2.25,2.25,0,0,1,75,112.49,2.18,2.18,0,0,1,77.25,114.86Zm-3.66,0c0,1,.58,1.77,1.4,1.77s1.4-.76,1.4-1.79c0-.78-.39-1.77-1.38-1.77S73.59,114,73.59,114.91Z" transform="translate(-6.25 -17.89)" fill="#fff"/><path d="M78.3,114c0-.54,0-1,0-1.44H79l0,.91h0a1.39,1.39,0,0,1,1.28-1,.88.88,0,0,1,.24,0v.79a1.23,1.23,0,0,0-.29,0,1.16,1.16,0,0,0-1.12,1.07,2.34,2.34,0,0,0,0,.39v2.46H78.3Z" transform="translate(-6.25 -17.89)" fill="#fff"/><path d="M82.39,111.3a.52.52,0,0,1-1,0,.51.51,0,0,1,.52-.53A.5.5,0,0,1,82.39,111.3Zm-.94,5.9v-4.61h.84v4.61Z" transform="translate(-6.25 -17.89)" fill="#fff"/><path d="M84.15,115.05a1.48,1.48,0,0,0,1.58,1.6,3,3,0,0,0,1.27-.24l.15.6a3.81,3.81,0,0,1-1.54.29A2.14,2.14,0,0,1,83.35,115a2.23,2.23,0,0,1,2.16-2.48,2,2,0,0,1,1.9,2.17,3.1,3.1,0,0,1,0,.39Zm2.45-.6a1.19,1.19,0,0,0-1.16-1.36,1.38,1.38,0,0,0-1.28,1.36Z" transform="translate(-6.25 -17.89)" fill="#fff"/><path d="M88.33,116.34a2.24,2.24,0,0,0,1.11.34c.61,0,.89-.31.89-.69s-.23-.62-.85-.85c-.83-.29-1.22-.75-1.22-1.3a1.42,1.42,0,0,1,1.59-1.35,2.31,2.31,0,0,1,1.13.28l-.21.61a1.82,1.82,0,0,0-.94-.26c-.5,0-.77.28-.77.62s.27.56.87.78c.8.31,1.21.71,1.21,1.4s-.62,1.38-1.72,1.38a2.68,2.68,0,0,1-1.3-.32Z" transform="translate(-6.25 -17.89)" fill="#fff"/><path d="M294.34,111.49h-1.95v-.71h4.75v.71h-2v5.71h-.84Z" transform="translate(-6.25 -17.89)" fill="#fff"/><path d="M299.77,117.2l-.07-.58h0a1.71,1.71,0,0,1-1.41.68,1.31,1.31,0,0,1-1.41-1.32c0-1.11,1-1.72,2.77-1.71v-.1a.94.94,0,0,0-1-1.06,2.28,2.28,0,0,0-1.2.34l-.19-.55a2.82,2.82,0,0,1,1.51-.41c1.41,0,1.75,1,1.75,1.88v1.73a6.1,6.1,0,0,0,.08,1.1Zm-.13-2.35c-.91,0-1.95.14-1.95,1a.74.74,0,0,0,.79.8,1.16,1.16,0,0,0,1.12-.77,1.36,1.36,0,0,0,0-.27Z" transform="translate(-6.25 -17.89)" fill="#fff"/><path d="M301.69,116.34a2.24,2.24,0,0,0,1.1.34c.61,0,.9-.31.9-.69s-.24-.62-.86-.85c-.83-.29-1.22-.75-1.22-1.3a1.42,1.42,0,0,1,1.59-1.35,2.36,2.36,0,0,1,1.14.28l-.21.61a1.86,1.86,0,0,0-.95-.26c-.49,0-.77.28-.77.62s.28.56.88.78c.8.31,1.21.71,1.21,1.4s-.63,1.38-1.73,1.38a2.61,2.61,0,0,1-1.29-.32Z" transform="translate(-6.25 -17.89)" fill="#fff"/><path d="M306.4,114.71h0c.12-.17.28-.37.41-.53l1.35-1.59h1l-1.78,1.9,2,2.71h-1L306.83,115l-.43.48v1.73h-.83v-6.76h.83Z" transform="translate(-6.25 -17.89)" fill="#fff"/><path d="M316.57,117a4.19,4.19,0,0,1-1.7.31,3,3,0,0,1-3.17-3.25,3.19,3.19,0,0,1,3.35-3.37,3.57,3.57,0,0,1,1.53.28l-.2.68a3.07,3.07,0,0,0-1.3-.27,2.39,2.39,0,0,0-2.5,2.65A2.33,2.33,0,0,0,315,116.6a3.23,3.23,0,0,0,1.36-.27Z" transform="translate(-6.25 -17.89)" fill="#fff"/><path d="M321.64,114.86a2.25,2.25,0,0,1-2.29,2.44,2.19,2.19,0,0,1-2.21-2.37,2.24,2.24,0,0,1,2.28-2.44A2.18,2.18,0,0,1,321.64,114.86Zm-3.65,0c0,1,.58,1.77,1.39,1.77s1.41-.76,1.41-1.79c0-.78-.4-1.77-1.39-1.77S318,114,318,114.91Z" transform="translate(-6.25 -17.89)" fill="#fff"/><path d="M322.7,113.84c0-.48,0-.87,0-1.25h.73l0,.74h0a1.6,1.6,0,0,1,1.45-.84,1.37,1.37,0,0,1,1.3.92h0a1.8,1.8,0,0,1,.51-.6,1.58,1.58,0,0,1,1-.32c.61,0,1.52.4,1.52,2v2.71h-.82v-2.61c0-.88-.33-1.42-1-1.42a1.09,1.09,0,0,0-1,.76,1.37,1.37,0,0,0-.07.42v2.85h-.82v-2.76c0-.73-.32-1.27-1-1.27a1.16,1.16,0,0,0-1,.84,1.35,1.35,0,0,0-.06.41v2.78h-.82Z" transform="translate(-6.25 -17.89)" fill="#fff"/><path d="M330.64,114.1c0-.59,0-1.07,0-1.51h.75l0,.79h0a1.8,1.8,0,0,1,1.63-.89,2.09,2.09,0,0,1,2,2.34,2.18,2.18,0,0,1-2.1,2.47,1.61,1.61,0,0,1-1.42-.72h0v2.51h-.82Zm.82,1.22a1.87,1.87,0,0,0,0,.35,1.29,1.29,0,0,0,1.26,1c.88,0,1.4-.73,1.4-1.78s-.49-1.72-1.37-1.72a1.47,1.47,0,0,0-1.33,1.38Z" transform="translate(-6.25 -17.89)" fill="#fff"/><path d="M336.05,110.44h.84v6.76h-.84Z" transform="translate(-6.25 -17.89)" fill="#fff"/><path d="M338.76,115.05a1.48,1.48,0,0,0,1.58,1.6,3.08,3.08,0,0,0,1.28-.24l.14.6a3.75,3.75,0,0,1-1.53.29A2.15,2.15,0,0,1,338,115a2.23,2.23,0,0,1,2.17-2.48,2,2,0,0,1,1.9,2.17,3.1,3.1,0,0,1,0,.39Zm2.46-.6a1.19,1.19,0,0,0-1.16-1.36,1.39,1.39,0,0,0-1.29,1.36Z" transform="translate(-6.25 -17.89)" fill="#fff"/><path d="M344.08,111.27v1.32h1.2v.64h-1.2v2.48c0,.58.16.9.62.9a1.84,1.84,0,0,0,.49-.06l0,.63a2,2,0,0,1-.75.12,1.15,1.15,0,0,1-.9-.36,1.68,1.68,0,0,1-.32-1.2v-2.51h-.72v-.64h.72v-1.1Z" transform="translate(-6.25 -17.89)" fill="#fff"/><path d="M346.63,115.05a1.48,1.48,0,0,0,1.58,1.6,3,3,0,0,0,1.27-.24l.15.6a3.81,3.81,0,0,1-1.54.29,2.14,2.14,0,0,1-2.26-2.33,2.23,2.23,0,0,1,2.16-2.48,2,2,0,0,1,1.9,2.17,3.1,3.1,0,0,1,0,.39Zm2.45-.6a1.19,1.19,0,0,0-1.16-1.36,1.38,1.38,0,0,0-1.28,1.36Z" transform="translate(-6.25 -17.89)" fill="#fff"/><path d="M354.91,110.44V116c0,.41,0,.88,0,1.19h-.76l0-.8h0a1.71,1.71,0,0,1-1.57.9,2.09,2.09,0,0,1-2-2.34,2.2,2.2,0,0,1,2.06-2.47,1.54,1.54,0,0,1,1.39.7h0v-2.75Zm-.84,4a1.34,1.34,0,0,0,0-.35,1.23,1.23,0,0,0-1.21-1c-.86,0-1.38.77-1.38,1.78s.46,1.71,1.36,1.71a1.25,1.25,0,0,0,1.23-1,1.42,1.42,0,0,0,0-.36Z" transform="translate(-6.25 -17.89)" fill="#fff"/><path d="M430.54,111.49h-2v-.71h4.75v.71h-2v5.71h-.84Z" transform="translate(-6.25 -17.89)" fill="#fff"/><path d="M436,117.2l-.07-.58h0a1.72,1.72,0,0,1-1.41.68,1.31,1.31,0,0,1-1.41-1.32c0-1.11,1-1.72,2.77-1.71v-.1a.94.94,0,0,0-1-1.06,2.28,2.28,0,0,0-1.2.34l-.19-.55a2.82,2.82,0,0,1,1.51-.41c1.41,0,1.75,1,1.75,1.88v1.73a6.1,6.1,0,0,0,.08,1.1Zm-.13-2.35c-.91,0-1.95.14-1.95,1a.74.74,0,0,0,.79.8,1.14,1.14,0,0,0,1.11-.77.91.91,0,0,0,0-.27Z" transform="translate(-6.25 -17.89)" fill="#fff"/><path d="M437.89,116.34a2.2,2.2,0,0,0,1.1.34c.61,0,.9-.31.9-.69s-.24-.62-.86-.85c-.83-.29-1.22-.75-1.22-1.3a1.42,1.42,0,0,1,1.59-1.35,2.36,2.36,0,0,1,1.14.28l-.21.61a1.9,1.9,0,0,0-.95-.26c-.49,0-.77.28-.77.62s.28.56.88.78c.8.31,1.21.71,1.21,1.4s-.63,1.38-1.73,1.38a2.61,2.61,0,0,1-1.29-.32Z" transform="translate(-6.25 -17.89)" fill="#fff"/><path d="M442.6,114.71h0c.11-.17.28-.37.41-.53l1.35-1.59h1l-1.78,1.9,2,2.71h-1L443,115l-.43.48v1.73h-.83v-6.76h.83Z" transform="translate(-6.25 -17.89)" fill="#fff"/><path d="M452.77,117a4.19,4.19,0,0,1-1.7.31,3,3,0,0,1-3.17-3.25,3.19,3.19,0,0,1,3.35-3.37,3.57,3.57,0,0,1,1.53.28l-.2.68a3.07,3.07,0,0,0-1.3-.27,2.39,2.39,0,0,0-2.5,2.65,2.33,2.33,0,0,0,2.46,2.58,3.23,3.23,0,0,0,1.36-.27Z" transform="translate(-6.25 -17.89)" fill="#fff"/><path d="M453.78,110.44h.83v6.76h-.83Z" transform="translate(-6.25 -17.89)" fill="#fff"/><path d="M460.19,114.86a2.25,2.25,0,0,1-2.29,2.44,2.19,2.19,0,0,1-2.21-2.37,2.24,2.24,0,0,1,2.28-2.44A2.18,2.18,0,0,1,460.19,114.86Zm-3.65,0c0,1,.58,1.77,1.4,1.77s1.39-.76,1.39-1.79c0-.78-.39-1.77-1.38-1.77S456.54,114,456.54,114.91Z" transform="translate(-6.25 -17.89)" fill="#fff"/><path d="M461.13,116.34a2.24,2.24,0,0,0,1.11.34c.61,0,.89-.31.89-.69s-.24-.62-.85-.85c-.83-.29-1.22-.75-1.22-1.3a1.42,1.42,0,0,1,1.59-1.35,2.35,2.35,0,0,1,1.13.28l-.21.61a1.82,1.82,0,0,0-.94-.26c-.5,0-.77.28-.77.62s.27.56.87.78c.8.31,1.21.71,1.21,1.4s-.63,1.38-1.72,1.38a2.66,2.66,0,0,1-1.3-.32Z" transform="translate(-6.25 -17.89)" fill="#fff"/><path d="M465.48,115.05a1.48,1.48,0,0,0,1.58,1.6,3.08,3.08,0,0,0,1.28-.24l.14.6a3.75,3.75,0,0,1-1.53.29,2.15,2.15,0,0,1-2.27-2.33,2.23,2.23,0,0,1,2.16-2.48,2,2,0,0,1,1.91,2.17,3.1,3.1,0,0,1,0,.39Zm2.46-.6a1.19,1.19,0,0,0-1.16-1.36,1.39,1.39,0,0,0-1.29,1.36Z" transform="translate(-6.25 -17.89)" fill="#fff"/><path d="M473.76,110.44V116c0,.41,0,.88,0,1.19h-.75l0-.8h0a1.7,1.7,0,0,1-1.57.9,2.1,2.1,0,0,1-2-2.34,2.2,2.2,0,0,1,2.07-2.47,1.55,1.55,0,0,1,1.39.7h0v-2.75Zm-.83,4a1.34,1.34,0,0,0,0-.35,1.23,1.23,0,0,0-1.21-1c-.87,0-1.38.77-1.38,1.78s.46,1.71,1.36,1.71a1.26,1.26,0,0,0,1.23-1,1.42,1.42,0,0,0,0-.36Z" transform="translate(-6.25 -17.89)" fill="#fff"/><path d="M408.17,276.53l5.79,96.8,10.56,1.55,4.82-73.5,4.36,73.33,10.46.34S449,301,447.94,295.56s0-22.73,0-22.73Z" transform="translate(-6.25 -17.89)" fill="#606161"/><path d="M406.52,267.13c-5.11-3.1-10.06-16.25-7.86-19.44,2.65-3.83,6.6-30.39,10.09-33.44s7.91-5.24,12.51-5.07c5.42.2,11.42-2.34,16.48-.28,2.85,1.16,5.23,3.27,7.54,5.35,3.63,3.25,6.46,58,2.39,64-5.21,7.61-15.93,7.86-25,7.34-3.13-.18-6.39-.4-9.13-2C406.64,279.6,405.78,275.19,406.52,267.13Z" transform="translate(-6.25 -17.89)" fill="#2f55d4"/><path d="M407.13,190.7a12.22,12.22,0,0,0,1.62,8.09c1.95,3,5.65,4.87,6.31,8.33.31,1.58-.1,3.22,0,4.83s1,3.41,2.65,3.56a3.25,3.25,0,0,0,1.67-.37,10.31,10.31,0,0,0,4.13-4.46c3-5.25,4.94-11.4,4-17.4s-5.17-11.68-11.06-13.14C409.19,178.34,407.77,185,407.13,190.7Z" transform="translate(-6.25 -17.89)" fill="url(#linear-gradient-19)"/><path d="M407.75,180c.83,2.95,3.32,5.16,5.95,6.74a19.14,19.14,0,0,1,3.7,2.48c3.48,3.41,2.63,9.05,2.6,13.91,0,3.45.56,7.06,2.62,9.82,3.53,4.74,10.17,5.65,16.07,5.81a2.87,2.87,0,0,0,1.83-.37,2.4,2.4,0,0,0,.79-1.48c1.16-5.43-3.95-10.5-3.53-16,.23-3.13,2.21-5.87,2.85-8.94.93-4.45-1.07-9.09-4-12.55a12.24,12.24,0,0,0-4.41-3.49c-3.09-1.29-6.72-.56-9.85-1.75-1.82-.68-3.35-2-5.15-2.71C412.25,169.47,406.34,175,407.75,180Z" transform="translate(-6.25 -17.89)" fill="#606161"/><path d="M385.34,243.49a3.59,3.59,0,0,0-2.43-.33,3.25,3.25,0,0,0-1.19.86,17.78,17.78,0,0,0-3.86,6,4.92,4.92,0,0,0-.33,3.38,5.7,5.7,0,0,0,2.8,2.63c8.09,4.65,17.78,11.29,27.06,10.38.65-.06.43-2,.91-2.43a3.39,3.39,0,0,0,.81-2.23,40.1,40.1,0,0,0,.25-8.89,13.41,13.41,0,0,0-3.53-8,4.91,4.91,0,0,0-3.07-1.62c-1.8-.1-1.67,1.27-2.74,1.91-1.32.79-3.29.78-4.79.74A30.27,30.27,0,0,1,385.34,243.49Z" transform="translate(-6.25 -17.89)" fill="#2f55d4"/><path d="M417.62,237s-3,24-11.1,30.09c0,0-2.78,14.83,10,17.38a22.24,22.24,0,0,0,9.69,1s-12.43,3.77-10.08-21.16S417.62,237,417.62,237Z" transform="translate(-6.25 -17.89)" opacity="0.26" fill="url(#linear-gradient-20)"/><path d="M400,218.3l-5.83,7.24-.85,2.5,2.29-1.44,7.3-9.42a1,1,0,0,0-.85-.8C401.37,216.33,400,218.3,400,218.3Z" transform="translate(-6.25 -17.89)" fill="#606161"/><path d="M394.5,221.77a6,6,0,0,0-1.42,1,6.33,6.33,0,0,0-1.8,2.52,6,6,0,0,0-.21,2.34c0,.5.18,1.09.66,1.25a1.07,1.07,0,0,0,1-.3,8.45,8.45,0,0,0,1.65-2.84c.67-1.3,1.8-2.23,2.57-3.44C397.94,220.78,395.28,221.37,394.5,221.77Z" transform="translate(-6.25 -17.89)" fill="url(#linear-gradient-21)"/><path d="M399.29,224.5c.29.53.49,1.11.78,1.64a10.94,10.94,0,0,0,3.33,3.41.84.84,0,0,1,.27.26.74.74,0,0,1,.05.55,4.6,4.6,0,0,1-.36,1l-1.1,2.5a.2.2,0,0,1-.11.13.26.26,0,0,1-.17,0l-3.81-1.44a13.35,13.35,0,0,1-1.64-.72,6.46,6.46,0,0,1-2.52-2.48,1.53,1.53,0,0,1-.16-1.61c.34-.47,1-.49,1.48-.88a1.94,1.94,0,0,0,.35-.45c.58-.88,1.11-1.85,1.76-2.68S398.89,223.75,399.29,224.5Z" transform="translate(-6.25 -17.89)" fill="url(#linear-gradient-22)"/><path d="M406.38,380a1.75,1.75,0,0,0-.6,1.22,1.5,1.5,0,0,0,.49.88,5.8,5.8,0,0,0,3.28,1.29,28.8,28.8,0,0,0,11.65-.64,4.89,4.89,0,0,0,2.53-1.3,5.34,5.34,0,0,0,.9-3.46l.12-4.21a2.21,2.21,0,0,0-.11-1c-.32-.77-1.31-1-2.14-1a52,52,0,0,0-6-.11c-.71,0-1.62-.11-2.18.34s-.76,1.32-1.13,1.79C411.27,376.27,408.46,377.76,406.38,380Z" transform="translate(-6.25 -17.89)" fill="#606161"/><path d="M426.39,380.05a1.64,1.64,0,0,0-.58,1.18,1.35,1.35,0,0,0,.47.84,5.6,5.6,0,0,0,3.17,1.26,27.9,27.9,0,0,0,11.25-.62,4.77,4.77,0,0,0,2.45-1.26,5.19,5.19,0,0,0,.87-3.34l.12-4.07a2.23,2.23,0,0,0-.11-.93c-.31-.75-1.26-.93-2.06-1a53.46,53.46,0,0,0-5.8-.11c-.68,0-1.56-.09-2.1.34s-.74,1.27-1.1,1.73C431.11,376.41,428.4,377.86,426.39,380.05Z" transform="translate(-6.25 -17.89)" fill="#606161"/></svg>