<svg id="Layer_1" data-name="Layer 1" xmlns="http://www.w3.org/2000/svg" xmlns:xlink="http://www.w3.org/1999/xlink" viewBox="0 0 340.26 349.61"><defs><linearGradient id="linear-gradient" x1="239.78" y1="228.82" x2="264.56" y2="239.52" gradientUnits="userSpaceOnUse"><stop offset="0" stop-opacity="0"/><stop offset="0.91" stop-opacity="0.8"/><stop offset="1"/></linearGradient><linearGradient id="linear-gradient-2" x1="146.57" y1="134.48" x2="148.4" y2="113.09" xlink:href="#linear-gradient"/><linearGradient id="linear-gradient-3" x1="171.53" y1="136.62" x2="173.36" y2="115.22" xlink:href="#linear-gradient"/><linearGradient id="linear-gradient-4" x1="251.34" y1="131.27" x2="289.06" y2="130.42" gradientUnits="userSpaceOnUse"><stop offset="0" stop-opacity="0"/><stop offset="0.91" stop-opacity="0.8"/></linearGradient><linearGradient id="linear-gradient-5" x1="292.03" y1="78.92" x2="306.78" y2="78.92" gradientUnits="userSpaceOnUse"><stop offset="0" stop-color="#ecc4d7"/><stop offset="0.42" stop-color="#efd4d1"/><stop offset="1" stop-color="#f2eac9"/></linearGradient><linearGradient id="linear-gradient-6" x1="291.26" y1="127.31" x2="344.48" y2="137.73" xlink:href="#linear-gradient"/><linearGradient id="linear-gradient-7" x1="297.38" y1="122.41" x2="324.81" y2="122.41" xlink:href="#linear-gradient"/><linearGradient id="linear-gradient-8" x1="302.04" y1="168.14" x2="334.33" y2="168.14" xlink:href="#linear-gradient"/><linearGradient id="linear-gradient-9" x1="253.25" y1="137.45" x2="252.5" y2="182.5" xlink:href="#linear-gradient"/><linearGradient id="linear-gradient-10" x1="259.89" y1="138.58" x2="273.76" y2="138.71" xlink:href="#linear-gradient"/><linearGradient id="linear-gradient-11" x1="275.73" y1="136.94" x2="271.72" y2="136.83" xlink:href="#linear-gradient"/><linearGradient id="linear-gradient-12" x1="176.92" y1="145.41" x2="217.04" y2="145.41" xlink:href="#linear-gradient-5"/><linearGradient id="linear-gradient-13" x1="242.17" y1="309.42" x2="252.39" y2="309.42" xlink:href="#linear-gradient-5"/><linearGradient id="linear-gradient-14" x1="288.53" y1="307.5" x2="299.27" y2="307.5" xlink:href="#linear-gradient-5"/><linearGradient id="linear-gradient-15" x1="225.98" y1="323.59" x2="256.67" y2="323.59" gradientUnits="userSpaceOnUse"><stop offset="0" stop-color="#fff"/><stop offset="1" stop-color="#fff" stop-opacity="0"/></linearGradient><linearGradient id="linear-gradient-16" x1="289.51" y1="327.19" x2="309.2" y2="327.19" xlink:href="#linear-gradient-15"/><linearGradient id="linear-gradient-17" x1="96.4" y1="134.52" x2="131.67" y2="134.52" xlink:href="#linear-gradient"/><linearGradient id="linear-gradient-18" x1="114.38" y1="59.31" x2="114.24" y2="103.24" xlink:href="#linear-gradient"/><linearGradient id="linear-gradient-19" x1="106.44" y1="52.92" x2="137.6" y2="52.17" xlink:href="#linear-gradient-15"/><linearGradient id="linear-gradient-20" x1="52.37" y1="111.47" x2="71.89" y2="110.35" xlink:href="#linear-gradient-15"/><linearGradient id="linear-gradient-21" x1="153.85" y1="112.66" x2="164.51" y2="112.66" xlink:href="#linear-gradient"/><linearGradient id="linear-gradient-22" x1="148.61" y1="104.78" x2="169.75" y2="104.78" xlink:href="#linear-gradient"/><linearGradient id="linear-gradient-23" x1="300.43" y1="60.01" x2="306.01" y2="60.01" xlink:href="#linear-gradient-5"/><linearGradient id="linear-gradient-24" x1="271.16" y1="60.01" x2="302.04" y2="60.01" xlink:href="#linear-gradient-5"/><linearGradient id="linear-gradient-25" x1="266.44" y1="135.09" x2="267" y2="96.99" xlink:href="#linear-gradient-15"/><linearGradient id="linear-gradient-26" x1="263.81" y1="135.09" x2="264.38" y2="96.99" xlink:href="#linear-gradient-15"/><linearGradient id="linear-gradient-27" x1="272.16" y1="143.12" x2="291.36" y2="143.12" xlink:href="#linear-gradient-5"/><linearGradient id="linear-gradient-28" x1="144.41" y1="67.11" x2="147.6" y2="67.11" xlink:href="#linear-gradient"/><linearGradient id="linear-gradient-29" x1="147.36" y1="64" x2="150" y2="64" gradientTransform="translate(-9.77 97.09) rotate(-35.09)" xlink:href="#linear-gradient"/><linearGradient id="linear-gradient-30" x1="148.83" y1="71.78" x2="151.46" y2="71.78" gradientTransform="translate(30.86 183.3) rotate(-68.72)" xlink:href="#linear-gradient"/><linearGradient id="linear-gradient-31" x1="151.59" y1="65.02" x2="154.79" y2="65.02" xlink:href="#linear-gradient"/><linearGradient id="linear-gradient-32" x1="154.69" y1="61.9" x2="157.32" y2="61.9" xlink:href="#linear-gradient"/><linearGradient id="linear-gradient-33" x1="159.46" y1="55.68" x2="162.09" y2="55.68" xlink:href="#linear-gradient"/><linearGradient id="linear-gradient-34" x1="158.09" y1="76.54" x2="160.72" y2="76.54" gradientTransform="matrix(0.96, 0.29, -0.29, 0.96, 30.03, -57.33)" xlink:href="#linear-gradient"/><linearGradient id="linear-gradient-35" x1="159.72" y1="59.25" x2="162.92" y2="59.25" gradientTransform="translate(234.86 -96.81) rotate(94.2)" xlink:href="#linear-gradient"/><linearGradient id="linear-gradient-36" x1="166.08" y1="56.05" x2="168.72" y2="56.05" xlink:href="#linear-gradient"/><linearGradient id="linear-gradient-37" x1="159.14" y1="82.26" x2="161.77" y2="82.26" gradientTransform="translate(30.86 183.3) rotate(-68.72)" xlink:href="#linear-gradient"/><linearGradient id="linear-gradient-38" x1="145.49" y1="59.32" x2="148.69" y2="59.32" xlink:href="#linear-gradient"/><linearGradient id="linear-gradient-39" x1="157.46" y1="49.59" x2="160.66" y2="49.59" gradientTransform="translate(55.8 -80.6) rotate(34.53)" xlink:href="#linear-gradient"/><linearGradient id="linear-gradient-40" x1="147.59" y1="57.22" x2="150.22" y2="57.22" xlink:href="#linear-gradient"/><linearGradient id="linear-gradient-41" x1="156.47" y1="67.4" x2="159.1" y2="67.4" gradientTransform="translate(30.86 183.3) rotate(-68.72)" xlink:href="#linear-gradient"/><linearGradient id="linear-gradient-42" x1="152.08" y1="56.61" x2="155.28" y2="56.61" gradientTransform="translate(88.3 206.77) rotate(-86.69)" xlink:href="#linear-gradient"/><linearGradient id="linear-gradient-43" x1="155.78" y1="54.11" x2="158.41" y2="54.11" xlink:href="#linear-gradient"/><linearGradient id="linear-gradient-44" x1="160.99" y1="73.72" x2="163.62" y2="73.72" gradientTransform="translate(30.86 183.3) rotate(-68.72)" xlink:href="#linear-gradient"/><linearGradient id="linear-gradient-45" x1="139.31" y1="57.71" x2="142.51" y2="57.71" xlink:href="#linear-gradient"/><linearGradient id="linear-gradient-46" x1="139.88" y1="51.76" x2="142.51" y2="51.76" gradientTransform="translate(90.55 -89.84) rotate(50.19)" xlink:href="#linear-gradient"/><linearGradient id="linear-gradient-47" x1="158.52" y1="60.77" x2="161.16" y2="60.77" gradientTransform="translate(30.86 183.3) rotate(-68.72)" xlink:href="#linear-gradient"/><linearGradient id="linear-gradient-48" x1="155.16" y1="81.26" x2="157.79" y2="81.26" gradientTransform="translate(30.86 183.3) rotate(-68.72)" xlink:href="#linear-gradient"/><linearGradient id="linear-gradient-49" x1="143.85" y1="50.42" x2="147.05" y2="50.42" xlink:href="#linear-gradient"/><linearGradient id="linear-gradient-50" x1="160.45" y1="48.05" x2="163.65" y2="48.05" xlink:href="#linear-gradient"/><linearGradient id="linear-gradient-51" x1="148.68" y1="49.43" x2="151.31" y2="49.43" xlink:href="#linear-gradient"/><linearGradient id="linear-gradient-52" x1="164.12" y1="65.58" x2="166.76" y2="65.58" gradientTransform="translate(30.86 183.3) rotate(-68.72)" xlink:href="#linear-gradient"/><linearGradient id="linear-gradient-53" x1="152.54" y1="60.56" x2="155.17" y2="60.56" gradientTransform="translate(30.86 183.3) rotate(-68.72)" xlink:href="#linear-gradient"/><linearGradient id="linear-gradient-54" x1="168.66" y1="67.28" x2="171.3" y2="67.28" gradientTransform="translate(30.86 183.3) rotate(-68.72)" xlink:href="#linear-gradient"/><linearGradient id="linear-gradient-55" x1="171.93" y1="79.18" x2="174.57" y2="79.18" gradientTransform="translate(30.86 183.3) rotate(-68.72)" xlink:href="#linear-gradient"/><linearGradient id="linear-gradient-56" x1="150.72" y1="76.63" x2="153.35" y2="76.63" gradientTransform="translate(30.86 183.3) rotate(-68.72)" xlink:href="#linear-gradient"/><linearGradient id="linear-gradient-57" x1="168.24" y1="76.16" x2="170.88" y2="76.16" gradientTransform="translate(30.86 183.3) rotate(-68.72)" xlink:href="#linear-gradient"/></defs><title>73. Coffee lover</title><path d="M72.37,146.38S83.76,63.93,120.2,31.31,184.36-12.35,232.72,18.9s79.49,27.76,101.13,19.82,67.85,39,34.5,106.68c-18.16,36.86-15.81,66.71-9.9,86.24,9.61,31.8-9.51,65.42-41.91,72.76-18.11,4.11-42.23,5.24-74.37.79-123.4-17.08-115.79,17.2-152.11-8.16S72.37,146.38,72.37,146.38Z" transform="translate(-40.76 -0.36)" fill="#2f55d4" opacity="0.27" style="isolation:isolate"/><path d="M278.19,83.18c-16.35,2.92-31.74,9.67-46.88,16.51q-39.41,17.79-78.16,37c-12,6-24.55,12.48-31.89,23.7-10.19,15.57-7.46,37.32,3.52,52.35s28.75,23.93,46.93,27.87,37,3.44,55.59,2.91L280.49,242c10.95-.31,23.23-1.22,30.44-9.46,4.84-5.54,6.24-13.2,7.31-20.47,3.27-22.1,5.46-45.08,16.38-64.58,8.15-14.55,32-41.52,14.07-57.65C334.15,76.75,295.68,80.06,278.19,83.18Z" transform="translate(-40.76 -0.36)" fill="#2f55d4" opacity="0.27" style="isolation:isolate"/><path d="M287.38,233.73h6.18a0,0,0,0,1,0,0V346.52a3.09,3.09,0,0,1-3.09,3.09h0a3.09,3.09,0,0,1-3.09-3.09V233.73A0,0,0,0,1,287.38,233.73Z" fill="#2f55d4"/><path d="M249.63,233.73h6.18a0,0,0,0,1,0,0V346.52a3.09,3.09,0,0,1-3.09,3.09h0a3.09,3.09,0,0,1-3.09-3.09V233.73a0,0,0,0,1,0,0Z" fill="#2f55d4"/><rect x="253.84" y="296.67" width="34.76" height="5.55" fill="#2f55d4"/><rect x="242.15" y="212.71" width="58.81" height="21.01" rx="6.72" fill="#2f55d4"/><path d="M287.38,233.73h6.18a0,0,0,0,1,0,0V346.52a3.09,3.09,0,0,1-3.09,3.09h0a3.09,3.09,0,0,1-3.09-3.09V233.73A0,0,0,0,1,287.38,233.73Z" fill="#8c6239"/><path d="M249.63,233.73h6.18a0,0,0,0,1,0,0V346.52a3.09,3.09,0,0,1-3.09,3.09h0a3.09,3.09,0,0,1-3.09-3.09V233.73a0,0,0,0,1,0,0Z" fill="#8c6239"/><rect x="253.84" y="296.67" width="34.76" height="5.55" fill="#8c6239"/><rect x="242.15" y="212.71" width="58.81" height="21.01" rx="6.72" fill="#8c6239"/><path d="M278,175.74s-31,21.85-41.34,40.43,2.74,87.64,2.74,87.64,8.75,5.6,13,0,4.62-48,4.62-48l49.77-74.78S292.92,173.42,278,175.74Z" transform="translate(-40.76 -0.36)" fill="#3c4344"/><path d="M276.31,175.74s-31,21.85-41.33,40.43,2.73,87.64,2.73,87.64,8.75,5.6,13,0,4.62-48,4.62-48l49.76-74.78S291.21,173.42,276.31,175.74Z" transform="translate(-40.76 -0.36)" opacity="0.25" fill="url(#linear-gradient)" style="isolation:isolate"/><path d="M330,182.57s7.24,19.43-.53,28.36-37.88,27.92-38.72,29.15,5.94,60.06,5.94,60.06.09,8.33-8.17,5.56-33.64-59-30-71.61C260,229,297.43,179.78,298.65,180S330,182.57,330,182.57Z" transform="translate(-40.76 -0.36)" fill="#3c4344"/><rect x="142.12" y="115.22" width="34.11" height="2.13" fill="#2f55d4"/><rect x="145.26" y="117.34" width="3.18" height="27.7" fill="#2f55d4"/><rect x="170.4" y="117.34" width="3.18" height="27.7" fill="#2f55d4"/><rect x="145.26" y="117.34" width="3.18" height="27.7" opacity="0.25" fill="url(#linear-gradient-2)" style="isolation:isolate"/><rect x="170.4" y="117.34" width="3.18" height="27.7" opacity="0.25" fill="url(#linear-gradient-3)" style="isolation:isolate"/><rect y="144.16" width="340.26" height="9.94" fill="#8c6239"/><path d="M303.5,75.16a75.4,75.4,0,0,1,10.63,1.08,10.81,10.81,0,0,1,4.58,1.69C321.43,80.37,331,178.06,331,178.06s.72,5.72-4.28,6.43-48.7-8.75-48.7-8.75,1.52-65.11-.42-67.48,2.94-24.38,9-26.08S303.5,75.16,303.5,75.16Z" transform="translate(-40.76 -0.36)" fill="#2f55d4"/><path d="M303.5,75.16a75.4,75.4,0,0,1,10.63,1.08,10.81,10.81,0,0,1,4.58,1.69C321.43,80.37,331,178.06,331,178.06s.72,5.72-4.28,6.43-48.7-8.75-48.7-8.75,1.52-65.11-.42-67.48,2.94-24.38,9-26.08S303.5,75.16,303.5,75.16Z" transform="translate(-40.76 -0.36)" opacity="0.25" fill="url(#linear-gradient-4)" style="isolation:isolate"/><path d="M302.54,62.18s1.2,13,3.76,18.93-5.66,16.08-9.12,14.77-1.32-6.52-4.53-15.41S299.68,59.67,302.54,62.18Z" transform="translate(-40.76 -0.36)" fill="url(#linear-gradient-5)"/><path d="M331,86.58s-8.23-9.26-17.48-10.83S305,74,305,74l-.59-1.55s-1.49,1.86-1.61,6.44a98,98,0,0,0,.89,12.2c.15,1.4-2.22,24.06-5.69,27.27s3.51,24.3,3.51,24.3l-10.15-3.43,0,1-.6,16.08L302,160.25s.9,14.51,4.74,20.82,19.46,11,26.13,11.68-.74-22.44.48-26.1c0,0,14.19,1.12,13.05-10.5S343.37,95.23,331,86.58Z" transform="translate(-40.76 -0.36)" fill="#2f55d4"/><path d="M331,86.58s-8.23-9.26-17.48-10.83S305,74,305,74l-.59-1.55s-1.49,1.86-1.61,6.44a98,98,0,0,0,.89,12.2c.15,1.4-2.22,24.06-5.69,27.27s3.51,24.3,3.51,24.3l-10.15-3.43,0,1-.6,16.08L302,160.25s.9,14.51,4.74,20.82,19.46,11,26.13,11.68-.74-22.44.48-26.1c0,0,14.19,1.12,13.05-10.5S343.37,95.23,331,86.58Z" transform="translate(-40.76 -0.36)" opacity="0.25" fill="url(#linear-gradient-6)" style="isolation:isolate"/><path d="M301.55,142.69l23.26,3.69-3.77-47s-5-4-6.09,4.79,2.48,27-3.59,27.53-14-5.73-14-5.73S299.44,140.2,301.55,142.69Z" transform="translate(-40.76 -0.36)" opacity="0.25" fill="url(#linear-gradient-7)" style="isolation:isolate"/><path d="M302,160.25l31.35,6.4s-.27,7.12.91,9.09S302.9,169.6,302,160.25Z" transform="translate(-40.76 -0.36)" opacity="0.25" fill="url(#linear-gradient-8)" style="isolation:isolate"/><path d="M293.49,83.12S277.44,98,282.31,149.81c0,0,2.95,29.44,1.76,32.54s-9.69,5.46-9.69,5.46.45-63.14.43-67.65c0,0-4.54,24.77-19.07,27.4s-39.32,3.43-40.2,1.93-4.81-8.82,3.28-13,31.88-1,38.19-14.09,11.18-35.24,29.59-40.23l6-1.71Z" transform="translate(-40.76 -0.36)" fill="#2f55d4"/><path d="M293.49,83.12S277.44,98,282.31,149.81c0,0,2.95,29.44,1.76,32.54s-9.69,5.46-9.69,5.46.45-63.14.43-67.65c0,0-4.54,24.77-19.07,27.4s-39.32,3.43-40.2,1.93-4.81-8.82,3.28-13,31.88-1,38.19-14.09,11.18-35.24,29.59-40.23l6-1.71Z" transform="translate(-40.76 -0.36)" opacity="0.25" fill="url(#linear-gradient-9)" style="isolation:isolate"/><path d="M255.38,129.29c.36-.14,16.6.55,16.6.55l-.54,11.4a6.15,6.15,0,0,1-6.15,5.85h-4.24a6.16,6.16,0,0,1-6.15-6.49Z" transform="translate(-40.76 -0.36)" fill="#fff"/><path d="M256.34,130.34c.33-.12,15.36.52,15.36.52l-.5,10.53a5.69,5.69,0,0,1-5.69,5.42h-3.92a5.68,5.68,0,0,1-5.68-6Z" transform="translate(-40.76 -0.36)" opacity="0.25" fill="url(#linear-gradient-10)" style="isolation:isolate"/><path d="M271.93,131s4.6-1.44,6.09,1c0,0,1.85,10.16-4.45,10.78l-2.77.3.64-1.88s2.85.68,3.6-3.38-.12-5.72-3.21-4.82Z" transform="translate(-40.76 -0.36)" fill="#fff"/><path d="M271.93,131s4.6-1.44,6.09,1c0,0,1.85,10.16-4.45,10.78l-2.77.3.64-1.88s2.85.68,3.6-3.38-.12-5.72-3.21-4.82Z" transform="translate(-40.76 -0.36)" opacity="0.25" fill="url(#linear-gradient-11)" style="isolation:isolate"/><path d="M215.54,138.34s-16.82-1.73-23.33,1.37a124.59,124.59,0,0,0-14.38,8.58s-2.85,3.38,1.5,3.29,17.23-4.15,20.61-4-4.27,3.58-3.71,4.78,7.58.52,10.91-.76,7.7-3.45,7.7-3.45S219.29,142.09,215.54,138.34Z" transform="translate(-40.76 -0.36)" fill="url(#linear-gradient-12)"/><path d="M242.17,305.19l1.3,8.65s4.28,2.67,7.77,0l1.15-10Z" transform="translate(-40.76 -0.36)" fill="url(#linear-gradient-13)"/><path d="M288.53,305.7l2.8,7.4a2.72,2.72,0,0,0,3.05,1.7c1.76-.32,4-1.11,4.89-3l-2.57-11.62Z" transform="translate(-40.76 -0.36)" fill="url(#linear-gradient-14)"/><path d="M251.81,311.33a12.64,12.64,0,0,1-8.34,2.51s-7.91,9.82-10.75,10.36-9.47,7.7-5.51,11.15,29.2-12.27,29.2-12.27.64-.67-.08-2.81S254.25,311.69,251.81,311.33Z" transform="translate(-40.76 -0.36)" fill="#2f55d4"/><path d="M299.27,309.42s-10.46,1.4-9.73,6.39.74,7.49,1.1,8.74,3.49,3.76,2.72,10,2.86,12.09,9.2,9.95,7.7-5.13,5.94-11.71c-1-3.8-5.31-12.59-5.49-13.84S302.14,311,299.27,309.42Z" transform="translate(-40.76 -0.36)" fill="#2f55d4"/><path d="M251.81,311.33a12.64,12.64,0,0,1-8.34,2.51s-7.91,9.82-10.75,10.36-9.47,7.7-5.51,11.15,29.2-12.27,29.2-12.27.64-.67-.08-2.81S254.25,311.69,251.81,311.33Z" transform="translate(-40.76 -0.36)" fill="url(#linear-gradient-15)" style="isolation:isolate"/><path d="M299.27,309.42s-10.46,1.4-9.73,6.39.74,7.49,1.1,8.74,3.49,3.76,2.72,10,2.86,12.09,9.2,9.95,7.7-5.13,5.94-11.71c-1-3.8-5.31-12.59-5.49-13.84S302.14,311,299.27,309.42Z" transform="translate(-40.76 -0.36)" fill="url(#linear-gradient-16)" style="isolation:isolate"/><rect x="41.33" y="152.12" width="7.96" height="192.03" fill="#8c6239"/><rect x="305.55" y="152.12" width="7.96" height="192.03" fill="#8c6239"/><rect x="96.4" y="93.75" width="35.27" height="50.41" fill="#2f55d4"/><rect x="96.4" y="124.89" width="35.27" height="19.27" opacity="0.25" fill="url(#linear-gradient-17)" style="isolation:isolate"/><path d="M97.39,33.76h32.32a0,0,0,0,1,0,0V56.39A15.73,15.73,0,0,1,114,72.11h-.87A15.73,15.73,0,0,1,97.39,56.39V33.76A0,0,0,0,1,97.39,33.76Z" fill="#2f55d4"/><rect x="110.03" y="64.5" width="8.57" height="29.33" fill="#2f55d4"/><rect x="110.03" y="64.5" width="8.57" height="29.33" opacity="0.25" fill="url(#linear-gradient-18)" style="isolation:isolate"/><rect x="45.31" y="78.55" width="18.26" height="65.6" fill="#2f55d4"/><path d="M97.39,33.76h32.32a0,0,0,0,1,0,0V56.39A15.73,15.73,0,0,1,114,72.11h-.87A15.73,15.73,0,0,1,97.39,56.39V33.76A0,0,0,0,1,97.39,33.76Z" fill="url(#linear-gradient-19)" style="isolation:isolate"/><rect x="45.31" y="78.55" width="18.26" height="65.6" fill="url(#linear-gradient-20)" style="isolation:isolate"/><rect x="40.7" y="75.27" width="26.71" height="3.89" fill="#2f55d4"/><rect x="95.41" y="30.95" width="36.5" height="2.81" fill="#2f55d4"/><rect x="153.85" y="110.22" width="10.65" height="4.88" fill="#2f55d4"/><rect x="153.85" y="110.22" width="10.65" height="4.88" opacity="0.25" fill="url(#linear-gradient-21)" style="isolation:isolate"/><polyline points="153.85 110.22 148.61 99.34 169.75 99.34 164.51 110.22" fill="#2f55d4"/><polyline points="153.85 110.22 148.61 99.34 169.75 99.34 164.51 110.22" opacity="0.25" fill="url(#linear-gradient-22)" style="isolation:isolate"/><rect x="147.14" y="110.22" width="24.85" height="1.38" fill="#2f55d4"/><polygon points="149.66 99.34 147.77 95.97 156.67 95.97 160.13 98.61 159.57 96.83 164.72 96.83 166.44 95.97 170.4 95.97 168.52 99.34 149.66 99.34" fill="#fff"/><path d="M269.83,42.88s-.47-13.09,11.25-16.54,27.89.46,29.08,14.4S318.75,50.87,321,54.08s8.38,11.08,3,18.93,5.44,12.16,5.44,12.16S329,92,322.07,90.7s-12.23-2.84-12.69-8.65-3.57-3.82-4.72-6.85c-1-2.72-1.81-10.71-2-12.14s-7.21-7.31-9.89-9S274.39,39.36,269.83,42.88Z" transform="translate(-40.76 -0.36)" fill="#001316"/><path d="M305.18,55.59a3.78,3.78,0,0,0-4.61,3.26c-.69,4.1,1.34,7.39,3.24,4.65S306.9,56.56,305.18,55.59Z" transform="translate(-40.76 -0.36)" fill="url(#linear-gradient-23)"/><path d="M271.16,58s4.73,24.33,1.2,26.12-6.26,9.4-2.53,12,6.35-4.2,11.25-5.25,5.26.21,7.59-3.37a14.39,14.39,0,0,0,2.08-7.78l-9.67-29.55S270.26,44.54,271.16,58Z" transform="translate(-40.76 -0.36)" fill="#001316"/><path d="M271.16,55.15s5.67,32.8,20,26.13C300.31,77,302,65,302,56.94a55.24,55.24,0,0,0-.49-7.84S280.62,20.13,271.16,55.15Z" transform="translate(-40.76 -0.36)" fill="url(#linear-gradient-24)"/><path d="M273.18,39.9s-13.48,9.83-4.74,16.35,13,.87,15.88,0,3.61,2.31,8.81,1a20,20,0,0,1,8.91-.34l4.26-5.58a20.15,20.15,0,0,0-4.26-7C298.61,40.38,288.37,26.34,273.18,39.9Z" transform="translate(-40.76 -0.36)" fill="#001316"/><path d="M261.26,125.94a15.39,15.39,0,0,1,1.38-11.31c3.19-5.78-4.24-13.44-4.11-16.18s4.11-8.29,4.11-8.29L272,93s-.82,8,2.4,11.64-2.86,10.89-3.58,15.54a12,12,0,0,0,.33,5.43,5.47,5.47,0,0,1-.33,4.18h0l-10-.39S262.7,129.38,261.26,125.94Z" transform="translate(-40.76 -0.36)" fill="url(#linear-gradient-25)" style="isolation:isolate"/><path d="M258.63,125.94A15.36,15.36,0,0,1,260,114.63c3.18-5.78-4.25-13.44-4.12-16.18S260,90.16,260,90.16L269.35,93s-.82,8,2.4,11.64-2.86,10.89-3.58,15.54a12,12,0,0,0,.34,5.43,5.52,5.52,0,0,1-.34,4.18h0l-10-.39S260.08,129.38,258.63,125.94Z" transform="translate(-40.76 -0.36)" fill="url(#linear-gradient-26)" style="isolation:isolate"/><path d="M288.55,137l2.81,3.27-.52,13.87a11.85,11.85,0,0,1-10.09-5c-4.17-5.6-6.55-6.37-6.73-6.43s-2.68-2.32-1.31-4.29-2.09-4.59.35-5.84,6.55-.1,6.55-.1A26.6,26.6,0,0,1,288.55,137Z" transform="translate(-40.76 -0.36)" fill="url(#linear-gradient-27)"/><rect x="41.33" y="104.81" width="26.08" height="14.14" fill="#2f55d4"/><path d="M147.1,66.42c-.65-1-1.66-1.54-2.26-1.16s-.57,1.52.07,2.54,1.66,1.54,2.26,1.16S147.74,67.44,147.1,66.42Zm-.34,2.11c0-.09-.06-.18-.1-.27a1.12,1.12,0,0,0-.11-.25c-.07-.11-.18-.2-.26-.31s-.21-.58-.39-.82a2.46,2.46,0,0,0-.41-.38,1.6,1.6,0,0,1-.44-.65.46.46,0,0,1,0-.26c0-.07.09-.18.16-.15a.37.37,0,0,0,0,.31.9.9,0,0,0,.22.26,4.21,4.21,0,0,1,.78.8,4.9,4.9,0,0,1,.38.84,1.74,1.74,0,0,0,.1.19c.07.09.16.15.22.24A.34.34,0,0,1,146.76,68.53Z" transform="translate(-40.76 -0.36)" opacity="0.25" fill="url(#linear-gradient-28)" style="isolation:isolate"/><path d="M149.09,63c-.92-.38-1.85-.25-2.07.29s.33,1.3,1.25,1.68,1.84.25,2.07-.29S150,63.4,149.09,63Zm.77,1.59-.2-.14a1.22,1.22,0,0,0-.19-.12c-.1,0-.21,0-.32-.08s-.42-.29-.65-.37a1.82,1.82,0,0,0-.46-.06,1.3,1.3,0,0,1-.6-.23.39.39,0,0,1-.15-.16s0-.16,0-.17a.33.33,0,0,0,.14.21.83.83,0,0,0,.27.07,3.06,3.06,0,0,1,.91.17,3.56,3.56,0,0,1,.65.38l.16.08c.09,0,.18,0,.26.06A.28.28,0,0,1,149.86,64.6Z" transform="translate(-40.76 -0.36)" opacity="0.25" fill="url(#linear-gradient-29)" style="isolation:isolate"/><path d="M152,68.4c-1,.19-1.67.81-1.56,1.38s1,.89,2,.71,1.67-.82,1.56-1.39S153,68.21,152,68.4Zm1.52.89h-.46c-.11,0-.21.08-.32.11s-.51,0-.74,0a2.3,2.3,0,0,0-.42.2,1.39,1.39,0,0,1-.63.15.38.38,0,0,1-.21,0c-.05,0-.11-.12-.07-.17a.32.32,0,0,0,.24.09.58.58,0,0,0,.27-.09,3.87,3.87,0,0,1,.84-.36,4.78,4.78,0,0,1,.76,0,.55.55,0,0,0,.18,0c.09,0,.16-.07.25-.09A.27.27,0,0,1,153.55,69.29Z" transform="translate(-40.76 -0.36)" opacity="0.25" fill="url(#linear-gradient-30)" style="isolation:isolate"/><path d="M154.28,64.33c-.65-1-1.66-1.54-2.26-1.16s-.57,1.52.07,2.54,1.66,1.54,2.26,1.16S154.92,65.35,154.28,64.33Zm-.34,2.11c0-.09-.06-.18-.1-.27a1.12,1.12,0,0,0-.11-.25c-.07-.11-.18-.2-.26-.31s-.21-.58-.39-.82a2.46,2.46,0,0,0-.41-.38,1.6,1.6,0,0,1-.44-.65.46.46,0,0,1,0-.26c0-.07.09-.18.16-.15a.37.37,0,0,0,0,.31.9.9,0,0,0,.22.26,4.21,4.21,0,0,1,.78.8,4.9,4.9,0,0,1,.38.84,1.74,1.74,0,0,0,.1.19c.07.09.16.15.22.24A.34.34,0,0,1,153.94,66.44Z" transform="translate(-40.76 -0.36)" opacity="0.25" fill="url(#linear-gradient-31)" style="isolation:isolate"/><path d="M156.9,61.33c-.53-.84-1.36-1.26-1.86-.95s-.46,1.25.06,2.09,1.37,1.27,1.86,1S157.43,62.17,156.9,61.33Zm-.28,1.74a2,2,0,0,0-.08-.22.78.78,0,0,0-.09-.21c-.06-.09-.15-.16-.21-.25s-.18-.48-.32-.68a2.5,2.5,0,0,0-.34-.31,1.23,1.23,0,0,1-.36-.54.38.38,0,0,1,0-.21c0-.06.08-.15.14-.12a.25.25,0,0,0,0,.25.73.73,0,0,0,.18.22,3.58,3.58,0,0,1,.64.65,4.38,4.38,0,0,1,.31.7s.05.1.08.15.14.12.18.2A.26.26,0,0,1,156.62,63.07Z" transform="translate(-40.76 -0.36)" opacity="0.25" fill="url(#linear-gradient-32)" style="isolation:isolate"/><path d="M161.68,55.11c-.54-.84-1.37-1.26-1.86-1s-.47,1.25.05,2.09,1.37,1.27,1.86,1S162.2,56,161.68,55.11Zm-.28,1.74a2,2,0,0,0-.09-.22.56.56,0,0,0-.09-.21,2.32,2.32,0,0,0-.21-.25c-.15-.2-.17-.48-.32-.68a2,2,0,0,0-.34-.31,1.32,1.32,0,0,1-.36-.54.37.37,0,0,1,0-.21c0-.06.07-.15.13-.12a.31.31,0,0,0,0,.25.92.92,0,0,0,.18.22,3.28,3.28,0,0,1,.64.65,3.64,3.64,0,0,1,.31.7s.05.1.09.15.13.13.18.2A.28.28,0,0,1,161.4,56.85Z" transform="translate(-40.76 -0.36)" opacity="0.25" fill="url(#linear-gradient-33)" style="isolation:isolate"/><path d="M161.05,62.26c-.26-1-.93-1.61-1.5-1.46s-.81,1.06-.55,2,.93,1.61,1.5,1.46S161.31,63.22,161.05,62.26Zm-.77,1.58a1.94,1.94,0,0,0,0-.24.82.82,0,0,0,0-.22c0-.1-.1-.2-.13-.31s0-.5-.11-.74a1.9,1.9,0,0,0-.23-.39,1.25,1.25,0,0,1-.19-.62.34.34,0,0,1,0-.22c0-.05.11-.12.16-.07a.29.29,0,0,0-.07.24.73.73,0,0,0,.11.26,3.67,3.67,0,0,1,.42.81,3.85,3.85,0,0,1,.09.76,1.36,1.36,0,0,0,0,.17c0,.09.09.16.11.24A.27.27,0,0,1,160.28,63.84Z" transform="translate(-40.76 -0.36)" opacity="0.25" fill="url(#linear-gradient-34)" style="isolation:isolate"/><path d="M164.55,60.87c1.06-.57,1.65-1.54,1.32-2.17s-1.48-.68-2.54-.11-1.66,1.54-1.32,2.17S163.48,61.44,164.55,60.87Zm-2.08-.49.27-.08a1.14,1.14,0,0,0,.26-.09c.11-.06.21-.17.33-.24s.59-.17.84-.33a2.46,2.46,0,0,0,.41-.38,1.61,1.61,0,0,1,.68-.39.5.5,0,0,1,.27,0c.07,0,.17.1.13.17a.34.34,0,0,0-.31,0,.82.82,0,0,0-.27.2,2.91,2.91,0,0,1-1.72,1,1.76,1.76,0,0,0-.2.09c-.09.06-.16.15-.25.2A.33.33,0,0,1,162.47,60.38Z" transform="translate(-40.76 -0.36)" opacity="0.25" fill="url(#linear-gradient-35)" style="isolation:isolate"/><path d="M168.3,55.48c-.53-.84-1.36-1.27-1.86-.95s-.47,1.25.06,2.09,1.37,1.26,1.86,1S168.83,56.32,168.3,55.48ZM168,57.22a2.09,2.09,0,0,0-.08-.23,1.21,1.21,0,0,0-.09-.2c-.06-.09-.15-.17-.21-.26s-.18-.47-.33-.67a1.93,1.93,0,0,0-.33-.31,1.34,1.34,0,0,1-.37-.54.49.49,0,0,1,0-.21c0-.06.08-.15.13-.13a.33.33,0,0,0,0,.26.72.72,0,0,0,.18.21,4.05,4.05,0,0,1,.65.66,3.92,3.92,0,0,1,.31.69l.08.16a1.71,1.71,0,0,1,.18.2A.27.27,0,0,1,168,57.22Z" transform="translate(-40.76 -0.36)" opacity="0.25" fill="url(#linear-gradient-36)" style="isolation:isolate"/><path d="M165.54,62.59c-1,.2-1.68.82-1.57,1.39s1,.89,2,.71,1.68-.82,1.56-1.39S166.51,62.41,165.54,62.59Zm1.51.9h-.46c-.1,0-.21.08-.31.11s-.51,0-.75,0a2,2,0,0,0-.41.2,1.42,1.42,0,0,1-.63.15.44.44,0,0,1-.22,0c-.05,0-.11-.12-.06-.17a.29.29,0,0,0,.24.09.54.54,0,0,0,.26-.09,3.5,3.5,0,0,1,.85-.36,4.71,4.71,0,0,1,.75,0,.55.55,0,0,0,.18,0c.09,0,.16-.07.25-.09A.26.26,0,0,1,167.05,63.49Z" transform="translate(-40.76 -0.36)" opacity="0.25" fill="url(#linear-gradient-37)" style="isolation:isolate"/><path d="M148.19,58.63c-.65-1-1.66-1.54-2.26-1.16S145.36,59,146,60s1.66,1.54,2.26,1.16S148.83,59.65,148.19,58.63Zm-.34,2.11c0-.09-.06-.18-.1-.27a1.12,1.12,0,0,0-.11-.25c-.07-.11-.18-.2-.26-.31s-.21-.58-.39-.82a2.46,2.46,0,0,0-.41-.38,1.6,1.6,0,0,1-.44-.65.46.46,0,0,1,0-.26c0-.07.09-.18.16-.15a.37.37,0,0,0,0,.31.9.9,0,0,0,.22.26,4.21,4.21,0,0,1,.78.8,4.9,4.9,0,0,1,.38.84,1.74,1.74,0,0,0,.1.19c.07.09.16.15.22.24A.34.34,0,0,1,147.85,60.74Z" transform="translate(-40.76 -0.36)" opacity="0.25" fill="url(#linear-gradient-38)" style="isolation:isolate"/><path d="M160,50.48c0-1.21-.49-2.21-1.2-2.24s-1.33.93-1.38,2.13.49,2.21,1.2,2.24S160,51.68,160,50.48ZM158.55,52c0-.09,0-.18.07-.28a2.16,2.16,0,0,0,0-.27c0-.13,0-.26,0-.4,0-.3.16-.6.14-.9a2.1,2.1,0,0,0-.12-.54,1.63,1.63,0,0,1,0-.79.41.41,0,0,1,.11-.23s.18-.1.22,0a.4.4,0,0,0-.18.26,1,1,0,0,0,0,.34,4.16,4.16,0,0,1,.19,1.1,4.85,4.85,0,0,1-.17.91,1.36,1.36,0,0,0,0,.21c0,.11,0,.22,0,.32A.33.33,0,0,1,158.55,52Z" transform="translate(-40.76 -0.36)" opacity="0.25" fill="url(#linear-gradient-39)" style="isolation:isolate"/><path d="M149.81,56.66c-.54-.84-1.37-1.27-1.86-1s-.47,1.25.06,2.09,1.36,1.27,1.86,1S150.33,57.5,149.81,56.66Zm-.28,1.73c0-.07-.05-.15-.08-.22a1,1,0,0,0-.1-.21,2.32,2.32,0,0,0-.21-.25c-.15-.2-.17-.48-.32-.68a2,2,0,0,0-.34-.31,1.35,1.35,0,0,1-.36-.53.41.41,0,0,1,0-.22s.07-.15.13-.12a.31.31,0,0,0,0,.25.76.76,0,0,0,.18.22A3.08,3.08,0,0,1,149,57a3.3,3.3,0,0,1,.31.69.75.75,0,0,0,.09.15c.05.08.13.13.18.2A.28.28,0,0,1,149.53,58.39Z" transform="translate(-40.76 -0.36)" opacity="0.25" fill="url(#linear-gradient-40)" style="isolation:isolate"/><path d="M150.72,59.69c-1,.19-1.68.81-1.57,1.39s1,.89,2,.7,1.68-.81,1.57-1.39S151.69,59.5,150.72,59.69Zm1.51.89H152a.6.6,0,0,0-.23,0c-.1,0-.2.07-.31.1s-.51,0-.75.06a2,2,0,0,0-.41.2,1.26,1.26,0,0,1-.63.14.31.31,0,0,1-.21-.05c-.05,0-.11-.12-.07-.16a.3.3,0,0,0,.24.09.89.89,0,0,0,.26-.09,3.5,3.5,0,0,1,.85-.36,3.84,3.84,0,0,1,.76,0l.17,0a2.6,2.6,0,0,1,.25-.1A.28.28,0,0,1,152.23,60.58Z" transform="translate(-40.76 -0.36)" opacity="0.25" fill="url(#linear-gradient-41)" style="isolation:isolate"/><path d="M153.05,55.48c-1.05.59-1.63,1.57-1.28,2.19s1.48.66,2.54.08,1.63-1.57,1.28-2.19S154.11,54.9,153.05,55.48Zm2.09.46-.27.09a1,1,0,0,0-.26.09c-.11.06-.21.17-.32.24s-.6.18-.85.34a3.68,3.68,0,0,0-.4.39,1.54,1.54,0,0,1-.67.4.5.5,0,0,1-.27,0c-.06,0-.17-.1-.14-.17a.37.37,0,0,0,.31,0,.94.94,0,0,0,.28-.21,4.16,4.16,0,0,1,.84-.73,4.94,4.94,0,0,1,.86-.33l.2-.09a2.43,2.43,0,0,1,.25-.2A.33.33,0,0,1,155.14,55.94Z" transform="translate(-40.76 -0.36)" opacity="0.25" fill="url(#linear-gradient-42)" style="isolation:isolate"/><path d="M158,53.54c-.53-.84-1.36-1.27-1.86-1s-.47,1.25.06,2.09,1.37,1.27,1.86,1S158.52,54.38,158,53.54Zm-.28,1.73c0-.07-.05-.14-.08-.22a.72.72,0,0,0-.09-.2c-.06-.09-.15-.17-.21-.26s-.18-.48-.32-.67a2.54,2.54,0,0,0-.34-.32,1.2,1.2,0,0,1-.36-.53.39.39,0,0,1,0-.21c0-.06.08-.15.13-.13a.33.33,0,0,0,0,.26.93.93,0,0,0,.19.21,3.63,3.63,0,0,1,.64.66,3.92,3.92,0,0,1,.31.69l.08.16c.06.07.13.12.18.19A.26.26,0,0,1,157.71,55.27Z" transform="translate(-40.76 -0.36)" opacity="0.25" fill="url(#linear-gradient-43)" style="isolation:isolate"/><path d="M158.25,57.77c-1,.19-1.67.81-1.56,1.38s1,.89,2,.71,1.67-.82,1.56-1.39S159.23,57.58,158.25,57.77Zm1.52.89h-.46c-.11,0-.21.08-.32.11s-.51,0-.74,0a2.3,2.3,0,0,0-.42.2,1.39,1.39,0,0,1-.63.15.38.38,0,0,1-.21-.05c-.05,0-.11-.12-.07-.17a.37.37,0,0,0,.24.1,1,1,0,0,0,.27-.09,3.43,3.43,0,0,1,.84-.36,3.21,3.21,0,0,1,.76,0l.18,0a2.6,2.6,0,0,1,.25-.1A.28.28,0,0,1,159.77,58.66Z" transform="translate(-40.76 -0.36)" opacity="0.25" fill="url(#linear-gradient-44)" style="isolation:isolate"/><path d="M142,57c-.65-1-1.66-1.54-2.26-1.16s-.57,1.52.07,2.54,1.66,1.54,2.26,1.16S142.64,58,142,57Zm-.34,2.11c0-.09-.06-.18-.1-.27a1.12,1.12,0,0,0-.11-.25c-.07-.11-.18-.2-.26-.31s-.21-.58-.39-.82a2.46,2.46,0,0,0-.41-.38,1.6,1.6,0,0,1-.44-.65.46.46,0,0,1,0-.26c0-.07.09-.18.16-.15a.37.37,0,0,0,0,.31.9.9,0,0,0,.22.26,4.21,4.21,0,0,1,.78.8,4.9,4.9,0,0,1,.38.84,1.74,1.74,0,0,0,.1.19c.07.09.16.15.22.24A.34.34,0,0,1,141.66,59.13Z" transform="translate(-40.76 -0.36)" opacity="0.25" fill="url(#linear-gradient-45)" style="isolation:isolate"/><path d="M142.21,52.09c.3-1,.09-1.87-.46-2s-1.26.44-1.57,1.38-.1,1.86.46,2S141.9,53,142.21,52.09Zm-1.52.89a1.32,1.32,0,0,0,.12-.2.93.93,0,0,0,.1-.2c0-.11,0-.22.06-.33s.26-.44.31-.68a2.37,2.37,0,0,0,0-.46,1.35,1.35,0,0,1,.18-.62.31.31,0,0,1,.14-.16c.05,0,.16,0,.18,0a.32.32,0,0,0-.2.16,1.26,1.26,0,0,0-.05.28,3.43,3.43,0,0,1-.09.91,4.37,4.37,0,0,1-.33.69s0,.1-.07.16,0,.18,0,.26A.28.28,0,0,1,140.69,53Z" transform="translate(-40.76 -0.36)" opacity="0.25" fill="url(#linear-gradient-46)" style="isolation:isolate"/><path d="M145.29,55.37c-1,.19-1.67.81-1.56,1.39s1,.89,2,.7,1.67-.81,1.56-1.39S146.27,55.18,145.29,55.37Zm1.52.89h-.24a.54.54,0,0,0-.22,0c-.11,0-.21.07-.32.1s-.51,0-.74.06a2.3,2.3,0,0,0-.42.2,1.26,1.26,0,0,1-.63.14.31.31,0,0,1-.21-.05c-.05,0-.11-.12-.07-.16a.32.32,0,0,0,.24.09,1,1,0,0,0,.27-.09,3.43,3.43,0,0,1,.84-.36,3.84,3.84,0,0,1,.76,0l.18,0a2.6,2.6,0,0,1,.25-.1A.28.28,0,0,1,146.81,56.26Z" transform="translate(-40.76 -0.36)" opacity="0.25" fill="url(#linear-gradient-47)" style="isolation:isolate"/><path d="M163.16,65.94c-1,.19-1.67.81-1.56,1.38s1,.89,2,.71,1.67-.81,1.56-1.39S164.14,65.75,163.16,65.94Zm1.52.89h-.46c-.11,0-.21.08-.32.11s-.51,0-.74,0a1.83,1.83,0,0,0-.42.21,1.52,1.52,0,0,1-.63.14.38.38,0,0,1-.21,0c-.05,0-.11-.12-.07-.17a.33.33,0,0,0,.24.1,1,1,0,0,0,.27-.09,3.43,3.43,0,0,1,.84-.36,3.21,3.21,0,0,1,.76,0l.18,0a2.6,2.6,0,0,1,.25-.1A.28.28,0,0,1,164.68,66.83Z" transform="translate(-40.76 -0.36)" opacity="0.25" fill="url(#linear-gradient-48)" style="isolation:isolate"/><path d="M146.54,49.73c-.65-1-1.66-1.54-2.26-1.16s-.57,1.52.07,2.54,1.66,1.54,2.26,1.16S147.18,50.75,146.54,49.73Zm-.34,2.11c0-.09-.06-.18-.1-.27a1.12,1.12,0,0,0-.11-.25c-.07-.11-.18-.2-.26-.31s-.21-.58-.39-.82a2.46,2.46,0,0,0-.41-.38,1.6,1.6,0,0,1-.44-.65.46.46,0,0,1,0-.26c0-.07.09-.18.16-.15a.37.37,0,0,0,0,.31.9.9,0,0,0,.22.26,4.21,4.21,0,0,1,.78.8A4.9,4.9,0,0,1,146,51a1.74,1.74,0,0,0,.1.19c.07.09.16.15.22.24A.34.34,0,0,1,146.2,51.84Z" transform="translate(-40.76 -0.36)" opacity="0.25" fill="url(#linear-gradient-49)" style="isolation:isolate"/><path d="M163.14,47.36c-.65-1-1.66-1.54-2.26-1.16s-.57,1.52.07,2.54,1.66,1.54,2.26,1.16S163.78,48.38,163.14,47.36Zm-.34,2.11c0-.09-.06-.18-.1-.27a1.12,1.12,0,0,0-.11-.25c-.07-.11-.18-.2-.26-.31s-.21-.58-.39-.82a2.46,2.46,0,0,0-.41-.38,1.6,1.6,0,0,1-.44-.65.46.46,0,0,1,0-.26c0-.07.09-.18.16-.15a.37.37,0,0,0,0,.31.9.9,0,0,0,.22.26,4.21,4.21,0,0,1,.78.8,4.9,4.9,0,0,1,.38.84,1.74,1.74,0,0,0,.1.19c.07.09.16.15.22.24A.34.34,0,0,1,162.8,49.47Z" transform="translate(-40.76 -0.36)" opacity="0.25" fill="url(#linear-gradient-50)" style="isolation:isolate"/><path d="M150.9,48.86c-.54-.84-1.37-1.27-1.86-1s-.47,1.25.05,2.09,1.37,1.26,1.86,1S151.42,49.7,150.9,48.86Zm-.28,1.74a1.45,1.45,0,0,0-.09-.22.78.78,0,0,0-.09-.21c-.05-.09-.14-.16-.21-.26s-.17-.47-.32-.67a2,2,0,0,0-.34-.31,1.32,1.32,0,0,1-.36-.54.3.3,0,0,1,0-.21c0-.06.07-.15.13-.13a.33.33,0,0,0,0,.26.72.72,0,0,0,.18.21,3.62,3.62,0,0,1,.64.66,3.55,3.55,0,0,1,.31.69,1.29,1.29,0,0,0,.09.16c.05.07.13.12.18.2A.29.29,0,0,1,150.62,50.6Z" transform="translate(-40.76 -0.36)" opacity="0.25" fill="url(#linear-gradient-51)" style="isolation:isolate"/><path d="M151.81,51.89c-1,.2-1.68.82-1.57,1.39s1,.89,2,.71,1.68-.82,1.57-1.39S152.78,51.71,151.81,51.89Zm1.51.9h-.46c-.1,0-.21.08-.31.11s-.51,0-.75.05a2,2,0,0,0-.41.2,1.39,1.39,0,0,1-.63.15.38.38,0,0,1-.21,0c-.05,0-.12-.12-.07-.17a.29.29,0,0,0,.24.09.54.54,0,0,0,.26-.09,3.94,3.94,0,0,1,.85-.36,4.78,4.78,0,0,1,.76,0,.52.52,0,0,0,.17,0c.09,0,.16-.07.25-.09A.26.26,0,0,1,153.32,52.79Z" transform="translate(-40.76 -0.36)" opacity="0.25" fill="url(#linear-gradient-52)" style="isolation:isolate"/><path d="M142.92,60.87c-1,.19-1.67.81-1.56,1.39s1,.89,2,.7,1.68-.81,1.56-1.38S143.9,60.69,142.92,60.87Zm1.52.89h-.24a.55.55,0,0,0-.22,0c-.11,0-.21.08-.32.1s-.5,0-.74.06a2.3,2.3,0,0,0-.42.2,1.24,1.24,0,0,1-.63.14.39.39,0,0,1-.21,0s-.11-.13-.06-.17a.28.28,0,0,0,.23.09.66.66,0,0,0,.27-.09,3.34,3.34,0,0,1,.85-.36,4.71,4.71,0,0,1,.75,0l.18,0a2.6,2.6,0,0,1,.25-.1A.28.28,0,0,1,144.44,61.76Z" transform="translate(-40.76 -0.36)" opacity="0.25" fill="url(#linear-gradient-53)" style="isolation:isolate"/><path d="M155,48.28c-1,.19-1.68.81-1.56,1.38s1,.9,2,.71,1.67-.81,1.56-1.39S156,48.09,155,48.28Zm1.52.89a1.92,1.92,0,0,0-.24,0,.81.81,0,0,0-.22,0l-.32.11c-.24.07-.51,0-.74.06a2.3,2.3,0,0,0-.42.2,1.26,1.26,0,0,1-.63.14.31.31,0,0,1-.21,0c-.05,0-.11-.12-.07-.16a.32.32,0,0,0,.24.09,1,1,0,0,0,.27-.09,3.43,3.43,0,0,1,.84-.36,3.84,3.84,0,0,1,.76,0l.18,0a2.6,2.6,0,0,1,.25-.1A.28.28,0,0,1,156.55,49.17Z" transform="translate(-40.76 -0.36)" opacity="0.25" fill="url(#linear-gradient-54)" style="isolation:isolate"/><path d="M167.31,49.55c-1,.2-1.67.81-1.56,1.39s1,.89,2,.7,1.67-.81,1.56-1.38S168.29,49.37,167.31,49.55Zm1.52.89h-.24a.55.55,0,0,0-.22,0c-.11,0-.21.08-.32.11s-.5,0-.74,0a2.3,2.3,0,0,0-.42.2,1.24,1.24,0,0,1-.63.14.39.39,0,0,1-.21,0c-.05,0-.11-.13-.06-.17a.28.28,0,0,0,.23.09.66.66,0,0,0,.27-.09,3.34,3.34,0,0,1,.85-.36,4.65,4.65,0,0,1,.75,0l.18,0a2.6,2.6,0,0,1,.25-.1A.28.28,0,0,1,168.83,50.44Z" transform="translate(-40.76 -0.36)" opacity="0.25" fill="url(#linear-gradient-55)" style="isolation:isolate"/><path d="M157.23,68.4c-1,.19-1.67.81-1.56,1.38s1,.89,2,.71,1.67-.82,1.56-1.39S158.21,68.21,157.23,68.4Zm1.52.89h-.46c-.11,0-.21.08-.32.11s-.51,0-.74,0a2.3,2.3,0,0,0-.42.2,1.39,1.39,0,0,1-.63.15.38.38,0,0,1-.21,0c-.05,0-.11-.12-.07-.17a.32.32,0,0,0,.24.09.58.58,0,0,0,.27-.09,3.87,3.87,0,0,1,.84-.36,4.78,4.78,0,0,1,.76,0,.55.55,0,0,0,.18,0c.09,0,.16-.07.25-.09A.27.27,0,0,1,158.75,69.29Z" transform="translate(-40.76 -0.36)" opacity="0.25" fill="url(#linear-gradient-56)" style="isolation:isolate"/><path d="M163.16,51.89c-1,.2-1.67.82-1.56,1.39s1,.89,2,.71,1.67-.82,1.56-1.39S164.14,51.71,163.16,51.89Zm1.52.9h-.46c-.11,0-.21.08-.32.11s-.51,0-.74.05a2.3,2.3,0,0,0-.42.2,1.39,1.39,0,0,1-.63.15.38.38,0,0,1-.21,0c-.05,0-.11-.12-.07-.17a.32.32,0,0,0,.24.09.58.58,0,0,0,.27-.09,3.87,3.87,0,0,1,.84-.36,4.78,4.78,0,0,1,.76,0,.55.55,0,0,0,.18,0c.09,0,.16-.07.25-.09A.27.27,0,0,1,164.68,52.79Z" transform="translate(-40.76 -0.36)" opacity="0.25" fill="url(#linear-gradient-57)" style="isolation:isolate"/><path d="M146.76,68.53c0-.09-.06-.18-.1-.27a1.12,1.12,0,0,0-.11-.25c-.07-.11-.18-.2-.26-.31s-.21-.58-.39-.82a2.46,2.46,0,0,0-.41-.38,1.6,1.6,0,0,1-.44-.65.46.46,0,0,1,0-.26c0-.07.09-.18.16-.15a.37.37,0,0,0,0,.31.9.9,0,0,0,.22.26,4.21,4.21,0,0,1,.78.8,4.9,4.9,0,0,1,.38.84,1.74,1.74,0,0,0,.1.19c.07.09.16.15.22.24A.34.34,0,0,1,146.76,68.53Z" transform="translate(-40.76 -0.36)" fill="none"/></svg>