<svg id="Layer_1" data-name="Layer 1" xmlns="http://www.w3.org/2000/svg" xmlns:xlink="http://www.w3.org/1999/xlink" viewBox="0 0 796.95 597"><defs><linearGradient id="linear-gradient" x1="363.99" y1="319.55" x2="389.76" y2="60.76" gradientUnits="userSpaceOnUse"><stop offset="0"/><stop offset="0.99" stop-opacity="0"/></linearGradient><linearGradient id="linear-gradient-2" x1="249.34" y1="148.24" x2="412.31" y2="148.24" xlink:href="#linear-gradient"/><linearGradient id="linear-gradient-3" x1="449.85" y1="60.66" x2="299.39" y2="632.41" xlink:href="#linear-gradient"/><linearGradient id="linear-gradient-4" x1="183.45" y1="374.6" x2="753.86" y2="156.35" xlink:href="#linear-gradient"/><linearGradient id="linear-gradient-5" x1="577.58" y1="157.73" x2="460.19" y2="511.54" xlink:href="#linear-gradient"/><linearGradient id="linear-gradient-6" x1="406.53" y1="-8.38" x2="118.69" y2="462.63" xlink:href="#linear-gradient"/><linearGradient id="linear-gradient-7" x1="597.04" y1="353.29" x2="795.2" y2="353.29" gradientUnits="userSpaceOnUse"><stop offset="0" stop-color="#ecc4d7"/><stop offset="0.42" stop-color="#efd4d1"/><stop offset="1" stop-color="#f2eac9"/></linearGradient><linearGradient id="linear-gradient-8" x1="701.64" y1="269.3" x2="179.09" y2="478.97" xlink:href="#linear-gradient-7"/><linearGradient id="linear-gradient-9" x1="718.31" y1="459.57" x2="779.83" y2="459.57" xlink:href="#linear-gradient-7"/><linearGradient id="linear-gradient-10" x1="603.9" y1="369.38" x2="636.11" y2="369.38" xlink:href="#linear-gradient-7"/></defs><title>22. Pie Chart</title><path d="M103.58,136.9c-36.39,16.52-78,32.15-95.49,68.06-14.87,30.48-7.44,67.52,7.69,97.87a214.07,214.07,0,0,0,61.38,74.34c21.5,16.43,47.56,30.48,57.39,55.69,9.24,23.69,1.26,50.49,4.64,75.7,7.1,52.92,64.14,87.22,117.52,88.4s103.85-22,152.83-43.32,101.51-41.49,154.37-33.95c45.46,6.48,90,33.24,134.47,22,33.46-8.46,58.22-37,74.73-67.32,29.23-53.7,36.34-127.12-6-171.21-15.3-15.92-36.4-27.53-44.93-47.89-7.35-17.53-3.58-37.42-3.6-56.43,0-49.07-27.29-95.91-66.3-125.69s-88.54-43.67-137.58-45.5C482.07,26.42,449,30.2,417,23.54c-58.76-12.24-107.25-47-156.6,1.4C213.05,71.38,165,109,103.58,136.9Z" transform="translate(0 0)" fill="#2f55d4" opacity="0.18"/><path d="M526.24,103.85,412.31,216.37l-163-136.25V57.28c15.33-3.45,43.85,13.87,61.09,12.36,71-6.21,152.42-13.72,215.81,11.37Z" transform="translate(0 0)" fill="#2f55d4"/><path d="M526.24,103.85,412.31,216.37l-163-136.25V57.28c15.33-3.45,43.85,13.87,61.09,12.36,71-6.21,152.42-13.72,215.81,11.37Z" transform="translate(0 0)" fill="url(#linear-gradient)" style="isolation:isolate"/><line x1="412.31" y1="216.37" x2="249.34" y2="80.12" fill="url(#linear-gradient-2)" style="isolation:isolate"/><path d="M526.24,81,421.32,184.63l-9,8.9-163-136.26A360.39,360.39,0,0,1,310.43,46.8q9.19-.79,18.44-1.19C397,42.68,466.59,56.11,526.24,81Z" transform="translate(0 0)" fill="#2f55d4"/><path d="M479,485.51C328.78,498.64,166.17,429.22,115.8,330.44c-13.35-26.17-17.47-51.77-13.54-75.52A136.57,136.57,0,0,0,115.8,295.3c50.37,98.78,213,168.2,363.19,155.07,110.42-9.66,183.4-61.23,194.33-127.11C668.29,410.55,608.41,474.2,479,485.51Z" transform="translate(0 0)" fill="#2f55d4"/><path d="M479,485.51C328.78,498.64,166.17,429.22,115.8,330.44c-13.35-26.17-17.47-51.77-13.54-75.52A136.57,136.57,0,0,0,115.8,295.3c50.37,98.78,213,168.2,363.19,155.07,110.42-9.66,183.4-61.23,194.33-127.11C668.29,410.55,608.41,474.2,479,485.51Z" transform="translate(0 0)" fill="url(#linear-gradient-3)" style="isolation:isolate"/><path d="M674.7,308.49h0a104.63,104.63,0,0,1-1.38,14.76c-4.6,27.74-20.21,53-45,73.58-34,28.31-85.41,47.94-149.32,53.53-114.25,10-235.66-27.78-309.41-89.89C146.36,340.92,127.86,319,115.8,295.3a136.06,136.06,0,0,1-13.53-40.38C91.39,186.77,143.39,127.68,235.5,103.14l163,136.25L512.4,126.87c67.21,28.06,121.79,70.68,147.38,120.87C670.41,268.57,675.19,289,674.7,308.49Z" transform="translate(0 0)" fill="#2f55d4"/><path d="M674.7,308.49h0L398.47,239.39,512.4,126.87c67.21,28.06,121.79,70.67,147.38,120.87C670.41,268.57,675.19,289,674.7,308.49Z" transform="translate(0 0)" fill="#2f55d4"/><path d="M674.7,308.49h0L398.47,239.39,512.4,126.87c67.21,28.06,121.79,70.67,147.38,120.87C670.41,268.57,675.19,289,674.7,308.49Z" transform="translate(0 0)" fill="url(#linear-gradient-4)" style="isolation:isolate"/><path d="M674.7,308.49h0a104.77,104.77,0,0,1-1.38,14.76c-4.61,27.75-20.22,53-45,73.58L398.47,239.39Z" transform="translate(0 0)" fill="#2f55d4"/><path d="M674.7,308.49h0a104.77,104.77,0,0,1-1.38,14.76c-4.61,27.75-20.22,53-45,73.58L398.47,239.39Z" transform="translate(0 0)" fill="url(#linear-gradient-5)" style="isolation:isolate"/><path d="M398.47,239.39,169.58,360.48C146.36,340.92,127.86,319,115.8,295.3a136.06,136.06,0,0,1-13.53-40.38Z" transform="translate(0 0)" fill="url(#linear-gradient-6)" style="isolation:isolate"/><path d="M421.32,184.63l-9,8.9-163-136.26A360.39,360.39,0,0,1,310.43,46.8q9.19-.79,18.44-1.19s-43.71,9-19,33.33S421.32,184.63,421.32,184.63Z" transform="translate(0 0)" fill="#fff" opacity="0.18" style="isolation:isolate"/><path d="M136.44,156.09s-8.44,59.31,27,69.8,235,13.5,235,13.5l-296.2,15.53S86,207.25,136.44,156.09Z" transform="translate(0 0)" fill="#fff" opacity="0.18" style="isolation:isolate"/><path d="M169.58,360.48s377.47,92,470.89-60.55l34.23,8.57S676,409.34,541,439.65,257.94,441.3,169.58,360.48Z" transform="translate(0 0)" fill="#fff" opacity="0.18" style="isolation:isolate"/><path d="M779.83,458.11a250.12,250.12,0,0,1-16.24,32.11s-7.4-14.08-23.53-42.5c-6.84-12.08-14.29-18.23-21.75-21.48h0c-10.09-4.4-20.22-3.53-29-4.93-15.32-2.41-30.64-11.19-30.64-11.19s-35.49-22.67-48.39-31.46S589.94,347.11,607,345.5s60.76,12.23,60.76,12.23v0c23.35-71.52-26.13-139.61-27.38-141.33l.1.07.35.31.27.23.68.59c4.74,4.07,20.43,17.57,34.33,29.67l.47.41c7.94,6.91,15.23,13.33,19.52,17.22,13.3,12.09,97.16,109.48,97.16,109.48C799.4,402.34,789.73,434.71,779.83,458.11Z" transform="translate(0 0)" fill="url(#linear-gradient-7)"/><path d="M667.78,359c23.35-71.51-26.13-139.61-27.38-141.33l.1.08.35.3.27.23.68.59,34.33,29.68.47.41s15.67,17.72,9.61,72.22C684.42,337.35,668.35,357.86,667.78,359Z" transform="translate(0 0)" fill="url(#linear-gradient-8)"/><path d="M779.83,459.46a249.51,249.51,0,0,1-16.24,32.1s-7.4-14.08-23.53-42.5c-6.84-12.08-14.29-18.22-21.75-21.48,1.74.45,42.19,11,54.81,23.87A71.27,71.27,0,0,1,779.83,459.46Z" transform="translate(0 0)" fill="url(#linear-gradient-9)"/><path d="M613.27,357.51c3.79-.61,7.65.35,11.26,1.63a61.85,61.85,0,0,1,8.87,4c1.15.63,2.39,1.43,2.66,2.71a4.63,4.63,0,0,1-.56,2.73,56.65,56.65,0,0,1-7.21,12,2.14,2.14,0,0,1-.93.81,2.19,2.19,0,0,1-1.05,0,35.14,35.14,0,0,1-19.93-9.94C600.59,365.44,605.75,358.72,613.27,357.51Z" transform="translate(0 0)" fill="url(#linear-gradient-10)"/></svg>