<svg id="Layer_1" data-name="Layer 1" xmlns="http://www.w3.org/2000/svg" xmlns:xlink="http://www.w3.org/1999/xlink" viewBox="0 0 417.61 283.67"><defs><linearGradient id="linear-gradient" x1="224.98" y1="221.68" x2="230.48" y2="87.32" gradientUnits="userSpaceOnUse"><stop offset="0" stop-opacity="0"/><stop offset="0.95"/></linearGradient><linearGradient id="linear-gradient-2" x1="130.8" y1="157.58" x2="186.29" y2="127.77" xlink:href="#linear-gradient"/><linearGradient id="linear-gradient-3" x1="210.74" y1="157.75" x2="266.23" y2="127.94" xlink:href="#linear-gradient"/><linearGradient id="linear-gradient-4" x1="290.99" y1="157.75" x2="346.48" y2="127.94" xlink:href="#linear-gradient"/><linearGradient id="linear-gradient-5" x1="130.58" y1="209.7" x2="85.64" y2="203.74" xlink:href="#linear-gradient"/><linearGradient id="linear-gradient-6" x1="195.76" y1="209.7" x2="150.82" y2="203.74" xlink:href="#linear-gradient"/><linearGradient id="linear-gradient-7" x1="260.93" y1="209.7" x2="215.99" y2="203.74" xlink:href="#linear-gradient"/><linearGradient id="linear-gradient-8" x1="326.1" y1="209.7" x2="281.16" y2="203.74" xlink:href="#linear-gradient"/><linearGradient id="linear-gradient-9" x1="210.47" y1="265.37" x2="211.39" y2="299.31" xlink:href="#linear-gradient"/></defs><title>Pipeline 1</title><path d="M33.8,113.38C31,122.9,27.36,132.84,22,140.62c-5.78,8.38-14.5,12.22-18.54,22-9.16,22.11,1.85,49.12,21,62C44.18,237.76,70,237.1,91.12,247.81c10.54,5.36,19.58,13.4,30.05,18.91a72.07,72.07,0,0,0,47.7,6.78c28.17-5.81,51.66-28.27,80.32-30.55,29.43-2.34,55.83,17,84.25,25.13a114.08,114.08,0,0,0,54.37,2c11.76-2.45,24.45-8,28.62-19.47,3.37-9.25.06-19.68-4.8-28.23s-11.26-16.25-14.82-25.44c-5.63-14.49-3.35-30.12-3.57-45.25-.19-12.67-2.33-25.65-4.39-38.16C384.68,88.15,375,61.37,352.6,46.62c-19.67-12.92-44.85-13.68-68.26-11.31s-46.9,7.43-70.26,4.56c-13.16-1.61-25.87-5.71-38.76-8.83-24.48-5.92-50.41-8.26-74.74-1.76S53.7,52.15,44.17,75.46c-3.9,9.52-5.53,19.77-8.12,29.73C35.36,107.84,34.61,110.59,33.8,113.38Z" transform="translate(-0.18 -25.38)" fill="#2f55d4" opacity="0.18" style="isolation:isolate"/><path d="M382,216.75v14.56H357.55V216.75a8.32,8.32,0,0,0-8.3-8.31H94.4A35.89,35.89,0,0,1,58.55,172.6V143.5H83v29.1A11.42,11.42,0,0,0,94.4,184H349.25A32.78,32.78,0,0,1,382,216.75Z" transform="translate(-0.18 -25.38)" fill="#2f55d4"/><path d="M382,216.75v11.13H369.93V207.24c0-3.9-8-14.45-18.51-14H98.29c-10,.87-27.35-2.58-27.35-19.42V143.5H83v29.1A11.42,11.42,0,0,0,94.4,184H349.25A32.78,32.78,0,0,1,382,216.75Z" transform="translate(-0.18 -25.38)" fill="url(#linear-gradient)"/><rect x="127.61" y="130.73" width="24.43" height="37.14" fill="#2f55d4"/><rect x="140.22" y="130.73" width="11.99" height="37.14" fill="url(#linear-gradient-2)"/><rect x="207.87" y="130.73" width="24.43" height="37.14" fill="#2f55d4"/><rect x="287.89" y="130.73" width="24.43" height="37.14" fill="#2f55d4"/><rect x="54.07" y="113.93" width="33.19" height="8.43" fill="#2f55d4"/><rect x="353.07" y="201.75" width="33.19" height="8.43" fill="#2f55d4"/><rect x="123.55" y="127" width="33.19" height="8.43" fill="#2f55d4"/><rect x="220.16" y="130.89" width="11.99" height="37.14" fill="url(#linear-gradient-3)"/><rect x="300.41" y="130.89" width="11.99" height="37.14" fill="url(#linear-gradient-4)"/><rect x="203.34" y="127" width="33.19" height="8.43" fill="#2f55d4"/><rect x="283.14" y="127" width="33.19" height="8.43" fill="#2f55d4"/><rect x="111.2" y="183.69" width="5.04" height="99.97" fill="#2f55d4"/><path d="M120.75,198.29v13.07a6,6,0,0,1-6,6h-2.44a6,6,0,0,1-6-6l0-2.85h7.51V198.29Z" transform="translate(-0.18 -25.38)" fill="#2f55d4"/><path d="M120.75,198.29v13.07a6,6,0,0,1-6,6h-2.44a6,6,0,0,1-6-6l0-2.85h1.38a6.12,6.12,0,0,0,6.13-6.13v-4Z" transform="translate(-0.18 -25.38)" fill="url(#linear-gradient-5)"/><rect x="176.37" y="183.69" width="5.04" height="99.97" fill="#2f55d4"/><path d="M185.92,198.29v13.07a6,6,0,0,1-6,6h-2.44a6,6,0,0,1-6-6l0-2.85h7.52V198.29Z" transform="translate(-0.18 -25.38)" fill="#2f55d4"/><path d="M185.92,198.29v13.07a6,6,0,0,1-6,6h-2.44a6,6,0,0,1-6-6l0-2.85H173a6.13,6.13,0,0,0,6.13-6.13v-4Z" transform="translate(-0.18 -25.38)" fill="url(#linear-gradient-6)"/><rect x="241.54" y="183.69" width="5.04" height="99.97" fill="#2f55d4"/><path d="M251.1,198.29v13.07a6,6,0,0,1-6,6h-2.45a6,6,0,0,1-6-6l0-2.85h7.51V198.29Z" transform="translate(-0.18 -25.38)" fill="#2f55d4"/><path d="M251.1,198.29v13.07a6,6,0,0,1-6,6h-2.45a6,6,0,0,1-6-6l0-2.85h1.38a6.12,6.12,0,0,0,6.13-6.13v-4Z" transform="translate(-0.18 -25.38)" fill="url(#linear-gradient-7)"/><rect x="306.72" y="183.69" width="5.04" height="99.97" fill="#2f55d4"/><path d="M316.27,198.29v13.07a6,6,0,0,1-6,6h-2.44a6,6,0,0,1-6-6l0-2.85h7.51V198.29Z" transform="translate(-0.18 -25.38)" fill="#2f55d4"/><path d="M316.27,198.29v13.07a6,6,0,0,1-6,6h-2.44a6,6,0,0,1-6-6l0-2.85h1.38a6.12,6.12,0,0,0,6.13-6.13v-4Z" transform="translate(-0.18 -25.38)" fill="url(#linear-gradient-8)"/><polygon points="130.2 109.4 139.71 118.92 149.12 109.52 130.2 109.4" fill="#2f55d4"/><polygon points="209.07 109.4 218.59 118.92 227.99 109.52 209.07 109.4" fill="#2f55d4"/><polygon points="288.87 109.4 298.38 118.92 307.78 109.52 288.87 109.4" fill="#2f55d4"/><circle cx="139.56" cy="71.61" r="33.21" fill="#fff"/><circle cx="219.16" cy="71.61" r="33.21" fill="#fff"/><circle cx="298.77" cy="71.61" r="33.21" fill="#fff"/><rect x="110.02" y="278.16" width="201.74" height="5.5" fill="#2f55d4"/><rect x="110.02" y="278.16" width="201.74" height="5.5" fill="url(#linear-gradient-9)"/><rect x="336.17" y="229.32" width="79.79" height="54.34" fill="#2f55d4"/><text transform="translate(121.83 75.06)" font-size="8.03" fill="#2f55d4" font-family="HiraKakuStd-W8-83pv-RKSJ-H, Hiragino Kaku Gothic Std">INPUT 2</text><polygon points="57.97 94.96 67.49 104.47 76.89 95.07 57.97 94.96" fill="#2f55d4"/><circle cx="67.33" cy="57.17" r="33.21" fill="#fff"/><text transform="translate(49.6 60.62)" font-size="8.03" fill="#2f55d4" font-family="HiraKakuStd-W8-83pv-RKSJ-H, Hiragino Kaku Gothic Std">INPUT 1</text><text transform="translate(198.41 75.06)" font-size="8.03" fill="#2f55d4" font-family="HiraKakuStd-W8-83pv-RKSJ-H, Hiragino Kaku Gothic Std">INPUT 3</text><text transform="translate(277.75 75.06)" font-size="8.03" fill="#2f55d4" font-family="HiraKakuStd-W8-83pv-RKSJ-H, Hiragino Kaku Gothic Std">INPUT 4</text><text transform="translate(355.25 260.33)" font-size="8.03" fill="#fff" font-family="HiraKakuStd-W8-83pv-RKSJ-H, Hiragino Kaku Gothic Std">OUTPUT</text></svg>