<svg id="Layer_1" data-name="Layer 1" xmlns="http://www.w3.org/2000/svg" xmlns:xlink="http://www.w3.org/1999/xlink" width="566.9" height="597" viewBox="0 0 566.9 597">
  <defs>
    <linearGradient id="linear-gradient" x1="439.57" y1="343.09" x2="408.81" y2="302.08" gradientTransform="translate(-109.39 -170)" gradientUnits="userSpaceOnUse">
      <stop offset="0"/>
      <stop offset="1" stop-opacity="0"/>
    </linearGradient>
    <linearGradient id="linear-gradient-2" x1="435.97" y1="657.63" x2="636.57" y2="657.63" xlink:href="#linear-gradient"/>
    <linearGradient id="linear-gradient-3" x1="516.69" y1="595.71" x2="516.36" y2="625.87" gradientTransform="translate(-109.39 -170)" gradientUnits="userSpaceOnUse">
      <stop offset="0" stop-color="#68e1fd"/>
      <stop offset="1" stop-color="#69b9eb"/>
    </linearGradient>
    <linearGradient id="linear-gradient-4" x1="526.21" y1="672.46" x2="519.59" y2="649.52" gradientTransform="translate(-109.39 -170)" gradientUnits="userSpaceOnUse">
      <stop offset="0"/>
      <stop offset="0.84" stop-opacity="0"/>
    </linearGradient>
    <linearGradient id="linear-gradient-5" x1="453.47" y1="612.99" x2="654.07" y2="612.99" xlink:href="#linear-gradient"/>
    <linearGradient id="linear-gradient-6" x1="446.87" y1="624.96" x2="467.86" y2="653.47" gradientTransform="translate(0 -170)" gradientUnits="userSpaceOnUse">
      <stop offset="0.32" stop-color="#fff" stop-opacity="0"/>
      <stop offset="1" stop-color="#fff"/>
    </linearGradient>
    <linearGradient id="linear-gradient-7" x1="576.04" y1="533.12" x2="553.1" y2="564" xlink:href="#linear-gradient"/>
    <linearGradient id="linear-gradient-8" x1="585" y1="535.73" x2="529.49" y2="598.53" xlink:href="#linear-gradient-4"/>
    <linearGradient id="linear-gradient-9" x1="568.56" y1="587.38" x2="595.47" y2="595.23" xlink:href="#linear-gradient"/>
    <linearGradient id="linear-gradient-10" x1="505.05" y1="511.38" x2="504.71" y2="541.54" xlink:href="#linear-gradient-3"/>
    <linearGradient id="linear-gradient-11" x1="426.09" y1="553.74" x2="583.17" y2="553.74" xlink:href="#linear-gradient-3"/>
    <linearGradient id="linear-gradient-12" x1="446.67" y1="531.15" x2="647.25" y2="531.15" xlink:href="#linear-gradient"/>
    <linearGradient id="linear-gradient-13" x1="470.86" y1="501.51" x2="498.18" y2="533.98" xlink:href="#linear-gradient-6"/>
    <linearGradient id="linear-gradient-14" x1="434.9" y1="302.03" x2="418.15" y2="255.57" gradientTransform="matrix(1, 0, 0, -1, 0, 598)" xlink:href="#linear-gradient"/>
    <linearGradient id="linear-gradient-15" x1="554.14" y1="465.79" x2="533.96" y2="503.35" xlink:href="#linear-gradient"/>
    <linearGradient id="linear-gradient-16" x1="441.41" y1="488.99" x2="641.99" y2="488.99" xlink:href="#linear-gradient"/>
    <linearGradient id="linear-gradient-17" x1="427.13" y1="495.75" x2="445.33" y2="528.26" xlink:href="#linear-gradient-6"/>
    <linearGradient id="linear-gradient-18" x1="520.24" y1="453.65" x2="527.48" y2="492.25" xlink:href="#linear-gradient-4"/>
    <linearGradient id="linear-gradient-19" x1="521.15" y1="469.6" x2="602.57" y2="458.5" xlink:href="#linear-gradient"/>
    <linearGradient id="linear-gradient-20" x1="437.54" y1="444.18" x2="638.15" y2="444.18" xlink:href="#linear-gradient"/>
    <linearGradient id="linear-gradient-21" x1="507.47" y1="377.82" x2="488.77" y2="447.18" xlink:href="#linear-gradient"/>
    <linearGradient id="linear-gradient-22" x1="489.73" y1="402.61" x2="504.81" y2="456.89" gradientTransform="translate(-109.39 -170)" xlink:href="#linear-gradient-6"/>
    <linearGradient id="linear-gradient-23" x1="492.12" y1="424.71" x2="587.9" y2="424.71" gradientTransform="translate(-109.39 -170)" gradientUnits="userSpaceOnUse">
      <stop offset="0" stop-color="#183866"/>
      <stop offset="1" stop-color="#1a7fc1"/>
    </linearGradient>
    <linearGradient id="linear-gradient-24" x1="186.48" y1="753.94" x2="186.42" y2="631.77" gradientTransform="translate(0 -170)" xlink:href="#linear-gradient-23"/>
    <linearGradient id="linear-gradient-25" x1="469.61" y1="849.68" x2="421.73" y2="619.58" xlink:href="#linear-gradient"/>
    <linearGradient id="linear-gradient-26" x1="178.08" y1="637.07" x2="147.33" y2="489.31" gradientTransform="matrix(1, 0, 0, 1, 0, 0)" xlink:href="#linear-gradient"/>
    <linearGradient id="linear-gradient-27" x1="407.98" y1="328.44" x2="405.73" y2="262.55" gradientTransform="matrix(1, 0, 0, 1, 0, 0)" xlink:href="#linear-gradient"/>
    <linearGradient id="linear-gradient-28" x1="499.58" y1="461.66" x2="545.68" y2="461.66" xlink:href="#linear-gradient"/>
    <linearGradient id="linear-gradient-29" x1="158.69" y1="646.89" x2="187.07" y2="373.95" gradientUnits="userSpaceOnUse">
      <stop offset="0"/>
      <stop offset="0.07" stop-opacity="0.84"/>
      <stop offset="1" stop-opacity="0"/>
    </linearGradient>
    <linearGradient id="linear-gradient-30" x1="462.76" y1="641.46" x2="495.08" y2="316.81" gradientTransform="translate(-109.39 -170)" gradientUnits="userSpaceOnUse">
      <stop offset="0" stop-color="#fff" stop-opacity="0"/>
      <stop offset="0.54" stop-color="#fff"/>
    </linearGradient>
    <linearGradient id="linear-gradient-31" x1="379.08" y1="524.47" x2="407.19" y2="585.57" gradientTransform="translate(0 -170)" xlink:href="#linear-gradient"/>
    <linearGradient id="linear-gradient-32" x1="428.64" y1="501.67" x2="456.74" y2="562.77" gradientTransform="translate(0 -170)" xlink:href="#linear-gradient"/>
    <linearGradient id="linear-gradient-33" x1="550.23" y1="611.28" x2="546.58" y2="521.66" gradientTransform="translate(-109.39 -170)" gradientUnits="userSpaceOnUse">
      <stop offset="0" stop-color="#fff" stop-opacity="0"/>
      <stop offset="0.67" stop-color="#fff"/>
    </linearGradient>
    <linearGradient id="linear-gradient-34" x1="519.57" y1="497.03" x2="592.89" y2="613.12" gradientTransform="translate(3.05 -261.07) rotate(10.41)" xlink:href="#linear-gradient"/>
    <linearGradient id="linear-gradient-35" x1="559.38" y1="548.86" x2="583.81" y2="661.72" xlink:href="#linear-gradient"/>
    <linearGradient id="linear-gradient-36" x1="569.27" y1="546.72" x2="593.7" y2="659.58" xlink:href="#linear-gradient"/>
    <linearGradient id="linear-gradient-37" x1="526.01" y1="840.29" x2="478.12" y2="610.19" xlink:href="#linear-gradient"/>
    <linearGradient id="linear-gradient-38" x1="325.17" y1="374.31" x2="266.04" y2="297.16" gradientTransform="matrix(1, 0, 0, 1, 0, 0)" xlink:href="#linear-gradient"/>
    <linearGradient id="linear-gradient-39" x1="368.15" y1="484.83" x2="414.25" y2="484.83" xlink:href="#linear-gradient"/>
    <linearGradient id="linear-gradient-40" x1="277.29" y1="388.59" x2="288.94" y2="451.34" xlink:href="#linear-gradient"/>
    <linearGradient id="linear-gradient-41" x1="226" y1="874.28" x2="178.11" y2="644.18" xlink:href="#linear-gradient"/>
    <linearGradient id="linear-gradient-42" x1="385.92" y1="872.18" x2="338.03" y2="642.08" xlink:href="#linear-gradient"/>
    <linearGradient id="linear-gradient-43" x1="563.15" y1="344.79" x2="429.17" y2="315.4" xlink:href="#linear-gradient"/>
    <linearGradient id="linear-gradient-44" x1="503.6" y1="370.71" x2="459.85" y2="308.5" xlink:href="#linear-gradient"/>
    <linearGradient id="linear-gradient-45" x1="302.1" y1="318.26" x2="350.18" y2="318.26" gradientTransform="translate(-109.39 -170)" gradientUnits="userSpaceOnUse">
      <stop offset="0" stop-color="#ecc4d7"/>
      <stop offset="0.42" stop-color="#efd4d1"/>
      <stop offset="1" stop-color="#f2eac9"/>
    </linearGradient>
    <linearGradient id="linear-gradient-46" x1="321.97" y1="325.75" x2="455.71" y2="359.79" gradientTransform="translate(458.6 -262.26) rotate(73.74)" xlink:href="#linear-gradient"/>
    <linearGradient id="linear-gradient-47" x1="422.6" y1="286.81" x2="110.2" y2="426.26" gradientTransform="translate(446.21 -255.14) rotate(73.74)" gradientUnits="userSpaceOnUse">
      <stop offset="0.32" stop-color="#fff" stop-opacity="0"/>
      <stop offset="0.54" stop-color="#fff"/>
    </linearGradient>
    <linearGradient id="linear-gradient-48" x1="324.28" y1="330.98" x2="463.88" y2="265.22" xlink:href="#linear-gradient-47"/>
    <linearGradient id="linear-gradient-49" x1="323.41" y1="319.72" x2="284.92" y2="290.69" xlink:href="#linear-gradient"/>
    <linearGradient id="linear-gradient-50" x1="315.8" y1="297.62" x2="367.18" y2="375.68" gradientTransform="translate(-109.39 -170)" xlink:href="#linear-gradient-6"/>
    <linearGradient id="linear-gradient-51" x1="367.57" y1="345.2" x2="415.68" y2="345.2" xlink:href="#linear-gradient-45"/>
    <linearGradient id="linear-gradient-52" x1="286.98" y1="296.27" x2="288.87" y2="302.8" xlink:href="#linear-gradient-45"/>
    <linearGradient id="linear-gradient-53" x1="473.58" y1="243.48" x2="495.88" y2="266.28" gradientTransform="translate(-109.39 -170)" gradientUnits="userSpaceOnUse">
      <stop offset="0" stop-color="#ecc4d7"/>
      <stop offset="1" stop-color="#f2eac9"/>
    </linearGradient>
    <linearGradient id="linear-gradient-54" x1="448.9" y1="195.49" x2="491.18" y2="238.72" xlink:href="#linear-gradient-53"/>
    <linearGradient id="linear-gradient-55" x1="498.2" y1="228.87" x2="504.84" y2="228.87" xlink:href="#linear-gradient-53"/>
  </defs>
  <title>6. savings</title>
  <path d="M86.21,153.19c-10,37.7-49.91,74.1-57.31,112.39-6.9,35.48,16.44,70.34,44.79,92.76S136,395.27,164,418.17c27.6,22.63,48.23,52.55,73.83,77.43s59.4,45.43,94.89,41.62c61.17-6.58,90.92-75.85,135.12-118.64,37.22-36,93.78-62.92,98.73-114.49,3-31.21-15.26-60.1-33.13-85.86-34.8-50.23-102-52.78-157.8-79.38C318.93,111.83,125.73,4.21,86.21,153.19Z" fill="#2f55d4" opacity="0.18" style="isolation: isolate"/>
  <path d="M327.4,109.19l-27.06,25.18a18,18,0,0,1-13.89,4.78L239.54,135l-2.93,28.91s52.57,8.21,60.07,6,53.93-37.4,53.93-37.4l6.85-38.6C347.61,93.87,333.46,102.07,327.4,109.19Z" fill="#2f55d4"/>
  <path d="M327.4,109.19l-27.06,25.18a18,18,0,0,1-13.89,4.78L239.54,135l-2.93,28.91s52.57,8.21,60.07,6,53.93-37.4,53.93-37.4l6.85-38.6C347.61,93.87,333.46,102.07,327.4,109.19Z" fill="#2f55d4"/>
  <path d="M327.4,109.19l-27.06,25.18a18,18,0,0,1-13.89,4.78L239.54,135l-2.93,28.91s52.57,8.21,60.07,6,53.93-37.4,53.93-37.4l6.85-38.6C347.61,93.87,333.46,102.07,327.4,109.19Z" fill="url(#linear-gradient)"/>
  <path d="M506.73,487.71c0,16.85-44.7,30.52-99.83,30.52s-99.83-13.67-99.83-30.52c0-1.62-.79-16.77,0-18.32,7.46-14.6,50-12.21,99.83-12.21,48.24,0,90.52-1.7,99.83,12.21C508.06,471.38,506.73,485.6,506.73,487.71Z" fill="#2f55d4"/>
  <path d="M506.73,487.71c0,16.85-44.7,30.52-99.83,30.52s-99.83-13.67-99.83-30.52c0-1.62-.79-16.77,0-18.32,7.46-14.6,50-12.21,99.83-12.21,48.24,0,90.52-1.7,99.83,12.21C508.06,471.38,506.73,485.6,506.73,487.71Z" fill="url(#linear-gradient-2)"/>
  <ellipse cx="406.9" cy="469.39" rx="99.83" ry="30.52" fill="#2f55d4"/>
  <path d="M486.42,464.38a7.73,7.73,0,0,1-1,3.69c-6,11.13-38.89,19.63-78.54,19.63s-72.51-8.5-78.54-19.63a7.73,7.73,0,0,1-1-3.69c0-12.89,35.61-23.33,79.52-23.33S486.42,451.49,486.42,464.38Z" fill="url(#linear-gradient-3)"/>
  <path d="M485.44,468.07c-6,11.13-38.89,19.63-78.54,19.63s-72.51-8.5-78.54-19.63c6-11.13,38.89-19.65,78.54-19.65S479.42,456.94,485.44,468.07Z" fill="#2f55d4"/>
  <path d="M485.44,468.07c-6,11.13-38.89,19.63-78.54,19.63s-72.51-8.5-78.54-19.63c6-11.13,38.89-19.65,78.54-19.65S479.42,456.94,485.44,468.07Z" fill="url(#linear-gradient-4)"/>
  <path d="M524.45,443.06c0,16.86-44.7,30.52-99.83,30.52s-99.83-13.66-99.83-30.52c0-1.62-.79-16.77,0-18.32,7.46-14.6,50-12.2,99.83-12.2,48.24,0,90.52-1.7,99.83,12.2C525.78,426.73,524.45,441,524.45,443.06Z" fill="#2f55d4"/>
  <path d="M524.45,443.06c0,16.86-44.7,30.52-99.83,30.52s-99.83-13.66-99.83-30.52c0-1.62-.79-16.77,0-18.32,7.46-14.6,50-12.2,99.83-12.2,48.24,0,90.52-1.7,99.83,12.2C525.78,426.73,524.45,441,524.45,443.06Z" fill="url(#linear-gradient-5)"/>
  <ellipse cx="424.62" cy="424.74" rx="99.83" ry="30.52" fill="#2f55d4"/>
  <ellipse cx="424.62" cy="424.74" rx="99.83" ry="30.52" fill="url(#linear-gradient-6)"/>
  <path d="M504.14,419.74a7.66,7.66,0,0,1-1,3.68c-6,11.13-38.9,19.64-78.55,19.64s-72.5-8.51-78.53-19.64a7.66,7.66,0,0,1-1-3.68c0-12.89,35.6-23.34,79.51-23.34S504.14,406.85,504.14,419.74Z" fill="url(#linear-gradient-7)"/>
  <path d="M503.16,423.42c-6,11.13-38.9,19.64-78.55,19.64s-72.5-8.51-78.53-19.64c6-11.13,38.89-19.64,78.53-19.64S497.14,412.29,503.16,423.42Z" fill="url(#linear-gradient-8)"/>
  <path d="M495.06,403.38c0,16.86-44.69,30.52-99.82,30.52s-99.83-13.66-99.83-30.52c0-1.61-.79-16.77,0-18.31,7.46-14.6,50-12.21,99.83-12.21,48.24,0,90.52-1.7,99.82,12.21C496.39,387.05,495.06,401.27,495.06,403.38Z" fill="#2f55d4"/>
  <path d="M495.06,403.38c0,16.86-44.69,30.52-99.82,30.52s-99.83-13.66-99.83-30.52c0-1.61-.79-16.77,0-18.31,7.46-14.6,50-12.21,99.83-12.21,48.24,0,90.52-1.7,99.82,12.21C496.39,387.05,495.06,401.27,495.06,403.38Z" fill="url(#linear-gradient-9)"/>
  <ellipse cx="395.24" cy="385.07" rx="99.83" ry="30.52" fill="#2f55d4"/>
  <path d="M474.76,380.06a7.66,7.66,0,0,1-1,3.68c-6,11.13-38.9,19.64-78.55,19.64s-72.5-8.51-78.53-19.64a7.66,7.66,0,0,1-1-3.68c0-12.89,35.61-23.33,79.52-23.33S474.76,367.17,474.76,380.06Z" fill="url(#linear-gradient-10)"/>
  <path d="M473.78,383.74c-6,11.13-38.9,19.64-78.55,19.64s-72.5-8.51-78.53-19.64c6-11.13,38.88-19.64,78.53-19.64S467.76,372.61,473.78,383.74Z" fill="url(#linear-gradient-11)"/>
  <path d="M513,361.22c0,16.85-44.7,30.52-99.83,30.52s-99.83-13.67-99.83-30.52c0-1.62-.79-16.77,0-18.32,7.46-14.6,50-12.2,99.83-12.2,48.24,0,90.52-1.7,99.83,12.2C514.29,344.89,513,359.11,513,361.22Z" fill="#2f55d4"/>
  <path d="M513,361.22c0,16.85-44.7,30.52-99.83,30.52s-99.83-13.67-99.83-30.52c0-1.62-.79-16.77,0-18.32,7.46-14.6,50-12.2,99.83-12.2,48.24,0,90.52-1.7,99.83,12.2C514.29,344.89,513,359.11,513,361.22Z" fill="url(#linear-gradient-12)"/>
  <ellipse cx="413.13" cy="342.9" rx="99.83" ry="30.52" fill="#2f55d4"/>
  <ellipse cx="448.21" cy="304.59" rx="99.83" ry="30.52" fill="url(#linear-gradient-13)"/>
  <path d="M498.71,339.49a7.73,7.73,0,0,1-1,3.69c-6,11.13-38.9,19.64-78.54,19.64s-72.46-8.51-78.46-19.64a7.73,7.73,0,0,1-1-3.69c0-12.88,35.6-23.33,79.52-23.33S498.71,326.6,498.71,339.49Z" fill="url(#linear-gradient-14)"/>
  <path d="M497.77,343.27c-6,11.13-38.9,19.64-78.54,19.64s-72.52-8.51-78.52-19.64c6-11.13,38.89-19.64,78.54-19.64S491.71,332.14,497.77,343.27Z" fill="url(#linear-gradient-15)"/>
  <path d="M513,319.06c0,16.85-44.7,30.52-99.83,30.52s-99.83-13.67-99.83-30.52c0-1.62-.79-16.77,0-18.32,7.46-14.6,50-12.2,99.83-12.2,48.24,0,90.52-1.71,99.83,12.2C514.29,302.73,513,317,513,319.06Z" fill="#2f55d4"/>
  <path d="M513,319.06c0,16.85-44.7,30.52-99.83,30.52s-99.83-13.67-99.83-30.52c0-1.62-.79-16.77,0-18.32,7.46-14.6,50-12.2,99.83-12.2,48.24,0,90.52-1.71,99.83,12.2C514.29,302.73,513,317,513,319.06Z" fill="url(#linear-gradient-16)"/>
  <ellipse cx="413.13" cy="300.74" rx="99.83" ry="30.52" fill="#2f55d4"/>
  <ellipse cx="413.13" cy="300.74" rx="99.83" ry="30.52" fill="url(#linear-gradient-17)"/>
  <path d="M492.61,295.73a7.73,7.73,0,0,1-1,3.69c-6,11.13-38.9,19.63-78.54,19.63s-72.46-8.5-78.46-19.63a7.73,7.73,0,0,1-1-3.69c0-12.89,35.6-23.33,79.52-23.33S492.61,282.84,492.61,295.73Z" fill="url(#linear-gradient-18)"/>
  <path d="M491.67,299.42c-6,11.13-38.9,19.63-78.54,19.63s-72.52-8.5-78.52-19.63c6-11.13,38.89-19.65,78.54-19.65S485.61,288.29,491.67,299.42Z" fill="url(#linear-gradient-19)"/>
  <path d="M486.27,274.26c0,16.85-44.7,30.52-99.83,30.52s-99.83-13.67-99.83-30.52c0-1.62-.79-16.77,0-18.32,7.46-14.6,50-12.21,99.83-12.21,48.24,0,90.52-1.7,99.83,12.21C487.61,257.93,486.27,272.15,486.27,274.26Z" fill="#2f55d4"/>
  <path d="M486.27,274.26c0,16.85-44.7,30.52-99.83,30.52s-99.83-13.67-99.83-30.52c0-1.62-.79-16.77,0-18.32,7.46-14.6,50-12.21,99.83-12.21,48.24,0,90.52-1.7,99.83,12.21C487.61,257.93,486.27,272.15,486.27,274.26Z" fill="url(#linear-gradient-20)"/>
  <ellipse cx="386.44" cy="255.94" rx="99.83" ry="30.52" fill="#2f55d4"/>
  <path d="M466,250.93a7.73,7.73,0,0,1-1,3.69c-6,11.13-38.89,19.63-78.54,19.63s-72.51-8.5-78.54-19.63a7.73,7.73,0,0,1-1-3.69c0-12.89,35.61-23.33,79.52-23.33S466,238,466,250.93Z" fill="url(#linear-gradient-21)"/>
  <path d="M465,254.62c-6,11.13-38.89,19.63-78.54,19.63s-72.51-8.5-78.54-19.63c6-11.13,38.89-19.65,78.54-19.65S459,243.49,465,254.62Z" fill="#2f55d4"/>
  <path d="M465,254.62c-6,11.13-38.89,19.63-78.54,19.63s-72.51-8.5-78.54-19.63c6-11.13,38.89-19.65,78.54-19.65S459,243.49,465,254.62Z" fill="url(#linear-gradient-22)"/>
  <path d="M425.83,230.72c3.13,1.56,5.69,4.83,5.31,8.32-.21,2-1.37,3.91-1.28,5.94.08,2.19,1.58,4.05,2.31,6.11,1.69,4.78-1,10.3-5.27,13.08a28.48,28.48,0,0,1-7,3.05,181.16,181.16,0,0,1-40.84,8.11c-7.36.59-14.82.74-21.94,2.69-4.53,1.24-8.85,3.19-13.39,4.44a7,7,0,0,1-3.43.32c-2.28-.53-3.62-3.15-3.37-5.49a10.3,10.3,0,0,1,3.4-6c3.67-3.57,8.42-5.74,12.71-8.54,5.5-3.58,10.24-8.19,15.26-12.44,4.38-3.7,9-7.14,13.59-10.57,5.63-4.2,11.32-8.43,17.63-11.5s17.78-1,16.68-1C416.49,229.88,423.61,229.6,425.83,230.72Z" opacity="0.19" fill="url(#linear-gradient-23)" style="isolation: isolate"/>
  <path d="M333.61,198.87s-84.86-7.13-87.26,38.18l-6.46,10.59,46.72,26.62s-3.89-11.14,6.75-16.56,53.58-8.06,60.23-20.65S333.61,198.87,333.61,198.87Z" fill="#25233a"/>
  <path d="M348.27,210.05s-54.28,21.38-58.9,44.56-2.76,19.65-2.76,19.65l20,14.13,29.31-4.95s6-13.22,25.14-16.76,46.28-9.33,52.15-24.46,4.9-32.17,4.9-32.17Z" fill="#3f3d56"/>
  <ellipse cx="186.47" cy="560.54" rx="183.77" ry="36.46" opacity="0.19" fill="url(#linear-gradient-24)" style="isolation: isolate"/>
  <path d="M323.71,557.51l-15.84,4.63a26.25,26.25,0,0,1-32.54-17.88h0a24.63,24.63,0,0,1-.63-2.67l-12.21-66.05,61.29-23.39,16.36,77.72A23.69,23.69,0,0,1,323.71,557.51Z" fill="#2f55d4"/>
  <path d="M323.71,557.51l-15.49-96.78,16.07-6.18,15.85,75.31A23.69,23.69,0,0,1,323.71,557.51Z" fill="url(#linear-gradient-25)"/>
  <path d="M139.41,547.3,123,548.56a26.36,26.36,0,0,1-28.21-24.37h0c-.06-.88-.08-1.75-.06-2.63l1.55-67.16L161,444.21l.14,79.44A23.61,23.61,0,0,1,139.41,547.3Z" fill="#2f55d4"/>
  <path d="M144.23,496.35l-1,50.23s17.67-4.33,17.94-22.93c.25-16.8.74-41.56.74-41.56Z" fill="url(#linear-gradient-26)"/>
  <path d="M369.73,357.71c-11.43,73.34-89.52,130.08-184.12,130.08S12.86,431.05,1.43,357.71c11.43-73.32,89.51-130.06,184.18-130.06S358.3,284.39,369.73,357.71Z" fill="#2f55d4"/>
  <path d="M369.76,357.71c-8.93,57.3-58.52,104.46-124.94,122.35,66.37-17.9,116-65.06,124.91-122.35-11.43-73.32-89.45-130.06-184.12-130.06S12.86,284.39,1.43,357.71A120.83,120.83,0,0,0,0,376.32C0,458.42,83.15,525,185.61,525s185.56-66.58,185.56-148.68A120.81,120.81,0,0,0,369.76,357.71ZM14.56,397c-1.09-2.05-2.11-4.13-3.08-6.23q1.45,3.15,3.08,6.23c19.24,36.44,56.1,65.46,102,80.21C70.63,462.42,33.79,433.39,14.56,397Zm107.89,82q3,.85,5.94,1.64C126.39,480.07,124.41,479.53,122.45,479Zm110.24,4c2-.43,4.07-.88,6.09-1.37Q235.77,482.33,232.69,483Z" fill="#2f55d4"/>
  <path d="M373.11,277.07s8.56-32.1,42.3-29.25,29.9,50.46,0,76C415.41,323.86,382.41,283.1,373.11,277.07Z" fill="#2f55d4"/>
  <path d="M373.11,277.35s8.56-32.1,42.3-29.25,29.9,50.46,0,76C415.41,324.14,382.41,283.38,373.11,277.35Z" fill="url(#linear-gradient-27)"/>
  <path d="M390.19,285.6s6-22.37,29.47-20.38,20.83,35.16,0,53C419.66,318.2,396.67,289.8,390.19,285.6Z" fill="#2f55d4"/>
  <path d="M390.19,285.6s6-22.37,29.47-20.38,20.83,35.16,0,53C419.66,318.2,396.67,289.8,390.19,285.6Z" fill="url(#linear-gradient-28)"/>
  <path d="M372.37,376.7c0,82.1-83.09,148.68-185.56,148.68S1.2,458.8,1.2,376.7a121.86,121.86,0,0,1,1.43-18.6c11.43,73.28,89.49,130.07,184.18,130.07a226,226,0,0,0,67.09-10c8.54-6-2.57-36.76-2.81-37.45l16.14,8.39,15.46,17.73c47.5-23,81.08-62.58,88.27-108.72A120.23,120.23,0,0,1,372.37,376.7Z" fill="url(#linear-gradient-29)"/>
  <path d="M482.09,393.84a115.18,115.18,0,0,1-10.7,48.59c-19,41-61.22,69.45-110.29,69.45a122.06,122.06,0,0,1-87.94-37,116.09,116.09,0,0,1-33.06-81.07c0-65.2,54.18-118,121-118S482.09,328.64,482.09,393.84Z" fill="#2f55d4"/>
  <path d="M482.09,393.84a115.18,115.18,0,0,1-10.7,48.59c-19,41-61.22,69.45-110.29,69.45a122.06,122.06,0,0,1-87.94-37,116.09,116.09,0,0,1-33.06-81.07c0-65.2,54.18-118,121-118S482.09,328.64,482.09,393.84Z" fill="url(#linear-gradient-30)"/>
  <ellipse cx="386.56" cy="370.73" rx="8.79" ry="8.86" fill="#2f55d4"/>
  <ellipse cx="443.21" cy="363.36" rx="8.79" ry="8.86" fill="#2f55d4"/>
  <ellipse cx="386.56" cy="370.73" rx="8.79" ry="8.86" fill="url(#linear-gradient-31)"/>
  <ellipse cx="443.21" cy="363.36" rx="8.79" ry="8.86" fill="url(#linear-gradient-32)"/>
  <path d="M455.41,385.32l9.38,50.77a41.1,41.1,0,0,1-10.58,3.5C435.85,443,418.74,433.8,416,419s9.92-29.63,28.28-33.07A40.73,40.73,0,0,1,455.41,385.32Z" fill="#2f55d4"/>
  <path d="M455.41,385.32l9.38,50.77a41.1,41.1,0,0,1-10.58,3.5C435.85,443,418.74,433.8,416,419s9.92-29.63,28.28-33.07A40.73,40.73,0,0,1,455.41,385.32Z" fill="url(#linear-gradient-33)"/>
  <ellipse cx="459.43" cy="410.87" rx="13.69" ry="25.89" transform="translate(-66.68 89.78) rotate(-10.41)" fill="#2f55d4"/>
  <ellipse cx="459.43" cy="410.87" rx="13.69" ry="25.89" transform="translate(-66.68 89.78) rotate(-10.41)" fill="url(#linear-gradient-34)"/>
  <path d="M458.46,409.35c1.41,4.94,1.77,9.17.8,9.45s-2.91-3.49-4.32-8.43-1.77-9.16-.8-9.44S457.05,404.42,458.46,409.35Z" fill="url(#linear-gradient-35)"/>
  <path d="M468.15,406.32c1.45,5,1.83,9.36.86,9.65s-2.93-3.58-4.37-8.63-1.83-9.37-.86-9.65S466.71,401.27,468.15,406.32Z" fill="url(#linear-gradient-36)"/>
  <path d="M471.55,440.31l-.16,2.12c-19,41-61.22,69.45-110.29,69.45a122.06,122.06,0,0,1-87.94-37s9.25-13.34,77.1-1.9S471.55,440.31,471.55,440.31Z" fill="url(#linear-gradient-37)"/>
  <path d="M308.79,304.5s-8.55-32.1-42.3-29.24-29.9,50.46,0,76C266.49,351.3,299.49,310.54,308.79,304.5Z" fill="#2f55d4"/>
  <path d="M309.92,304.5s-8.55-32.1-42.3-29.24-29.9,50.46,0,76C267.62,351.3,300.62,310.54,309.92,304.5Z" fill="url(#linear-gradient-38)"/>
  <path d="M304.86,308.76s-6-22.36-29.47-20.37-20.83,35.15,0,53C275.39,341.37,298.38,313,304.86,308.76Z" fill="#2f55d4"/>
  <path d="M304.86,308.76s-6-22.36-29.47-20.37-20.83,35.15,0,53C275.39,341.37,298.38,313,304.86,308.76Z" fill="url(#linear-gradient-39)"/>
  <path d="M252.61,268.07,244,271.93l-8.61,3.86c-50.35-30-95.44-29.48-119.12-26.11h0a104.36,104.36,0,0,0-17.38,3.77l25.11-10s14.51-6,53.44-3.79C226.79,242.5,252.61,268.07,252.61,268.07Z" fill="#25233a"/>
  <path d="M252.61,268.07,244,271.93l-21-14.47c-33.54-20.36-94.67-11.85-94.67-11.85l-12.11,4.07h0a104.36,104.36,0,0,0-17.38,3.77l25.11-10s14.51-6,53.44-3.79C226.79,242.5,252.61,268.07,252.61,268.07Z" fill="#2f55d4"/>
  <path d="M252.61,268.07,244,271.93l-21-14.47c-33.54-20.36-94.67-11.85-94.67-11.85l-12.11,4.07h0a104.36,104.36,0,0,0-17.38,3.77l25.11-10s14.51-6,53.44-3.79C226.79,242.5,252.61,268.07,252.61,268.07Z" fill="url(#linear-gradient-40)"/>
  <path d="M230.88,579.66l-16.42,1.65a26.34,26.34,0,0,1-28.73-23.71v0q-.12-1.29-.12-2.58V487.79l64.5-11.7,2,79.42A23.61,23.61,0,0,1,230.88,579.66Z" fill="#2f55d4"/>
  <path d="M67.22,562.2l-16.41,1.64a26.35,26.35,0,0,1-28.76-23.7h0c-.08-.87-.12-1.75-.12-2.63V406.83l64.5,51.8.15,6.25h0L88.39,538A23.63,23.63,0,0,1,67.22,562.2Z" fill="#2f55d4"/>
  <path d="M67.22,562.2s3.8-82,9-91.08,10.39-6.24,10.39-6.24h0L88.42,538A23.64,23.64,0,0,1,67.22,562.2Z" fill="url(#linear-gradient-41)"/>
  <path d="M230.88,579.66l2.34-98,16.92-3.12,1.91,77A23.61,23.61,0,0,1,230.88,579.66Z" fill="url(#linear-gradient-42)"/>
  <path d="M330.94,159.46l-1.66,36.19s1.69,19.77,18.32,21.78,70.55-7.38,70.55-7.38,3.66-63.64,0-78.22-3.6-34.56-19.9-34.89c-8.17-.17-29.54-4.54-40.79-3a26.49,26.49,0,0,0-22.74,23.51C333.61,127.91,332.25,142.14,330.94,159.46Z" fill="#2f55d4"/>
  <path d="M330.94,159.46l-1.66,36.19s1.69,19.77,18.32,21.78,70.55-7.38,70.55-7.38,3.66-63.64,0-78.22-3.6-34.56-19.9-34.89c-8.17-.17-29.54-4.54-40.79-3a26.49,26.49,0,0,0-22.74,23.51C333.61,127.91,332.25,142.14,330.94,159.46Z" fill="url(#linear-gradient-43)"/>
  <path d="M389.4,109.49c4.46-9.13,17.1-10.44,23-2.17,3.69,5.19,6.36,12.94,5.77,24.51-1.06,20.84-16.38,41-27.33,52.9a30.6,30.6,0,0,1-24.67,9.83L300.69,187l3-26,59.87,1.5Z" fill="#2f55d4"/>
  <path d="M389.4,109.49c4.46-9.13,17.1-10.44,23-2.17,3.69,5.19,6.36,12.94,5.77,24.51-1.06,20.84-16.38,41-27.33,52.9a30.6,30.6,0,0,1-24.67,9.83L300.69,187l3-26,59.87,1.5Z" fill="#2f55d4"/>
  <path d="M389.4,109.49c4.46-9.13,17.1-10.44,23-2.17,3.69,5.19,6.36,12.94,5.77,24.51-1.06,20.84-16.38,41-27.33,52.9a30.6,30.6,0,0,1-24.67,9.83L300.69,187l3-26,59.87,1.5Z" fill="#2f55d4"/>
  <path d="M389.4,109.49c4.46-9.13,17.1-10.44,23-2.17,3.69,5.19,6.36,12.94,5.77,24.51-1.06,20.84-16.38,41-27.33,52.9a30.6,30.6,0,0,1-24.67,9.83L300.69,187l3-26,59.87,1.5Z" fill="url(#linear-gradient-44)"/>
  <path d="M199.07,142c-2.76,1.33-5.71,3.19-6.36,6.2a33.24,33.24,0,0,0,7.17-.73l-6.27,6.47a1.92,1.92,0,0,0-.71,1.22c0,1.05,1.43,1.36,2.47,1.27a56.52,56.52,0,0,0,10.33-1.78c.24,1.65-2.29,2.31-2.85,3.88-.5,1.38.84,2.85,2.27,3.13a10.36,10.36,0,0,0,4.31-.58c4.69-1.13,9.6-.47,14.42-.34s10-.43,13.73-3.51a5.89,5.89,0,0,0,1.94-2.55,8.41,8.41,0,0,0,.16-3.2c-.19-3,1.82-9.29.83-11.8-.94-2.35-5.25-4-7.49-4.37C219.23,133,204.14,139.6,199.07,142Z" fill="url(#linear-gradient-45)"/>
  <ellipse cx="236.87" cy="162.14" rx="67.58" ry="50.82" transform="translate(14.9 344.14) rotate(-73.74)" fill="#2f55d4"/>
  <ellipse cx="236.87" cy="162.14" rx="67.58" ry="50.82" transform="translate(14.9 344.14) rotate(-73.74)" fill="url(#linear-gradient-46)"/>
  <ellipse cx="227.63" cy="158.3" rx="67.58" ry="50.92" transform="translate(11.29 331.71) rotate(-73.53)" fill="#2f55d4"/>
  <ellipse cx="227.63" cy="158.3" rx="67.58" ry="50.92" transform="translate(11.29 331.71) rotate(-73.53)" fill="url(#linear-gradient-47)"/>
  <ellipse cx="227.63" cy="158.3" rx="67.58" ry="50.92" transform="translate(11.29 331.71) rotate(-73.53)" fill="url(#linear-gradient-48)"/>
  <path d="M260.92,168.44c-9.12,30.3-33.12,49.78-53.6,43.52-.72-.22-1.43-.47-2.12-.74h0c-19-7.61-27.22-36.21-18.44-65.42,9.12-30.28,33.12-49.77,53.6-43.52a27.15,27.15,0,0,1,8.43,4.31h0C263.19,117.45,268.66,142.71,260.92,168.44Z" fill="url(#linear-gradient-49)"/>
  <path d="M260.92,168.44c-9.12,30.3-33.12,49.78-53.6,43.52-.72-.22-1.43-.47-2.12-.74h0c-14.39-10.86-19.87-36.12-12.13-61.85,9.13-30.29,33.12-49.78,53.6-43.52.72.22,1.43.47,2.12.74h0C263.19,117.45,268.66,142.71,260.92,168.44Z" fill="#2f55d4"/>
  <path d="M260.92,168.44c-9.12,30.3-33.12,49.78-53.6,43.52-.72-.22-1.43-.47-2.12-.74h0c-14.39-10.86-19.87-36.12-12.13-61.85,9.13-30.29,33.12-49.78,53.6-43.52.72.22,1.43.47,2.12.74h0C263.19,117.45,268.66,142.71,260.92,168.44Z" fill="url(#linear-gradient-50)"/>
  <path d="M264.54,169c-2.76,1.33-5.7,3.19-6.36,6.2a33.24,33.24,0,0,0,7.17-.73l-6.24,6.42a2,2,0,0,0-.7,1.23c0,1,1.42,1.35,2.46,1.27a56.52,56.52,0,0,0,10.33-1.78c.24,1.65-2.29,2.31-2.85,3.88-.5,1.38.84,2.85,2.27,3.13a10.53,10.53,0,0,0,4.31-.58c4.69-1.14,9.6-.47,14.42-.35s10-.42,13.74-3.51a5.79,5.79,0,0,0,1.93-2.55,8.41,8.41,0,0,0,.16-3.2c-.19-3,1.82-9.29.83-11.79-.93-2.35-5.25-4-7.49-4.37C284.71,159.88,269.61,166.52,264.54,169Z" fill="url(#linear-gradient-51)"/>
  <path d="M187.4,124a97.74,97.74,0,0,1,1.25,9.79c.31,4.81-4.77,1.64-4.77,1.64s3,3.84,2.39,6-3.58,0-3.58,0,1.47,3.18,1.12,5.19-4.31.38-4.31.38,2.17,2.56,1.74,4.86-3.47,1.77-3.47,1.77-5.61-3.16-4-7.68-.83-11.56,1.83-12.9,4.34-7,7.16-7.59A22.94,22.94,0,0,0,187.4,124Z" fill="url(#linear-gradient-52)"/>
  <path d="M362.94,102.42A5.68,5.68,0,0,0,367,103a75.57,75.57,0,0,0,24.22-7.23c-2.71-7.4-1.56-15.59-2.21-23.46-.23-2.64-1-5.69-3.36-6.77-1.75-.79-3.79-.23-5.55.53a26.69,26.69,0,0,0-14.56,17c-1,3.3-.87,6.79-1.77,10.1C363,95.74,359.78,100.13,362.94,102.42Z" fill="url(#linear-gradient-53)"/>
  <path d="M345.61,31.05s-6.43,34.92.53,45.48,17,13.34,27,5.91a91.45,91.45,0,0,0,17.08-17.3s6.33-.88,8.58-6.31-4.13-8.44-7.56-6.18,6.31-15.07,2.07-17.09S368.61,3.66,345.61,31.05Z" fill="url(#linear-gradient-54)"/>
  <path d="M370.35,2.08A26,26,0,0,0,360.2,3.14c-8.44,2.27-16.71,6.32-25.43,5.72-1.72-.12-3.7-.33-4.92.9a3.74,3.74,0,0,0-.2,4.44,10.66,10.66,0,0,0,3.49,3.19c-2,.95-2.16,4.06-.71,5.75s3.86,2.21,6.08,2.2c-1.94.44-2.31,3.43-.9,4.85s3.68,1.51,5.61,1a45.14,45.14,0,0,0,6.4-2.74c6-2.57,12.7-2.7,19.19-2.26,6.78.46,14.25,1.91,18.35,7.37a13.61,13.61,0,0,1,2.11,11.83c-1.29,4.34-4.8,8.25-4.17,12.74,3-.72,3.76-5.47,6.81-6.14,2.41-.54,4.49-.73,6.57,2.19.63.88,2.34-2.45,3-3.32,2.3-3.12,4.64-6.33,5.71-10.06a16.69,16.69,0,0,0-3.65-15.49,10.27,10.27,0,0,1-2.13-2.73,15.8,15.8,0,0,1-.57-3.61c-.59-3.56-3.56-6.17-6.39-8.39Q387.36,5,379.89,0c-1.09,2.7-.4,4.91-3,4.8C375.13,4.73,372.48,2.36,370.35,2.08Z" fill="#3f3d56"/>
  <path d="M388.51,76.22a5.47,5.47,0,0,1-1.71-5.4,8.93,8.93,0,0,1,3.2-4.88,18.63,18.63,0,0,1,4.59-2.71C394.53,64.54,388,75.86,388.51,76.22Z" fill="#3f3d56"/>
  <path d="M390.3,57.93a4.18,4.18,0,0,1,.76-2.09,2.8,2.8,0,0,1,.93-.58,4,4,0,0,1,1.81-.42,1.77,1.77,0,0,1,1.52,1,2.26,2.26,0,0,1,.12,1,6.83,6.83,0,0,1-4.91,6,1.23,1.23,0,0,1-.76,0,1.21,1.21,0,0,1-.63-.7,2.58,2.58,0,0,1-.06-2.37C389.54,59.08,390.1,58.83,390.3,57.93Z" fill="url(#linear-gradient-55)"/>
</svg>
