<svg id="Layer_1" data-name="Layer 1" xmlns="http://www.w3.org/2000/svg" xmlns:xlink="http://www.w3.org/1999/xlink" viewBox="0 0 403.41 327.52"><defs><linearGradient id="linear-gradient" x1="248.11" y1="234.79" x2="58.34" y2="451.02" gradientUnits="userSpaceOnUse"><stop offset="0" stop-opacity="0"/><stop offset="0.91" stop-opacity="0.8"/><stop offset="1"/></linearGradient><linearGradient id="linear-gradient-2" x1="38.39" y1="378.78" x2="424.01" y2="378.78" xlink:href="#linear-gradient"/><linearGradient id="linear-gradient-3" x1="218.87" y1="291.43" x2="220.75" y2="183.69" xlink:href="#linear-gradient"/><linearGradient id="linear-gradient-4" x1="222.04" y1="196.42" x2="217.37" y2="378.75" gradientUnits="userSpaceOnUse"><stop offset="0" stop-color="#fff" stop-opacity="0"/><stop offset="0.84" stop-color="#fff" stop-opacity="0.84"/><stop offset="0.97" stop-color="#fff"/></linearGradient><linearGradient id="linear-gradient-5" x1="94.5" y1="289.14" x2="92.46" y2="368.64" xlink:href="#linear-gradient-4"/><linearGradient id="linear-gradient-6" x1="313.18" y1="298.46" x2="311.36" y2="369.68" xlink:href="#linear-gradient-4"/><linearGradient id="linear-gradient-7" x1="145.51" y1="154.99" x2="42.64" y2="212.61" xlink:href="#linear-gradient"/><linearGradient id="linear-gradient-8" x1="133.45" y1="142.53" x2="127.98" y2="145.02" xlink:href="#linear-gradient"/><linearGradient id="linear-gradient-9" x1="128.05" y1="166.54" x2="116.88" y2="173.11" xlink:href="#linear-gradient"/><linearGradient id="linear-gradient-10" x1="117.27" y1="144.91" x2="129.63" y2="144.91" gradientUnits="userSpaceOnUse"><stop offset="0" stop-color="#ecc4d7"/><stop offset="0.42" stop-color="#efd4d1"/><stop offset="1" stop-color="#f2eac9"/></linearGradient><linearGradient id="linear-gradient-11" x1="80.07" y1="139.08" x2="108.81" y2="139.08" xlink:href="#linear-gradient-10"/><linearGradient id="linear-gradient-12" x1="133.14" y1="126.14" x2="149.38" y2="126.14" xlink:href="#linear-gradient-10"/><linearGradient id="linear-gradient-13" x1="127.07" y1="212.77" x2="160.43" y2="212.77" xlink:href="#linear-gradient"/><linearGradient id="linear-gradient-14" x1="157.39" y1="182.91" x2="140.68" y2="226.83" xlink:href="#linear-gradient-4"/><linearGradient id="linear-gradient-15" x1="131.04" y1="147.74" x2="136.41" y2="147.74" xlink:href="#linear-gradient-10"/><linearGradient id="linear-gradient-16" x1="132.76" y1="170.47" x2="139.76" y2="170.47" xlink:href="#linear-gradient-10"/><linearGradient id="linear-gradient-17" x1="124.34" y1="149.27" x2="132.7" y2="189.19" xlink:href="#linear-gradient-10"/><linearGradient id="linear-gradient-18" x1="136.12" y1="125.57" x2="156.39" y2="152.88" xlink:href="#linear-gradient-10"/></defs><title>64. slide on graphic-cart </title><path d="M265.48,127.05c61.08,24.36,64.2-9.3,80.53-13.22,38.85-9.3,27.53,41,37.27,57.75,7.21,12.39,16.22,23.67,23.31,36.13s12.28,26.64,10.82,40.91c-3,29-31.69,49.36-38.15,77.79-4,17.8.49,38.79-11.35,52.68-9.2,10.79-24.85,12.84-39,13.64q-27,1.53-54.16.61c-23.41-.79-47.51-3.16-68.17-14.2-12.36-6.6-22.95-16-34.65-23.76s-25.34-13.84-39.29-12.5c-7.31.7-14.41,3.43-21.75,3.2-13-.41-23.84-9.92-32.94-19.28-22.3-22.93-42.53-49.29-50.58-80.25a118.9,118.9,0,0,1,3-69.21c4.74-13.34,13.7-18.41,21.93-28.62,8.05-10,18.08-17.29,26-27.47C175.27-3,250.2,121,265.48,127.05Z" transform="translate(-23.6 -66.16)" fill="#2f55d4" opacity="0.15"/><path d="M424,378.78H38.39V128.92a3,3,0,0,1,6,0V372.78H424a3,3,0,0,1,0,6Z" transform="translate(-23.6 -66.16)" fill="#2f55d4"/><path d="M424,378.78H38.39V128.92a3,3,0,0,1,6,0V372.78H424a3,3,0,0,1,0,6Z" transform="translate(-23.6 -66.16)" fill="url(#linear-gradient)"/><path d="M424,378.78H38.39" transform="translate(-23.6 -66.16)" fill="url(#linear-gradient-2)"/><path d="M183.83,283.59c-10.29,0-19.45-5.73-27.77-17.33-9.38-13.07-16.72-32.19-23.81-50.69-9.5-24.76-19.32-50.36-33.23-58.36-9.86-5.67-19.49-5.79-28.63-.35a38.67,38.67,0,0,0-11.07,10.08,3,3,0,1,1-5-3.37c.19-.28,19.36-27.83,47.65-11.56,15.76,9.06,25.51,34.49,35.84,61.42,14.23,37.09,27.67,72.13,55,62.49,29.34-10.35,45.82-41.87,60.37-69.68,10.34-19.78,19.27-36.87,31.41-44.2,27.53-16.63,48.36,8.27,62.13,24.75,1.58,1.88,3.07,3.66,4.49,5.29,9.8,11.26,34.05,20.89,34.3,21a3,3,0,1,1-2.2,5.58c-1.05-.41-25.86-10.26-36.63-22.63-1.46-1.68-3-3.48-4.56-5.38-13.94-16.68-31.3-37.43-54.43-23.46C277,173.64,268,190.82,258.49,209c-15.05,28.79-32.12,61.42-63.68,72.56A33,33,0,0,1,183.83,283.59Z" transform="translate(-23.6 -66.16)" fill="#2f55d4"/><g opacity="0.36" style="isolation:isolate"><path d="M183.83,283.59c-10.29,0-19.45-5.73-27.77-17.33-9.38-13.07-16.72-32.19-23.81-50.69-9.5-24.76-19.32-50.36-33.23-58.36-9.86-5.67-19.49-5.79-28.63-.35a38.67,38.67,0,0,0-11.07,10.08,3,3,0,1,1-5-3.37c.19-.28,19.36-27.83,47.65-11.56,15.76,9.06,25.51,34.49,35.84,61.42,14.23,37.09,27.67,72.13,55,62.49,29.34-10.35,45.82-41.87,60.37-69.68,10.34-19.78,19.27-36.87,31.41-44.2,27.53-16.63,48.36,8.27,62.13,24.75,1.58,1.88,3.07,3.66,4.49,5.29,9.8,11.26,34.05,20.89,34.3,21a3,3,0,1,1-2.2,5.58c-1.05-.41-25.86-10.26-36.63-22.63-1.46-1.68-3-3.48-4.56-5.38-13.94-16.68-31.3-37.43-54.43-23.46C277,173.64,268,190.82,258.49,209c-15.05,28.79-32.12,61.42-63.68,72.56A33,33,0,0,1,183.83,283.59Z" transform="translate(-23.6 -66.16)" fill="url(#linear-gradient-3)"/></g><path d="M383.61,350.27c.16,7.17.41,11.68.8,12.07.07.08-.23.15-.89.21-1.27.13-3.85.23-7.57.33-19.88.49-72.13.52-128.84.37-39.67-.1-81.52-.29-116-.47-44-.22-76-.44-76-.44V178.8S70.76,147.15,97,162.19c30.19,17.32,39.3,142.49,97.46,125.06,52-15.57,67.52-98.83,95.17-116.75,23.47-15.21,41.3,13.62,55.91,29.46,13.33,14.46,38.89,23.19,38.89,23.19s-.49,30.44-.79,62.86C383.41,310.33,383.31,335.75,383.61,350.27Z" transform="translate(-23.6 -66.16)" fill="#2f55d4"/><path d="M384.41,286.29s-.5,31.15-.8,64c0,4.09-.06,8.2-.09,12.28-18.87,1.87-328.38-.21-328.38-.21V242S70.76,210.3,97,225.34c30.19,17.32,36.3,116.87,94.46,99.45,52-15.57,70.52-73.23,98.17-91.15,23.47-15.2,41.3,13.62,55.91,29.47,11.94,12.95,33.71,21.3,38.1,22.9Z" transform="translate(-23.6 -66.16)" opacity="0.44" fill="url(#linear-gradient-4)"/><path d="M131.13,362.78c-44-.22-76-.44-76-.44V321.91S70.76,290.26,97,305.3C111,313.35,119.85,339.19,131.13,362.78Z" transform="translate(-23.6 -66.16)" opacity="0.44" fill="url(#linear-gradient-5)"/><path d="M376,362.88c-19.88.49-72.13.52-128.84.37,15.81-19.59,27.88-40.18,42.5-49.65,23.47-15.2,41.3,13.62,55.91,29.47C354,352.22,367.3,359.08,376,362.88Z" transform="translate(-23.6 -66.16)" opacity="0.44" fill="url(#linear-gradient-6)"/><path d="M109,144.83l-1.75,6.79c-.14.56-2.35,1.13-2.21,1.69a21.66,21.66,0,0,0,2.49,2.89c8.26,9.72,16,20.44,18.86,32.86a3.41,3.41,0,0,0,1.16,2.24,3.13,3.13,0,0,0,2.14.2,40.53,40.53,0,0,0,15.57-5.83,5.09,5.09,0,0,0,1.65-1.44c.86-1.33.41-3.09-.1-4.59a139.07,139.07,0,0,0-6.34-15.74,23.63,23.63,0,0,1-2-5,22,22,0,0,1-.06-6.78l.56-6a3.08,3.08,0,0,0-.11-1.45,3,3,0,0,0-.76-.94l-5-4.75-3.71,9.23a6.41,6.41,0,0,1-1.65,2.67c-2,1.61-7,1.69-9.48,1C114.72,150.84,111.52,147.25,109,144.83Z" transform="translate(-23.6 -66.16)" fill="#2f55d4"/><path d="M109,144.83l-1.75,6.79c-.14.56-2.35,1.13-2.21,1.69a21.66,21.66,0,0,0,2.49,2.89c8.26,9.72,16,20.44,18.86,32.86a3.41,3.41,0,0,0,1.16,2.24,3.13,3.13,0,0,0,2.14.2,40.53,40.53,0,0,0,15.57-5.83,5.09,5.09,0,0,0,1.65-1.44c.86-1.33.41-3.09-.1-4.59a139.07,139.07,0,0,0-6.34-15.74,23.63,23.63,0,0,1-2-5,22,22,0,0,1-.06-6.78l.56-6a3.08,3.08,0,0,0-.11-1.45,3,3,0,0,0-.76-.94l-5-4.75-3.71,9.23a6.41,6.41,0,0,1-1.65,2.67c-2,1.61-7,1.69-9.48,1C114.72,150.84,111.52,147.25,109,144.83Z" transform="translate(-23.6 -66.16)" fill="url(#linear-gradient-7)"/><path d="M130.63,147.46a4.39,4.39,0,0,1-1.29.7q1.86-4.62,3.71-9.22l1.14,1.08-1.92,4.77A6.29,6.29,0,0,1,130.63,147.46Z" transform="translate(-23.6 -66.16)" opacity="0.36" fill="url(#linear-gradient-8)" style="isolation:isolate"/><path d="M147.36,182.8a3.06,3.06,0,0,1-.46,1.43,5.09,5.09,0,0,1-1.65,1.44,40.53,40.53,0,0,1-15.57,5.83,3.13,3.13,0,0,1-2.14-.2,3.41,3.41,0,0,1-1.16-2.24c-2.9-12.42-10.6-23.14-18.85-32.86a20.38,20.38,0,0,1-2.49-2.89c-.14-.56,2.06-1.13,2.21-1.69.25-1,.45-1.76.63-2.49a7,7,0,0,0,.09.8,21,21,0,0,0,2.49,2.89c8.26,9.72,16,20.45,18.86,32.86a3.34,3.34,0,0,0,1.16,2.24,3.13,3.13,0,0,0,2.14.2A40.5,40.5,0,0,0,147.36,182.8Z" transform="translate(-23.6 -66.16)" opacity="0.36" fill="url(#linear-gradient-9)" style="isolation:isolate"/><path d="M129.61,140.61a17.86,17.86,0,0,1-1.36,7c-.24.5-.83.7-1.36,1.09a2.54,2.54,0,0,0-1,2.52,2.67,2.67,0,0,0,.43,1.1,1.1,1.1,0,0,1,.13,1.17,2.88,2.88,0,0,1-3.49,1c-2-.71-3.16-2.79-3.9-4.79a35.93,35.93,0,0,1-1.79-8.57c-.28-2.63,2.17-5.11,4.54-5.83a6.74,6.74,0,0,1,6.09,1.18,4.47,4.47,0,0,1,1.58,2.27A6,6,0,0,1,129.61,140.61Z" transform="translate(-23.6 -66.16)" fill="url(#linear-gradient-10)"/><path d="M108.81,145.56s-17.15-11.83-17.4-11.79-.08-6.25-.08-6.25-1.74-.34-1.71,1.93c0,0,0,0,0,0a1.21,1.21,0,0,1-2.13.3l-2.9-4s-1,.4-.92,1.16a23.33,23.33,0,0,0,1.74,3.59l-3.49-2.81a1.13,1.13,0,0,0-.72,1.45c.4,1.05,3.06,3.1,3.06,3.1l-3.89-.94a.9.9,0,0,0-.18,1c.32.55,3.79,1.92,3.79,1.92l-2.61.15a.93.93,0,0,0,.43,1.25,12.54,12.54,0,0,0,3.08.48s2.67,2.77,4.06,2.33a2.2,2.2,0,0,1,2.24.49l15,13.45,1.1-.79Z" transform="translate(-23.6 -66.16)" fill="url(#linear-gradient-11)"/><path d="M149.25,115.06a12.62,12.62,0,0,1-2.22,2.19s-.54,3.81-1.92,4.26h0a2.21,2.21,0,0,0-1.5,1.7l-5.48,20.47-5-4.79s7-19.63,7.2-19.74-3.59-5.12-3.59-5.12,1.21-1.29,2.52.57l0,0a1.21,1.21,0,0,0,1.89-1v-5s1.08-.28,1.43.41a23.79,23.79,0,0,1,.68,3.93l1.19-4.32a1.12,1.12,0,0,1,1.43.75c.29,1.08-.66,4.3-.66,4.3l2.6-3s.7.11.76.74-2,3.77-2,3.77l2.2-1.41A.94.94,0,0,1,149.25,115.06Z" transform="translate(-23.6 -66.16)" fill="url(#linear-gradient-12)"/><path d="M131.72,134.53a3.72,3.72,0,0,1-2.89,3.27,18.28,18.28,0,0,0-2.68.18c-.31.1-.59.27-.91.36a3.62,3.62,0,0,1-1,.06,8.76,8.76,0,0,0-4.23.52,1.27,1.27,0,0,0-.51.41,1.43,1.43,0,0,0-.16.71l-.21,3.66-.73-.82c-.12-.13-.32-.27-.44-.15a.32.32,0,0,0-.08.21,4.77,4.77,0,0,0,0,1.46,1.62,1.62,0,0,0,.78,1.17.5.5,0,0,1,.22.16.45.45,0,0,1,0,.26l-.25,2.52s0,.1,0,.13-.26,0-.35-.08a5.57,5.57,0,0,1-1.18-2.53,1.21,1.21,0,0,0-.18-.44,2,2,0,0,0-.4-.3,3,3,0,0,1-1-1.38,12,12,0,0,1-1-3,4.19,4.19,0,0,1,.57-3.06.66.66,0,0,0,.18-.34,1.11,1.11,0,0,0-.08-.36,1.62,1.62,0,0,1,.7-1.73,4.77,4.77,0,0,1,1.87-.67,3.55,3.55,0,0,1,1.71-2.5,6.89,6.89,0,0,1,3-.89c.94-.09,2-.16,2.56-1a3.5,3.5,0,0,1,.45-.72c.65-.58,1.48.07,2,.53.24-1.67,2-.9,2.75-.12A5.77,5.77,0,0,1,131.72,134.53Z" transform="translate(-23.6 -66.16)"/><path d="M156.36,235.84c-4.6-5.88-10.53-13.49-15.12-19.37-6-7.66-12.15-15.68-14.17-25.19l19.83-7.05s14.64,10,16.74,11.8,1.13,6,0,8.9-2.78,7.92-2.78,7.92l-6.28-1.44,1.62-9.88-12.3-5,9.71,20.71,8.09,15.54Z" transform="translate(-23.6 -66.16)"/><path d="M160.43,233.5l-4.07,2.34c-4.6-5.88-10.53-13.49-15.12-19.37-6-7.66-12.15-15.68-14.17-25.19l4.46-1.58c2.1,9.34,8.17,17.24,14.07,24.8C150.11,220.26,155.89,227.68,160.43,233.5Z" transform="translate(-23.6 -66.16)" fill="url(#linear-gradient-13)"/><polygon points="132.76 145.66 130.98 145.25 131.39 142.75 132.76 145.66"/><path d="M163.64,204.93c-.58,1.49-1.29,3.52-1.84,5.16s-.93,2.76-.93,2.76l-4.51-1L155,208.91l1.21-7.38-5.77-2.35-6.53-2.66,9.71,20.71,8.09,15.54-1.27.73c-4.54-5.82-10.32-13.24-14.83-19-5.9-7.56-12-15.46-14.07-24.8l15.37-5.47s14.64,10,16.74,11.8S164.78,202,163.64,204.93Z" transform="translate(-23.6 -66.16)" opacity="0.44" fill="url(#linear-gradient-14)"/><polygon points="132.76 145.66 130.98 145.25 131.39 142.75 132.76 145.66"/><polygon points="131.81 145.43 131.04 149.04 135.24 150.04 136.41 146.5 131.81 145.43" fill="url(#linear-gradient-15)"/><path d="M155.19,220.27l7.68,1.36s1.09-1.63,0-2.71a25.37,25.37,0,0,0-4-2.72l-4.19-1-1,2Z" transform="translate(-23.6 -66.16)"/><polygon points="132.76 169.68 136.41 173.88 139.76 171.78 137.31 167.06 132.76 169.68" fill="url(#linear-gradient-16)"/><path d="M159.85,241l1.5,3.27,10.2-5.07s.5-1.94-1.2-2.08a25.49,25.49,0,0,0-7,.87S159.44,240,159.85,241Z" transform="translate(-23.6 -66.16)"/><path d="M125.91,151.25a2.67,2.67,0,0,0,.43,1.1c0,.06,1,1.24-1.08,2.19-.39.19-1.94-.5-3-3.2a5,5,0,0,1-.51-2.39c0-.22.14-.48.36-.5a.54.54,0,0,1,.25.06,8.82,8.82,0,0,0,3.28.41,11.51,11.51,0,0,1,1.24-.19A2.54,2.54,0,0,0,125.91,151.25Z" transform="translate(-23.6 -66.16)" fill="url(#linear-gradient-17)"/><path d="M145.08,121.52a2.21,2.21,0,0,0-1.5,1.7l-5.48,20.47L136.34,142s5.78-18.64,6.44-19.3A7.16,7.16,0,0,1,145.08,121.52Z" transform="translate(-23.6 -66.16)" fill="url(#linear-gradient-18)"/></svg>