<svg id="Layer_1" data-name="Layer 1" xmlns="http://www.w3.org/2000/svg" xmlns:xlink="http://www.w3.org/1999/xlink" viewBox="0 0 509.34 478.33"><defs><linearGradient id="linear-gradient" x1="260.82" y1="233.23" x2="-265.13" y2="-1.03" gradientUnits="userSpaceOnUse"><stop offset="0" stop-opacity="0"/><stop offset="0.97"/></linearGradient><linearGradient id="linear-gradient-2" x1="422.37" y1="233.23" x2="-103.59" y2="-1.03" xlink:href="#linear-gradient"/><linearGradient id="linear-gradient-3" x1="583.91" y1="233.23" x2="57.96" y2="-1.03" xlink:href="#linear-gradient"/><linearGradient id="linear-gradient-4" x1="403.43" y1="558.9" x2="415.44" y2="385.82" xlink:href="#linear-gradient"/><linearGradient id="linear-gradient-5" x1="124.82" y1="223.17" x2="123.13" y2="413.51" xlink:href="#linear-gradient"/><linearGradient id="linear-gradient-6" x1="125.16" y1="406.89" x2="113.33" y2="-339.81" xlink:href="#linear-gradient"/><linearGradient id="linear-gradient-7" x1="292.8" y1="404.23" x2="280.98" y2="-342.47" xlink:href="#linear-gradient"/><linearGradient id="linear-gradient-8" x1="294.71" y1="404.2" x2="282.89" y2="-342.5" xlink:href="#linear-gradient"/><linearGradient id="linear-gradient-9" x1="288.09" y1="404.3" x2="276.26" y2="-342.39" xlink:href="#linear-gradient"/><linearGradient id="linear-gradient-10" x1="426.31" y1="402.12" x2="414.48" y2="-344.58" xlink:href="#linear-gradient"/><linearGradient id="linear-gradient-11" x1="457.91" y1="401.62" x2="446.08" y2="-345.08" xlink:href="#linear-gradient"/><linearGradient id="linear-gradient-12" x1="454.9" y1="401.66" x2="443.07" y2="-345.03" xlink:href="#linear-gradient"/><linearGradient id="linear-gradient-13" x1="205.57" y1="191.16" x2="204.44" y2="330.81" xlink:href="#linear-gradient"/><linearGradient id="linear-gradient-14" x1="364.13" y1="192.44" x2="363" y2="332.09" xlink:href="#linear-gradient"/><linearGradient id="linear-gradient-15" x1="335.89" y1="351.51" x2="352.2" y2="351.51" gradientUnits="userSpaceOnUse"><stop offset="0" stop-color="#ecc4d7"/><stop offset="0.42" stop-color="#efd4d1"/><stop offset="1" stop-color="#f2eac9"/></linearGradient><linearGradient id="linear-gradient-16" x1="472.5" y1="353.06" x2="482.11" y2="353.06" xlink:href="#linear-gradient-15"/><linearGradient id="linear-gradient-17" x1="402.77" y1="334.56" x2="430.46" y2="334.56" xlink:href="#linear-gradient-15"/><linearGradient id="linear-gradient-18" x1="367.34" y1="465.04" x2="373.73" y2="465.04" xlink:href="#linear-gradient-15"/><linearGradient id="linear-gradient-19" x1="384.8" y1="465.04" x2="391.18" y2="465.04" xlink:href="#linear-gradient-15"/><linearGradient id="linear-gradient-20" x1="380.89" y1="452.86" x2="434.86" y2="303.9" xlink:href="#linear-gradient"/><linearGradient id="linear-gradient-21" x1="456.4" y1="372.18" x2="435.42" y2="440.88" xlink:href="#linear-gradient"/><linearGradient id="linear-gradient-22" x1="377.79" y1="347.65" x2="402.59" y2="387.84" gradientUnits="userSpaceOnUse"><stop offset="0" stop-color="#fff" stop-opacity="0"/><stop offset="0.09" stop-color="#fff" stop-opacity="0.03"/><stop offset="0.22" stop-color="#fff" stop-opacity="0.11"/><stop offset="0.38" stop-color="#fff" stop-opacity="0.25"/><stop offset="0.56" stop-color="#fff" stop-opacity="0.43"/><stop offset="0.76" stop-color="#fff" stop-opacity="0.67"/><stop offset="0.97" stop-color="#fff" stop-opacity="0.96"/><stop offset="1" stop-color="#fff"/></linearGradient><linearGradient id="linear-gradient-23" x1="474.41" y1="367.56" x2="448.88" y2="370.51" xlink:href="#linear-gradient-22"/><linearGradient id="linear-gradient-24" x1="414.88" y1="491.65" x2="367.2" y2="492.78" xlink:href="#linear-gradient"/><linearGradient id="linear-gradient-25" x1="430.9" y1="505.21" x2="393.94" y2="506.08" xlink:href="#linear-gradient"/></defs><title>49. Wire Frame</title><ellipse cx="377.36" cy="472.51" rx="69.31" ry="5.82" fill="#2f55d4" opacity="0.25"/><rect width="509.34" height="315.07" rx="27.6" fill="#2f55d4" opacity="0.25"/><path d="M147.53,376.41c39.89,1.75,80.83-2.81,119,8.85,13.85,4.22,27.78,11.17,35.42,23.47,7.5,12.07,8.8,28.84,20.78,36.48,6.31,4,14.39,4.51,20.62,8.65,9.2,6.12,11.92,18.55,11.16,29.58s-4.2,21.81-4,32.86c.15,10.57,4,21.51,12.26,28.13s21.2,7.67,29.2.76c7.07-6.12,8.76-16.43,8.41-25.78s-2.27-18.78-.53-28c2.34-12.37,11.13-23.26,11.21-35.85,0-6.64-2.4-13-3.78-19.52-5.33-24.91,6.25-52.56,27.74-66.25,13-8.25,28.71-11.62,41.05-20.77,8.95-6.64,15.54-15.89,22-25,4.6-6.49,9.36-13.42,10-21.36.73-9.8-5-18.8-10.77-26.77a485.7,485.7,0,0,0-37.67-46,6.44,6.44,0,0,0-7.72-2.45c-18.62,3.77-38.74,8.9-50.24,24-15.77,20.72-8.58,50.22-13.67,75.75a77.62,77.62,0,0,1-14.17,31.53c-3.27,4.31-7.44,8.53-12.8,9.28-8.83,1.23-16-7.43-18.75-15.91s-3.26-17.93-8.32-25.27c-7.28-10.59-21.6-13.46-34.44-13.68-22.36-.37-45.21,4.9-63.63,17.57-1.39,1-2.84,2.08-3.3,3.71-.41,1.45.07,3-.23,4.5-.64,3.14-4.28,4.51-7.38,5.34-10.82,2.89-23.88,5.26-32-2.49-4-3.86-5.88-9.54-9.84-13.46-6-6-15.43-6.56-23.92-6.64-17.74-.17-73.25-8.81-76.51,16.68C78.76,368.78,127.2,375.52,147.53,376.41Z" transform="translate(-27.98 -77.39)" fill="#2f55d4" opacity="0.25"/><rect x="50.12" y="64.2" width="108.68" height="198.78" fill="url(#linear-gradient)"/><rect x="211.66" y="64.2" width="108.68" height="198.78" fill="url(#linear-gradient-2)"/><rect x="373.21" y="64.2" width="108.68" height="198.78" fill="url(#linear-gradient-3)"/><path d="M390.3,443.91a2.05,2.05,0,0,0-1.85,2c0,3.8,0,12.55,0,17.73-.05,6.1,4.52,63.49,5.42,74.69a2.06,2.06,0,0,0,2.05,1.9h5a2,2,0,0,0,2-1.84l7.16-65.05a2,2,0,0,1,1.56-1.78h0a2.05,2.05,0,0,1,2.54,2.08l-2.54,64.44a2.07,2.07,0,0,0,2.06,2.15h5.53a2.05,2.05,0,0,0,2-1.74c1.68-10.72,10.59-67.67,11.27-71.75.61-3.64.47-19.24.4-25.12a2.07,2.07,0,0,0-2.28-2Z" transform="translate(-27.98 -77.39)" fill="#2f55d4"/><path d="M432.58,466.79c-.68,4.08-9.59,61-11.27,71.75a2.05,2.05,0,0,1-2,1.74h-5.53a2.07,2.07,0,0,1-2.06-2.15l2.54-64.44a2,2,0,0,0-2.05-2.14,2.12,2.12,0,0,0-.49.06,2,2,0,0,0-1.56,1.78L403,538.44a2,2,0,0,1-1.27,1.69,2,2,0,0,1-.77.15h-5a2.06,2.06,0,0,1-2.05-1.9c-.9-11.2-5.47-68.59-5.42-74.69.05-4.87,0-12.91,0-17V446a2.05,2.05,0,0,1,1.85-2l40.4-4.26a2.07,2.07,0,0,1,2.28,2C433.05,447.55,433.19,463.15,432.58,466.79Z" transform="translate(-27.98 -77.39)" fill="url(#linear-gradient-4)"/><rect x="37.82" y="54.83" width="114.84" height="201.85" fill="#2f55d4"/><rect x="199.91" y="54.83" width="114.84" height="201.85" fill="#2f55d4"/><rect x="361.99" y="54.83" width="114.84" height="201.85" fill="#2f55d4"/><path d="M162.4,262c-.64,6.87-.88,15.52-3.49,21.94-2.36,5.82-10.71,4.22-15.73,4.3q-13.11.22-26.21-.24-6.31-.22-12.61-.6c-3.66-.23-7.41,0-10.7-1.62a3.4,3.4,0,0,1-2.38-1.31c-2.39-3.21-2.06-7.91-2.23-11.79a44.11,44.11,0,0,1,1-12.61,1.4,1.4,0,0,1,2.67,0c1,4.19,1.53,8.43,2.33,12.67.4,2.08,1.06,4.11,1.41,6.15,2.89-.33,6,.29,8.85.48q5.82.39,11.64.63,11.64.5,23.3.47c2.27,0,4.53,0,6.8-.05,1.12,0,3.26.31,4.71.16-.35-.36.54-2.06.76-3.16.37-1.81.7-3.63,1-5.45q1-5.87,1.5-11.8c.16-1.77,1.09-5.72.83-8.17-2.23-.09-4.93.65-6.88.83l-8.69.81q-8.69.82-17.37,1.74-9.16,1-18.32,1.82c-5.75.53-11.64.17-17.33.79-1.8.19-2.19-2.86-.42-3.15,8.84-1.46,17.52-3.94,26.48-5.19,8-1.12,16-2,24.06-2.93,3.86-.43,7.73-.87,11.59-1.26,3.24-.33,7.57-1.65,10.72-.3C165.4,247.6,162.84,257.32,162.4,262Z" transform="translate(-27.98 -77.39)" fill="url(#linear-gradient-5)"/><path d="M105.74,180.89a60.89,60.89,0,0,0,8.34,9.29c-6.72,6.38-13.87,13.87-16.81,22.46-1.38,4,4.26,5.77,6.43,2.71,3.06-4.31,5.43-9,8.81-13.11,2.14-2.61,4.43-5.09,6.79-7.51,7.7,6.39,15.82,12.24,22.3,20,3.42,4.09,9.33-1.82,5.87-5.87-6.57-7.68-14.92-13.25-22.81-19.41,7.26-7,14.59-13.89,20.93-21.8,1.88-2.34-1.22-5.67-3.38-3.37-7.06,7.5-15.09,14-22.72,20.91a83.44,83.44,0,0,1-10.3-10.79c-3.31-4.15-6.68-8.13-11.17-11.05-2-1.27-4.28,1.69-2.51,3.26C100,170.6,102.29,176.06,105.74,180.89Z" transform="translate(-27.98 -77.39)" fill="url(#linear-gradient-6)"/><path d="M261.68,192.15c7.74-3.4,13.34-11,19.87-16.17l3-2.37c2.63,2.07,5.24,4.18,7.92,6.23a105.44,105.44,0,0,0,12.66,8.48c4.49,2.51,10.13,6.19,15.4,5.16,2.46-.48,2.72-3.53,1.36-5.15-1.83-2.16-3.68-2.54-6.29-3.6a77.12,77.12,0,0,1-9-4.41c-4.54-2.59-8.77-5.65-13.07-8.6L290,169.29c1.11-.87,2.22-1.74,3.31-2.63,2-1.6,4-3.18,6-4.85,1.23-1.05,5-5.58,6.62-5.17a1.44,1.44,0,0,0,.77-2.78c-3.79-1-6.46,1.59-9.55,3.58-4.16,2.67-8.18,5.56-12.2,8.45a92.85,92.85,0,0,0-18.14-9.61c-2.61-1-4.49,3.38-1.92,4.54a77.23,77.23,0,0,1,14.68,8.93c-3.09,2.2-6.16,4.44-9.06,6.88-4,3.4-7.56,7.07-12.47,9.22C253.71,187.74,257.42,194,261.68,192.15Z" transform="translate(-27.98 -77.39)" fill="url(#linear-gradient-7)"/><path d="M329,214.74a544.35,544.35,0,0,0-69.36,3.34A4,4,0,0,0,252.2,220c-.31,6.18-.24,12.4-.32,18.6,0,3.66-1.08,8.75,2.73,10.89s10.68.37,14.93.09q9.61-.63,19.22-1.51c11.62-1.08,24-1.81,35.36-4.39,3.84-.87,5.33-3.2,5.84-7,.83-6.24,1.48-12.51,2.23-18.77C332.39,216.18,330.56,214.76,329,214.74ZM324,232c-.35,2.69.4,4.83-2.68,5.35-2.52.42-5.11.58-7.65.86-8.93,1-17.88,1.71-26.83,2.43q-6.73.54-13.46,1c-2.56.16-5.12.3-7.69.44-1.7.09-4.24-.31-5.77.28l-.21,0c0-.62,0-1.23,0-1.85l.12-5.58c.09-4.29.26-8.6.25-12.89,21.7-1.21,43.58-1.47,65.31-1Q324.71,226.5,324,232Z" transform="translate(-27.98 -77.39)" fill="url(#linear-gradient-8)"/><path d="M318.76,268.22c-11.6-.08-23.24,0-34.83.53-9.17.43-19.09.33-27.77,3.73-1.79-1.77-5.29-.35-5.67,2.5-1.1,8.25.33,17.19.88,25.48.13,2,1.69,4.08,3.91,3.91,16.89-1.37,34.08-3.74,51-3.31,3,.08,7.26,1.29,10.09.22,2.57-1,3.1-3.41,3.64-5.84a94.92,94.92,0,0,0,2-23.95A3.33,3.33,0,0,0,318.76,268.22Zm-5.17,25.44-.23,1-.28,0c-1-.67-3.52-.34-4.82-.42-3.55-.22-7.11-.24-10.66-.17-12.86.27-25.72,1.34-38.56,2.2-.19-6.75-.22-13.78-1.57-20.31,9.26-2.46,19.95-1.16,29.36-1.29,9.57-.13,19.14-.11,28.71,0,0,2.46-.07,4.93-.26,7.4C315,286,313.78,289.85,313.59,293.66Z" transform="translate(-27.98 -77.39)" fill="url(#linear-gradient-9)"/><path d="M430.94,201.48c3.11.39,6.6,1.23,9.62-.08,5.69-2.48,4.62-9.48,4.62-14.54,0-8.49.07-17,0-25.47-.05-6.4-2.5-8.62-8.86-7.66a66.32,66.32,0,0,1-25-1,3.62,3.62,0,0,0-3.89,1.45,1.91,1.91,0,0,0-1.95.66c-4,5.47-3.94,12.21-4.41,18.72-.29,4.13-.41,8.26-.48,12.4-.06,2.84-.91,7.18.7,9.81,1.2,1.95,3.44,2.21,5.49,2.54,4.18.68,8.38,1.21,12.59,1.74Zm-23.45-10.19c-1.05-5.59-.23-12.22-.4-17.76-.14-4.73-.58-9.78.48-14.45a3.59,3.59,0,0,0,1.71.9,79.9,79.9,0,0,0,15.39,2.07c4.31.13,8.53-.65,12.77-.94a1.34,1.34,0,0,1,0,.28c0,1.62,0,3.26,0,4.9v8.81c0,2.94,0,5.88,0,8.82,0,2.45.78,6.55,0,8.82-.39,1.16.17,1.14-1.21,1.67-.76.29-2.59-.28-3.39-.38-2.9-.35-5.8-.72-8.7-1.09s-5.8-.74-8.7-1.09C413.59,191.63,409.86,191.88,407.49,191.29Z" transform="translate(-27.98 -77.39)" fill="url(#linear-gradient-10)"/><path d="M420.57,219.61c-.63.06-1.26.09-1.88.15a2.2,2.2,0,0,0,0,4.4l.43,0a62,62,0,0,0,0,8.4c.09,2.64.1,5.31,2.81,6.65s6.59.79,9.52.91l12.6.51,26.18,1.07c4.2.18,8.4.38,12.6.51,2.7.09,5.65.31,7.75-1.76,3.05-3,4.15-13.3,1.91-16.83-1.47-2.33-4.24-2.33-6.67-2.58-4.58-.48-9.18-.84-13.78-1.17a346,346,0,0,0-47.43-.6A3.2,3.2,0,0,0,420.57,219.61Zm32.72,6c5.6.3,11.19.71,16.78,1.16,2.63.21,5.25.44,7.88.68,1.91.19,5.69,0,8.13.58.18,2.33.06,6-1,6.75s-6.49-.21-8-.28l-18.42-.83-17.46-.79-8.72-.4-3.88-.18c-.3,0-1.15-.13-1.94-.22-.19-2.51.12-5.06-.05-7.57C435.46,224.88,444.38,225.13,453.29,225.61Z" transform="translate(-27.98 -77.39)" fill="url(#linear-gradient-11)"/><path d="M484.74,256.4c-7.59-.53-15.28-.49-22.88-.6-14.83-.22-29.56.11-44.25,2.18-1.35.19-1.52,1.5-1,2.45a1.67,1.67,0,0,0-.08.2c-1,3-1,6.21-1.72,9.31a4.07,4.07,0,0,0,3.87,5.08q22.44-.19,44.86.6c6.32.24,13.64,1.6,19.88.59,6-1,6.6-7,7.25-12.09C491.31,259.23,489.62,256.74,484.74,256.4Zm-3,12.13c-1.6.93-6.46-.21-8.4-.32-6.17-.36-12.35-.59-18.52-.78q-15.61-.48-31.23-.44a15.62,15.62,0,0,0-.1-5.15c9.81.64,19.6.77,29.45,1,5.64.12,11.28.16,16.92.29l7.95.21,5,.16.7.07C483.27,265.62,482.78,267.9,481.7,268.53Z" transform="translate(-27.98 -77.39)" fill="url(#linear-gradient-12)"/><path d="M215.07,225.87a97.09,97.09,0,0,0-10.41-4.81,3.17,3.17,0,0,0-3.16.83,3.55,3.55,0,0,0-.7,1.06l-.13.37a3.13,3.13,0,0,0,.83,3.16,36,36,0,0,0,3.58,2.4l-1,.05c-3.68.17-7.6.22-11.14,1.3-3.2,1-3.39,5.79,0,6.68,3.59.94,7.45.87,11.14.89l1,0a29.43,29.43,0,0,0-3.44,4.48c-2.46,4.17,2.94,7.63,6.32,4.88,2.79-2.27,4.95-5.41,7.26-8.15,1.78-2.11,4.63-4.42,4.67-7.42S217.51,227.14,215.07,225.87Z" transform="translate(-27.98 -77.39)" fill="url(#linear-gradient-13)"/><path d="M376.22,225.78A42.9,42.9,0,0,0,366.11,221c-1.78-.49-5.38.05-5.19,2.69.14,2,1.55,3.57,3.39,4.86-1.76.19-3.53.3-5.31.32-2.52,0-5.33-.08-7.7.87a2.75,2.75,0,0,0-.65,4.94c3.53,2.48,8.59,2.49,13.26,2-1.43,1.89-3,3.76-2.93,6.22,0,2.22,2.33,4.32,4.61,3.51,2.87-1,4.05-3.47,5.73-5.86,2.14-3.05,4.27-6.1,6.37-9.18A4.14,4.14,0,0,0,376.22,225.78Z" transform="translate(-27.98 -77.39)" fill="url(#linear-gradient-14)"/><path d="M346.12,351c-.95.09-1.66-.81-2.22-1.59a33.07,33.07,0,0,0-5.57-6.07,8.17,8.17,0,0,0,1.9,5.26l-1.7-3.56c-.18-.38-.51-.82-.91-.69s-.39.49-.41.81a7.2,7.2,0,0,0,1.68,5.05l-1.13-2.65c-.17-.39-.42-.84-.85-.85s-.77.66-.78,1.18a5.84,5.84,0,0,0,2.22,4.67,3.35,3.35,0,0,0-2.4-1.94c-.32,1.26.64,2.48,1.61,3.36,2.91,2.68,12.86,9.79,14.55,2.47.44-1.89-.87-2.94-2-4.29-1.68-2.08-1.89-5.16-3.68-7C346.34,345.58,345.68,351.05,346.12,351Z" transform="translate(-27.98 -77.39)" fill="url(#linear-gradient-15)"/><path d="M472.8,347.52h.95q.39,1.91.63,3.84c.08.71.36,1.64,1.08,1.64a1.33,1.33,0,0,0,1-.73c1.42-2.1,1.58-4.76,1.81-7.28,0-.39.21-.9.6-.85s.42.44.45.76a27.73,27.73,0,0,1,0,5.39,9.09,9.09,0,0,1,.71-4.31c.41-.06.61.48.65.89a13.38,13.38,0,0,1-.38,4.59,16.38,16.38,0,0,1,.62-2.86c.09-.29.31-.64.6-.55s.27.33.29.54a10.45,10.45,0,0,1-.7,4.92,8.8,8.8,0,0,1,.58-2.31c.18-.09.34.18.36.39a6.58,6.58,0,0,1-1,3.5c-1.54,3-6,10.94-8.2,4.3C472.36,357.92,472.42,347.52,472.8,347.52Z" transform="translate(-27.98 -77.39)" fill="url(#linear-gradient-16)"/><path d="M412.11,313.69s-8,8.85-9.21,18.23,6.58,11.51,7.38,12.23,0,8.91,0,8.91,16.44,4.51,14.61,1.88c-3.76-5.38,2.3-12.1,2.3-12.1S440.91,309.73,412.11,313.69Z" transform="translate(-27.98 -77.39)" fill="url(#linear-gradient-17)"/><path d="M410.62,303.24a12.74,12.74,0,0,1,9-8.9,14.52,14.52,0,0,0-2.05,5.87,9.18,9.18,0,0,1,5.7-5.5,16,16,0,0,1,8.1-.46,13.88,13.88,0,0,0-4.08,2.64l5.85-1c-1.29.06-2.09,1.58-1.87,2.84a6,6,0,0,0,2.11,3.15c2.49,2.29,5.38,4.14,7.78,6.53s4.37,5.51,4.31,8.9c-.05,3.2-1.91,6.15-4.31,8.27a3.81,3.81,0,0,0-1.12,1.31,4.93,4.93,0,0,0-.19,1.63c-.15,3.29-3,5.72-5.78,7.52s-5.84,3.66-6.88,6.78a6.72,6.72,0,0,1-2.93-4.77,4.32,4.32,0,0,0-2.54,2.13,5.86,5.86,0,0,1-1.2-3.65,6.61,6.61,0,0,0-2.52,2l.1-9.07c.94,1.6,3.43.72,4.79-.53,1.51-1.4,2.83-3.6,1.87-5.42-.87-1.63-3.25-1.93-4.9-1.08a9.66,9.66,0,0,0-3.62,4.11c-1.05-1.38-.33-3.37.56-4.86s1.94-3,1.43-4.71C411.59,318.24,409.36,308,410.62,303.24Z" transform="translate(-27.98 -77.39)" fill="#25233a"/><path d="M475.94,362l-.3.61c-2.32,4.66-17.42,34.56-23.91,35.6-7,1.12-15.77-8.26-15.77-8.26l0,.94-.89,42.25a11.26,11.26,0,0,1-10.51,11l-26.49,1.79-3.56.24a8.39,8.39,0,0,1-8.91-9.1L390,387.62s-9.81,12-17.92,9.81-24.78-37.76-24.78-37.76l4.84-3.21L374,376.69s1.41-1.13,9-12.95,18.3-13.24,22-14.08a20.25,20.25,0,0,1,5.29.2c8,.94,21.75,3.85,25.4,5.08,4.79,1.63,9,18.65,13.52,21.75s20.08-17.95,20.54-18.57h0l2.71,1.69Z" transform="translate(-27.98 -77.39)" fill="#2f55d4"/><polygon points="367.35 462.89 367.35 467.2 373.35 466.73 373.73 462.89 367.35 462.89" fill="url(#linear-gradient-18)"/><polygon points="384.8 462.89 384.8 467.2 390.81 466.73 391.18 462.89 384.8 462.89" fill="url(#linear-gradient-19)"/><path d="M401.9,542.36a8.87,8.87,0,0,1-5.1,1.59,1.8,1.8,0,0,1-1-.22c-.3-.2-.48-.56-.79-.75a1.91,1.91,0,0,0-1.68.16l-4.1,1.79a9.46,9.46,0,0,0-4.29,2.93,2.78,2.78,0,0,0-.55,1.63,3.12,3.12,0,0,0,1.5,2.25,10,10,0,0,0,5.93,1.64,29.47,29.47,0,0,0,6.18-.91,5.37,5.37,0,0,0,2.84-1.25,4.38,4.38,0,0,0,1-2.19c.25-1.19.23-2.4.46-3.58C402.33,545.2,402.26,542.1,401.9,542.36Z" transform="translate(-27.98 -77.39)" fill="#25233a"/><path d="M417.22,544.5c.57-.17,1.31-2.07,1.9-2.15,1.2-.16,2.33,1.16,3.35,1.82a17.78,17.78,0,0,1,4.45,3.58c1,1.22,1.54,3.11.48,4.23-.75.79-4.16.84-3.07.83,2,0-4,0-6,0a22.85,22.85,0,0,1-3.19-.33c-4.65-.68-3.05-5.18-3.17-7.51C411.7,540.24,414.59,545.28,417.22,544.5Z" transform="translate(-27.98 -77.39)" fill="#25233a"/><path d="M396,437.23a14.11,14.11,0,0,0,2.06,8.67l-3.56.24a8.39,8.39,0,0,1-8.91-9.1L390,387.62c.63-4,9.22-10.43,9-7.18C397.39,405.41,396.22,433.48,396,437.23Z" transform="translate(-27.98 -77.39)" fill="url(#linear-gradient-20)"/><path d="M475.64,362.58c-2.32,4.66-17.42,34.56-23.91,35.6-7,1.12-15.77-8.26-15.77-8.26l0,.94a16.59,16.59,0,0,1,.61-7.1c.18-.6.52-1.29,1.15-1.33s.89.37,1.23.73a30.09,30.09,0,0,0,8,6.14,8.05,8.05,0,0,0,3.9,1.14c1.8-.08,3.37-1.19,4.82-2.27a20.23,20.23,0,0,0,3.4-2.92c2-2.36,2.88-5.49,4-8.39,2-5,5.05-9.45,8.13-13.84a3.82,3.82,0,0,1,1.72-1.59A2.43,2.43,0,0,1,475.64,362.58Z" transform="translate(-27.98 -77.39)" fill="url(#linear-gradient-21)"/><path d="M410.28,349.86a92.59,92.59,0,0,0-11.29,5.9c-6.53,3.95-21,25.72-25,26.28s-21.91-25.58-21.91-25.58L374,376.69s1.41-1.13,9-12.95,18.3-13.24,22-14.08A20.25,20.25,0,0,1,410.28,349.86Z" transform="translate(-27.98 -77.39)" fill="url(#linear-gradient-22)"/><path d="M472.46,359.8s-6.41,12.56-13,18.31a7,7,0,0,1-10.16-1.33l-.06-.09c4.43,3.05,20.08-17.95,20.54-18.57h0Z" transform="translate(-27.98 -77.39)" fill="url(#linear-gradient-23)"/><path d="M401.71,540.28h-5.8a2.06,2.06,0,0,1-2.05-1.9c-.9-11.2-5.47-68.59-5.42-74.69.05-4.87,0-12.91,0-17l1.85-2.77,7.75,2s-1.78,24.58,0,35.06c1.72,10.14,3.54,56.23,3.65,59.17C401.71,540.23,401.71,540.28,401.71,540.28Z" transform="translate(-27.98 -77.39)" fill="url(#linear-gradient-24)"/><path d="M416,540.28h-2.22a2.07,2.07,0,0,1-2.06-2.15l2.54-64.44a2,2,0,0,0-2.05-2.14c2.05-1.84,6,0,6.82,7.42C420.63,494.58,416,540.28,416,540.28Z" transform="translate(-27.98 -77.39)" fill="url(#linear-gradient-25)"/></svg>